<svg width="1676" height="800" viewBox="0 0 1676 800" fill="none" xmlns="http://www.w3.org/2000/svg">
<path d="M1241.6 723.04C1259.85 730.135 1284.82 669.322 1288.87 668.308C1291.72 667.596 1302.59 658.498 1309.54 652.402C841.418 461.764 565.482 409.69 51.041 407.429C125.193 464.431 292.472 558.64 336.128 574.048C387.819 592.292 674.655 668.308 801.35 685.539C928.044 702.769 890.543 697.702 896.624 704.796C911.827 737.23 932.098 717.973 945.275 738.244C958.451 758.515 970.613 752.433 983.79 753.447C996.966 754.461 997.979 762.569 997.979 765.61C1046.63 795.003 1029.4 766.623 1061.83 776.759C1094.27 786.894 1090.97 723.04 1096.04 723.04C1188.27 740.271 1186.49 651.078 1241.6 723.04Z" fill="#E89A5C"/>
<path d="M461.809 94.6364C402.347 103.083 270.653 128.895 219.569 164.572C182.72 190.308 134.394 221.107 95.24 246.061L95.2378 246.062C66.545 264.349 42.7776 279.496 32.0618 287.212C26.3858 291.15 39.1567 309.124 46.2516 317.618H32.0618C31.1758 317.618 30.0111 317.495 28.6488 317.35C22.2186 316.666 11.3867 315.513 4.6958 324.713C-0.477331 331.826 7.55123 348.841 14.0419 362.596C17.7249 370.401 20.9127 377.157 20.9127 380.459C26.8997 387.706 37.3929 396.937 51.041 407.429C565.482 409.69 841.418 461.764 1309.54 652.402C1310.51 651.554 1311.4 650.765 1312.18 650.064C1297.99 663.241 1372.99 723.04 1378.06 723.04C1384.14 756.488 1480.46 704.796 1486.54 704.796C1480.24 666.929 1466.52 667.78 1516.04 652.402C1493.08 602.33 1504.93 611.057 1545.04 589.542C1511.62 543.315 1516.87 534.286 1558.04 509.042C1533.43 476.241 1552.89 474.344 1578.54 441.542C1537.52 403.418 1529.6 384.708 1558.04 345.998C1516.98 317.461 1518.13 312.426 1545.04 283.158C1539.05 249.556 1565.64 235.174 1530.1 238.561C1507.88 240.679 1479.42 243.629 1458.13 252.751L1456.84 253.303C1448.56 256.85 1444.34 258.66 1440.63 261.226C1435.47 264.807 1431.33 269.859 1418.6 283.158C1401.7 300.833 1388.87 302.776 1383.65 303.566C1381.99 303.818 1381.1 303.952 1381.1 304.442C1381.1 305.715 1376.31 309.383 1371.99 312.691C1369.43 314.652 1367.03 316.486 1365.9 317.618C1346.14 351.492 1317.65 362.654 1297.44 370.567C1295.89 371.178 1294.38 371.769 1292.92 372.35C1272.65 380.459 1214.88 360.188 1214.88 357.147C1201.91 356.336 1195.96 349.377 1194.61 345.998C1202.55 345.998 1205.4 346.425 1206.7 345.201C1209.21 342.832 1205.88 334.274 1222.35 304.442C1224.66 300.26 1227.92 299.801 1231.73 299.264C1234.74 298.839 1238.1 298.365 1241.6 295.958C1248.92 290.927 1250.46 291.262 1252 291.596C1253.86 292.002 1255.72 292.407 1267.96 283.158C1270.32 281.368 1274.21 278.068 1279.19 273.831C1291.44 263.425 1278 222.102 1297.44 208.87C1315.63 196.501 1349.17 218.163 1349.99 215.695C1324.84 192.588 1350.73 213.489 1353.1 211.833C1357.44 208.79 1360.87 208.833 1363.84 208.87C1367.79 208.92 1382.28 203.151 1374.38 201.698C1324.84 192.588 1322.32 173.042 1378.74 192.588L1378.75 192.573C1381.69 186.492 1382.36 185.096 1382.49 183.454L1382.59 182.089C1383.54 169.809 1332.72 176.953 1329.78 173.042C1328.04 170.71 1379.74 154.841 1380 153.281C1329.78 160.542 1380.31 151.396 1379.45 151.396C1378.59 151.396 1378.27 150.595 1377.73 149.208C1377 147.331 1333.28 152.704 1329.78 149.208C1332.63 149.208 1372.17 139.084 1368.61 136.967C1365.84 135.315 1362.73 133.471 1361.85 132.138C1361.48 131.587 1361.14 131.011 1360.81 130.433C1359.29 127.825 1316.85 137.486 1312.18 136.967C1304.46 136.11 1342.47 123.221 1335.62 121.832L1335.61 121.83C1334.37 121.578 1332.99 121.3 1331.44 120.989C1325.62 119.826 1325.15 116.996 1324.84 115.176C1324.61 113.824 1324.48 113.03 1322.32 113.894C1319.99 114.823 1255.54 128.055 1231.73 121.832C1203.6 114.48 1215.18 86.9718 1209.81 88.5551C1119.54 115.176 1202.8 88.1765 1197.5 86.2282C1188.97 83.0866 1104.95 97.1388 1073.04 94.6364C1032.33 91.4438 1072.82 60.194 1060.68 55.2412C1057.4 53.9046 1055.38 53.0807 1054.74 53.0807C1051.37 45.6721 1038.16 44.9767 1028.18 44.4518C1023.15 44.1868 1018.94 43.9653 1017.24 42.9452C999.019 29.065 985.999 31.52 980.719 32.5157C979.83 32.6833 979.16 32.8096 978.722 32.8096C959.47 12.4582 956.935 16.285 953.62 21.2875C950.827 25.5032 947.481 30.5538 933.112 22.674C910.595 10.3261 906.297 15.676 901.566 21.5646C899.695 23.8931 897.756 26.3058 894.597 27.7418C890.336 29.6787 890.516 29.3948 891.46 27.9088C892.986 25.5065 896.508 19.9625 886.488 15.5791C870.272 8.48416 845.946 22.674 851.014 22.674C856.082 22.674 842.906 28.7554 838.851 15.5791C835.608 5.03805 820.607 7.1328 813.512 9.49781C809.12 15.917 797.498 24.9039 786.146 9.49781C775.168 -5.40094 759.514 8.83257 752.384 18.6475C752.23 19.07 751.978 19.3993 751.686 19.6334C751.908 19.3107 752.141 18.9817 752.384 18.6475C753.117 16.6306 751.606 12.4908 741.55 6.45715C729.387 -0.840409 716.211 12.2006 711.143 19.6334C704.386 16.2548 689.453 9.49781 683.777 9.49781C678.102 9.49781 667.898 18.2819 663.506 22.674C665.533 20.309 662.493 14.3628 634.113 9.49781C619.168 29.7184 616.423 25.5364 611.989 18.7802C611.312 17.7473 610.594 16.6543 609.788 15.5791C604.923 9.09234 580.733 24.3632 569.246 32.8095C565.192 28.0796 553.84 21.4577 540.866 32.8095C534.958 37.9791 529.723 45.032 525.454 50.7826C518.006 60.8168 513.5 66.8861 513.5 52.0671C513.5 33.4177 479.039 72.6761 461.809 94.6364Z" fill="#D03D26"/>
<path d="M1382.49 183.454L1382.59 182.089M1382.49 183.454C1382.36 185.096 1381.69 186.492 1378.75 192.573M1382.49 183.454C1382.52 182.991 1382.56 182.536 1382.59 182.089M1458.13 252.751C1479.42 243.629 1507.88 240.679 1530.1 238.561C1565.64 235.174 1539.05 249.556 1545.04 283.158C1518.13 312.426 1516.98 317.461 1558.04 345.998C1529.6 384.708 1537.52 403.418 1578.54 441.542C1552.89 474.344 1533.43 476.241 1558.04 509.042C1516.87 534.286 1511.62 543.315 1545.04 589.542C1504.93 611.057 1493.08 602.33 1516.04 652.402C1466.52 667.78 1480.24 666.929 1486.54 704.796C1480.46 704.796 1384.14 756.488 1378.06 723.04C1372.99 723.04 1297.99 663.241 1312.18 650.064C1311.4 650.765 1310.51 651.554 1309.54 652.402M1458.13 252.751L1456.84 253.303M1458.13 252.751C1457.69 252.94 1457.26 253.123 1456.84 253.303M32.0618 317.618C36.116 317.618 43.2109 317.618 46.2516 317.618M32.0618 317.618H46.2516M32.0618 317.618C31.1758 317.618 30.0111 317.495 28.6488 317.35C22.2186 316.666 11.3867 315.513 4.6958 324.713C-0.477331 331.826 7.55123 348.841 14.0419 362.596C17.7249 370.401 20.9127 377.157 20.9127 380.459C26.8997 387.706 37.3929 396.937 51.041 407.429M46.2516 317.618C39.1567 309.124 26.3858 291.15 32.0618 287.212C42.7776 279.496 66.545 264.349 95.2378 246.062L95.24 246.061C134.394 221.107 182.72 190.308 219.569 164.572C270.653 128.895 402.347 103.083 461.809 94.6364C479.039 72.6761 513.5 33.4177 513.5 52.0671C513.5 66.8861 518.006 60.8168 525.454 50.7826C529.723 45.032 534.958 37.9791 540.866 32.8095C553.84 21.4577 565.192 28.0796 569.246 32.8095C580.733 24.3632 604.923 9.09234 609.788 15.5791C610.594 16.6543 611.312 17.7473 611.989 18.7802C616.423 25.5364 619.168 29.7184 634.113 9.49781C662.493 14.3628 665.533 20.309 663.506 22.674C667.898 18.2819 678.102 9.49781 683.777 9.49781C689.453 9.49781 704.386 16.2548 711.143 19.6334C716.211 12.2006 729.387 -0.840409 741.55 6.45715C751.606 12.4908 753.117 16.6306 752.384 18.6475M51.041 407.429C125.193 464.431 292.472 558.64 336.128 574.048C387.819 592.292 674.655 668.308 801.35 685.539C928.044 702.769 890.543 697.702 896.624 704.796C911.827 737.23 932.098 717.973 945.275 738.244C958.451 758.515 970.613 752.433 983.79 753.447C996.966 754.461 997.979 762.569 997.979 765.61C1046.63 795.003 1029.4 766.623 1061.83 776.759C1094.27 786.894 1090.97 723.04 1096.04 723.04C1188.27 740.271 1186.49 651.078 1241.6 723.04C1259.85 730.135 1284.82 669.322 1288.87 668.308C1291.72 667.596 1302.59 658.498 1309.54 652.402M51.041 407.429C565.482 409.69 841.418 461.764 1309.54 652.402M752.384 18.6475C759.514 8.83257 775.168 -5.40094 786.146 9.49781C797.498 24.9039 809.12 15.917 813.512 9.49781C820.607 7.1328 835.608 5.03805 838.851 15.5791C842.906 28.7554 856.082 22.674 851.014 22.674C845.946 22.674 870.272 8.48416 886.488 15.5791C896.508 19.9625 892.986 25.5065 891.46 27.9088C890.516 29.3948 890.336 29.6787 894.597 27.7418C897.756 26.3058 899.695 23.8931 901.566 21.5646C906.297 15.676 910.595 10.3261 933.112 22.674C947.481 30.5538 950.827 25.5032 953.62 21.2875C956.935 16.285 959.47 12.4582 978.722 32.8096C979.16 32.8096 979.83 32.6833 980.719 32.5157C985.999 31.52 999.019 29.065 1017.24 42.9452C1018.94 43.9653 1023.15 44.1868 1028.18 44.4518C1038.16 44.9767 1051.37 45.6721 1054.74 53.0807C1055.38 53.0807 1057.4 53.9046 1060.68 55.2412C1072.82 60.194 1032.33 91.4438 1073.04 94.6364C1104.95 97.1388 1188.97 83.0866 1197.5 86.2282C1202.8 88.1765 1119.54 115.176 1209.81 88.5551C1215.18 86.9718 1203.6 114.48 1231.73 121.832C1255.54 128.055 1319.99 114.823 1322.32 113.894C1324.48 113.03 1324.61 113.824 1324.84 115.176C1325.15 116.996 1325.62 119.826 1331.44 120.989C1332.99 121.3 1334.37 121.578 1335.61 121.83M752.384 18.6475C752.23 19.07 751.978 19.3993 751.686 19.6334C751.908 19.3107 752.141 18.9817 752.384 18.6475ZM1382.59 182.089C1383.54 169.809 1332.72 176.953 1329.78 173.042C1328.04 170.71 1379.74 154.841 1380 153.281C1329.78 160.542 1380.31 151.396 1379.45 151.396C1378.59 151.396 1378.27 150.595 1377.73 149.208C1377 147.331 1333.28 152.704 1329.78 149.208C1332.63 149.208 1372.17 139.084 1368.61 136.967C1365.84 135.315 1362.73 133.471 1361.85 132.138C1361.48 131.587 1361.14 131.011 1360.81 130.433C1359.29 127.825 1316.85 137.486 1312.18 136.967C1304.46 136.11 1342.47 123.221 1335.62 121.832M1378.75 192.573L1378.74 192.588M1378.75 192.573C1378.75 192.578 1378.75 192.583 1378.74 192.588M1335.62 121.832L1335.61 121.83M1335.62 121.832C1335.61 121.831 1335.61 121.83 1335.61 121.83M1456.84 253.303C1448.56 256.85 1444.34 258.66 1440.63 261.226C1435.47 264.807 1431.33 269.859 1418.6 283.158C1401.7 300.833 1388.87 302.776 1383.65 303.566C1381.99 303.818 1381.1 303.952 1381.1 304.442C1381.1 305.715 1376.31 309.383 1371.99 312.691C1369.43 314.652 1367.03 316.486 1365.9 317.618C1346.14 351.492 1317.65 362.654 1297.44 370.567C1295.89 371.178 1294.38 371.769 1292.92 372.35C1272.65 380.459 1214.88 360.188 1214.88 357.147C1201.91 356.336 1195.96 349.377 1194.61 345.998C1202.55 345.998 1205.4 346.425 1206.7 345.201C1209.21 342.832 1205.88 334.274 1222.35 304.442C1224.66 300.26 1227.92 299.801 1231.73 299.264C1234.74 298.839 1238.1 298.365 1241.6 295.958C1248.92 290.927 1250.46 291.262 1252 291.596C1253.86 292.002 1255.72 292.407 1267.96 283.158C1270.32 281.368 1274.21 278.068 1279.19 273.831C1291.44 263.425 1278 222.102 1297.44 208.87C1315.63 196.501 1349.17 218.163 1349.99 215.695C1324.84 192.588 1350.73 213.489 1353.1 211.833C1357.44 208.79 1360.87 208.833 1363.84 208.87C1367.79 208.92 1382.28 203.151 1374.38 201.698C1324.84 192.588 1322.32 173.042 1378.74 192.588" stroke="black" stroke-width="6.08133"/>
<path d="M459.136 96.2887C459.559 96.2887 491.773 96.3537 563.728 100.621C651.341 105.816 745.966 136.148 835.475 166.861C969.116 212.718 1025.31 255.903 1081.41 284.246C1100.02 292.941 1127.9 304.772 1147.91 315.121C1167.91 325.469 1179.2 333.977 1192.95 345.623" stroke="black" stroke-width="4.05422" stroke-linecap="round"/>
<path d="M45.6084 315.216C45.6084 315.258 54.7304 317.243 64.2889 314.905C78.0819 311.531 85.7857 309.096 90.0595 307.147C94.4437 304.759 96.4622 303.212 97.9065 301.81C98.5892 301.082 99.1699 300.319 100.34 298.999" stroke="black" stroke-width="8.10844" stroke-linecap="round"/>
<path d="M542.75 251.923C521.275 265.734 482.912 285.576 461.868 358.285C479.637 403.625 547.55 467.276 609.947 450.132C687.943 428.703 734.847 456.483 776.44 398.589C818.033 340.696 693.939 391.427 655.314 321.172C624.415 264.968 584.566 248.178 542.75 251.923Z" fill="#D03D26" stroke="black" stroke-width="5"/>
<ellipse cx="270.541" cy="216.042" rx="58.5" ry="55" fill="#F5F5F5"/>
<ellipse cx="250.864" cy="220.927" rx="34.6474" ry="31.368" fill="#181617"/>
<ellipse cx="14.7207" cy="2.43465" rx="14.7207" ry="2.43465" transform="matrix(0.814387 0.580323 -0.599802 0.800149 254.559 194.819)" fill="white"/>
<ellipse cx="232.001" cy="227.73" rx="7.42445" ry="9.6517" fill="white"/>
</svg>
