<svg width="1676" height="803" viewBox="0 0 1676 803" fill="none" xmlns="http://www.w3.org/2000/svg">
<path d="M1307.11 776.759C1325.36 783.854 1284.81 669.322 1288.87 668.308C1291.72 667.596 1302.59 658.498 1309.54 652.402C841.418 461.764 565.482 409.69 51.0405 407.429C125.192 464.431 292.472 558.64 336.128 574.048C387.819 592.292 674.655 668.308 801.349 685.539C928.044 702.769 890.542 697.702 896.623 704.796C911.827 737.23 932.098 717.973 945.274 738.244C958.45 758.515 970.613 752.433 983.789 753.447C996.965 754.461 997.979 762.569 997.979 765.61C1046.63 795.003 1029.4 766.623 1061.83 776.759C1094.27 786.894 1095.28 793.989 1100.35 793.989C1192.58 811.22 1305.09 778.786 1307.11 776.759Z" fill="#E89A5C"/>
<path d="M461.809 94.6364C402.347 103.083 270.652 128.895 219.569 164.572C182.72 190.308 134.394 221.107 95.2395 246.061L95.2373 246.062C66.5445 264.349 42.7771 279.496 32.0613 287.212C26.3854 291.15 39.1562 309.124 46.2511 317.618H32.0613C31.1753 317.618 30.0106 317.495 28.6483 317.35C22.2181 316.666 11.3862 315.513 4.69531 324.713C-0.477819 331.826 7.55074 348.841 14.0415 362.596C17.7244 370.401 20.9122 377.157 20.9122 380.459C26.8992 387.706 37.3924 396.937 51.0405 407.429C565.482 409.69 841.418 461.764 1309.54 652.402C1310.51 651.554 1311.4 650.765 1312.18 650.064C1297.99 663.241 1372.99 723.04 1378.06 723.04C1384.14 756.488 1480.46 704.796 1486.54 704.796C1480.24 666.929 1466.52 667.78 1516.04 652.402C1493.08 602.33 1504.93 611.057 1545.04 589.542C1511.62 543.315 1516.87 534.286 1558.04 509.042C1533.43 476.241 1552.89 474.344 1578.54 441.542C1537.52 403.418 1529.6 384.708 1558.04 345.998C1516.98 317.461 1518.13 312.426 1545.04 283.158C1539.05 249.556 1565.64 235.174 1530.1 238.561C1507.87 240.679 1479.42 243.629 1458.13 252.751L1456.84 253.303C1448.56 256.85 1444.34 258.66 1440.63 261.226C1435.47 264.807 1431.32 269.859 1418.6 283.158C1401.7 300.833 1388.87 302.776 1383.65 303.566C1381.99 303.818 1381.1 303.952 1381.1 304.442C1381.1 305.715 1376.31 309.383 1371.99 312.691C1369.43 314.652 1367.03 316.486 1365.9 317.618C1346.14 351.492 1317.64 362.654 1297.44 370.567C1295.89 371.178 1294.38 371.769 1292.92 372.35C1272.65 380.459 1214.88 360.188 1214.88 357.147C1201.91 356.336 1195.96 349.377 1194.61 345.998C1202.55 345.998 1205.4 346.425 1206.7 345.201C1209.21 342.832 1205.88 334.274 1222.35 304.442C1224.66 300.26 1227.92 299.801 1231.73 299.264C1234.74 298.839 1238.1 298.365 1241.6 295.958C1248.92 290.927 1250.46 291.262 1252 291.596C1253.86 292.002 1255.72 292.407 1267.96 283.158C1270.32 281.368 1274.21 278.068 1279.19 273.831C1291.44 263.425 1310.34 247.363 1329.78 234.132C1347.96 221.762 1349.17 218.163 1349.99 215.695C1350.41 214.447 1350.73 213.489 1353.1 211.833C1357.44 208.79 1360.87 208.833 1363.84 208.87C1367.79 208.92 1370.94 208.96 1374.38 201.698C1376.21 197.825 1377.64 194.876 1378.74 192.588L1378.75 192.573C1381.69 186.492 1382.36 185.096 1382.49 183.454L1382.59 182.089C1383.54 169.809 1384.04 163.416 1381.1 159.504C1379.35 157.173 1379.74 154.841 1380 153.281C1380.19 152.128 1380.31 151.396 1379.45 151.396C1378.59 151.396 1378.27 150.595 1377.73 149.208C1377 147.331 1375.85 144.381 1372.35 140.885C1375.2 140.885 1372.17 139.084 1368.61 136.967C1365.84 135.315 1362.73 133.471 1361.85 132.138C1361.48 131.587 1361.14 131.011 1360.81 130.433C1359.29 127.825 1357.76 125.186 1353.1 124.668C1345.38 123.81 1342.47 123.221 1335.62 121.832L1335.61 121.83C1334.37 121.578 1332.99 121.3 1331.44 120.989C1325.62 119.826 1325.15 116.996 1324.84 115.176C1324.61 113.824 1324.48 113.03 1322.32 113.894C1319.99 114.823 1298.28 109.149 1274.47 102.925C1246.35 95.5739 1215.3 87.4574 1209.81 88.5551C1205.93 89.331 1202.8 88.1765 1197.5 86.2282C1188.97 83.0866 1174.82 77.8813 1142.92 75.3789C1102.21 72.1862 1072.82 60.194 1060.68 55.2412C1057.4 53.9046 1055.38 53.0807 1054.74 53.0807C1051.37 45.6721 1038.16 44.9767 1028.18 44.4518C1023.15 44.1868 1018.94 43.9653 1017.24 42.9452C999.019 29.065 985.999 31.52 980.718 32.5157C979.829 32.6833 979.159 32.8096 978.721 32.8096C959.47 12.4582 956.934 16.285 953.62 21.2875C950.827 25.5032 947.48 30.5538 933.111 22.674C910.595 10.3261 906.296 15.676 901.565 21.5646C899.694 23.8931 897.756 26.3058 894.596 27.7418C890.335 29.6787 890.516 29.3948 891.46 27.9088C892.986 25.5065 896.507 19.9625 886.488 15.5791C870.271 8.48416 845.946 22.674 851.013 22.674C856.081 22.674 842.905 28.7554 838.851 15.5791C835.607 5.03805 820.607 7.1328 813.512 9.49781C809.12 15.917 797.498 24.9039 786.146 9.49781C775.168 -5.40094 759.514 8.83257 752.383 18.6475C752.23 19.07 751.978 19.3993 751.685 19.6334C751.908 19.3107 752.141 18.9817 752.383 18.6475C753.116 16.6306 751.606 12.4908 741.55 6.45715C729.387 -0.840409 716.211 12.2006 711.143 19.6334C704.386 16.2548 689.453 9.49781 683.777 9.49781C678.101 9.49781 667.898 18.2819 663.506 22.674C665.533 20.309 662.492 14.3628 634.113 9.49781C619.167 29.7184 616.423 25.5364 611.989 18.7802C611.311 17.7473 610.594 16.6543 609.787 15.5791C604.922 9.09234 580.732 24.3632 569.245 32.8095C565.191 28.0796 553.839 21.4577 540.866 32.8095C534.958 37.9791 529.722 45.032 525.454 50.7826C518.005 60.8168 513.5 66.8861 513.5 52.0671C513.5 33.4177 479.039 72.6761 461.809 94.6364Z" fill="#D03D26"/>
<path d="M1382.49 183.454L1382.59 182.089M1382.49 183.454C1382.36 185.096 1381.69 186.492 1378.75 192.573M1382.49 183.454C1382.52 182.991 1382.56 182.536 1382.59 182.089M1458.13 252.751C1479.42 243.629 1507.87 240.679 1530.1 238.561C1565.64 235.174 1539.05 249.556 1545.04 283.158C1518.13 312.426 1516.98 317.461 1558.04 345.998C1529.6 384.708 1537.52 403.418 1578.54 441.542C1552.89 474.344 1533.43 476.241 1558.04 509.042C1516.87 534.286 1511.62 543.315 1545.04 589.542C1504.93 611.057 1493.08 602.33 1516.04 652.402C1466.52 667.78 1480.24 666.929 1486.54 704.796C1480.46 704.796 1384.14 756.488 1378.06 723.04C1372.99 723.04 1297.99 663.241 1312.18 650.064C1311.4 650.765 1310.51 651.554 1309.54 652.402M1458.13 252.751L1456.84 253.303M1458.13 252.751C1457.69 252.94 1457.26 253.123 1456.84 253.303M32.0613 317.618C36.1155 317.618 43.2104 317.618 46.2511 317.618M32.0613 317.618H46.2511M32.0613 317.618C31.1753 317.618 30.0106 317.495 28.6483 317.35C22.2181 316.666 11.3862 315.513 4.69531 324.713C-0.477819 331.826 7.55074 348.841 14.0415 362.596C17.7244 370.401 20.9122 377.157 20.9122 380.459C26.8992 387.706 37.3924 396.937 51.0405 407.429M46.2511 317.618C39.1562 309.124 26.3854 291.15 32.0613 287.212C42.7771 279.496 66.5445 264.349 95.2373 246.062L95.2395 246.061C134.394 221.107 182.72 190.308 219.569 164.572C270.652 128.895 402.347 103.083 461.809 94.6364C479.039 72.6761 513.5 33.4177 513.5 52.0671C513.5 66.8861 518.005 60.8168 525.454 50.7826C529.722 45.032 534.958 37.9791 540.866 32.8095C553.839 21.4577 565.191 28.0796 569.245 32.8095C580.732 24.3632 604.922 9.09234 609.787 15.5791C610.594 16.6543 611.311 17.7473 611.989 18.7802C616.423 25.5364 619.167 29.7184 634.113 9.49781C662.492 14.3628 665.533 20.309 663.506 22.674C667.898 18.2819 678.101 9.49781 683.777 9.49781C689.453 9.49781 704.386 16.2548 711.143 19.6334C716.211 12.2006 729.387 -0.840409 741.55 6.45715C751.606 12.4908 753.116 16.6306 752.383 18.6475M51.0405 407.429C125.192 464.431 292.472 558.64 336.128 574.048C387.819 592.292 674.655 668.308 801.349 685.539C928.044 702.769 890.542 697.702 896.623 704.796C911.827 737.23 932.098 717.973 945.274 738.244C958.45 758.515 970.613 752.433 983.789 753.447C996.965 754.461 997.979 762.569 997.979 765.61C1046.63 795.003 1029.4 766.623 1061.83 776.759C1094.27 786.894 1095.28 793.989 1100.35 793.989C1192.58 811.22 1305.09 778.786 1307.11 776.759C1325.36 783.854 1284.81 669.322 1288.87 668.308C1291.72 667.596 1302.59 658.498 1309.54 652.402M51.0405 407.429C565.482 409.69 841.418 461.764 1309.54 652.402M752.383 18.6475C759.514 8.83257 775.168 -5.40094 786.146 9.49781C797.498 24.9039 809.12 15.917 813.512 9.49781C820.607 7.1328 835.607 5.03805 838.851 15.5791C842.905 28.7554 856.081 22.674 851.013 22.674C845.946 22.674 870.271 8.48416 886.488 15.5791C896.507 19.9625 892.986 25.5065 891.46 27.9088C890.516 29.3948 890.335 29.6787 894.596 27.7418C897.756 26.3058 899.694 23.8931 901.565 21.5646C906.296 15.676 910.595 10.3261 933.111 22.674C947.48 30.5538 950.827 25.5032 953.62 21.2875C956.934 16.285 959.47 12.4582 978.721 32.8096C979.159 32.8096 979.829 32.6833 980.718 32.5157C985.999 31.52 999.019 29.065 1017.24 42.9452C1018.94 43.9653 1023.15 44.1868 1028.18 44.4518C1038.16 44.9767 1051.37 45.6721 1054.74 53.0807C1055.38 53.0807 1057.4 53.9046 1060.68 55.2412C1072.82 60.194 1102.21 72.1862 1142.92 75.3789C1174.82 77.8813 1188.97 83.0866 1197.5 86.2282C1202.8 88.1765 1205.93 89.331 1209.81 88.5551C1215.3 87.4574 1246.35 95.5739 1274.47 102.925C1298.28 109.149 1319.99 114.823 1322.32 113.894C1324.48 113.03 1324.61 113.824 1324.84 115.176C1325.15 116.996 1325.62 119.826 1331.44 120.989C1332.99 121.3 1334.37 121.578 1335.61 121.83M752.383 18.6475C752.23 19.07 751.978 19.3993 751.685 19.6334C751.908 19.3107 752.141 18.9817 752.383 18.6475ZM1382.59 182.089C1383.54 169.809 1384.04 163.416 1381.1 159.504C1379.35 157.173 1379.74 154.841 1380 153.281C1380.19 152.128 1380.31 151.396 1379.45 151.396C1378.59 151.396 1378.27 150.595 1377.73 149.208C1377 147.331 1375.85 144.381 1372.35 140.885C1375.2 140.885 1372.17 139.084 1368.61 136.967C1365.84 135.315 1362.73 133.471 1361.85 132.138C1361.48 131.587 1361.14 131.011 1360.81 130.433C1359.29 127.825 1357.76 125.186 1353.1 124.668C1345.38 123.81 1342.47 123.221 1335.62 121.832M1378.75 192.573L1378.74 192.588M1378.75 192.573C1378.75 192.578 1378.75 192.583 1378.74 192.588M1335.62 121.832L1335.61 121.83M1335.62 121.832C1335.61 121.831 1335.61 121.83 1335.61 121.83M1456.84 253.303C1448.56 256.85 1444.34 258.66 1440.63 261.226C1435.47 264.807 1431.32 269.859 1418.6 283.158C1401.7 300.833 1388.87 302.776 1383.65 303.566C1381.99 303.818 1381.1 303.952 1381.1 304.442C1381.1 305.715 1376.31 309.383 1371.99 312.691C1369.43 314.652 1367.03 316.486 1365.9 317.618C1346.14 351.492 1317.64 362.654 1297.44 370.567C1295.89 371.178 1294.38 371.769 1292.92 372.35C1272.65 380.459 1214.88 360.188 1214.88 357.147C1201.91 356.336 1195.96 349.377 1194.61 345.998C1202.55 345.998 1205.4 346.425 1206.7 345.201C1209.21 342.832 1205.88 334.274 1222.35 304.442C1224.66 300.26 1227.92 299.801 1231.73 299.264C1234.74 298.839 1238.1 298.365 1241.6 295.958C1248.92 290.927 1250.46 291.262 1252 291.596C1253.86 292.002 1255.72 292.407 1267.96 283.158C1270.32 281.368 1274.21 278.068 1279.19 273.831C1291.44 263.425 1310.34 247.363 1329.78 234.132C1347.96 221.762 1349.17 218.163 1349.99 215.695C1350.41 214.447 1350.73 213.489 1353.1 211.833C1357.44 208.79 1360.87 208.833 1363.84 208.87C1367.79 208.92 1370.94 208.96 1374.38 201.698C1376.21 197.825 1377.64 194.876 1378.74 192.588" stroke="black" stroke-width="6.08133"/>
<path d="M459.135 96.2887C459.559 96.2887 491.772 96.3537 563.728 100.621C651.34 105.816 745.965 136.148 835.475 166.861C969.115 212.718 1025.31 255.903 1081.41 284.246C1100.02 292.941 1127.9 304.772 1147.91 315.121C1167.91 325.469 1179.2 333.977 1192.95 345.623" stroke="black" stroke-width="4.05422" stroke-linecap="round"/>
<path d="M45.6079 315.216C45.6079 315.258 54.7299 317.243 64.2885 314.905C78.0814 311.531 85.7852 309.096 90.059 307.147C94.4432 304.759 96.4617 303.212 97.906 301.81C98.5887 301.082 99.1694 300.319 100.34 298.999" stroke="black" stroke-width="8.10844" stroke-linecap="round"/>
<path d="M509.042 283.814C493.109 303.765 463.101 334.829 466.405 410.45C497.735 447.731 582.432 486.333 636.074 450.142C703.127 404.904 756.451 416.233 777.355 348.081C798.258 279.929 696.893 367.667 637.837 313.446C590.592 270.069 547.466 266.899 509.042 283.814Z" fill="#D03D26" stroke="black" stroke-width="5"/>
<ellipse cx="270.541" cy="216.042" rx="58.5" ry="55" fill="#F5F5F5"/>
<ellipse cx="250.864" cy="220.927" rx="34.6474" ry="31.368" fill="#181617"/>
<ellipse cx="14.7207" cy="2.43465" rx="14.7207" ry="2.43465" transform="matrix(0.814387 0.580323 -0.599802 0.800149 254.558 194.819)" fill="white"/>
<ellipse cx="232" cy="227.73" rx="7.42445" ry="9.6517" fill="white"/>
</svg>
