<svg width="2260" height="1263" viewBox="0 0 2260 1263" fill="none" xmlns="http://www.w3.org/2000/svg">
<path d="M156.318 429.019C161.577 481.02 162.132 527.931 102.818 530.518C128.366 589.948 137.715 609.191 72.3184 631.518C107.476 685.104 108.039 695.293 49.3184 724.018C101.38 788.771 74.2556 781.3 22.8184 829.018C93.231 879.743 30.9618 891.872 4.81836 943.018C44.4197 960.056 40.4585 970.538 22.8184 1007.59C137.057 903.201 211.819 874.049 362.318 869.092L562.318 889.592C698.456 1030.8 804.431 1077.86 1056.32 1093.59L1279.32 1071.59L1642.32 1055.11L1730.82 1051.09C1994.78 943.246 2122.87 865.786 2255.82 646.092C1665.71 984.783 1153.08 914.622 422.318 582.667L376.818 581.093C216.642 545.686 239.054 548.099 156.318 429.019Z" fill="#A4782B"/>
<path d="M2255.82 646.092C2241.91 535.004 2207.54 489.094 2095.32 438.593C1948.27 276.173 1847.15 229.964 1642.32 206.593C1189.81 162.874 952.534 219.204 562.318 481.593C527.911 533.524 492.741 552.881 422.318 582.667C1153.08 914.622 1665.71 984.783 2255.82 646.092Z" fill="#0033FF"/>
<path d="M562.318 481.593C952.534 219.204 1189.81 162.874 1642.32 206.593C1427.76 -49.9509 1338.05 -17.9359 1059.32 57.5178C642.795 220.268 432.607 229.519 562.318 481.593Z" fill="#0033FF"/>
<path d="M1279.32 1071.59C1228.75 1132.9 1250.32 1119 1155.32 1174.5C1060.32 1230 1056.32 1256 1056.32 1256C1118.04 1222.76 1189.26 1239.16 1264.32 1228.59C1527.28 1160.08 1556.17 1177.93 1642.32 1055.11L1279.32 1071.59Z" fill="#A4782B"/>
<path d="M562.318 889.592C650.915 1027.22 671.396 969.324 481.318 1064C689.606 1144.63 800.341 1238.93 1056.32 1093.59C804.431 1077.86 698.456 1030.8 562.318 889.592Z" fill="#A4782B"/>
<path d="M562.318 889.592L362.318 869.092C211.819 874.049 137.057 903.201 22.8184 1007.59C40.4585 970.538 44.4197 960.056 4.81836 943.018C30.9618 891.872 93.231 879.743 22.8184 829.018C74.2556 781.3 101.38 788.771 49.3184 724.018C108.039 695.293 107.476 685.104 72.3184 631.518C137.715 609.191 128.366 589.948 102.818 530.518C162.132 527.931 161.577 481.02 156.318 429.019C239.054 548.099 216.642 545.686 376.818 581.093L422.318 582.667M562.318 889.592C650.915 1027.22 671.396 969.324 481.318 1064C689.606 1144.63 800.341 1238.93 1056.32 1093.59M562.318 889.592C698.456 1030.8 804.431 1077.86 1056.32 1093.59M1056.32 1093.59L1279.32 1071.59M1279.32 1071.59C1228.75 1132.9 1250.32 1119 1155.32 1174.5C1060.32 1230 1056.32 1256 1056.32 1256C1118.04 1222.76 1189.26 1239.16 1264.32 1228.59C1527.28 1160.08 1556.17 1177.93 1642.32 1055.11M1279.32 1071.59L1642.32 1055.11M2255.82 646.092C2122.87 865.786 1994.78 943.246 1730.82 1051.09L1642.32 1055.11M2255.82 646.092C2241.91 535.004 2207.54 489.094 2095.32 438.593C1948.27 276.173 1847.15 229.964 1642.32 206.593M2255.82 646.092C1665.71 984.783 1153.08 914.622 422.318 582.667M2255.82 646.092C2140.21 680.764 2078.04 683.571 1971.32 663.518M1642.32 206.593C1189.81 162.874 952.534 219.204 562.318 481.593M1642.32 206.593C1427.76 -49.9509 1338.05 -17.9359 1059.32 57.5178C642.795 220.268 432.607 229.519 562.318 481.593M562.318 481.593C527.911 533.524 492.741 552.881 422.318 582.667" stroke="black" stroke-width="7"/>
<ellipse cx="60" cy="55" rx="60" ry="55" transform="matrix(-1 0 0 1 2038.32 399.018)" fill="#F5F5F5"/>
<ellipse cx="35.5358" cy="31.368" rx="35.5358" ry="31.368" transform="matrix(-1 0 0 1 2034.04 427.535)" fill="#181617"/>
<ellipse cx="14.9721" cy="2.45729" rx="14.9721" ry="2.45729" transform="matrix(-0.821243 0.570579 0.609513 0.792776 1994.71 432.795)" fill="white"/>
<ellipse cx="7.61482" cy="9.6517" rx="7.61482" ry="9.6517" transform="matrix(-1 0 0 1 2025.46 456.055)" fill="white"/>
</svg>
