<svg width="2272" height="1326" viewBox="0 0 2272 1326" fill="none" xmlns="http://www.w3.org/2000/svg">
<path d="M746.014 153.866C585.97 250.681 488.032 272.847 574.014 439.94C608.313 416.877 641.43 395.406 673.615 375.455C770.099 151.187 787.101 214.361 746.014 153.866Z" fill="black"/>
<path d="M474.014 837.69L574.014 847.94C597.451 872.25 619.993 893.769 642.54 912.818C693.424 792.122 719.322 780.748 673.615 375.455C641.43 395.406 608.313 416.877 574.014 439.94L481.264 489.69L474.014 837.69Z" fill="black"/>
<path d="M574.014 847.94C662.611 985.568 660.592 1054.76 470.514 1149.44C526.679 1171.18 577.386 1184.68 626.514 1189.94C725.636 1057.81 721.26 976.522 642.54 912.818C619.993 893.769 597.451 872.25 574.014 847.94Z" fill="black"/>
<path d="M1430.01 1023.63L1654.01 1013.46C1712.83 626.044 1705.25 433.936 1481.01 153.866C1421.68 152.289 1264.93 160.913 1211.51 164.941C1114.82 509.585 1235.51 690.009 1430.01 1023.63Z" fill="black"/>
<path d="M1213.51 1260.44C1476.48 1191.93 1567.86 1136.28 1654.01 1013.46L1430.01 1023.63L1213.51 1260.44Z" fill="black"/>
<path d="M1213.51 7.86631C1281.28 102.991 1191.93 53.0209 1211.51 164.941C1264.93 160.913 1421.68 152.289 1481.01 153.866C1474.98 52.0412 1486.89 108.357 1430.01 28.3662C1366.13 1.35643 1292.23 -0.409973 1213.51 7.86631Z" fill="black"/>
<path d="M2107.01 396.941C2017.25 297.789 1944.59 241.945 1855.01 208.167C1810.94 488.424 1822.47 645.528 1928.51 925.781C1997.71 890.008 2055.3 852.345 2107.01 805.761C2095.96 770 2091.41 745.281 2107.01 634.278C2143.02 528.943 2124.77 483.39 2107.01 396.941Z" fill="black"/>
<path d="M1068.01 1051.94L1291.01 1029.94L1430.01 1023.63C1235.51 690.009 1114.82 509.585 1211.51 164.941C995.066 181.258 896.41 237.349 673.615 375.455C719.322 780.748 693.424 792.122 642.54 912.818C673.615 925.781 859.49 1038.92 1068.01 1051.94Z" fill="white"/>
<path d="M1004.01 74.5853C863.594 129.452 827.409 104.628 746.014 153.866C787.101 214.361 770.099 151.187 673.615 375.455C896.41 237.349 995.066 181.258 1211.51 164.941C1191.93 53.0209 1281.28 102.991 1213.51 7.86631C1171.56 12.2776 1053.81 61.1052 1004.01 74.5853Z" fill="white"/>
<path d="M626.514 1189.94C759.58 1204.2 881.061 1158.09 1068.01 1051.94C859.49 1038.92 673.615 925.781 642.54 912.818C721.26 976.522 725.636 1057.81 626.514 1189.94Z" fill="white"/>
<path d="M1654.01 1013.46L1742.51 1009.44C1813.41 980.476 1874.5 953.704 1928.51 925.781C1822.47 645.528 1810.94 488.424 1855.01 208.167C1797.85 186.613 1733.8 174.044 1654.01 164.941C1584.55 158.23 1541.66 155.479 1481.01 153.866C1705.25 433.936 1712.83 626.044 1654.01 1013.46Z" fill="white"/>
<path d="M1654.01 164.941C1549.7 40.2182 1522.67 67.5423 1430.01 28.3662C1486.89 108.357 1474.98 52.0412 1481.01 153.866C1541.66 155.479 1584.55 158.23 1654.01 164.941Z" fill="white"/>
<path d="M2107.01 805.761C2165.24 753.309 2216.01 689.547 2267.51 604.44C2203.06 623.769 2155.22 633.195 2107.01 634.278C2091.41 745.281 2095.96 770 2107.01 805.761Z" fill="white"/>
<path d="M2267.51 604.44C2253.61 493.351 2219.24 447.442 2107.01 396.941C2124.77 483.39 2143.02 528.943 2107.01 634.278C2155.22 633.195 2203.06 623.769 2267.51 604.44Z" fill="white"/>
<path d="M1291.01 1029.94C1240.44 1091.25 1256.51 1131.44 1161.51 1186.94C1066.51 1242.44 1039.51 1318.44 1039.51 1318.44C1101.24 1285.2 1138.46 1271.01 1213.51 1260.44L1430.01 1023.63L1291.01 1029.94Z" fill="white"/>
<path d="M136.014 439.94C141.273 491.941 142.328 495.779 83.0142 498.366C108.562 557.796 99.911 558.539 34.5142 580.866C69.6715 634.452 72.2352 632.641 13.5142 661.366C65.576 726.119 56.9514 700.148 5.51416 747.866C75.9268 798.591 39.6576 796.794 13.5142 847.94C53.1155 864.978 77.6543 875.764 60.0142 912.818C174.253 808.427 223.514 832.397 374.014 827.44L474.014 837.69L481.264 489.69L388.514 539.44C228.338 504.034 218.75 559.02 136.014 439.94Z" fill="white"/>
<path d="M574.014 847.94C662.611 985.568 660.592 1054.76 470.514 1149.44C526.679 1171.18 577.386 1184.68 626.514 1189.94M574.014 847.94L474.014 837.69M574.014 847.94C597.451 872.25 619.993 893.769 642.54 912.818M1068.01 1051.94L1291.01 1029.94M1068.01 1051.94C881.061 1158.09 759.58 1204.2 626.514 1189.94M1068.01 1051.94C859.49 1038.92 673.615 925.781 642.54 912.818M1291.01 1029.94C1240.44 1091.25 1256.51 1131.44 1161.51 1186.94C1066.51 1242.44 1039.51 1318.44 1039.51 1318.44C1101.24 1285.2 1138.46 1271.01 1213.51 1260.44M1291.01 1029.94L1430.01 1023.63M2267.51 604.44C2253.61 493.351 2219.24 447.442 2107.01 396.941M2267.51 604.44C2216.01 689.547 2165.24 753.309 2107.01 805.761M2267.51 604.44C2203.06 623.769 2155.22 633.195 2107.01 634.278M1213.51 1260.44C1476.48 1191.93 1567.86 1136.28 1654.01 1013.46M1213.51 1260.44L1430.01 1023.63M1654.01 1013.46L1742.51 1009.44C1813.41 980.476 1874.5 953.704 1928.51 925.781M1654.01 1013.46L1430.01 1023.63M1654.01 1013.46C1712.83 626.044 1705.25 433.936 1481.01 153.866M2107.01 396.941C2017.25 297.789 1944.59 241.945 1855.01 208.167M2107.01 396.941C2124.77 483.39 2143.02 528.943 2107.01 634.278M1654.01 164.941C1549.7 40.2182 1522.67 67.5423 1430.01 28.3662M1654.01 164.941C1584.55 158.23 1541.66 155.479 1481.01 153.866M1654.01 164.941C1733.8 174.044 1797.85 186.613 1855.01 208.167M574.014 439.94C488.032 272.847 585.97 250.681 746.014 153.866M574.014 439.94L481.264 489.69M574.014 439.94C608.313 416.877 641.43 395.406 673.615 375.455M1983.01 621.866C2030.24 630.74 2068.75 635.137 2107.01 634.278M626.514 1189.94C725.636 1057.81 721.26 976.522 642.54 912.818M746.014 153.866C827.409 104.628 863.594 129.452 1004.01 74.5853C1053.81 61.1052 1171.56 12.2776 1213.51 7.86631M746.014 153.866C787.101 214.361 770.099 151.187 673.615 375.455M474.014 837.69L374.014 827.44C223.514 832.397 174.253 808.427 60.0142 912.818C77.6543 875.764 53.1155 864.978 13.5142 847.94C39.6576 796.794 75.9268 798.591 5.51416 747.866C56.9514 700.148 65.576 726.119 13.5142 661.366C72.2352 632.641 69.6715 634.452 34.5142 580.866C99.911 558.539 108.562 557.796 83.0142 498.366C142.328 495.779 141.273 491.941 136.014 439.94C218.75 559.02 228.338 504.034 388.514 539.44L481.264 489.69M474.014 837.69L481.264 489.69M1430.01 1023.63C1235.51 690.009 1114.82 509.585 1211.51 164.941M1211.51 164.941C1191.93 53.0209 1281.28 102.991 1213.51 7.86631M1211.51 164.941C1264.93 160.913 1421.68 152.289 1481.01 153.866M1211.51 164.941C995.066 181.258 896.41 237.349 673.615 375.455M1213.51 7.86631C1292.23 -0.409973 1366.13 1.35643 1430.01 28.3662M1430.01 28.3662C1486.89 108.357 1474.98 52.0412 1481.01 153.866M1855.01 208.167C1810.94 488.424 1822.47 645.528 1928.51 925.781M1928.51 925.781C1997.71 890.008 2055.3 852.345 2107.01 805.761M2107.01 805.761C2095.96 770 2091.41 745.281 2107.01 634.278M642.54 912.818C693.424 792.122 719.322 780.748 673.615 375.455" stroke="black" stroke-width="7"/>
<ellipse cx="60" cy="55" rx="60" ry="55" transform="matrix(-1 0 0 1 2050.01 357.366)" fill="#F5F5F5"/>
<ellipse cx="35.5358" cy="31.368" rx="35.5358" ry="31.368" transform="matrix(-1 0 0 1 2045.73 385.884)" fill="#181617"/>
<ellipse cx="14.9721" cy="2.45729" rx="14.9721" ry="2.45729" transform="matrix(-0.821243 0.570579 0.609513 0.792776 2006.41 391.144)" fill="white"/>
<ellipse cx="7.61482" cy="9.6517" rx="7.61482" ry="9.6517" transform="matrix(-1 0 0 1 2037.16 414.403)" fill="white"/>
</svg>
