<svg width="2260" height="1368" viewBox="0 0 2260 1368" fill="none" xmlns="http://www.w3.org/2000/svg">
<path d="M156.319 429.018C161.578 481.019 162.132 527.931 102.819 530.518C128.367 589.948 137.716 609.191 72.3188 631.518C107.476 685.104 108.04 695.293 49.3188 724.018C101.381 788.77 74.2561 781.3 22.8188 829.018C93.2315 879.742 30.9623 891.872 4.81885 943.018C44.4202 960.056 40.459 970.537 22.8188 1007.59C137.057 903.2 211.819 874.049 362.319 869.092L562.319 889.592C698.456 1030.8 804.431 1077.86 1056.32 1093.59L1279.32 1071.59L1642.32 1055.11L1730.82 1051.09C1994.78 943.246 2122.87 865.786 2255.82 646.092C1665.71 984.782 1153.08 914.622 422.319 582.666L376.819 581.092C216.643 545.686 239.054 548.098 156.319 429.018Z" fill="#A4782B"/>
<path d="M2255.82 646.092C2241.91 535.003 2207.54 489.094 2095.32 438.593C1948.27 276.173 1847.15 229.964 1642.32 206.593C1189.81 162.873 952.534 219.204 562.319 481.593C527.912 533.523 492.742 552.881 422.319 582.666C1153.08 914.622 1665.71 984.782 2255.82 646.092Z" fill="#0033FF"/>
<path d="M562.319 481.593C952.534 219.204 1189.81 162.873 1642.32 206.593C1427.76 -49.9512 1338.05 -17.9361 1059.32 57.5176C642.796 220.268 432.608 229.519 562.319 481.593Z" fill="#0033FF"/>
<path d="M1279.32 1071.59C1228.75 1132.9 1244.82 1173.09 1149.82 1228.59C1054.82 1284.09 1027.82 1360.09 1027.82 1360.09C1089.54 1326.86 1126.76 1312.66 1201.82 1302.09C1464.78 1233.58 1556.17 1177.93 1642.32 1055.11L1279.32 1071.59Z" fill="#A4782B"/>
<path d="M562.319 889.592C650.915 1027.22 648.897 1096.41 458.819 1191.09C667.107 1271.73 800.342 1238.93 1056.32 1093.59C804.431 1077.86 698.456 1030.8 562.319 889.592Z" fill="#A4782B"/>
<path d="M562.319 889.592L362.319 869.092C211.819 874.049 137.057 903.2 22.8188 1007.59C40.459 970.537 44.4202 960.056 4.81885 943.018C30.9623 891.872 93.2315 879.742 22.8188 829.018C74.2561 781.3 101.381 788.77 49.3188 724.018C108.04 695.293 107.476 685.104 72.3188 631.518C137.716 609.191 128.367 589.948 102.819 530.518C162.132 527.931 161.578 481.019 156.319 429.018C239.054 548.098 216.643 545.686 376.819 581.092L422.319 582.666M562.319 889.592C650.915 1027.22 648.897 1096.41 458.819 1191.09C667.107 1271.73 800.342 1238.93 1056.32 1093.59M562.319 889.592C698.456 1030.8 804.431 1077.86 1056.32 1093.59M1056.32 1093.59L1279.32 1071.59M1279.32 1071.59C1228.75 1132.9 1244.82 1173.09 1149.82 1228.59C1054.82 1284.09 1027.82 1360.09 1027.82 1360.09C1089.54 1326.86 1126.76 1312.66 1201.82 1302.09C1464.78 1233.58 1556.17 1177.93 1642.32 1055.11M1279.32 1071.59L1642.32 1055.11M2255.82 646.092C2122.87 865.786 1994.78 943.246 1730.82 1051.09L1642.32 1055.11M2255.82 646.092C2241.91 535.003 2207.54 489.094 2095.32 438.593C1948.27 276.173 1847.15 229.964 1642.32 206.593M2255.82 646.092C1665.71 984.782 1153.08 914.622 422.319 582.666M2255.82 646.092C2140.21 680.764 2078.04 683.571 1971.32 663.518M1642.32 206.593C1189.81 162.873 952.534 219.204 562.319 481.593M1642.32 206.593C1427.76 -49.9512 1338.05 -17.9361 1059.32 57.5176C642.796 220.268 432.608 229.519 562.319 481.593M562.319 481.593C527.912 533.523 492.742 552.881 422.319 582.666" stroke="black" stroke-width="7"/>
<ellipse cx="60" cy="55" rx="60" ry="55" transform="matrix(-1 0 0 1 2038.32 399.018)" fill="#F5F5F5"/>
<ellipse cx="35.5358" cy="31.368" rx="35.5358" ry="31.368" transform="matrix(-1 0 0 1 2034.04 427.535)" fill="#181617"/>
<ellipse cx="14.9721" cy="2.45729" rx="14.9721" ry="2.45729" transform="matrix(-0.821243 0.570579 0.609513 0.792776 1994.71 432.795)" fill="white"/>
<ellipse cx="7.61482" cy="9.6517" rx="7.61482" ry="9.6517" transform="matrix(-1 0 0 1 2025.46 456.055)" fill="white"/>
</svg>
