<svg width="2322" height="1437" viewBox="0 0 2322 1437" fill="none" xmlns="http://www.w3.org/2000/svg">
<path d="M136.472 443.574C141.731 495.575 139.785 520.987 80.4717 523.574C106.019 583.004 96.8685 606.747 31.4717 629.074C66.629 682.66 64.1927 706.849 5.47168 735.574C57.5335 800.327 60.9089 832.356 9.47168 880.074C79.8843 930.799 75.1152 959.428 48.9717 1010.57C88.573 1027.61 102.612 1040.02 84.9717 1077.07C199.21 972.682 273.972 943.531 424.472 938.574L624.472 959.074C760.609 1100.28 866.584 1147.34 1118.47 1163.07L1341.47 1141.07L1704.47 1124.59L1792.97 1120.57C2056.94 1012.73 2185.03 935.268 2317.97 715.574C1727.86 1054.26 1215.24 984.104 484.472 652.148L438.972 650.574C278.796 615.167 219.207 562.654 136.472 443.574Z" fill="#A4782B"/>
<path d="M2317.97 715.574C2304.06 604.485 2269.7 558.575 2157.47 508.074C2010.43 345.655 1909.3 299.445 1704.47 276.074C1251.96 232.355 1014.69 288.685 624.472 551.074C590.064 603.005 554.895 622.362 484.472 652.148C1215.24 984.104 1727.86 1054.26 2317.97 715.574Z" fill="#0033FF"/>
<path d="M624.472 551.074C1014.69 288.685 1251.96 232.355 1704.47 276.074C1489.91 19.5302 1353.7 -41.8793 1074.97 33.5745C658.449 196.325 494.761 299 624.472 551.074Z" fill="#0033FF"/>
<path d="M1341.47 1141.07C1290.9 1202.39 1306.97 1242.57 1211.97 1298.07C1116.97 1353.57 1089.97 1429.57 1089.97 1429.57C1151.7 1396.34 1188.92 1382.15 1263.97 1371.57C1526.94 1303.07 1618.32 1247.41 1704.47 1124.59L1341.47 1141.07Z" fill="#A4782B"/>
<path d="M624.472 959.074C713.068 1096.7 711.05 1165.9 520.972 1260.57C729.259 1341.21 862.495 1308.41 1118.47 1163.07C866.584 1147.34 760.609 1100.28 624.472 959.074Z" fill="#A4782B"/>
<path d="M624.472 959.074L424.472 938.574C273.972 943.531 199.21 972.682 84.9717 1077.07C102.612 1040.02 88.573 1027.61 48.9717 1010.57C75.1152 959.428 79.8843 930.799 9.47168 880.074C60.9089 832.356 57.5335 800.327 5.47168 735.574C64.1927 706.849 66.629 682.66 31.4717 629.074C96.8685 606.747 106.019 583.004 80.4717 523.574C139.785 520.987 141.731 495.575 136.472 443.574C219.207 562.654 278.796 615.167 438.972 650.574L484.472 652.148M624.472 959.074C713.068 1096.7 711.05 1165.9 520.972 1260.57C729.259 1341.21 862.495 1308.41 1118.47 1163.07M624.472 959.074C760.609 1100.28 866.584 1147.34 1118.47 1163.07M1118.47 1163.07L1341.47 1141.07M1341.47 1141.07C1290.9 1202.39 1306.97 1242.57 1211.97 1298.07C1116.97 1353.57 1089.97 1429.57 1089.97 1429.57C1151.7 1396.34 1188.92 1382.15 1263.97 1371.57C1526.94 1303.07 1618.32 1247.41 1704.47 1124.59M1341.47 1141.07L1704.47 1124.59M2317.97 715.574C2185.03 935.268 2056.94 1012.73 1792.97 1120.57L1704.47 1124.59M2317.97 715.574C2304.06 604.485 2269.7 558.575 2157.47 508.074C2010.43 345.655 1909.3 299.445 1704.47 276.074M2317.97 715.574C1727.86 1054.26 1215.24 984.104 484.472 652.148M2317.97 715.574C2202.36 750.246 2140.2 753.053 2033.47 733M1704.47 276.074C1251.96 232.355 1014.69 288.685 624.472 551.074M1704.47 276.074C1489.91 19.5302 1353.7 -41.8793 1074.97 33.5745C658.449 196.325 494.761 299 624.472 551.074M624.472 551.074C590.064 603.005 554.895 622.362 484.472 652.148" stroke="black" stroke-width="7"/>
<ellipse cx="60" cy="55" rx="60" ry="55" transform="matrix(-1 0 0 1 2100.47 468.5)" fill="#F5F5F5"/>
<ellipse cx="35.5358" cy="31.368" rx="35.5358" ry="31.368" transform="matrix(-1 0 0 1 2096.19 497.018)" fill="#181617"/>
<ellipse cx="14.9721" cy="2.45729" rx="14.9721" ry="2.45729" transform="matrix(-0.821243 0.570579 0.609513 0.792776 2056.86 502.277)" fill="white"/>
<ellipse cx="7.61482" cy="9.6517" rx="7.61482" ry="9.6517" transform="matrix(-1 0 0 1 2087.62 525.537)" fill="white"/>
</svg>
