<svg width="2322" height="1437" viewBox="0 0 2322 1437" fill="none" xmlns="http://www.w3.org/2000/svg">
<path d="M741.472 185.719C581.428 282.533 538.49 383.981 624.472 551.074C658.77 528.011 691.887 506.54 724.073 486.589C820.556 262.321 782.558 246.214 741.472 185.719Z" fill="black"/>
<path d="M524.472 948.824L624.472 959.074C647.908 983.383 670.451 1004.9 692.997 1023.95C743.881 903.256 769.78 891.882 724.073 486.589C691.887 506.54 658.77 528.011 624.472 551.074L531.722 600.824L524.472 948.824Z" fill="black"/>
<path d="M624.472 959.074C713.068 1096.7 711.05 1165.9 520.972 1260.57C577.136 1282.32 627.843 1295.81 676.972 1301.08C776.094 1168.94 771.718 1087.66 692.997 1023.95C670.451 1004.9 647.908 983.383 624.472 959.074Z" fill="black"/>
<path d="M1480.47 1134.76L1704.47 1124.59C1763.28 737.178 1755.7 545.07 1531.47 265C1472.14 263.422 1315.39 272.047 1261.97 276.074C1165.27 620.718 1285.96 801.143 1480.47 1134.76Z" fill="black"/>
<path d="M1263.97 1371.57C1526.94 1303.07 1618.32 1247.41 1704.47 1124.59L1480.47 1134.76L1263.97 1371.57Z" fill="black"/>
<path d="M1211.97 6.57136C1279.74 101.696 1242.39 164.155 1261.97 276.074C1315.39 272.047 1472.14 263.422 1531.47 265C1525.43 163.175 1478.59 113.565 1421.71 33.5745C1357.83 6.56467 1290.69 -1.70492 1211.97 6.57136Z" fill="black"/>
<path d="M2157.47 508.074C2067.7 408.922 1995.05 353.078 1905.47 319.3C1861.39 599.558 1872.93 756.662 1978.97 1036.91C2048.17 1001.14 2105.76 963.479 2157.47 916.895C2146.41 881.134 2141.87 856.415 2157.47 745.411C2193.47 640.076 2175.23 594.524 2157.47 508.074Z" fill="black"/>
<path d="M1118.47 1163.07L1341.47 1141.07L1480.47 1134.76C1285.96 801.143 1165.27 620.718 1261.97 276.074C1045.52 292.392 946.868 348.483 724.073 486.589C769.78 891.882 743.881 903.256 692.997 1023.95C724.073 1036.91 909.947 1150.05 1118.47 1163.07Z" fill="white"/>
<path d="M1074.97 33.5745C934.551 88.4416 822.867 136.481 741.472 185.719C782.558 246.214 820.556 262.321 724.073 486.589C946.868 348.483 1045.52 292.392 1261.97 276.074C1242.39 164.155 1279.74 101.696 1211.97 6.57136C1170.01 10.9826 1124.77 20.0944 1074.97 33.5745Z" fill="white"/>
<path d="M676.972 1301.08C810.037 1315.34 931.518 1269.22 1118.47 1163.07C909.947 1150.05 724.073 1036.91 692.997 1023.95C771.718 1087.66 776.094 1168.94 676.972 1301.08Z" fill="white"/>
<path d="M1704.47 1124.59L1792.97 1120.57C1863.86 1091.61 1924.95 1064.84 1978.97 1036.91C1872.93 756.662 1861.39 599.558 1905.47 319.3C1848.31 297.747 1784.26 285.178 1704.47 276.074C1635.01 269.363 1592.12 266.613 1531.47 265C1755.7 545.07 1763.28 737.178 1704.47 1124.59Z" fill="white"/>
<path d="M1704.47 276.074C1600.16 151.352 1514.37 72.7506 1421.71 33.5745C1478.59 113.565 1525.43 163.175 1531.47 265C1592.12 266.613 1635.01 269.363 1704.47 276.074Z" fill="white"/>
<path d="M2157.47 916.895C2215.7 864.443 2266.47 800.681 2317.97 715.574C2253.52 734.903 2205.68 744.328 2157.47 745.411C2141.87 856.415 2146.41 881.134 2157.47 916.895Z" fill="white"/>
<path d="M2317.97 715.574C2304.06 604.485 2269.7 558.575 2157.47 508.074C2175.23 594.524 2193.47 640.076 2157.47 745.411C2205.68 744.328 2253.52 734.903 2317.97 715.574Z" fill="white"/>
<path d="M1341.47 1141.07C1290.9 1202.39 1306.97 1242.57 1211.97 1298.07C1116.97 1353.57 1089.97 1429.57 1089.97 1429.57C1151.7 1396.34 1188.92 1382.15 1263.97 1371.57L1480.47 1134.76L1341.47 1141.07Z" fill="white"/>
<path d="M136.472 443.574C141.731 495.575 139.785 520.987 80.4717 523.574C106.019 583.004 96.8685 606.747 31.4717 629.074C66.629 682.66 64.1927 706.849 5.47168 735.574C57.5335 800.327 60.9089 832.356 9.47168 880.074C79.8843 930.799 75.1152 959.428 48.9717 1010.57C88.573 1027.61 102.612 1040.02 84.9717 1077.07C199.21 972.682 273.972 943.531 424.472 938.574L524.472 948.824L531.722 600.824L438.972 650.574C278.796 615.167 219.207 562.654 136.472 443.574Z" fill="white"/>
<path d="M624.472 959.074C713.068 1096.7 711.05 1165.9 520.972 1260.57C577.136 1282.32 627.843 1295.81 676.972 1301.08M624.472 959.074L524.472 948.824M624.472 959.074C647.908 983.383 670.451 1004.9 692.997 1023.95M1118.47 1163.07L1341.47 1141.07M1118.47 1163.07C931.518 1269.22 810.037 1315.34 676.972 1301.08M1118.47 1163.07C909.947 1150.05 724.073 1036.91 692.997 1023.95M1341.47 1141.07C1290.9 1202.39 1306.97 1242.57 1211.97 1298.07C1116.97 1353.57 1089.97 1429.57 1089.97 1429.57C1151.7 1396.34 1188.92 1382.15 1263.97 1371.57M1341.47 1141.07L1480.47 1134.76M2317.97 715.574C2304.06 604.485 2269.7 558.575 2157.47 508.074M2317.97 715.574C2266.47 800.681 2215.7 864.443 2157.47 916.895M2317.97 715.574C2253.52 734.903 2205.68 744.328 2157.47 745.411M1263.97 1371.57C1526.94 1303.07 1618.32 1247.41 1704.47 1124.59M1263.97 1371.57L1480.47 1134.76M1704.47 1124.59L1792.97 1120.57C1863.86 1091.61 1924.95 1064.84 1978.97 1036.91M1704.47 1124.59L1480.47 1134.76M1704.47 1124.59C1763.28 737.178 1755.7 545.07 1531.47 265M2157.47 508.074C2067.7 408.922 1995.05 353.078 1905.47 319.3M2157.47 508.074C2175.23 594.524 2193.47 640.076 2157.47 745.411M1704.47 276.074C1600.16 151.352 1514.37 72.7506 1421.71 33.5745M1704.47 276.074C1635.01 269.363 1592.12 266.613 1531.47 265M1704.47 276.074C1784.26 285.178 1848.31 297.747 1905.47 319.3M624.472 551.074C538.49 383.981 581.428 282.533 741.472 185.719M624.472 551.074L531.722 600.824M624.472 551.074C658.77 528.011 691.887 506.54 724.073 486.589M2033.47 733C2080.7 741.874 2119.2 746.271 2157.47 745.411M676.972 1301.08C776.094 1168.94 771.718 1087.66 692.997 1023.95M741.472 185.719C822.867 136.481 934.551 88.4416 1074.97 33.5745C1124.77 20.0944 1170.01 10.9826 1211.97 6.57136M741.472 185.719C782.558 246.214 820.556 262.321 724.073 486.589M524.472 948.824L424.472 938.574C273.972 943.531 199.21 972.682 84.9717 1077.07C102.612 1040.02 88.573 1027.61 48.9717 1010.57C75.1152 959.428 79.8843 930.799 9.47168 880.074C60.9089 832.356 57.5335 800.327 5.47168 735.574C64.1927 706.849 66.629 682.66 31.4717 629.074C96.8685 606.747 106.019 583.004 80.4717 523.574C139.785 520.987 141.731 495.575 136.472 443.574C219.207 562.654 278.796 615.167 438.972 650.574L531.722 600.824M524.472 948.824L531.722 600.824M1480.47 1134.76C1285.96 801.143 1165.27 620.718 1261.97 276.074M1261.97 276.074C1242.39 164.155 1279.74 101.696 1211.97 6.57136M1261.97 276.074C1315.39 272.047 1472.14 263.422 1531.47 265M1261.97 276.074C1045.52 292.392 946.868 348.483 724.073 486.589M1211.97 6.57136C1290.69 -1.70492 1357.83 6.56467 1421.71 33.5745M1421.71 33.5745C1478.59 113.565 1525.43 163.175 1531.47 265M1905.47 319.3C1861.39 599.558 1872.93 756.662 1978.97 1036.91M1978.97 1036.91C2048.17 1001.14 2105.76 963.479 2157.47 916.895M2157.47 916.895C2146.41 881.134 2141.87 856.415 2157.47 745.411M692.997 1023.95C743.881 903.256 769.78 891.882 724.073 486.589" stroke="black" stroke-width="7"/>
<ellipse cx="60" cy="55" rx="60" ry="55" transform="matrix(-1 0 0 1 2100.47 468.5)" fill="#F5F5F5"/>
<ellipse cx="35.5358" cy="31.368" rx="35.5358" ry="31.368" transform="matrix(-1 0 0 1 2096.19 497.018)" fill="#181617"/>
<ellipse cx="14.9721" cy="2.45729" rx="14.9721" ry="2.45729" transform="matrix(-0.821243 0.570579 0.609513 0.792776 2056.86 502.277)" fill="white"/>
<ellipse cx="7.61482" cy="9.6517" rx="7.61482" ry="9.6517" transform="matrix(-1 0 0 1 2087.62 525.537)" fill="white"/>
</svg>
