<svg width="1547" height="567" viewBox="0 0 1547 567" fill="none" xmlns="http://www.w3.org/2000/svg">
<path fill-rule="evenodd" clip-rule="evenodd" d="M79.143 207.358C12.2484 233.711 0.592551 255.502 3.12644 263.104L74.0755 293.511C9.20797 301.619 -0.252009 317.16 3.12644 323.917C13.6619 356.577 74.1356 393.18 145.024 425.893C155.809 430.871 166.836 435.758 177.964 440.528C190.103 445.73 202.362 450.793 214.563 455.679C227.85 461.002 241.068 466.116 253.981 470.975C318.725 495.338 375.829 513.298 395.879 519.026C438.448 531.189 754.846 519.027 907.724 511.425C929.124 507.584 948.259 502.926 966.003 497.617C1051.13 472.147 1104.25 431.692 1221.93 394.564C1260.95 382.252 1307.08 370.305 1363.82 359.392V285.909C1356.22 286.754 1334.94 287.936 1310.61 285.909C1296.67 284.747 1219.85 255.877 1138.31 223.489C1070.21 196.443 998.83 166.944 958.019 149.079C941.13 141.686 929.477 136.285 925.461 133.876C900.123 118.672 555.514 50.2575 373.074 78.1302C190.634 106.003 155.16 123.74 122.219 133.876C95.8669 141.984 82.5216 186.243 79.143 207.358ZM623.928 220.028C597.576 226.109 565.649 225.94 552.98 225.096C559.737 245.367 571.73 293.511 565.649 323.917C557.034 355.038 616.899 226.911 776.534 348.538C809.475 257.318 759.06 316.334 794.534 182.038C731.694 139.468 669.538 190.466 623.928 220.028ZM398.412 394.866C406.521 396.893 418.683 382.197 423.751 374.595C428.819 346.722 403.48 359.392 393.345 364.46C383.209 369.527 388.277 392.332 398.412 394.866ZM489.632 328.985C489.632 374.595 494.7 364.46 499.768 372.061C501.457 374.595 506.863 377.129 514.971 366.993C525.107 354.324 517.505 331.519 514.971 318.85C512.437 306.18 499.768 288.443 482.031 290.977C467.841 293.004 481.186 317.16 489.632 328.985Z" fill="#D59759"/>
<path d="M552.98 225.096C565.649 225.94 597.576 226.109 623.928 220.028C669.538 190.466 731.694 139.468 794.534 182.038C759.06 316.334 809.475 257.318 776.534 348.538C616.899 226.911 557.034 355.038 565.649 323.917C571.73 293.511 559.737 245.367 552.98 225.096Z" fill="#FEE9D4"/>
<path d="M1209.26 2.5376C1097.77 5.07148 1120.57 70.5286 958.019 149.079C1037.54 141.251 1184.93 145.174 1138.31 223.489C1249.8 205.987 1206.72 183.233 1270.07 206.038C1333.42 221.241 1366.36 22.8087 1209.26 2.5376Z" fill="#FEE9D4"/>
<path d="M261.583 175.461C278.821 169.331 296.996 168.108 309.727 169.35C348.916 173.174 368.11 190.067 376.588 209.892C440.213 226.109 436.23 203.135 426.285 189.621C503.315 177.459 449.935 149.079 413.616 136.41C438.955 123.74 459.226 118.672 329.998 126.274C226.615 132.355 241.312 161.6 261.583 175.461Z" fill="#533F2A"/>
<path d="M499.768 372.061C494.7 364.46 489.632 374.595 489.632 328.985C481.186 317.16 467.841 293.004 482.031 290.977C499.768 288.443 512.437 306.18 514.971 318.85C517.505 331.519 525.107 354.324 514.971 366.993C506.863 377.129 501.457 374.595 499.768 372.061Z" fill="#533F2A"/>
<path d="M423.751 374.595C418.683 382.197 406.521 396.893 398.412 394.866C388.277 392.332 383.209 369.527 393.345 364.46C403.48 359.392 428.819 346.722 423.751 374.595Z" fill="#533F2A"/>
<path d="M966.003 497.617C1171.25 519.026 1117.02 547.821 1224.46 564.038C1255.71 562.348 1337.98 567.17 1325.82 445.544C1324.97 434.363 1303.01 408.513 1221.93 394.564C1104.25 431.692 1051.13 472.147 966.003 497.617Z" fill="#FEE9D4"/>
<path d="M958.019 149.079C998.83 166.944 1070.21 196.443 1138.31 223.489C1184.93 145.174 1037.54 141.251 958.019 149.079Z" fill="#533F2A"/>
<path d="M214.563 455.679C222.95 481.874 223.738 504.847 222.563 518.813C225.851 503.692 234.734 482.261 253.981 470.975C241.068 466.116 227.85 461.002 214.563 455.679Z" fill="#D6985A"/>
<path d="M145.024 425.893C157.187 470.986 158.538 494.946 157.693 501.289C160.227 484.431 167.829 448.677 177.964 440.528C166.836 435.758 155.809 430.871 145.024 425.893Z" fill="#D6985A"/>
<path d="M1363.82 285.909V359.392C1386.63 399.934 1381.56 410.069 1391.7 448.078C1401.83 486.086 1460.11 579.626 1495.59 518.813C1523.96 470.162 1540.77 404.201 1523.03 367.038C1549.22 286.798 1553.44 232.191 1523.03 220.028C1492.63 207.865 1425.48 235.231 1363.82 285.909Z" fill="#FEE9D4"/>
<path d="M661.937 237.765C688.965 228.474 753.729 212.426 776.534 220.028M682.208 268.172H771.534M668.034 282.038C696.752 288.795 762.344 312.902 776.534 323.038M1363.82 285.909C1356.22 286.754 1334.94 287.936 1310.61 285.909C1296.67 284.747 1219.85 255.877 1138.31 223.489M1363.82 285.909V359.392M1363.82 285.909C1425.48 235.231 1492.63 207.865 1523.03 220.028C1553.44 232.191 1549.22 286.798 1523.03 367.038C1540.77 404.201 1523.96 470.162 1495.59 518.813C1460.11 579.626 1401.83 486.086 1391.7 448.078C1381.56 410.069 1386.63 399.934 1363.82 359.392M1363.82 359.392C1307.08 370.305 1260.95 382.252 1221.93 394.564M958.019 149.079C941.13 141.686 929.477 136.285 925.461 133.876C900.123 118.672 555.514 50.2575 373.074 78.1302C190.634 106.003 155.16 123.74 122.219 133.876C95.8669 141.984 82.5216 186.243 79.143 207.358C12.2484 233.711 0.592551 255.502 3.12644 263.104L74.0755 293.511C9.20797 301.619 -0.252009 317.16 3.12644 323.917C13.6619 356.577 74.1356 393.18 145.024 425.893M958.019 149.079C1120.57 70.5286 1097.77 5.07148 1209.26 2.5376C1366.36 22.8087 1333.42 221.241 1270.07 206.038C1206.72 183.233 1249.8 205.987 1138.31 223.489M958.019 149.079C998.83 166.944 1070.21 196.443 1138.31 223.489M958.019 149.079C1037.54 141.251 1184.93 145.174 1138.31 223.489M1095.23 113.605L1199.03 38.5376M1166.18 133.876L1295.41 73.0625M1191.52 164.282L1295.41 161.749M1424.64 303.646L1531.06 242.833M1404.37 341.654H1531.06M1424.64 374.595L1495.59 450.612M966.003 497.617C948.259 502.926 929.124 507.584 907.724 511.425C754.846 519.027 438.448 531.189 395.879 519.026C375.829 513.298 318.725 495.338 253.981 470.975M966.003 497.617C1171.25 519.026 1117.02 547.821 1224.46 564.038C1255.71 562.348 1337.98 567.17 1325.82 445.544C1324.97 434.363 1303.01 408.513 1221.93 394.564M966.003 497.617C1051.13 472.147 1104.25 431.692 1221.93 394.564M1161.11 506.357C1171.25 520.716 1195.07 549.94 1209.26 551.967M1191.52 486.086C1207.57 499.6 1241.18 526.628 1247.26 526.628M1214.32 450.612C1227.84 459.058 1257.91 475.95 1270.07 475.95M145.024 425.893C157.187 470.986 158.538 494.946 157.693 501.289C160.227 484.431 167.829 448.677 177.964 440.528M145.024 425.893C155.809 430.871 166.836 435.758 177.964 440.528M177.964 440.528C190.103 445.73 202.362 450.793 214.563 455.679M214.563 455.679C227.85 461.002 241.068 466.116 253.981 470.975M214.563 455.679C222.95 481.874 223.738 504.847 222.563 518.813M253.981 470.975C234.734 482.261 225.851 503.692 222.563 518.813M222.563 518.813C221.695 522.803 221.217 526.353 221.04 529.162C221.625 526.731 222.192 523.22 222.563 518.813ZM552.98 225.096C565.649 225.94 597.576 226.109 623.928 220.028C669.538 190.466 731.694 139.468 794.534 182.038C759.06 316.334 809.475 257.318 776.534 348.538C616.899 226.911 557.034 355.038 565.649 323.917C571.73 293.511 559.737 245.367 552.98 225.096ZM309.727 169.35C296.996 168.108 278.821 169.331 261.583 175.461C241.312 161.6 226.615 132.355 329.998 126.274C459.226 118.672 438.955 123.74 413.616 136.41C449.935 149.079 503.315 177.459 426.285 189.621C436.23 203.135 440.213 226.109 376.588 209.892C368.11 190.067 348.916 173.174 309.727 169.35ZM423.751 374.595C418.683 382.197 406.521 396.893 398.412 394.866C388.277 392.332 383.209 369.527 393.345 364.46C403.48 359.392 428.819 346.722 423.751 374.595ZM499.768 372.061C494.7 364.46 489.632 374.595 489.632 328.985C481.186 317.16 467.841 293.004 482.031 290.977C499.768 288.443 512.437 306.18 514.971 318.85C517.505 331.519 525.107 354.324 514.971 366.993C506.863 377.129 501.457 374.595 499.768 372.061Z" stroke="#533F2A" stroke-width="5.06777"/>
<ellipse cx="309.948" cy="225.391" rx="56.5" ry="55" fill="#F5F5F5"/>
<ellipse cx="290.944" cy="230.277" rx="33.4629" ry="31.368" fill="#181617"/>
<ellipse cx="14.3888" cy="2.40504" rx="14.3888" ry="2.40504" transform="matrix(0.804682 0.593705 -0.586428 0.810001 294.512 204.168)" fill="white"/>
<ellipse cx="272.725" cy="237.08" rx="7.17062" ry="9.6517" fill="white"/>
</svg>
