<svg width="2168" height="2351" viewBox="0 0 2168 2351" fill="none" xmlns="http://www.w3.org/2000/svg">
<path d="M348.116 1348.69C346.547 1287.24 352.924 1222.52 368.847 1154.79C193.791 1106.2 259.771 1323.98 348.116 1348.69Z" fill="#D59759"/>
<path d="M1045.7 2181.24C1043.82 2155.99 1047.93 2109.98 1075.33 2062.76C1053.66 2067.13 1029.36 2068.37 1003.14 2066.61C1029.81 2115.15 1041.69 2157.96 1045.7 2181.24Z" fill="#D59759"/>
<path d="M668.142 1928.65C674.206 1964.24 653.147 2010.01 637.745 2035.44C649.146 2020.04 674.959 1993.37 720.812 1964.35C703.107 1953.29 685.507 1941.38 668.142 1928.65Z" fill="#D59759"/>
<path d="M1502.68 1902.79C1559.83 1931.39 1591.27 1959.79 1605.39 1977.4C1589.61 1951.79 1567.07 1905.84 1562.29 1859.83C1543.9 1874.59 1524.06 1888.93 1502.68 1902.79Z" fill="#D59759"/>
<path d="M1746.88 1594.52C1815.07 1575.64 1869.61 1577.88 1904.69 1585.15C1854.53 1567 1787.81 1536.71 1765.78 1504.36C1762.08 1534.46 1755.93 1564.61 1746.88 1594.52Z" fill="#D59759"/>
<path d="M1680.93 1078.58L1680.93 1078.58C1683.65 1084.07 1686.35 1089.62 1689.02 1095.24C1697.74 1113.49 1706.23 1132.92 1714.23 1153.33C1730.17 1116.05 1807.86 1052.07 1854.6 1017.25C1814.41 1045.25 1738.72 1086.24 1680.93 1078.58Z" fill="#D59759"/>
<path d="M1604.2 635.425C1575.78 678.401 1505.83 768.489 1453.39 785.039C1477.21 804.069 1500.48 825.275 1523.08 848.815C1517.28 801.209 1574.74 686.719 1604.2 635.425Z" fill="#D59759"/>
<path d="M385.847 1092.87C391.626 1074.46 398.108 1055.83 405.324 1037.01C402.582 1017.37 402.549 997.188 405.518 977.403C374.589 929.119 323.427 751.797 293.172 826.083C286.957 841.344 291.963 870.969 301.137 896.646C271.041 844.253 207.892 762.176 196.065 853.012C184.239 943.847 317.659 1050.77 385.847 1092.87Z" fill="#FEE9D4"/>
<path fill-rule="evenodd" clip-rule="evenodd" d="M894.198 229.227C784.042 317.992 893.699 544.462 962.297 646.601C987.817 643.909 1013.78 642.462 1040.03 642.434C1138.2 510.318 1225.03 370.985 1233.34 276.998C1240 201.808 1140.94 215.144 1090.57 231.211C1082.12 198.257 1036.44 218.527 1014.66 232.782C1011.32 195.544 949.915 219.554 919.629 236.213C917.782 214.263 901.906 222.41 894.198 229.227ZM920.233 309.677C904.308 355.585 892.399 476.425 972.167 592.523C964.421 479.353 943.188 264.347 920.233 309.677ZM999.677 576.012C1015.5 481.9 1039.9 295.401 1010.87 302.305C981.844 309.209 991.314 487.653 999.677 576.012ZM1031.05 569.317C1084.21 486.006 1180.9 323.744 1142.41 341.178C1103.93 358.612 1052.14 500.534 1031.05 569.317Z" fill="#FEE9D4"/>
<path fill-rule="evenodd" clip-rule="evenodd" d="M415.787 1460.92C494.228 1413 675.031 1274.29 770.722 1102.78C785.392 1075.27 819.017 1044.06 836.16 1139.36C857.589 1258.47 589.925 1505.69 549.257 1507.54C530.423 1518.74 479.46 1536.18 426.278 1516.32C373.096 1496.46 397.125 1471.11 415.787 1460.92ZM749.763 1179.07C769.09 1134.61 816.604 1132.89 791.329 1191.04C752.077 1257.12 684.766 1354.38 615.651 1421.41C555.741 1479.5 494.475 1514.88 448.953 1487.54C431.523 1470.68 535.162 1438.61 646.321 1319.4C681.232 1281.96 716.885 1235.93 749.763 1179.07Z" fill="#AD7134"/>
<path d="M646.321 1319.4C535.162 1438.61 431.523 1470.68 448.953 1487.54C494.475 1514.88 555.741 1479.5 615.651 1421.41C590.428 1426.46 625.588 1355.51 646.321 1319.4Z" fill="#C97072"/>
<path d="M791.329 1191.04C816.604 1132.89 769.09 1134.61 749.763 1179.07C716.885 1235.93 681.232 1281.96 646.321 1319.4C625.588 1355.51 590.428 1426.46 615.651 1421.41C684.766 1354.38 752.077 1257.12 791.329 1191.04Z" fill="#FFADAE"/>
<path d="M999.677 576.012C1015.5 481.9 1039.9 295.401 1010.87 302.305C981.844 309.209 991.314 487.653 999.677 576.012Z" fill="#CFB296"/>
<path d="M1031.05 569.317C1084.21 486.006 1180.9 323.744 1142.41 341.178C1103.93 358.612 1052.14 500.534 1031.05 569.317Z" fill="#CFB296"/>
<path d="M920.233 309.677C904.308 355.585 892.399 476.425 972.167 592.523C964.421 479.353 943.188 264.347 920.233 309.677Z" fill="#CFB296"/>
<path fill-rule="evenodd" clip-rule="evenodd" d="M348.116 1348.69C346.547 1287.24 352.924 1222.52 368.847 1154.79C373.636 1134.42 379.288 1113.78 385.847 1092.87C391.626 1074.46 398.108 1055.83 405.324 1037.01C402.582 1017.37 402.549 997.188 405.518 977.403C415.416 911.451 458.667 849.913 546.076 827.648C624.788 746.284 782.537 665.563 962.297 646.601C987.817 643.909 1013.78 642.462 1040.03 642.434C1177.96 642.289 1323.65 681.361 1453.39 785.039C1477.21 804.069 1500.48 825.275 1523.08 848.815C1581.01 909.178 1634.45 984.885 1680.93 1078.58C1683.65 1084.07 1686.35 1089.62 1689.02 1095.24C1697.74 1113.49 1706.23 1132.92 1714.23 1153.33C1740.81 1221.16 1761.99 1299.87 1768.25 1382.47C1195.02 1322.57 916.425 1402.98 503.572 1770.14C414.722 1657.11 352.361 1514.87 348.116 1348.69ZM415.787 1460.92C494.228 1413 675.031 1274.29 770.722 1102.78C785.392 1075.27 819.017 1044.06 836.16 1139.36C857.589 1258.47 589.925 1505.69 549.257 1507.54C530.423 1518.74 479.46 1536.18 426.278 1516.32C373.096 1496.46 397.125 1471.11 415.787 1460.92ZM1485.49 960.005C1481.98 961.388 1477.5 962.902 1472.11 964.443C1477.57 962.551 1482.06 961.073 1485.49 960.005Z" fill="#D59759"/>
<path fill-rule="evenodd" clip-rule="evenodd" d="M668.142 1928.65C685.507 1941.38 703.107 1953.29 720.812 1964.35C819.093 2025.74 920.62 2061.07 1003.14 2066.61C1029.36 2068.37 1053.66 2067.13 1075.33 2062.76C1260.06 2025.5 1399.29 1969.81 1502.68 1902.79C1524.06 1888.93 1543.9 1874.59 1562.29 1859.83C1661.3 1780.36 1718.4 1688.67 1746.88 1594.52C1755.93 1564.61 1762.08 1534.46 1765.78 1504.36C1770.82 1463.35 1771.28 1422.45 1768.25 1382.47C1195.02 1322.57 916.425 1402.98 503.572 1770.14C552.218 1832.03 608.805 1885.15 668.142 1928.65ZM1402.37 1605.06C1399.33 1601.29 1395.73 1596.51 1391.8 1590.9C1396.29 1596.36 1399.82 1601.17 1402.37 1605.06Z" fill="#EED5BC"/>
<path d="M471.156 1158.63C435.539 1130.96 412.118 1085.65 405.324 1037.01M791.075 848.303C686.414 815.569 605.902 812.41 546.076 827.648M546.076 827.648C458.667 849.913 415.416 911.451 405.518 977.403M546.076 827.648C624.788 746.284 782.537 665.563 962.297 646.601M1075.33 2062.76C1053.66 2067.13 1029.36 2068.37 1003.14 2066.61M1075.33 2062.76C1260.06 2025.5 1399.29 1969.81 1502.68 1902.79M1075.33 2062.76C1047.93 2109.98 1043.82 2155.99 1045.7 2181.24M405.324 1037.01C398.108 1055.83 391.626 1074.46 385.847 1092.87M405.324 1037.01C402.582 1017.37 402.549 997.188 405.518 977.403M348.116 1348.69C346.547 1287.24 352.924 1222.52 368.847 1154.79M348.116 1348.69C259.771 1323.98 193.791 1106.2 368.847 1154.79M348.116 1348.69C352.361 1514.87 414.722 1657.11 503.572 1770.14M368.847 1154.79C373.636 1134.42 379.288 1113.78 385.847 1092.87M385.847 1092.87C317.659 1050.77 184.239 943.847 196.065 853.012C207.892 762.176 271.041 844.253 301.137 896.646C291.963 870.969 286.957 841.344 293.172 826.083C323.427 751.797 374.589 929.119 405.518 977.403M962.297 646.601C893.699 544.462 784.042 317.992 894.198 229.227C901.906 222.41 917.782 214.263 919.629 236.213C949.915 219.554 1011.32 195.544 1014.66 232.782C1036.44 218.527 1082.12 198.257 1090.57 231.211C1140.94 215.144 1240 201.808 1233.34 276.998C1225.03 370.985 1138.2 510.318 1040.03 642.434M962.297 646.601C987.817 643.909 1013.78 642.462 1040.03 642.434M1040.03 642.434C1177.96 642.289 1323.65 681.361 1453.39 785.039M646.321 1319.4C535.162 1438.61 431.523 1470.68 448.953 1487.54C494.475 1514.88 555.741 1479.5 615.651 1421.41M646.321 1319.4C681.232 1281.96 716.885 1235.93 749.763 1179.07C769.09 1134.61 816.604 1132.89 791.329 1191.04C752.077 1257.12 684.766 1354.38 615.651 1421.41M646.321 1319.4C625.588 1355.51 590.428 1426.46 615.651 1421.41M1453.39 785.039C1505.83 768.489 1575.78 678.401 1604.2 635.425C1574.74 686.719 1517.28 801.209 1523.08 848.815M1453.39 785.039C1477.21 804.069 1500.48 825.275 1523.08 848.815M1523.08 848.815C1581.01 909.178 1634.45 984.885 1680.93 1078.58M631.714 2044.82C631.781 2044.72 631.85 2044.62 631.918 2044.52M668.142 1928.65C685.507 1941.38 703.107 1953.29 720.812 1964.35M668.142 1928.65C674.206 1964.24 653.147 2010.01 637.745 2035.44M668.142 1928.65C608.805 1885.15 552.218 1832.03 503.572 1770.14M631.918 2044.52C633.068 2042.24 634.984 2039.17 637.745 2035.44M631.918 2044.52C633.705 2041.91 635.674 2038.86 637.745 2035.44M720.812 1964.35C819.093 2025.74 920.62 2061.07 1003.14 2066.61M720.812 1964.35C674.959 1993.37 649.146 2020.04 637.745 2035.44M1003.14 2066.61C1029.81 2115.15 1041.69 2157.96 1045.7 2181.24M1502.68 1902.79C1524.06 1888.93 1543.9 1874.59 1562.29 1859.83M1502.68 1902.79C1559.83 1931.39 1591.27 1959.79 1605.39 1977.4M1562.29 1859.83C1661.3 1780.36 1718.4 1688.67 1746.88 1594.52M1562.29 1859.83C1567.07 1905.84 1589.61 1951.79 1605.39 1977.4M1746.88 1594.52C1755.93 1564.61 1762.08 1534.46 1765.78 1504.36M1746.88 1594.52C1815.07 1575.64 1869.61 1577.88 1904.69 1585.15M1765.78 1504.36C1787.81 1536.71 1854.53 1567 1904.69 1585.15M1765.78 1504.36C1770.82 1463.35 1771.28 1422.45 1768.25 1382.47M1714.23 1153.33C1706.23 1132.92 1697.74 1113.49 1689.02 1095.24C1686.35 1089.62 1683.65 1084.07 1680.93 1078.58M1714.23 1153.33C1730.17 1116.05 1807.86 1052.07 1854.6 1017.25M1714.23 1153.33C1740.81 1221.16 1761.99 1299.87 1768.25 1382.47M1294.92 972.743C1375.11 983.898 1439.8 973.679 1472.11 964.443M1299.98 1035.95C1379.67 998.768 1441.38 975.076 1472.11 964.443M1335.5 1464.16C1343.11 1512.33 1371.79 1562.37 1391.8 1590.9M1274.09 1502.53C1330.3 1526.97 1371.12 1565.76 1391.8 1590.9M858.6 1635.09C883.47 1675.18 858.176 1813.84 858.176 1813.84C863.724 1782.36 885.764 1705.46 929.538 1649.65M1472.11 964.443C1477.5 962.902 1481.98 961.388 1485.49 960.005C1482.06 961.073 1477.57 962.551 1472.11 964.443ZM1391.8 1590.9C1395.73 1596.51 1399.33 1601.29 1402.37 1605.06C1399.82 1601.17 1396.29 1596.36 1391.8 1590.9ZM1045.7 2181.24C1046.52 2185.97 1047.01 2189.89 1047.23 2192.89C1046.59 2189.78 1046.05 2185.86 1045.7 2181.24ZM1605.39 1977.4C1608.37 1982.24 1611.1 1986.35 1613.43 1989.6C1612.03 1986.58 1609.42 1982.43 1605.39 1977.4ZM1904.69 1585.15C1918.3 1590.07 1930.68 1594.1 1940.63 1597.04C1933.34 1593.08 1921.16 1588.56 1904.69 1585.15ZM1854.6 1017.25C1814.41 1045.25 1738.72 1086.24 1680.93 1078.58L1680.93 1078.58M1854.6 1017.25C1859.34 1013.95 1863.58 1010.83 1867.24 1007.99C1863.38 1010.77 1859.13 1013.88 1854.6 1017.25ZM1768.25 1382.47C1195.02 1322.57 916.425 1402.98 503.572 1770.14M920.233 309.677C904.308 355.585 892.399 476.425 972.167 592.523C964.421 479.353 943.188 264.347 920.233 309.677ZM999.677 576.012C1015.5 481.9 1039.9 295.401 1010.87 302.305C981.844 309.209 991.314 487.653 999.677 576.012ZM1031.05 569.317C1084.21 486.006 1180.9 323.744 1142.41 341.178C1103.93 358.612 1052.14 500.534 1031.05 569.317ZM415.787 1460.92C494.228 1413 675.031 1274.29 770.722 1102.78C785.392 1075.27 819.017 1044.06 836.16 1139.36C857.589 1258.47 589.925 1505.69 549.257 1507.54C530.423 1518.74 479.46 1536.18 426.278 1516.32C373.096 1496.46 397.125 1471.11 415.787 1460.92Z" stroke="#070707" stroke-width="5.27459"/>
<path d="M1073.53 691.48C1121.08 617.936 1243.55 482.741 1353.01 530.316C1364.91 534.132 1377.23 545.72 1331.3 561.549C1344.47 573.37 1364.23 596.195 1338 592.926C1311.77 589.658 1150.75 657.267 1073.53 691.48Z" fill="#FEE9D4" stroke="#533F2A" stroke-width="5.27459"/>
<ellipse cx="571.672" cy="980.7" rx="90.5" ry="89" transform="rotate(-21.5083 571.672 980.7)" fill="#F5F5F5"/>
<ellipse cx="546.251" cy="999.217" rx="53.5999" ry="50.7592" transform="rotate(-21.5083 546.251 999.217)" fill="#181617"/>
<ellipse cx="23.1311" cy="3.87826" rx="23.1311" ry="3.87826" transform="matrix(0.965055 0.262047 -0.243932 0.969792 536.078 957.815)" fill="white"/>
<ellipse cx="523.136" cy="1020.16" rx="11.4857" ry="15.6182" transform="rotate(-21.5083 523.136 1020.16)" fill="white"/>
</svg>
