<svg width="1971" height="2213" viewBox="0 0 1971 2213" fill="none" xmlns="http://www.w3.org/2000/svg">
<path d="M232.082 1170.49C239.499 1109.46 255.256 1046.36 280.895 981.684C114.806 908.061 148.291 1133.14 232.082 1170.49Z" fill="#D59759"/>
<path d="M800.674 2095.94C802.492 2070.69 813.272 2025.77 847.273 1983.05C825.2 1984.22 800.979 1981.9 775.3 1976.33C794.596 2028.24 800.099 2072.33 800.674 2095.94Z" fill="#D59759"/>
<path d="M464.025 1790.95C464.83 1827.04 437.315 1869.25 418.367 1892.15C431.893 1878.58 461.322 1855.97 510.92 1833.95C495.019 1820.43 479.345 1806.08 464.025 1790.95Z" fill="#D59759"/>
<path d="M1293.41 1887.17C1345.76 1923.81 1372.72 1956.5 1384.12 1975.99C1372.25 1948.34 1356.66 1899.59 1358.65 1853.38C1338.29 1865.3 1316.57 1876.59 1293.41 1887.17Z" fill="#D59759"/>
<path d="M1579.98 1617.86C1650.19 1609.13 1703.82 1619.31 1737.47 1631.62C1690.49 1606.34 1628.91 1566.64 1611.84 1531.42C1603.79 1560.65 1593.3 1589.59 1579.98 1617.86Z" fill="#D59759"/>
<path d="M1590.04 1097.82L1590.05 1097.82C1591.94 1103.64 1593.8 1109.53 1595.62 1115.47C1601.58 1134.8 1607.15 1155.26 1612.08 1176.63C1633.29 1142.07 1719.49 1090.11 1770.81 1062.49C1726.96 1084.33 1646.1 1113.83 1590.04 1097.82Z" fill="#D59759"/>
<path d="M1578.83 648.206C1544.44 686.573 1462.09 765.486 1407.8 774.205C1428.58 796.507 1448.51 820.883 1467.42 847.469C1468.64 799.526 1542.2 694.651 1578.83 648.206Z" fill="#D59759"/>
<path d="M306.75 922.916C315.155 905.538 324.286 888.06 334.173 870.492C334.326 850.663 337.24 830.693 343.065 811.553C319.515 759.271 294.784 576.381 254.01 645.455C245.634 659.645 246.262 689.684 251.59 716.425C229.464 660.2 178.972 569.785 154.013 657.921C129.054 746.057 245.438 871.307 306.75 922.916Z" fill="#FEE9D4"/>
<path fill-rule="evenodd" clip-rule="evenodd" d="M935.72 142.721C813.787 214.456 889.212 454.507 942.166 565.566C967.806 566.627 993.704 568.986 1019.67 572.789C1136.08 456.418 1242.31 331.251 1264.26 239.484C1281.82 166.071 1181.87 164.805 1129.7 173.348C1126.15 139.514 1078 152.899 1054.37 163.821C1056.5 126.495 992.252 141.285 959.859 153.345C961.236 131.361 944.34 137.102 935.72 142.721ZM949.732 226.11C927.277 269.202 897.858 387.009 959.825 513.507C968.68 400.419 979.059 184.616 949.732 226.11ZM989.45 501.189C1018.84 410.395 1070.2 229.455 1040.48 232.047C1010.75 234.64 994.074 412.555 989.45 501.189ZM1021.47 499.145C1086.21 424.486 1205.55 278.075 1164.94 289.704C1124.32 301.334 1052.37 434.177 1021.47 499.145Z" fill="#FEE9D4"/>
<path fill-rule="evenodd" clip-rule="evenodd" d="M282.646 1291.39C367.241 1255.44 566.356 1144.6 686.057 988.895C704.585 963.818 742.405 937.856 745.455 1034.63C749.267 1155.6 448.385 1361.1 407.882 1356.99C387.615 1365.33 334.652 1375.14 284.939 1347.73C235.226 1320.31 262.697 1298.75 282.646 1291.39ZM654.185 1061.31C679.797 1020.14 727.052 1025.38 693.56 1079.22C645.083 1138.86 564.296 1225.26 486.137 1281.47C418.389 1330.2 352.616 1356.26 311.572 1322.57C296.79 1303.34 403.999 1286.75 531.368 1185.04C571.37 1153.1 613.361 1112.76 654.185 1061.31Z" fill="#AD7134"/>
<path d="M531.368 1185.04C403.999 1286.75 296.79 1303.34 311.572 1322.57C352.616 1356.26 418.389 1330.2 486.137 1281.47C460.447 1282.79 505.587 1217.73 531.368 1185.04Z" fill="#C97072"/>
<path d="M693.56 1079.22C727.052 1025.38 679.797 1020.14 654.185 1061.31C613.361 1112.76 571.37 1153.1 531.368 1185.04C505.587 1217.73 460.447 1282.79 486.137 1281.47C564.296 1225.26 645.083 1138.86 693.56 1079.22Z" fill="#FFADAE"/>
<path d="M989.45 501.189C1018.84 410.395 1070.2 229.455 1040.48 232.047C1010.75 234.64 994.074 412.555 989.45 501.189Z" fill="#CFB296"/>
<path d="M1021.47 499.145C1086.21 424.486 1205.55 278.075 1164.94 289.704C1124.32 301.334 1052.37 434.177 1021.47 499.145Z" fill="#CFB296"/>
<path d="M949.732 226.11C927.277 269.202 897.858 387.009 959.825 513.507C968.68 400.419 979.059 184.616 949.732 226.11Z" fill="#CFB296"/>
<path fill-rule="evenodd" clip-rule="evenodd" d="M232.082 1170.49C239.499 1109.46 255.256 1046.36 280.895 981.684C288.605 962.233 297.21 942.639 306.75 922.916C315.155 905.538 324.286 888.06 334.173 870.492C334.326 850.663 337.24 830.693 343.065 811.553C362.483 747.752 414.254 693.186 503.977 683.919C593.722 614.915 761.564 558.085 942.166 565.566C967.806 566.627 993.704 568.986 1019.67 572.789C1156.15 592.78 1294.58 652.699 1407.8 774.205C1428.58 796.507 1448.51 820.883 1467.42 847.469C1515.93 915.642 1557.74 998.338 1590.05 1097.82C1591.94 1103.64 1593.8 1109.53 1595.62 1115.47C1601.58 1134.8 1607.15 1155.26 1612.08 1176.63C1628.48 1247.61 1637.94 1328.57 1632.08 1411.2C1073.72 1268.26 786.379 1307.15 324.355 1610.11C252.955 1485.33 212.025 1335.5 232.082 1170.49ZM282.646 1291.39C367.241 1255.44 566.356 1144.6 686.057 988.895C704.585 963.818 742.405 937.856 745.455 1034.63C749.267 1155.6 448.385 1361.1 407.882 1356.99C387.615 1365.33 334.652 1375.14 284.939 1347.73C235.226 1320.31 262.697 1298.75 282.646 1291.39ZM1414.01 951.982C1410.34 952.838 1405.68 953.68 1400.12 954.418C1405.81 953.345 1410.46 952.537 1414.01 951.982Z" fill="#D59759"/>
<path fill-rule="evenodd" clip-rule="evenodd" d="M464.025 1790.95C479.345 1806.08 495.019 1820.43 510.92 1833.95C599.187 1909.03 694.47 1958.8 775.3 1976.33C800.979 1981.9 825.2 1984.22 847.273 1983.05C1035.46 1973.16 1181.34 1938.39 1293.41 1887.17C1316.57 1876.59 1338.29 1865.3 1358.65 1853.38C1468.19 1789.22 1538.07 1706.84 1579.98 1617.86C1593.3 1589.59 1603.79 1560.65 1611.84 1531.42C1622.81 1491.58 1629.24 1451.19 1632.08 1411.2C1073.72 1268.26 786.379 1307.15 324.355 1610.11C363.447 1678.44 411.674 1739.25 464.025 1790.95ZM1237.62 1577.99C1235.16 1573.82 1232.3 1568.57 1229.23 1562.45C1232.87 1568.5 1235.67 1573.78 1237.62 1577.99Z" fill="#EED5BC"/>
<path d="M381.547 1000.42C350.35 967.85 333.793 919.608 334.173 870.492M743.337 740.114C644.574 692.454 565.386 677.576 503.977 683.919M503.977 683.919C414.254 693.186 362.483 747.752 343.065 811.553M503.977 683.919C593.722 614.915 761.564 558.085 942.166 565.566M847.273 1983.05C825.2 1984.22 800.979 1981.9 775.3 1976.33M847.273 1983.05C1035.46 1973.16 1181.34 1938.39 1293.41 1887.17M847.273 1983.05C813.272 2025.77 802.492 2070.69 800.674 2095.94M334.173 870.492C324.286 888.06 315.155 905.538 306.75 922.916M334.173 870.492C334.326 850.663 337.24 830.693 343.065 811.553M232.082 1170.49C239.499 1109.46 255.256 1046.36 280.895 981.684M232.082 1170.49C148.291 1133.14 114.806 908.061 280.895 981.684M232.082 1170.49C212.025 1335.5 252.955 1485.33 324.355 1610.11M280.895 981.684C288.605 962.233 297.21 942.639 306.75 922.916M306.75 922.916C245.438 871.307 129.054 746.057 154.013 657.921C178.972 569.785 229.464 660.2 251.59 716.425C246.262 689.684 245.634 659.645 254.01 645.455C294.784 576.381 319.515 759.271 343.065 811.553M942.166 565.566C889.212 454.507 813.787 214.456 935.72 142.721C944.34 137.102 961.236 131.361 959.859 153.345C992.252 141.285 1056.5 126.495 1054.37 163.821C1078 152.899 1126.15 139.514 1129.7 173.348C1181.87 164.805 1281.82 166.071 1264.26 239.484C1242.31 331.251 1136.08 456.418 1019.67 572.789M942.166 565.566C967.806 566.627 993.704 568.986 1019.67 572.789M1019.67 572.789C1156.15 592.78 1294.58 652.699 1407.8 774.205M531.368 1185.04C403.999 1286.75 296.79 1303.34 311.572 1322.57C352.616 1356.26 418.389 1330.2 486.137 1281.47M531.368 1185.04C571.37 1153.1 613.361 1112.76 654.185 1061.31C679.797 1020.14 727.052 1025.38 693.56 1079.22C645.083 1138.86 564.296 1225.26 486.137 1281.47M531.368 1185.04C505.587 1217.73 460.447 1282.79 486.137 1281.47M1407.8 774.205C1462.09 765.486 1544.44 686.573 1578.83 648.206C1542.2 694.651 1468.64 799.526 1467.42 847.469M1407.8 774.205C1428.58 796.507 1448.51 820.883 1467.42 847.469M1467.42 847.469C1515.93 915.642 1557.74 998.338 1590.05 1097.82M411.031 1900.55C411.112 1900.46 411.194 1900.38 411.276 1900.29M464.025 1790.95C479.345 1806.08 495.019 1820.43 510.92 1833.95M464.025 1790.95C464.83 1827.04 437.315 1869.25 418.367 1892.15M464.025 1790.95C411.674 1739.25 363.447 1678.44 324.355 1610.11M411.276 1900.29C412.747 1898.2 415.091 1895.44 418.367 1892.15M411.276 1900.29C413.425 1897.97 415.818 1895.24 418.367 1892.15M510.92 1833.95C599.187 1909.03 694.47 1958.8 775.3 1976.33M510.92 1833.95C461.322 1855.97 431.893 1878.58 418.367 1892.15M775.3 1976.33C794.596 2028.24 800.099 2072.33 800.674 2095.94M1293.41 1887.17C1316.57 1876.59 1338.29 1865.3 1358.65 1853.38M1293.41 1887.17C1345.76 1923.81 1372.72 1956.5 1384.12 1975.99M1358.65 1853.38C1468.19 1789.22 1538.07 1706.84 1579.98 1617.86M1358.65 1853.38C1356.66 1899.59 1372.25 1948.34 1384.12 1975.99M1579.98 1617.86C1593.3 1589.59 1603.79 1560.65 1611.84 1531.42M1579.98 1617.86C1650.19 1609.13 1703.82 1619.31 1737.47 1631.62M1611.84 1531.42C1628.91 1566.64 1690.49 1606.34 1737.47 1631.62M1611.84 1531.42C1622.81 1491.58 1629.24 1451.19 1632.08 1411.2M1612.08 1176.63C1607.15 1155.26 1601.58 1134.8 1595.62 1115.47C1593.8 1109.53 1591.94 1103.64 1590.05 1097.82M1612.08 1176.63C1633.29 1142.07 1719.49 1090.11 1770.81 1062.49M1612.08 1176.63C1628.48 1247.61 1637.94 1328.57 1632.08 1411.2M1223.62 936.766C1301.33 959.507 1366.81 958.84 1400.12 954.418M1219.4 1000.03C1303.66 974.882 1368.17 960.451 1400.12 954.418M1192.04 1428.84C1192.54 1477.61 1213.6 1531.3 1229.23 1562.45M1125.68 1457.84C1177.73 1490.22 1212.45 1534.56 1229.23 1562.45M695.294 1528.33C714.046 1571.62 668.782 1705.1 668.782 1705.1C678.866 1674.77 711.896 1601.91 763.346 1553.09M1400.12 954.418C1405.68 953.68 1410.34 952.838 1414.01 951.982C1410.46 952.537 1405.81 953.345 1400.12 954.418ZM1229.23 1562.45C1232.3 1568.57 1235.16 1573.82 1237.62 1577.99C1235.67 1573.78 1232.87 1568.5 1229.23 1562.45ZM800.674 2095.94C800.791 2100.74 800.704 2104.69 800.488 2107.69C800.308 2104.52 800.341 2100.56 800.674 2095.94ZM1384.12 1975.99C1386.36 1981.2 1388.46 1985.67 1390.3 1989.23C1389.35 1986.03 1387.37 1981.55 1384.12 1975.99ZM1737.47 1631.62C1750.21 1638.48 1761.88 1644.27 1771.29 1648.63C1764.65 1643.64 1753.26 1637.4 1737.47 1631.62ZM1770.81 1062.49C1726.96 1084.33 1646.1 1113.83 1590.04 1097.82L1590.05 1097.82M1770.81 1062.49C1775.98 1059.92 1780.63 1057.45 1784.67 1055.18C1780.44 1057.36 1775.79 1059.81 1770.81 1062.49ZM1632.08 1411.2C1073.72 1268.26 786.379 1307.15 324.355 1610.11M949.732 226.11C927.277 269.202 897.858 387.009 959.825 513.507C968.68 400.419 979.059 184.616 949.732 226.11ZM989.45 501.189C1018.84 410.395 1070.2 229.455 1040.48 232.047C1010.75 234.64 994.074 412.555 989.45 501.189ZM1021.47 499.145C1086.21 424.486 1205.55 278.075 1164.94 289.704C1124.32 301.334 1052.37 434.177 1021.47 499.145ZM282.646 1291.39C367.241 1255.44 566.356 1144.6 686.057 988.895C704.585 963.818 742.405 937.856 745.455 1034.63C749.267 1155.6 448.385 1361.1 407.882 1356.99C387.615 1365.33 334.652 1375.14 284.939 1347.73C235.226 1320.31 262.697 1298.75 282.646 1291.39Z" stroke="#070707" stroke-width="5.27459"/>
<path d="M1045.65 626.2C1103.43 560.385 1244.33 444.515 1345.67 507.558C1356.88 513.069 1367.38 526.331 1319.64 535.287C1330.93 548.903 1347.16 574.369 1321.68 567.306C1296.21 560.243 1127.05 603.626 1045.65 626.2Z" fill="#FEE9D4" stroke="#533F2A" stroke-width="5.27459"/>
<ellipse cx="506.959" cy="839.069" rx="90.5" ry="89" transform="rotate(-13.115 506.959 839.069)" fill="#F5F5F5"/>
<ellipse cx="479.107" cy="853.676" rx="53.5999" ry="50.7592" transform="rotate(-13.115 479.107 853.676)" fill="#181617"/>
<ellipse cx="23.1311" cy="3.87826" rx="23.1311" ry="3.87826" transform="matrix(0.916469 0.400107 -0.382876 0.9238 475.086 811.233)" fill="white"/>
<ellipse cx="453.183" cy="871.018" rx="11.4857" ry="15.6182" transform="rotate(-13.115 453.183 871.018)" fill="white"/>
</svg>
