<svg width="1600" height="649" viewBox="0 0 1600 649" fill="none" xmlns="http://www.w3.org/2000/svg">
<path fill-rule="evenodd" clip-rule="evenodd" d="M79.143 250.858C12.2484 277.211 0.592551 299.002 3.12644 306.604L74.0755 337.011C9.20797 345.119 -0.252009 360.66 3.12644 367.417C13.6619 400.077 74.1356 436.68 145.024 469.393C155.809 474.371 166.836 479.258 177.964 484.028C190.103 489.23 202.362 494.293 214.563 499.179C227.85 504.502 241.068 509.616 253.981 514.475C318.725 538.838 375.829 556.798 395.879 562.526C438.448 574.689 754.846 562.527 907.724 554.925C929.124 551.084 948.259 546.426 966.003 541.117C1051.13 515.647 1104.25 475.192 1221.93 438.064C1260.95 425.752 1307.08 413.805 1363.82 402.892V329.409C1356.22 330.254 1334.94 331.436 1310.61 329.409C1296.67 328.247 1219.85 299.377 1138.31 266.989C1070.21 239.943 998.83 210.444 958.019 192.579C941.13 185.186 929.477 179.785 925.461 177.376C900.123 162.172 555.514 93.7575 373.074 121.63C190.634 149.503 155.16 167.24 122.219 177.376C95.8669 185.484 82.5216 229.743 79.143 250.858ZM623.928 263.528C597.576 269.609 565.649 269.44 552.98 268.596C559.737 288.867 571.73 337.011 565.649 367.417C692.343 468.773 679.674 397.824 839.309 519.45C872.249 428.231 803.834 362.349 839.309 228.053C776.468 185.484 669.538 233.966 623.928 263.528ZM398.412 438.366C406.521 440.393 418.683 425.697 423.751 418.095C428.819 390.222 403.48 402.892 393.345 407.96C383.209 413.027 388.277 435.832 398.412 438.366ZM489.632 372.485C489.632 418.095 494.7 407.96 499.768 415.561C501.457 418.095 506.863 420.629 514.971 410.493C525.107 397.824 517.505 375.019 514.971 362.35C512.437 349.68 499.768 331.943 482.031 334.477C467.841 336.504 481.186 360.66 489.632 372.485Z" fill="#D59759"/>
<path d="M552.98 268.596C565.649 269.44 597.576 269.609 623.928 263.528C669.538 233.966 776.468 185.484 839.309 228.053C803.834 362.349 872.249 428.231 839.309 519.45C679.674 397.824 692.343 468.773 565.649 367.417C571.73 337.011 559.737 288.867 552.98 268.596Z" fill="#FEE9D4"/>
<path d="M1224.46 2.5376C1112.97 5.07148 1120.57 114.029 958.019 192.579C1037.54 184.751 1184.93 188.674 1138.31 266.989C1249.8 249.487 1247.26 258.46 1310.61 281.265C1373.96 296.468 1381.56 22.8087 1224.46 2.5376Z" fill="#FEE9D4"/>
<path d="M261.583 218.961C278.821 212.831 296.996 211.608 309.727 212.85C348.916 216.674 368.11 233.567 376.588 253.392C440.213 269.609 436.23 246.635 426.285 233.121C503.315 220.959 449.935 192.579 413.616 179.91C438.955 167.24 459.226 162.172 329.998 169.774C226.615 175.855 241.312 205.1 261.583 218.961Z" fill="#533F2A"/>
<path d="M499.768 415.561C494.7 407.96 489.632 418.095 489.632 372.485C481.186 360.66 467.841 336.504 482.031 334.477C499.768 331.943 512.437 349.68 514.971 362.35C517.505 375.019 525.107 397.824 514.971 410.493C506.863 420.629 501.457 418.095 499.768 415.561Z" fill="#533F2A"/>
<path d="M423.751 418.095C418.683 425.697 406.521 440.393 398.412 438.366C388.277 435.832 383.209 413.027 393.345 407.96C403.48 402.892 428.819 390.222 423.751 418.095Z" fill="#533F2A"/>
<path d="M966.003 541.117C1171.25 562.526 1139.83 629.928 1247.26 646.145C1278.52 644.456 1337.98 610.67 1325.82 489.044C1324.97 477.863 1303.01 452.013 1221.93 438.064C1104.25 475.192 1051.13 515.647 966.003 541.117Z" fill="#FEE9D4"/>
<path d="M958.019 192.579C998.83 210.444 1070.21 239.943 1138.31 266.989C1184.93 188.674 1037.54 184.751 958.019 192.579Z" fill="#533F2A"/>
<path d="M214.563 499.179C222.95 525.374 223.738 548.347 222.563 562.313C225.851 547.192 234.734 525.761 253.981 514.475C241.068 509.616 227.85 504.502 214.563 499.179Z" fill="#D6985A"/>
<path d="M145.024 469.393C157.187 514.486 158.538 538.446 157.693 544.789C160.227 527.931 167.829 492.177 177.964 484.028C166.836 479.258 155.809 474.371 145.024 469.393Z" fill="#D6985A"/>
<path d="M1363.82 329.409V402.892C1386.63 443.434 1381.56 453.569 1391.7 491.578C1401.83 529.586 1528.53 681.619 1564 620.806C1592.38 572.155 1564 485.665 1546.26 448.502C1572.45 368.262 1617.21 204.742 1586.81 192.579C1556.4 180.416 1425.48 278.731 1363.82 329.409Z" fill="#FEE9D4"/>
<path d="M661.937 281.265C688.965 271.974 737.953 255.926 760.758 263.528M682.208 311.672L775.962 314.206M682.208 339.544C710.925 346.302 771.907 362.349 786.097 372.485M1363.82 329.409C1356.22 330.254 1334.94 331.436 1310.61 329.409C1296.67 328.247 1219.85 299.377 1138.31 266.989M1363.82 329.409V402.892M1363.82 329.409C1425.48 278.731 1556.4 180.416 1586.81 192.579C1617.21 204.742 1572.45 368.262 1546.26 448.502C1564 485.665 1592.38 572.155 1564 620.806C1528.53 681.619 1401.83 529.586 1391.7 491.578C1381.56 453.569 1386.63 443.434 1363.82 402.892M1363.82 402.892C1307.08 413.805 1260.95 425.752 1221.93 438.064M958.019 192.579C941.13 185.186 929.477 179.785 925.461 177.376C900.123 162.172 555.514 93.7575 373.074 121.63C190.634 149.503 155.16 167.24 122.219 177.376C95.8669 185.484 82.5216 229.743 79.143 250.858C12.2484 277.211 0.592551 299.002 3.12644 306.604L74.0755 337.011C9.20797 345.119 -0.252009 360.66 3.12644 367.417C13.6619 400.077 74.1356 436.68 145.024 469.393M958.019 192.579C1120.57 114.029 1112.97 5.07148 1224.46 2.5376C1381.56 22.8087 1373.96 296.468 1310.61 281.265C1247.26 258.46 1249.8 249.487 1138.31 266.989M958.019 192.579C998.83 210.444 1070.21 239.943 1138.31 266.989M958.019 192.579C1037.54 184.751 1184.93 188.674 1138.31 266.989M1095.23 157.105L1224.46 63.3509M1166.18 177.376L1295.41 116.562M1191.52 207.782L1295.41 205.249M1424.64 347.146L1531.06 286.333M1404.37 385.154H1531.06M1424.64 418.095L1495.59 494.112M966.003 541.117C948.259 546.426 929.124 551.084 907.724 554.925C754.846 562.527 438.448 574.689 395.879 562.526C375.829 556.798 318.725 538.838 253.981 514.475M966.003 541.117C1171.25 562.526 1139.83 629.928 1247.26 646.145C1278.52 644.456 1337.98 610.67 1325.82 489.044C1324.97 477.863 1303.01 452.013 1221.93 438.064M966.003 541.117C1051.13 515.647 1104.25 475.192 1221.93 438.064M1161.11 549.857C1171.25 564.216 1195.07 593.44 1209.26 595.467M1191.52 529.586C1207.57 543.1 1241.18 570.128 1247.26 570.128M1214.32 494.112C1227.84 502.558 1257.91 519.45 1270.07 519.45M145.024 469.393C157.187 514.486 158.538 538.446 157.693 544.789C160.227 527.931 167.829 492.177 177.964 484.028M145.024 469.393C155.809 474.371 166.836 479.258 177.964 484.028M177.964 484.028C190.103 489.23 202.362 494.293 214.563 499.179M214.563 499.179C227.85 504.502 241.068 509.616 253.981 514.475M214.563 499.179C222.95 525.374 223.738 548.347 222.563 562.313M253.981 514.475C234.734 525.761 225.851 547.192 222.563 562.313M222.563 562.313C221.695 566.303 221.217 569.853 221.04 572.662C221.625 570.231 222.192 566.72 222.563 562.313ZM552.98 268.596C565.649 269.44 597.576 269.609 623.928 263.528C669.538 233.966 776.468 185.484 839.309 228.053C803.834 362.349 872.249 428.231 839.309 519.45C679.674 397.824 692.343 468.773 565.649 367.417C571.73 337.011 559.737 288.867 552.98 268.596ZM309.727 212.85C296.996 211.608 278.821 212.831 261.583 218.961C241.312 205.1 226.615 175.855 329.998 169.774C459.226 162.172 438.955 167.24 413.616 179.91C449.935 192.579 503.315 220.959 426.285 233.121C436.23 246.635 440.213 269.609 376.588 253.392C368.11 233.567 348.916 216.674 309.727 212.85ZM423.751 418.095C418.683 425.697 406.521 440.393 398.412 438.366C388.277 435.832 383.209 413.027 393.345 407.96C403.48 402.892 428.819 390.222 423.751 418.095ZM499.768 415.561C494.7 407.96 489.632 418.095 489.632 372.485C481.186 360.66 467.841 336.504 482.031 334.477C499.768 331.943 512.437 349.68 514.971 362.35C517.505 375.019 525.107 397.824 514.971 410.493C506.863 420.629 501.457 418.095 499.768 415.561Z" stroke="#533F2A" stroke-width="5.06777"/>
<ellipse cx="309.949" cy="268.891" rx="56.5" ry="55" fill="#F5F5F5"/>
<ellipse cx="290.945" cy="273.777" rx="33.4629" ry="31.368" fill="#181617"/>
<ellipse cx="14.3888" cy="2.40504" rx="14.3888" ry="2.40504" transform="matrix(0.804682 0.593705 -0.586428 0.810001 294.512 247.668)" fill="white"/>
<ellipse cx="272.726" cy="280.58" rx="7.17062" ry="9.6517" fill="white"/>
</svg>
