<svg width="1584" height="1907" viewBox="0 0 1584 1907" fill="none" xmlns="http://www.w3.org/2000/svg">
<path d="M44.4265 846.084C65.4961 788.336 95.1593 730.458 134.806 673.283C-10.2453 563.893 -28.706 790.7 44.4265 846.084Z" fill="#D59759"/>
<path d="M388.196 1876.42C395.696 1852.24 416.388 1810.94 459.193 1777.05C437.433 1773.17 414.37 1765.42 390.624 1754.17C397.638 1809.1 392.993 1853.29 388.196 1876.42Z" fill="#D59759"/>
<path d="M129.532 1502.99C122.127 1538.33 85.7518 1573.19 62.1007 1591.2C78.3533 1581.05 112.146 1565.71 165.447 1555.52C153.029 1538.73 141.02 1521.2 129.532 1502.99Z" fill="#D59759"/>
<path d="M915.446 1784.9C958.123 1832.46 976.962 1870.41 983.638 1891.98C978.352 1862.36 974.229 1811.35 986.653 1766.79C964.127 1773.78 940.41 1779.84 915.446 1784.9Z" fill="#D59759"/>
<path d="M1255.66 1587.63C1326.02 1595.07 1375.94 1617.15 1405.91 1636.77C1365.9 1601.5 1314.93 1548.85 1306.3 1510.68C1291.82 1537.32 1275.04 1563.12 1255.66 1587.63Z" fill="#D59759"/>
<path d="M1383.46 1083.44L1383.46 1083.44C1383.98 1089.55 1384.45 1095.7 1384.88 1101.9C1386.3 1122.08 1387.08 1143.27 1387.04 1165.2C1415.53 1136.35 1511.28 1105.31 1567.52 1090.06C1519.86 1101.37 1434.42 1111.75 1383.46 1083.44Z" fill="#D59759"/>
<path d="M1474.55 643.012C1432.36 672.575 1334.25 730.744 1279.39 726.916C1294.57 753.351 1308.45 781.615 1320.84 811.799C1332.9 765.382 1428.34 679.934 1474.55 643.012Z" fill="#D59759"/>
<path d="M173.321 621.914C185.45 606.897 198.309 591.947 211.925 577.08C216.573 557.803 223.942 539.015 233.958 521.696C222.885 465.434 240.298 281.703 184.915 339.723C173.537 351.643 167.333 381.041 166.454 408.293C157.663 348.514 129.004 249 84.6973 329.174C40.3907 409.348 125.319 557.739 173.321 621.914Z" fill="#FEE9D4"/>
<path fill-rule="evenodd" clip-rule="evenodd" d="M962.917 4.7866C827.888 46.9833 846.876 297.887 873.249 418.064C897.979 424.917 922.666 433.089 947.093 442.686C1086.87 355.764 1218.73 257.967 1260.93 173.573C1294.69 106.059 1197.64 82.1473 1144.89 78.6309C1149.11 44.8735 1099.18 46.9833 1073.68 52.2579C1084.23 16.3907 1018.3 16.2149 984.015 20.6104C990.345 -0.487986 972.587 1.27021 962.917 4.7866ZM957.642 89.18C925.995 126.052 870.612 234.112 902.259 371.371C936.544 263.241 995.619 55.4227 957.642 89.18ZM933.907 366.096C983.136 284.34 1074.21 119.773 1044.67 115.553C1015.14 111.333 958.522 280.823 933.907 366.096ZM965.554 371.371C1045.55 313.35 1195 197.837 1152.8 199.946C1110.61 202.056 1010.39 315.108 965.554 371.371Z" fill="#FEE9D4"/>
<path fill-rule="evenodd" clip-rule="evenodd" d="M66.2368 975.311C156.784 959.487 375.855 896.72 527.763 772.239C551.499 752.02 594.223 735.317 575.235 830.26C551.499 948.938 211.837 1080.8 173.321 1067.62C151.692 1071.13 97.8844 1068.67 55.6877 1030.69C13.4909 992.717 45.1385 977.948 66.2368 975.311ZM480.292 835.534C514.577 801.25 559.411 817.073 514.577 861.907C453.83 908.998 355.547 974.807 266.671 1011.82C189.633 1043.91 119.664 1054.36 87.3352 1012.23C77.3003 990.156 185.479 998.32 332.604 928.168C378.81 906.136 428.858 876.379 480.292 835.534Z" fill="#AD7134"/>
<path d="M332.604 928.168C185.479 998.32 77.3003 990.156 87.3352 1012.23C119.664 1054.36 189.633 1043.91 266.671 1011.82C241.353 1007.27 300.077 954.157 332.604 928.168Z" fill="#C97072"/>
<path d="M514.577 861.907C559.411 817.073 514.577 801.25 480.292 835.534C428.858 876.379 378.81 906.136 332.604 928.168C300.077 954.157 241.353 1007.27 266.671 1011.82C355.547 974.807 453.83 908.998 514.577 861.907Z" fill="#FFADAE"/>
<path d="M933.907 366.096C983.136 284.34 1074.21 119.773 1044.67 115.553C1015.14 111.333 958.522 280.823 933.907 366.096Z" fill="#CFB296"/>
<path d="M965.554 371.371C1045.55 313.35 1195 197.837 1152.8 199.946C1110.61 202.056 1010.39 315.108 965.554 371.371Z" fill="#CFB296"/>
<path d="M957.642 89.18C925.995 126.052 870.612 234.112 902.259 371.371C936.544 263.241 995.619 55.4227 957.642 89.18Z" fill="#CFB296"/>
<path fill-rule="evenodd" clip-rule="evenodd" d="M44.4265 846.084C65.4961 788.336 95.1593 730.458 134.806 673.283C146.729 656.089 159.555 638.958 173.321 621.914C185.45 606.897 198.309 591.947 211.925 577.08C216.573 557.803 223.942 539.015 233.958 521.696C267.347 463.965 330.149 422.57 419.634 433.903C522.696 387.063 699.055 369.799 873.249 418.064C897.979 424.917 922.666 433.089 947.093 442.686C1075.48 493.124 1196.7 582.889 1279.39 726.916C1294.57 753.351 1308.45 781.615 1320.84 811.799C1352.61 889.199 1374.57 979.228 1383.46 1083.44C1383.98 1089.55 1384.45 1095.7 1384.88 1101.9C1386.3 1122.08 1387.08 1143.27 1387.04 1165.2C1386.9 1238.05 1377.74 1319.04 1353.28 1398.18C841.93 1132.28 553.255 1104.96 34.5381 1295.18C-6.68436 1157.45 -12.5511 1002.25 44.4265 846.084ZM66.2368 975.311C156.784 959.487 375.855 896.72 527.763 772.239C551.499 752.02 594.223 735.317 575.235 830.26C551.499 948.938 211.837 1080.8 173.321 1067.62C151.692 1071.13 97.8844 1068.67 55.6877 1030.69C13.4909 992.717 45.1385 977.948 66.2368 975.311ZM1245.11 901.467C1241.34 901.467 1236.61 901.23 1231.03 900.687C1236.81 900.932 1241.52 901.201 1245.11 901.467Z" fill="#D59759"/>
<path fill-rule="evenodd" clip-rule="evenodd" d="M129.532 1502.99C141.02 1521.2 153.029 1538.73 165.447 1555.52C234.374 1648.67 315.88 1718.76 390.624 1754.17C414.37 1765.42 437.433 1773.17 459.193 1777.05C644.722 1810.11 794.68 1809.35 915.446 1784.9C940.41 1779.84 964.127 1773.78 986.653 1766.79C1107.9 1729.16 1194.64 1664.79 1255.66 1587.63C1275.04 1563.12 1291.82 1537.32 1306.3 1510.68C1326.02 1474.37 1341.44 1436.49 1353.28 1398.18C841.93 1132.28 553.255 1104.96 34.5381 1295.18C57.1079 1370.59 90.2764 1440.77 129.532 1502.99ZM931.27 1471.12C929.826 1466.5 928.23 1460.74 926.628 1454.08C928.802 1460.8 930.329 1466.58 931.27 1471.12Z" fill="#EED5BC"/>
<path d="M228.581 714.369C205.589 675.569 200.41 624.828 211.925 577.08M639.999 542.944C554.628 474.118 480.881 441.66 419.634 433.903M419.634 433.903C330.149 422.57 267.347 463.965 233.958 521.696M419.634 433.903C522.696 387.063 699.055 369.799 873.249 418.064M459.193 1777.05C437.433 1773.17 414.37 1765.42 390.624 1754.17M459.193 1777.05C644.722 1810.11 794.68 1809.35 915.446 1784.9M459.193 1777.05C416.388 1810.94 395.696 1852.24 388.196 1876.42M211.925 577.08C198.309 591.947 185.45 606.897 173.321 621.914M211.925 577.08C216.573 557.803 223.942 539.015 233.958 521.696M44.4265 846.084C65.4961 788.336 95.1593 730.458 134.806 673.283M44.4265 846.084C-28.706 790.7 -10.2453 563.893 134.806 673.283M44.4265 846.084C-12.5511 1002.25 -6.68436 1157.45 34.5381 1295.18M134.806 673.283C146.729 656.089 159.555 638.958 173.321 621.914M173.321 621.914C125.319 557.739 40.3907 409.348 84.6973 329.174C129.004 249 157.663 348.514 166.454 408.293C167.333 381.041 173.537 351.643 184.915 339.723C240.298 281.703 222.885 465.434 233.958 521.696M873.249 418.064C846.876 297.887 827.888 46.9833 962.917 4.7866C972.587 1.27021 990.345 -0.487986 984.015 20.6104C1018.3 16.2149 1084.23 16.3907 1073.68 52.2579C1099.18 46.9833 1149.11 44.8735 1144.89 78.6309C1197.64 82.1473 1294.69 106.059 1260.93 173.573C1218.73 257.967 1086.87 355.764 947.093 442.686M873.249 418.064C897.979 424.917 922.666 433.089 947.093 442.686M947.093 442.686C1075.48 493.124 1196.7 582.889 1279.39 726.916M332.604 928.168C185.479 998.32 77.3003 990.156 87.3352 1012.23C119.664 1054.36 189.633 1043.91 266.671 1011.82M332.604 928.168C378.81 906.136 428.858 876.379 480.292 835.534C514.577 801.25 559.411 817.073 514.577 861.907C453.83 908.998 355.547 974.807 266.671 1011.82M332.604 928.168C300.077 954.157 241.353 1007.27 266.671 1011.82M1279.39 726.916C1334.25 730.744 1432.36 672.575 1474.55 643.012C1428.34 679.934 1332.9 765.382 1320.84 811.799M1279.39 726.916C1294.57 753.351 1308.45 781.615 1320.84 811.799M1320.84 811.799C1352.61 889.199 1374.57 979.228 1383.46 1083.44M53.0504 1597.71C53.1498 1597.65 53.2496 1597.58 53.35 1597.51M129.532 1502.99C141.02 1521.2 153.029 1538.73 165.447 1555.52M129.532 1502.99C122.127 1538.33 85.7518 1573.19 62.1007 1591.2M129.532 1502.99C90.2764 1440.77 57.1079 1370.59 34.5381 1295.18M53.35 1597.51C55.2565 1595.81 58.1641 1593.66 62.1007 1591.2M53.35 1597.51C55.9691 1595.74 58.9199 1593.62 62.1007 1591.2M165.447 1555.52C234.374 1648.67 315.88 1718.76 390.624 1754.17M165.447 1555.52C112.146 1565.71 78.3533 1581.05 62.1007 1591.2M390.624 1754.17C397.638 1809.1 392.993 1853.29 388.196 1876.42M915.446 1784.9C940.41 1779.84 964.127 1773.78 986.653 1766.79M915.446 1784.9C958.123 1832.46 976.962 1870.41 983.638 1891.98M986.653 1766.79C1107.9 1729.16 1194.64 1664.79 1255.66 1587.63M986.653 1766.79C974.229 1811.35 978.352 1862.36 983.638 1891.98M1255.66 1587.63C1275.04 1563.12 1291.82 1537.32 1306.3 1510.68M1255.66 1587.63C1326.02 1595.07 1375.94 1617.15 1405.91 1636.77M1306.3 1510.68C1314.93 1548.85 1365.9 1601.5 1405.91 1636.77M1306.3 1510.68C1326.02 1474.37 1341.44 1436.49 1353.28 1398.18M1387.04 1165.2C1387.08 1143.27 1386.3 1122.08 1384.88 1101.9C1384.45 1095.7 1383.98 1089.55 1383.46 1083.44M1387.04 1165.2C1415.53 1136.35 1511.28 1105.31 1567.52 1090.06M1387.04 1165.2C1386.9 1238.05 1377.74 1319.04 1353.28 1398.18M1063.13 843.446C1133.65 883.226 1197.58 897.436 1231.03 900.687M1044.67 904.104C1132.44 898.731 1198.54 899.313 1231.03 900.687M920.72 1315.52C910.14 1363.13 918.473 1420.2 926.628 1454.08M849.513 1328.71C892.855 1372.05 916.609 1423.11 926.628 1454.08M414.36 1299.7C422.799 1346.11 348.427 1465.85 348.427 1465.85C365.13 1438.6 413.832 1375.12 475.018 1339.26M1231.03 900.687C1236.61 901.23 1241.34 901.467 1245.11 901.467C1241.52 901.201 1236.81 900.932 1231.03 900.687ZM926.628 1454.08C928.23 1460.74 929.826 1466.5 931.27 1471.12C930.329 1466.58 928.802 1460.8 926.628 1454.08ZM388.196 1876.42C387.221 1881.11 386.24 1884.94 385.349 1887.81C385.893 1884.69 386.824 1880.84 388.196 1876.42ZM983.638 1891.98C984.636 1897.57 985.675 1902.4 986.653 1906.28C986.458 1902.95 985.543 1898.13 983.638 1891.98ZM1405.91 1636.77C1416.77 1646.34 1426.82 1654.63 1434.99 1661.01C1429.66 1654.65 1419.98 1645.98 1405.91 1636.77ZM1567.52 1090.06C1519.86 1101.37 1434.42 1111.75 1383.46 1083.44L1383.46 1083.44M1567.52 1090.06C1573.14 1088.72 1578.23 1087.38 1582.68 1086.08C1578.06 1087.24 1572.98 1088.58 1567.52 1090.06ZM1353.28 1398.18C841.93 1132.28 553.255 1104.96 34.5381 1295.18M957.642 89.18C925.995 126.052 870.612 234.112 902.259 371.371C936.544 263.241 995.619 55.4227 957.642 89.18ZM933.907 366.096C983.136 284.34 1074.21 119.773 1044.67 115.553C1015.14 111.333 958.522 280.823 933.907 366.096ZM965.554 371.371C1045.55 313.35 1195 197.837 1152.8 199.946C1110.61 202.056 1010.39 315.108 965.554 371.371ZM66.2368 975.311C156.784 959.487 375.855 896.72 527.763 772.239C551.499 752.02 594.223 735.317 575.235 830.26C551.499 948.938 211.837 1080.8 173.321 1067.62C151.692 1071.13 97.8844 1068.67 55.6877 1030.69C13.4909 992.717 45.1385 977.948 66.2368 975.311Z" stroke="#070707" stroke-width="5.27459"/>
<path d="M960.279 500.599C1031.49 449.611 1195 368.734 1279.39 453.127C1289.06 461.039 1296.27 476.336 1247.74 474.226C1255.66 490.05 1265.68 518.532 1242.47 505.873C1219.26 493.214 1044.67 497.082 960.279 500.599Z" fill="#FEE9D4" stroke="#533F2A" stroke-width="5.27459"/>
<ellipse cx="387.333" cy="585.683" rx="90.5" ry="89" fill="#F5F5F5"/>
<ellipse cx="356.894" cy="593.589" rx="53.5999" ry="50.7592" fill="#181617"/>
<ellipse cx="23.1311" cy="3.87826" rx="23.1311" ry="3.87826" transform="matrix(0.801777 0.597623 -0.582506 0.812827 362.608 551.341)" fill="white"/>
<ellipse cx="327.711" cy="604.597" rx="11.4857" ry="15.6182" fill="white"/>
</svg>
