<svg width="2021" height="2249" viewBox="0 0 2021 2249" fill="none" xmlns="http://www.w3.org/2000/svg">
<path d="M315.558 825.382C350.896 775.083 394.566 726.889 447.695 681.965C336.011 538.673 259.309 752.914 315.558 825.382Z" fill="#D59759"/>
<path d="M380.094 1909.63C393.613 1888.23 424.316 1853.71 474.451 1832.1C454.443 1822.71 434.182 1809.23 414.171 1792.21C406.686 1847.07 390.729 1888.54 380.094 1909.63Z" fill="#D59759"/>
<path d="M227.228 1481.87C210.905 1514.07 166.727 1538.29 139.212 1549.54C157.542 1543.96 194.159 1537.92 248.278 1541.91C240.642 1522.48 233.595 1502.43 227.228 1481.87Z" fill="#D59759"/>
<path d="M913.026 1958.11C941.894 2015.12 950.237 2056.67 951.086 2079.22C953.67 2049.25 962.929 1998.92 986.494 1959.11C962.926 1960.01 938.447 1959.71 913.026 1958.11Z" fill="#D59759"/>
<path d="M1292.78 1855.92C1358.8 1881.36 1401.28 1915.65 1425.13 1942.38C1395.65 1897.92 1360.09 1833.86 1361.66 1794.75C1340.77 1816.72 1317.86 1837.28 1292.78 1855.92Z" fill="#D59759"/>
<path d="M1547.08 1402.18L1547.08 1402.19C1546 1408.22 1544.86 1414.28 1543.66 1420.38C1539.8 1440.24 1535.05 1460.9 1529.31 1482.07C1564.32 1461.6 1664.84 1456.48 1723.12 1456.35C1674.15 1454.91 1588.94 1442.75 1547.08 1402.18Z" fill="#D59759"/>
<path d="M1749.38 1000.5C1700.95 1018.1 1591.11 1048.8 1539.13 1030.87C1546.92 1060.34 1552.99 1091.24 1557.12 1123.6C1580.82 1081.91 1695.16 1024.16 1749.38 1000.5Z" fill="#D59759"/>
<path d="M498.224 642.354C513.836 631 530.135 619.901 547.143 609.078C556.635 591.669 568.629 575.437 582.797 561.312C586.708 504.104 651.217 331.19 582.671 372.846C568.589 381.404 554.967 408.183 547.044 434.273C554.071 374.262 552.226 270.72 488.627 336.644C425.028 402.569 468.526 567.919 498.224 642.354Z" fill="#FEE9D4"/>
<path fill-rule="evenodd" clip-rule="evenodd" d="M1420.95 251.342C1279.59 257.042 1232.8 504.274 1227.07 627.178C1249.18 640.214 1270.9 654.515 1292 670.124C1449.55 622.464 1602.28 562.248 1664.93 491.701C1715.06 435.263 1627.54 386.978 1577.51 369.891C1590.35 338.386 1541.58 327.462 1515.59 325.938C1535.09 294.039 1471.47 276.755 1437.21 272.1C1448.8 253.368 1431.2 250.456 1420.95 251.342ZM1393.95 331.473C1353.81 358.867 1272.28 448.846 1267.21 589.615C1328.39 494.092 1439.38 308.731 1393.95 331.473ZM1299.14 592.736C1367.91 526.561 1498.58 391.276 1471.15 379.533C1443.72 367.791 1345.05 516.776 1299.14 592.736ZM1328.34 606.045C1420.65 570.779 1594.96 498.018 1553.66 489.102C1512.37 480.186 1386.24 563.349 1328.34 606.045Z" fill="#FEE9D4"/>
<path fill-rule="evenodd" clip-rule="evenodd" d="M303.077 955.841C394.628 964.064 622.483 960.314 801.496 879.532C829.667 866.167 875.262 861.127 832.279 947.886C778.551 1056.34 416.302 1095.51 382.53 1072.78C360.73 1070.56 309.405 1054.22 278.513 1006.59C247.621 958.959 282.017 952.912 303.077 955.841ZM739.222 928.335C781.231 904.125 820.421 931.044 765.486 962.704C694.597 992.412 582.601 1030.45 487.163 1043.13C404.438 1054.12 334.153 1046.05 313.868 996.975C309.907 973.05 412.259 1009.01 572.55 979.457C622.892 970.174 678.949 954.429 739.222 928.335Z" fill="#AD7134"/>
<path d="M572.55 979.457C412.259 1009.01 309.907 973.05 313.868 996.975C334.153 1046.05 404.438 1054.12 487.163 1043.13C463.894 1032.16 534.392 996.112 572.55 979.457Z" fill="#C97072"/>
<path d="M765.486 962.704C820.421 931.044 781.231 904.125 739.222 928.335C678.949 954.429 622.892 970.174 572.55 979.457C534.392 996.112 463.894 1032.16 487.163 1043.13C582.601 1030.45 694.597 992.412 765.486 962.704Z" fill="#FFADAE"/>
<path d="M1299.14 592.736C1367.91 526.561 1498.58 391.276 1471.15 379.533C1443.72 367.791 1345.05 516.776 1299.14 592.736Z" fill="#CFB296"/>
<path d="M1328.34 606.045C1420.65 570.779 1594.96 498.018 1553.66 489.102C1512.37 480.186 1386.24 563.349 1328.34 606.045Z" fill="#CFB296"/>
<path d="M1393.95 331.473C1353.81 358.867 1272.28 448.846 1267.21 589.615C1328.39 494.092 1439.38 308.731 1393.95 331.473Z" fill="#CFB296"/>
<path fill-rule="evenodd" clip-rule="evenodd" d="M315.558 825.382C350.896 775.083 394.566 726.889 447.695 681.965C463.673 668.455 480.505 655.241 498.224 642.354C513.836 631 530.135 619.901 547.143 609.078C556.635 591.669 568.629 575.437 582.797 561.312C630.027 514.227 701.421 490.552 784.897 524.726C896.585 506.243 1071.38 535.35 1227.07 627.178C1249.18 640.214 1270.9 654.515 1292 670.124C1402.89 752.159 1496.65 870.312 1539.13 1030.87C1546.92 1060.34 1552.99 1091.24 1557.12 1123.6C1567.71 1206.59 1565.55 1299.24 1547.08 1402.19C1546 1408.22 1544.86 1414.28 1543.66 1420.38C1539.8 1440.24 1535.05 1460.9 1529.31 1482.07C1510.27 1552.39 1480.4 1628.22 1436.24 1698.31C1011.44 1308.78 739.748 1207.46 189.433 1256.52C185.376 1112.81 219.998 961.402 315.558 825.382ZM303.077 955.841C394.628 964.064 622.483 960.314 801.496 879.532C829.667 866.167 875.262 861.127 832.279 947.886C778.551 1056.34 416.302 1095.51 382.53 1072.78C360.73 1070.56 309.405 1054.22 278.513 1006.59C247.621 958.959 282.017 952.912 303.077 955.841ZM1460.71 1190.54C1457.07 1189.56 1452.56 1188.1 1447.31 1186.13C1452.83 1187.86 1457.31 1189.35 1460.71 1190.54Z" fill="#D59759"/>
<path fill-rule="evenodd" clip-rule="evenodd" d="M227.228 1481.87C233.595 1502.43 240.642 1522.48 248.278 1541.91C290.663 1649.76 351.181 1738.61 414.171 1792.21C434.182 1809.23 454.443 1822.71 474.451 1832.1C645.037 1912.19 790.052 1950.38 913.026 1958.11C938.447 1959.71 962.926 1960.01 986.494 1959.11C1113.36 1954.24 1213.83 1914.59 1292.78 1855.92C1317.86 1837.28 1340.77 1816.72 1361.66 1794.75C1390.13 1764.8 1414.86 1732.23 1436.24 1698.31C1011.44 1308.78 739.748 1207.46 189.433 1256.52C191.655 1335.2 205.471 1411.58 227.228 1481.87ZM1009.76 1659.2C1009.56 1654.36 1009.52 1648.38 1009.7 1641.54C1010.05 1648.59 1010.03 1654.57 1009.76 1659.2Z" fill="#EED5BC"/>
<path d="M527.591 745.984C515.458 702.546 523.628 652.201 547.143 609.078M969.405 687.231C904.825 598.603 842.031 548.115 784.897 524.726M784.897 524.726C701.421 490.552 630.027 514.227 582.797 561.312M784.897 524.726C896.585 506.243 1071.38 535.35 1227.07 627.178M474.451 1832.1C454.443 1822.71 434.182 1809.23 414.171 1792.21M474.451 1832.1C645.037 1912.19 790.052 1950.38 913.026 1958.11M474.451 1832.1C424.316 1853.71 393.613 1888.23 380.094 1909.63M547.143 609.078C530.135 619.901 513.836 631 498.224 642.354M547.143 609.078C556.635 591.669 568.629 575.437 582.797 561.312M315.558 825.382C350.896 775.083 394.566 726.889 447.695 681.965M315.558 825.382C259.309 752.914 336.011 538.673 447.695 681.965M315.558 825.382C219.998 961.402 185.376 1112.81 189.433 1256.52M447.695 681.965C463.673 668.455 480.505 655.241 498.224 642.354M498.224 642.354C468.526 567.919 425.028 402.569 488.627 336.644C552.226 270.72 554.071 374.262 547.044 434.273C554.967 408.183 568.589 381.404 582.671 372.846C651.217 331.19 586.708 504.104 582.797 561.312M1227.07 627.178C1232.8 504.274 1279.59 257.042 1420.95 251.342C1431.2 250.456 1448.8 253.368 1437.21 272.1C1471.47 276.755 1535.09 294.039 1515.59 325.938C1541.58 327.462 1590.35 338.386 1577.51 369.891C1627.54 386.978 1715.06 435.263 1664.93 491.701C1602.28 562.248 1449.55 622.464 1292 670.124M1227.07 627.178C1249.18 640.214 1270.9 654.515 1292 670.124M1292 670.124C1402.89 752.159 1496.65 870.312 1539.13 1030.87M572.55 979.457C412.259 1009.01 309.907 973.05 313.868 996.975C334.153 1046.05 404.438 1054.12 487.163 1043.13M572.55 979.457C622.892 970.174 678.949 954.429 739.222 928.335C781.231 904.125 820.421 931.044 765.486 962.704C694.597 992.412 582.601 1030.45 487.163 1043.13M572.55 979.457C534.392 996.112 463.894 1032.16 487.163 1043.13M1539.13 1030.87C1591.11 1048.8 1700.95 1018.1 1749.38 1000.5C1695.16 1024.16 1580.82 1081.91 1557.12 1123.6M1539.13 1030.87C1546.92 1060.34 1552.99 1091.24 1557.12 1123.6M1557.12 1123.6C1567.71 1206.59 1565.55 1299.24 1547.08 1402.19M128.781 1553.49C128.894 1553.45 129.008 1553.41 129.123 1553.37M227.228 1481.87C233.595 1502.43 240.642 1522.48 248.278 1541.91M227.228 1481.87C210.905 1514.07 166.727 1538.29 139.212 1549.54M227.228 1481.87C205.471 1411.58 191.655 1335.2 189.433 1256.52M129.123 1553.37C131.406 1552.22 134.772 1550.9 139.212 1549.54M129.123 1553.37C132.112 1552.34 135.512 1551.06 139.212 1549.54M248.278 1541.91C290.663 1649.76 351.181 1738.61 414.171 1792.21M248.278 1541.91C194.159 1537.92 157.542 1543.96 139.212 1549.54M414.171 1792.21C406.686 1847.07 390.729 1888.54 380.094 1909.63M913.026 1958.11C938.447 1959.71 962.926 1960.01 986.494 1959.11M913.026 1958.11C941.894 2015.12 950.237 2056.67 951.086 2079.22M986.494 1959.11C1113.36 1954.24 1213.83 1914.59 1292.78 1855.92M986.494 1959.11C962.929 1998.92 953.67 2049.25 951.086 2079.22M1292.78 1855.92C1317.86 1837.28 1340.77 1816.72 1361.66 1794.75M1292.78 1855.92C1358.8 1881.36 1401.28 1915.65 1425.13 1942.38M1361.66 1794.75C1360.09 1833.86 1395.65 1897.92 1425.13 1942.38M1361.66 1794.75C1390.13 1764.8 1414.86 1732.23 1436.24 1698.31M1529.31 1482.07C1535.05 1460.9 1539.8 1440.24 1543.66 1420.38C1544.86 1414.28 1546 1408.22 1547.08 1402.19M1529.31 1482.07C1564.32 1461.6 1664.84 1456.48 1723.12 1456.35M1529.31 1482.07C1510.27 1552.39 1480.4 1628.22 1436.24 1698.31M1300.03 1087.27C1357.81 1143.99 1415.86 1174.31 1447.31 1186.13M1266.46 1141.05C1352.61 1158.65 1416.29 1176.37 1447.31 1186.13M1039.96 1506.2C1017.38 1549.43 1010.62 1606.7 1009.7 1641.54M967.771 1500.45C998.376 1553.55 1008.06 1609.03 1009.7 1641.54M555.063 1359.47C551.165 1406.49 448.262 1502.81 448.262 1502.81C471.467 1480.83 534.975 1432.18 603.373 1413.42M1447.31 1186.13C1452.56 1188.1 1457.07 1189.56 1460.71 1190.54C1457.31 1189.35 1452.83 1187.86 1447.31 1186.13ZM1009.7 1641.54C1009.52 1648.38 1009.56 1654.36 1009.76 1659.2C1010.03 1654.57 1010.05 1648.59 1009.7 1641.54ZM380.094 1909.63C377.933 1913.92 375.992 1917.36 374.386 1919.9C375.723 1917.02 377.621 1913.55 380.094 1909.63ZM951.086 2079.22C950.599 2084.88 950.349 2089.81 950.286 2093.81C950.961 2090.55 951.329 2085.66 951.086 2079.22ZM1425.13 1942.38C1433.13 1954.44 1440.68 1965.05 1446.92 1973.33C1443.42 1965.81 1436.33 1954.92 1425.13 1942.38ZM1723.12 1456.35C1674.15 1454.91 1588.94 1442.75 1547.08 1402.18L1547.08 1402.19M1723.12 1456.35C1728.89 1456.52 1734.15 1456.54 1738.79 1456.45C1734.03 1456.37 1728.77 1456.34 1723.12 1456.35ZM1436.24 1698.31C1011.44 1308.78 739.748 1207.46 189.433 1256.52M1393.95 331.473C1353.81 358.867 1272.28 448.846 1267.21 589.615C1328.39 494.092 1439.38 308.731 1393.95 331.473ZM1299.14 592.736C1367.91 526.561 1498.58 391.276 1471.15 379.533C1443.72 367.791 1345.05 516.776 1299.14 592.736ZM1328.34 606.045C1420.65 570.779 1594.96 498.018 1553.66 489.102C1512.37 480.186 1386.24 563.349 1328.34 606.045ZM303.077 955.841C394.628 964.064 622.483 960.314 801.496 879.532C829.667 866.167 875.262 861.127 832.279 947.886C778.551 1056.34 416.302 1095.51 382.53 1072.78C360.73 1070.56 309.405 1054.22 278.513 1006.59C247.621 958.959 282.017 952.912 303.077 955.841Z" stroke="#070707" stroke-width="5.27459"/>
<path d="M1289.7 729.474C1371.7 698.718 1550.6 663.057 1610.19 766.464C1617.48 776.615 1620.47 793.258 1574.16 778.624C1577.69 795.959 1579.97 826.067 1560.85 807.818C1541.72 789.568 1372.11 747.985 1289.7 729.474Z" fill="#FEE9D4" stroke="#533F2A" stroke-width="5.27459"/>
<ellipse cx="714.305" cy="662.918" rx="90.5" ry="89" transform="rotate(15.045 714.305 662.918)" fill="#F5F5F5"/>
<ellipse cx="682.857" cy="662.651" rx="53.5999" ry="50.7592" transform="rotate(15.045 682.857 662.651)" fill="#181617"/>
<ellipse cx="23.1311" cy="3.87826" rx="23.1311" ry="3.87826" transform="matrix(0.619165 0.785261 -0.77353 0.63376 699.342 623.335)" fill="white"/>
<ellipse cx="651.817" cy="665.707" rx="11.4857" ry="15.6182" transform="rotate(15.045 651.817 665.707)" fill="white"/>
</svg>
