<svg width="1386" height="1612" viewBox="0 0 1386 1612" fill="none" xmlns="http://www.w3.org/2000/svg">
<path d="M628.471 256.977C656.349 246.065 675.134 241.58 696.907 240.014C704.38 198.984 706.94 174.422 730.961 149.205C644.239 210.697 594.973 206.29 506.144 144.505C545.665 190.071 560.035 219.263 579.64 274.148C591.463 267.593 606.478 262.311 628.471 256.977Z" fill="#E54E6F"/>
<path d="M535.203 295.484C544.755 290.284 553.319 285.891 561.848 281.903C539.284 226.756 524.96 192.779 506.144 144.505C506.132 268.146 454.809 292.173 311.559 289.383C389.233 307.03 425.991 324.254 487.068 359.813C498.394 340.25 510.622 323.405 535.203 295.484Z" fill="#E54E6F"/>
<path d="M468.107 480.538C463.52 446.002 462.736 425.499 476.389 379.327C419.039 342.144 382.771 322.517 311.559 289.383C404.314 385.538 406.513 439.831 304.739 537.536C363.652 508.783 398.566 495.186 468.107 480.538Z" fill="#E54E6F"/>
<path d="M473.35 500.653C405.44 508.833 369.149 518.802 304.739 537.536C410.667 554.828 442.466 581.654 423.716 676.348C454.194 636.009 472.632 614.794 514.057 585.88C495.036 560.512 483.834 538.009 473.35 500.653Z" fill="#E54E6F"/>
<path d="M525.542 600.464C484.622 625.144 462.683 643.282 423.716 676.348C524.332 662.806 537.861 688.715 524.97 763.85C542.381 734.73 554.107 717.87 589.655 683.808C574.491 666.135 558.072 644.63 525.542 600.464Z" fill="#E54E6F"/>
<path d="M655.666 777.2C640.723 742.428 630.623 723.341 597.595 692.851C558.767 725.441 545.131 739.934 524.97 763.85C613.367 729.642 627.648 740.86 614.652 794.009C629.31 788.863 637.969 786.294 656.961 784.214C656.557 781.94 656.125 779.604 655.666 777.2Z" fill="#E54E6F"/>
<path d="M661.171 835.305C661.519 827.909 661.401 820.695 660.829 813.127C608.261 827.087 566.093 819.36 474.491 771.821C392.641 702.71 354.125 663.901 347.601 624.232C358.139 731.426 328.289 750.162 224.887 720.528C395.492 811.634 492.956 838.275 661.171 835.305Z" fill="#E54E6F"/>
<path d="M443.68 830.529C295.574 783.952 267.189 759.322 224.887 720.528C309.481 821.262 294.414 863.658 184.356 920.486C365.557 882.59 470.99 868.433 657.834 863.972C659.515 854.252 660.589 845.59 661.071 837.219C593.809 849.452 547.877 852.037 443.68 830.529Z" fill="#E54E6F"/>
<path d="M657.551 865.585C371.482 907.44 248.829 923.147 184.356 920.486C340.181 944.878 348.905 989.787 298.322 1096.16C332.262 1038.19 368.825 1005.38 467.169 944.587C540.575 903.367 584.767 888.31 654.172 878.069C654.47 877.211 654.771 876.348 655.072 875.48L656.45 871.52C656.841 869.495 657.208 867.519 657.551 865.585Z" fill="#E54E6F"/>
<path d="M652.844 881.885C499.971 930.114 418.431 977.614 298.322 1096.16C416.735 1024.68 429.979 1057.67 427.778 1152.02C433.41 1095.1 444.382 1061.03 510.861 987.207C560.041 941.12 593.623 918.759 644.821 905.014C647.363 897.652 650.029 889.978 652.844 881.885Z" fill="#E54E6F"/>
<path d="M529.143 1017.06L607.64 1024.53C618.517 983.405 628.613 952.169 642.235 912.521C634.156 916.107 626.405 919.804 618.949 923.641C621.395 988.536 593.894 1002.16 529.143 1017.06Z" fill="#E54E6F"/>
<path d="M603.57 1040.25L529.143 1017.06C586.722 1093.59 573.016 1131.94 499.271 1193.98L589.235 1172.82C584.073 1126.39 583.996 1097.44 603.57 1040.25Z" fill="#E54E6F"/>
<path d="M705.892 1406.33C676.498 1384.61 660.107 1366.07 640.257 1332.13L564.56 1376.56C667.555 1373.31 697.078 1400.81 708.137 1491.24L730.83 1422.77C723.034 1418.03 714.848 1412.62 705.892 1406.33Z" fill="#E54E6F"/>
<path d="M818.02 1458.94C787.899 1450.12 766.8 1442.72 744.142 1430.44L708.137 1491.24C747.505 1454.18 772.018 1450.26 818.02 1458.94Z" fill="#E54E6F"/>
<path d="M579.64 274.148C560.035 219.263 545.665 190.071 506.144 144.505C524.96 192.779 539.284 226.756 561.848 281.903C567.693 279.171 573.522 276.629 579.64 274.148Z" fill="#FCD1DA"/>
<path d="M476.389 379.327C480.093 372.279 483.537 365.914 487.068 359.813C425.991 324.254 389.233 307.03 311.559 289.383C382.771 322.517 419.039 342.144 476.389 379.327Z" fill="#FCD1DA"/>
<path d="M468.107 480.538C398.566 495.186 363.652 508.783 304.739 537.536C369.149 518.802 405.44 508.833 473.35 500.653C471.593 494.393 469.857 487.716 468.107 480.538Z" fill="#FCD1DA"/>
<path d="M525.542 600.464C521.412 595.427 517.599 590.604 514.057 585.88C472.632 614.794 454.194 636.009 423.716 676.348C462.683 643.282 484.622 625.144 525.542 600.464Z" fill="#FCD1DA"/>
<path d="M597.595 692.851C594.934 689.887 592.314 686.906 589.655 683.808C554.107 717.87 542.381 734.73 524.97 763.85C545.131 739.934 558.767 725.441 597.595 692.851Z" fill="#FCD1DA"/>
<path d="M656.961 784.214C637.969 786.294 629.31 788.863 614.652 794.009C636.542 792.733 646.941 792.736 658.781 795.3C658.254 791.753 657.647 788.071 656.961 784.214Z" fill="#FCD1DA"/>
<path d="M713.085 239.345L730.961 149.205C706.94 174.422 704.38 198.984 696.907 240.014C702.078 239.642 707.416 239.435 713.085 239.345Z" fill="#FCD1DA"/>
<path d="M660.513 809.398C534.133 801.729 462.521 769.522 346.68 615.533C347.015 618.495 347.322 621.395 347.601 624.232C354.125 663.901 392.641 702.71 474.491 771.821C566.093 819.36 608.261 827.087 660.829 813.127C660.735 811.894 660.63 810.652 660.513 809.398Z" fill="#FCD1DA"/>
<path d="M224.887 720.528C267.189 759.322 295.574 783.952 443.68 830.529C547.877 852.037 593.809 849.452 661.071 837.219C661.108 836.579 661.141 835.941 661.171 835.305C492.956 838.275 395.492 811.634 224.887 720.528Z" fill="#FCD1DA"/>
<path d="M657.834 863.972C470.99 868.433 365.557 882.59 184.356 920.486C248.829 923.147 371.482 907.44 657.551 865.585C657.647 865.044 657.742 864.506 657.834 863.972Z" fill="#F4CFD7"/>
<path d="M467.169 944.587C368.825 1005.38 332.262 1038.19 298.322 1096.16C418.431 977.614 499.971 930.114 652.844 881.885L654.172 878.069C584.767 888.31 540.575 903.367 467.169 944.587Z" fill="#FCD1DA"/>
<path d="M510.861 987.207C444.382 1061.03 433.41 1095.1 427.778 1152.02C487.312 1029.16 534.085 967.313 618.949 923.641C626.405 919.804 634.156 916.107 642.235 912.521C643.083 910.053 643.945 907.552 644.821 905.014C593.623 918.759 560.041 941.12 510.861 987.207Z" fill="#FCD1DA"/>
<path d="M603.57 1040.25C604.944 1034.83 606.298 1029.61 607.64 1024.53L529.143 1017.06L603.57 1040.25Z" fill="#FCD1DA"/>
<path d="M629.091 1312.17C605.392 1264.94 595.244 1236.56 590.514 1185.64L499.271 1193.98C607.194 1238.19 602.34 1284.53 564.56 1376.56L631.499 1316.6C630.705 1315.15 629.902 1313.67 629.091 1312.17Z" fill="#E54E6F"/>
<path d="M589.933 1178.95C589.692 1176.87 589.459 1174.83 589.235 1172.82L499.271 1193.98L590.514 1185.64C590.311 1183.46 590.117 1181.22 589.933 1178.95Z" fill="#FCD1DA"/>
<path d="M631.499 1316.6L564.56 1376.56L640.257 1332.13C637.424 1327.29 634.521 1322.13 631.499 1316.6Z" fill="#FCD1DA"/>
<path d="M730.83 1422.77L708.137 1491.24L744.142 1430.44C739.788 1428.08 735.375 1425.54 730.83 1422.77Z" fill="#FCD1DA"/>
<path d="M660.829 813.127C664.381 812.184 667.981 811.142 671.647 810.006C667.888 809.822 664.177 809.62 660.513 809.398C660.63 810.652 660.735 811.894 660.829 813.127Z" fill="#FCD1DA"/>
<path d="M672.672 835.059C668.801 835.156 664.968 835.238 661.171 835.305C661.141 835.941 661.108 836.579 661.071 837.219C664.865 836.528 668.728 835.808 672.672 835.059Z" fill="#FCD1DA"/>
<path d="M670.522 863.686C666.251 863.776 662.022 863.872 657.834 863.972C657.742 864.506 657.647 865.044 657.551 865.585C661.838 864.958 666.162 864.325 670.522 863.686Z" fill="#F4CFD7"/>
<path d="M673.952 875.355C667.119 876.23 660.539 877.129 654.172 878.069L652.844 881.885C659.732 879.712 666.765 877.538 673.952 875.355Z" fill="#FCD1DA"/>
<path d="M929.749 661.983C898.447 635.891 845.076 620.109 845.076 620.109C844.666 620.218 844.142 620.242 843.515 620.19C811.36 636.285 791.351 644.549 752.97 658.274C772.874 677.232 786.761 692.955 811.593 720.804C862.655 700.791 888.831 688.114 929.749 661.983Z" fill="#FCD1DA"/>
<path d="M865.365 881.422C865.001 882.06 864.635 882.695 864.268 883.329C907.425 887.538 931.804 887.839 975.483 885.865C996.443 845.079 1002.98 818.228 996.644 767.829C947.53 785.316 919.288 792.764 868.179 803.476C876.287 829.182 874.735 847.941 865.365 881.422Z" fill="#FCD1DA"/>
<path d="M807.771 965.434C837.988 971.542 857.035 973.221 893.217 974.383C939.355 934.082 954.726 916.854 970.925 893.721C926.808 896.135 902.549 895.361 860.082 890.404C847.713 910.847 832.88 931.476 807.771 965.434Z" fill="#FCD1DA"/>
<path d="M802.775 972.185C782 997.66 771.023 1013.92 755.794 1049.56C774.163 1055.05 785.8 1057.2 808.351 1059.81C827.165 1031.1 846.884 1012.77 884.341 981.924C850.851 979.904 832.868 977.905 802.775 972.185Z" fill="#FCD1DA"/>
<path d="M732.622 1130.67C736.238 1165.22 747.861 1179.81 770.775 1204.76C757.971 1173.01 779.201 1113.58 783.362 1102.55C783.362 1102.55 783.884 1094.27 803.82 1066.43C781.01 1063.48 769.693 1061.31 751.593 1056.84C737.583 1079.56 734.913 1097.97 732.622 1130.67Z" fill="#FCD1DA"/>
<path d="M754.107 594.554C754.107 594.554 711.913 609.922 686.182 606.068C702.131 613.61 712.561 619.993 743.944 649.835C744.825 650.644 745.693 651.445 746.548 652.239C783.303 640.413 802.752 632.989 833.626 617.136C815.331 609.585 782.926 590.541 778.487 587.357C775.239 588.204 754.107 594.554 754.107 594.554Z" fill="#FCD1DA"/>
<path d="M833.626 617.136C802.752 632.989 783.303 640.413 746.548 652.239C748.766 654.297 750.901 656.303 752.97 658.274C791.351 644.549 811.36 636.285 843.515 620.19C841.313 620.006 837.845 618.877 833.626 617.136Z" fill="#E54E6F"/>
<path d="M811.593 720.804L812.713 722.059C814.419 723.727 816.066 725.353 817.658 726.944C867.023 706.419 893.098 693.577 936.174 667.811C934.167 665.815 932.016 663.872 929.749 661.983C888.831 688.114 862.655 700.791 811.593 720.804Z" fill="#E54E6F"/>
<path d="M994.67 759.958C980.578 722.888 971.156 701.269 936.985 668.629C936.717 668.355 936.447 668.082 936.174 667.811C893.098 693.577 867.023 706.419 817.658 726.944C840.653 749.94 852.125 765.75 865.551 795.797C917.992 785.6 946.267 777.762 994.67 759.958Z" fill="#FCD1DA"/>
<path d="M970.925 893.721C971.542 892.84 972.16 891.95 972.782 891.05C973.707 889.296 974.608 887.568 975.483 885.865C931.804 887.839 907.425 887.538 864.268 883.329C862.897 885.698 861.506 888.05 860.082 890.404C902.549 895.361 926.808 896.135 970.925 893.721Z" fill="#E54E6F"/>
<path d="M996.112 763.76C995.625 762.474 995.145 761.207 994.67 759.958C946.267 777.762 917.992 785.6 865.551 795.797C866.519 798.435 867.394 800.988 868.179 803.476C919.288 792.764 947.53 785.316 996.644 767.829C996.476 766.489 996.298 765.133 996.112 763.76Z" fill="#E54E6F"/>
<path d="M888.17 978.778C889.893 977.283 891.575 975.818 893.217 974.383C857.035 973.221 837.988 971.542 807.771 965.434L807.511 965.786C805.971 967.868 804.393 970 802.775 972.185C832.868 977.905 850.851 979.904 884.341 981.924C885.597 980.89 886.874 979.841 888.17 978.778Z" fill="#E54E6F"/>
<path d="M755.794 1049.56C755.484 1050.29 755.172 1051.03 754.857 1051.77C753.706 1053.49 752.619 1055.17 751.593 1056.84C769.693 1061.31 781.01 1063.48 803.82 1066.43C804.6 1065.34 805.408 1064.22 806.248 1063.07C806.949 1061.97 807.649 1060.89 808.351 1059.81C785.8 1057.2 774.163 1055.05 755.794 1049.56Z" fill="#E54E6F"/>
<path fill-rule="evenodd" clip-rule="evenodd" d="M810.749 1335.37C783.169 1308.36 776.27 1291.03 770.208 1258.54C767.818 1234.19 763.737 1217.01 770.775 1204.76C747.861 1179.81 736.238 1165.22 732.622 1130.67C734.913 1097.97 737.583 1079.56 751.593 1056.84C752.619 1055.17 753.706 1053.49 754.857 1051.77C755.172 1051.03 755.484 1050.29 755.794 1049.56C771.023 1013.92 782 997.66 802.775 972.185C804.393 970 805.971 967.868 807.511 965.786L860.082 890.404C861.506 888.05 862.897 885.698 864.268 883.329C864.635 882.695 865.001 882.06 865.365 881.422C874.735 847.941 876.287 829.182 868.179 803.476C867.394 800.988 866.519 798.435 865.551 795.797C852.125 765.75 840.653 749.94 817.658 726.944C816.066 725.353 814.419 723.727 812.713 722.059L811.593 720.804C786.761 692.955 772.874 677.232 752.97 658.274C750.901 656.303 748.766 654.297 746.548 652.239C745.693 651.445 744.825 650.644 743.944 649.835C712.561 619.993 702.131 613.61 686.182 606.068C711.913 609.922 754.107 594.554 754.107 594.554C754.107 594.554 775.239 588.204 778.487 587.357C777.721 586.807 777.787 586.73 778.903 587.266C789.737 579.46 806.367 575.277 844.541 567.973L912.723 562.722C940.485 564.103 953.899 566.028 971.206 572.999C986.9 575.849 996.705 580.888 1015.22 593.341C1024.82 597.219 1031.2 601.447 1046.44 616.912C1051.67 630.374 1058.06 636.292 1070.89 646.173C1085.6 652.374 1092.9 652.516 1103.95 645.435C1115.06 634.755 1119.89 627.962 1126.61 612.893C1143.53 572.565 1148.15 554.163 1147.47 554.469C1148.85 524.333 1148.36 510.317 1144.9 500.816C1140.54 486.756 1137.23 480.465 1124.74 477.161C1101.37 479.049 1089 482.62 1068.34 493.739C1048.66 498.628 1040.45 498.457 1027.02 496.907C984.015 495.695 969.162 492.49 945.625 485.968C899.331 475.322 877.746 467.686 853.799 448.516C834.676 434.68 826.005 425.693 812.91 408.241C807.067 378.316 810.044 368.59 816.666 352.731C826.842 332.316 829.79 320.237 822.081 295.677C814.986 275.548 806.931 266.325 787.226 252.572C762.378 242.266 749.092 239.564 726.283 239.32C721.659 239.277 717.282 239.279 713.085 239.345C707.416 239.435 702.078 239.642 696.907 240.014C675.134 241.58 656.349 246.065 628.471 256.977C606.478 262.311 591.463 267.593 579.64 274.148C573.522 276.629 567.693 279.171 561.848 281.903C553.319 285.891 544.755 290.284 535.203 295.484C510.622 323.405 498.394 340.25 487.068 359.813C483.537 365.914 480.093 372.279 476.389 379.327C462.736 425.499 463.52 446.002 468.107 480.538C469.857 487.716 471.593 494.393 473.35 500.653C483.834 538.009 495.036 560.512 514.057 585.88C517.599 590.604 521.412 595.427 525.542 600.464C558.072 644.63 574.491 666.135 589.655 683.808C592.314 686.906 594.934 689.887 597.595 692.851C630.623 723.341 640.723 742.428 655.666 777.2C656.125 779.604 656.557 781.94 656.961 784.214C657.647 788.071 658.254 791.753 658.781 795.3C659.512 800.223 660.09 804.887 660.513 809.398C664.177 809.62 667.888 809.822 671.647 810.006C704.901 837.684 704.957 857.178 680.383 897.234C666.873 902.149 654.194 907.213 642.235 912.521C628.613 952.169 618.517 983.405 607.64 1024.53C606.298 1029.61 604.944 1034.83 603.57 1040.25C583.996 1097.44 584.073 1126.39 589.235 1172.82C589.459 1174.83 589.692 1176.87 589.933 1178.95C590.117 1181.22 590.311 1183.46 590.514 1185.64C595.244 1236.56 605.392 1264.94 629.091 1312.17C629.902 1313.67 630.705 1315.15 631.499 1316.6C634.521 1322.13 637.424 1327.29 640.257 1332.13C660.107 1366.07 676.498 1384.61 705.892 1406.33C714.848 1412.62 723.034 1418.03 730.83 1422.77C735.375 1425.54 739.788 1428.08 744.142 1430.44C766.8 1442.72 787.899 1450.12 818.02 1458.94C870.804 1459.61 899.838 1457.46 949.978 1446.04C996.101 1431.1 1018.22 1418.81 1046.77 1385.37C1073.66 1357.16 1083.86 1340.06 1095.26 1307.73C1104.65 1264.62 1102.86 1241.16 1088.04 1200.51C1071.28 1169.51 1061.37 1153.92 1040.98 1135.64C1014.32 1116.86 997.766 1110.37 964.88 1106.77C935.57 1107.4 920.368 1112.02 895.352 1127.21C870.275 1148.15 864.203 1158.95 855.848 1177.91C846.749 1202.27 845.807 1214.69 848.974 1235.39C855.148 1264.46 860.133 1275.67 871.845 1286.24C896.098 1294.18 904.616 1292.04 918.347 1286.31C935.674 1278.86 942.085 1271.75 950.84 1256.69C950.652 1230.51 946.46 1221.9 936.978 1209.52C924.75 1191.19 919.937 1182.49 909.214 1174.37C910.691 1144.58 920.315 1137.19 943.97 1130.88C967.684 1129.93 977.015 1136.08 991.87 1150.08C1011.29 1177.76 1017.36 1193.07 1021.43 1220.09C1019.69 1258.38 1013.49 1276.78 995.275 1305.43C968.399 1330.51 951.029 1341.7 915.532 1355.8C866.633 1366.85 843.203 1363.52 810.749 1335.37ZM1085.92 553.543C1096.58 529.274 1097.62 505.188 1117.05 499.496C1132.58 506.593 1123.41 532.038 1119.27 562.758C1106.83 597.306 1099.92 618.178 1086.14 618.978C1075.87 614.064 1079.26 592.761 1085.92 553.543Z" fill="#F196A8"/>
<path d="M1117.05 499.496C1097.62 505.188 1096.58 529.274 1085.92 553.543C1079.26 592.761 1075.87 614.064 1086.14 618.978C1099.92 618.178 1106.83 597.306 1119.27 562.758C1123.41 532.038 1132.58 506.593 1117.05 499.496Z" fill="#E54E6F"/>
<path d="M660.829 813.127C661.401 820.695 661.519 827.909 661.171 835.305C664.968 835.238 668.801 835.156 672.672 835.059C668.728 835.808 664.865 836.528 661.071 837.219C660.589 845.59 659.515 854.252 657.834 863.972C662.022 863.872 666.251 863.776 670.522 863.686C666.162 864.325 661.838 864.958 657.551 865.585C657.208 867.519 656.841 869.495 656.45 871.52L655.072 875.48L654.172 878.069C660.539 877.129 667.119 876.23 673.952 875.355C666.765 877.538 659.732 879.712 652.844 881.885C650.029 889.978 647.363 897.652 644.821 905.014C655.763 902.076 667.509 899.532 680.383 897.234C704.957 857.178 704.901 837.684 671.647 810.006C667.981 811.142 664.381 812.184 660.829 813.127Z" fill="#E54E6F"/>
<path d="M644.821 905.014C643.945 907.552 643.083 910.053 642.235 912.521C654.194 907.213 666.873 902.149 680.383 897.234C667.509 899.532 655.763 902.076 644.821 905.014Z" fill="#E54E6F"/>
<path d="M696.907 240.014C675.134 241.58 656.349 246.065 628.471 256.977C606.478 262.311 591.463 267.593 579.64 274.148M696.907 240.014C704.38 198.984 706.94 174.422 730.961 149.205M696.907 240.014C702.078 239.642 707.416 239.435 713.085 239.345M730.961 149.205C644.239 210.697 594.973 206.29 506.144 144.505M730.961 149.205L713.085 239.345M506.144 144.505C545.665 190.071 560.035 219.263 579.64 274.148M506.144 144.505C524.96 192.779 539.284 226.756 561.848 281.903M506.144 144.505C506.132 268.146 454.809 292.173 311.559 289.383M579.64 274.148C573.522 276.629 567.693 279.171 561.848 281.903M561.848 281.903C553.319 285.891 544.755 290.284 535.203 295.484C510.622 323.405 498.394 340.25 487.068 359.813M311.559 289.383C389.233 307.03 425.991 324.254 487.068 359.813M311.559 289.383C382.771 322.517 419.039 342.144 476.389 379.327M311.559 289.383C404.314 385.538 406.513 439.831 304.739 537.536M487.068 359.813C483.537 365.914 480.093 372.279 476.389 379.327M468.107 480.538C463.52 446.002 462.736 425.499 476.389 379.327M468.107 480.538C398.566 495.186 363.652 508.783 304.739 537.536M468.107 480.538C469.857 487.716 471.593 494.393 473.35 500.653M304.739 537.536C369.149 518.802 405.44 508.833 473.35 500.653M304.739 537.536C410.667 554.828 442.466 581.654 423.716 676.348M473.35 500.653C483.834 538.009 495.036 560.512 514.057 585.88M423.716 676.348C454.194 636.009 472.632 614.794 514.057 585.88M423.716 676.348C462.683 643.282 484.622 625.144 525.542 600.464M423.716 676.348C524.332 662.806 537.861 688.715 524.97 763.85M514.057 585.88C517.599 590.604 521.412 595.427 525.542 600.464M525.542 600.464C558.072 644.63 574.491 666.135 589.655 683.808M524.97 763.85C542.381 734.73 554.107 717.87 589.655 683.808M524.97 763.85C545.131 739.934 558.767 725.441 597.595 692.851M524.97 763.85C613.367 729.642 627.648 740.86 614.652 794.009M589.655 683.808C592.314 686.906 594.934 689.887 597.595 692.851M597.595 692.851C630.623 723.341 640.723 742.428 655.666 777.2C656.125 779.604 656.557 781.94 656.961 784.214M614.652 794.009C629.31 788.863 637.969 786.294 656.961 784.214M614.652 794.009C636.542 792.733 646.941 792.736 658.781 795.3M656.961 784.214C657.647 788.071 658.254 791.753 658.781 795.3M661.171 835.305C661.519 827.909 661.401 820.695 660.829 813.127M661.171 835.305C492.956 838.275 395.492 811.634 224.887 720.528M661.171 835.305C661.141 835.941 661.108 836.579 661.071 837.219M661.171 835.305C664.968 835.238 668.801 835.156 672.672 835.059C668.728 835.808 664.865 836.528 661.071 837.219M660.829 813.127C608.261 827.087 566.093 819.36 474.491 771.821C392.641 702.71 354.125 663.901 347.601 624.232M660.829 813.127C660.735 811.894 660.63 810.652 660.513 809.398M660.829 813.127C664.381 812.184 667.981 811.142 671.647 810.006M347.601 624.232C358.139 731.426 328.289 750.162 224.887 720.528M347.601 624.232C347.322 621.395 347.015 618.495 346.68 615.533M347.601 624.232C347.126 621.341 346.82 618.445 346.68 615.533M224.887 720.528C267.189 759.322 295.574 783.952 443.68 830.529C547.877 852.037 593.809 849.452 661.071 837.219M224.887 720.528C309.481 821.262 294.414 863.658 184.356 920.486M184.356 920.486C365.557 882.59 470.99 868.433 657.834 863.972M184.356 920.486C248.829 923.147 371.482 907.44 657.551 865.585M184.356 920.486C340.181 944.878 348.905 989.787 298.322 1096.16M657.834 863.972C659.515 854.252 660.589 845.59 661.071 837.219M657.834 863.972C657.742 864.506 657.647 865.044 657.551 865.585M657.834 863.972C662.022 863.872 666.251 863.776 670.522 863.686C666.162 864.325 661.838 864.958 657.551 865.585M657.551 865.585C657.208 867.519 656.841 869.495 656.45 871.52M298.322 1096.16C332.262 1038.19 368.825 1005.38 467.169 944.587C540.575 903.367 584.767 888.31 654.172 878.069M298.322 1096.16C418.431 977.614 499.971 930.114 652.844 881.885M298.322 1096.16C416.735 1024.68 429.979 1057.67 427.778 1152.02M654.172 878.069C654.47 877.211 654.771 876.348 655.072 875.48M654.172 878.069L652.844 881.885M654.172 878.069C660.539 877.129 667.119 876.23 673.952 875.355C666.765 877.538 659.732 879.712 652.844 881.885M654.172 878.069L655.072 875.48M654.172 878.069C653.726 879.351 653.283 880.623 652.844 881.885M655.072 875.48L656.45 871.52M655.072 875.48C655.528 874.171 655.987 872.851 656.45 871.52M652.844 881.885C650.029 889.978 647.363 897.652 644.821 905.014M427.778 1152.02C433.41 1095.1 444.382 1061.03 510.861 987.207C560.041 941.12 593.623 918.759 644.821 905.014M427.778 1152.02C487.312 1029.16 534.085 967.313 618.949 923.641M644.821 905.014C643.945 907.552 643.083 910.053 642.235 912.521M644.821 905.014C655.763 902.076 667.509 899.532 680.383 897.234M529.143 1017.06L607.64 1024.53M529.143 1017.06C593.894 1002.16 621.395 988.536 618.949 923.641M529.143 1017.06L603.57 1040.25M529.143 1017.06C586.722 1093.59 573.016 1131.94 499.271 1193.98M607.64 1024.53C618.517 983.405 628.613 952.169 642.235 912.521M607.64 1024.53C606.298 1029.61 604.944 1034.83 603.57 1040.25M642.235 912.521C634.156 916.107 626.405 919.804 618.949 923.641M642.235 912.521C654.194 907.213 666.873 902.149 680.383 897.234M603.57 1040.25C583.996 1097.44 584.073 1126.39 589.235 1172.82M499.271 1193.98L589.235 1172.82M499.271 1193.98L590.514 1185.64M499.271 1193.98C607.194 1238.19 602.34 1284.53 564.56 1376.56M589.235 1172.82C589.459 1174.83 589.692 1176.87 589.933 1178.95C590.117 1181.22 590.311 1183.46 590.514 1185.64M640.257 1332.13C660.107 1366.07 676.498 1384.61 705.892 1406.33C714.848 1412.62 723.034 1418.03 730.83 1422.77M640.257 1332.13L564.56 1376.56M640.257 1332.13C637.424 1327.29 634.521 1322.13 631.499 1316.6M564.56 1376.56C667.555 1373.31 697.078 1400.81 708.137 1491.24M564.56 1376.56L631.499 1316.6M708.137 1491.24L730.83 1422.77M708.137 1491.24L744.142 1430.44M708.137 1491.24C747.505 1454.18 772.018 1450.26 818.02 1458.94M730.83 1422.77C735.375 1425.54 739.788 1428.08 744.142 1430.44M818.02 1458.94C787.899 1450.12 766.8 1442.72 744.142 1430.44M818.02 1458.94C870.804 1459.61 899.838 1457.46 949.978 1446.04C996.101 1431.1 1018.22 1418.81 1046.77 1385.37C1073.66 1357.16 1083.86 1340.06 1095.26 1307.73C1104.65 1264.62 1102.86 1241.16 1088.04 1200.51C1071.28 1169.51 1061.37 1153.92 1040.98 1135.64C1014.32 1116.86 997.766 1110.37 964.88 1106.77C935.57 1107.4 920.368 1112.02 895.352 1127.21C870.275 1148.15 864.203 1158.95 855.848 1177.91C846.749 1202.27 845.807 1214.69 848.974 1235.39C855.148 1264.46 860.133 1275.67 871.845 1286.24C896.098 1294.18 904.616 1292.04 918.347 1286.31C935.674 1278.86 942.085 1271.75 950.84 1256.69C950.652 1230.51 946.46 1221.9 936.978 1209.52C924.75 1191.19 919.937 1182.49 909.214 1174.37C910.691 1144.58 920.315 1137.19 943.97 1130.88C967.684 1129.93 977.015 1136.08 991.87 1150.08C1011.29 1177.76 1017.36 1193.07 1021.43 1220.09C1019.69 1258.38 1013.49 1276.78 995.275 1305.43C968.399 1330.51 951.029 1341.7 915.532 1355.8C866.633 1366.85 843.203 1363.52 810.749 1335.37C783.169 1308.36 776.27 1291.03 770.208 1258.54C767.818 1234.19 763.737 1217.01 770.775 1204.76M658.781 795.3C659.512 800.223 660.09 804.887 660.513 809.398M713.085 239.345C717.282 239.279 721.659 239.277 726.283 239.32C749.092 239.564 762.378 242.266 787.226 252.572C806.931 266.325 814.986 275.548 822.081 295.677C829.79 320.237 826.842 332.316 816.666 352.731C810.044 368.59 807.067 378.316 812.91 408.241C826.005 425.693 834.676 434.68 853.799 448.516C877.746 467.686 899.331 475.322 945.625 485.968C969.162 492.49 984.015 495.695 1027.02 496.907C1040.45 498.457 1048.66 498.628 1068.34 493.739C1089 482.62 1101.37 479.049 1124.74 477.161C1137.23 480.465 1140.54 486.756 1144.9 500.816C1148.36 510.317 1148.85 524.333 1147.47 554.469C1148.15 554.163 1143.53 572.565 1126.61 612.893C1119.89 627.962 1115.06 634.755 1103.95 645.435C1092.9 652.516 1085.6 652.374 1070.89 646.173C1058.06 636.292 1051.67 630.374 1046.44 616.912C1031.2 601.447 1024.82 597.219 1015.22 593.341C996.705 580.888 986.9 575.849 971.206 572.999C953.899 566.028 940.485 564.103 912.723 562.722L844.541 567.973C806.367 575.277 789.737 579.46 778.903 587.266M660.513 809.398C534.133 801.729 462.521 769.522 346.68 615.533M660.513 809.398C664.177 809.62 667.888 809.822 671.647 810.006M590.514 1185.64C595.244 1236.56 605.392 1264.94 629.091 1312.17C629.902 1313.67 630.705 1315.15 631.499 1316.6M671.647 810.006C704.901 837.684 704.957 857.178 680.383 897.234M929.749 661.983C898.447 635.891 845.076 620.109 845.076 620.109C844.666 620.218 844.142 620.242 843.515 620.19M929.749 661.983C888.831 688.114 862.655 700.791 811.593 720.804M929.749 661.983C932.016 663.872 934.167 665.815 936.174 667.811M843.515 620.19C811.36 636.285 791.351 644.549 752.97 658.274M843.515 620.19C841.313 620.006 837.845 618.877 833.626 617.136M752.97 658.274C772.874 677.232 786.761 692.955 811.593 720.804M752.97 658.274C750.901 656.303 748.766 654.297 746.548 652.239M811.593 720.804L812.713 722.059M811.593 720.804C811.964 721.219 812.337 721.638 812.713 722.059M864.268 883.329C864.635 882.695 865.001 882.06 865.365 881.422C874.735 847.941 876.287 829.182 868.179 803.476M864.268 883.329C907.425 887.538 931.804 887.839 975.483 885.865M864.268 883.329C862.897 885.698 861.506 888.05 860.082 890.404M975.483 885.865C996.443 845.079 1002.98 818.228 996.644 767.829M975.483 885.865C974.608 887.568 973.707 889.296 972.782 891.05C972.16 891.95 971.542 892.84 970.925 893.721M996.644 767.829C947.53 785.316 919.288 792.764 868.179 803.476M996.644 767.829C996.476 766.489 996.298 765.133 996.112 763.76C995.625 762.474 995.145 761.207 994.67 759.958M868.179 803.476C867.394 800.988 866.519 798.435 865.551 795.797M807.771 965.434C837.988 971.542 857.035 973.221 893.217 974.383M807.771 965.434C832.88 931.476 847.713 910.847 860.082 890.404M807.771 965.434L807.511 965.786M807.771 965.434C807.684 965.551 807.598 965.669 807.511 965.786M893.217 974.383C939.355 934.082 954.726 916.854 970.925 893.721M893.217 974.383C891.575 975.818 889.893 977.283 888.17 978.778C886.874 979.841 885.597 980.89 884.341 981.924M970.925 893.721C926.808 896.135 902.549 895.361 860.082 890.404M860.082 890.404L807.511 965.786M802.775 972.185C782 997.66 771.023 1013.92 755.794 1049.56M802.775 972.185C832.868 977.905 850.851 979.904 884.341 981.924M802.775 972.185C804.393 970 805.971 967.868 807.511 965.786M755.794 1049.56C774.163 1055.05 785.8 1057.2 808.351 1059.81M755.794 1049.56C755.484 1050.29 755.172 1051.03 754.857 1051.77C753.706 1053.49 752.619 1055.17 751.593 1056.84M808.351 1059.81C827.165 1031.1 846.884 1012.77 884.341 981.924M808.351 1059.81C807.649 1060.89 806.949 1061.97 806.248 1063.07C805.408 1064.22 804.6 1065.34 803.82 1066.43M770.775 1204.76C747.861 1179.81 736.238 1165.22 732.622 1130.67C734.913 1097.97 737.583 1079.56 751.593 1056.84M770.775 1204.76C757.971 1173.01 779.201 1113.58 783.362 1102.55C783.362 1102.55 783.884 1094.27 803.82 1066.43M770.775 1204.76C756.623 1169.67 784.049 1100.76 784.049 1100.76M803.82 1066.43C781.01 1063.48 769.693 1061.31 751.593 1056.84M746.548 652.239C745.693 651.445 744.825 650.644 743.944 649.835C712.561 619.993 702.131 613.61 686.182 606.068C711.913 609.922 754.107 594.554 754.107 594.554C754.107 594.554 775.239 588.204 778.487 587.357M746.548 652.239C783.303 640.413 802.752 632.989 833.626 617.136M833.626 617.136C815.331 609.585 782.926 590.541 778.487 587.357M778.487 587.357C777.721 586.807 777.787 586.73 778.903 587.266M778.487 587.357C778.751 587.288 778.897 587.255 778.903 587.266M812.713 722.059C814.419 723.727 816.066 725.353 817.658 726.944M817.658 726.944C867.023 706.419 893.098 693.577 936.174 667.811M817.658 726.944C840.653 749.94 852.125 765.75 865.551 795.797M936.174 667.811C936.447 668.082 936.717 668.355 936.985 668.629C971.156 701.269 980.578 722.888 994.67 759.958M994.67 759.958C946.267 777.762 917.992 785.6 865.551 795.797M1085.92 553.543C1096.58 529.274 1097.62 505.188 1117.05 499.496C1132.58 506.593 1123.41 532.038 1119.27 562.758C1106.83 597.306 1099.92 618.178 1086.14 618.978C1075.87 614.064 1079.26 592.761 1085.92 553.543Z" stroke="black" stroke-width="1.01355"/>
<path d="M641.937 910.335C641.928 910.338 641.92 910.34 642.719 910.105C643.518 909.87 645.125 909.398 646.273 908.998" stroke="#FCD1DA" stroke-width="2.02711" stroke-linecap="round"/>
<path d="M642.568 909.16C642.655 909.134 642.972 909.022 643.457 908.651C643.84 908.358 644.242 908.082 644.618 908.026C645.086 907.956 645.501 907.94 645.867 907.798C646.004 907.745 646.006 907.652 645.945 907.575C645.65 907.201 645.167 907.268 644.708 907.227C644.592 907.217 644.475 907.216 644.453 907.206C644.398 907.182 644.626 907.094 644.658 907.017C644.665 906.998 644.573 907.033 644.52 907.112C644.276 907.47 644.184 908.097 643.982 908.516C643.773 908.948 643.217 909.476 642.795 910.179C642.559 910.573 642.074 910.677 642.009 910.731C641.993 910.745 642.09 910.762 642.106 910.795C642.148 910.881 641.964 910.987 641.964 911.024C641.964 911.085 642.21 910.965 642.257 910.952C642.305 910.938 642.21 910.966 642.118 910.996C642.026 911.026 641.94 911.058 641.86 911.088" stroke="#FCD1DA" stroke-width="2.02711" stroke-linecap="round"/>
<path d="M645.198 907.67C645.194 907.668 645.19 907.666 645.155 907.635C645.121 907.604 645.056 907.544 644.985 907.502C644.915 907.459 644.841 907.436 644.744 907.417" stroke="#FCD1DA" stroke-width="2.02711" stroke-linecap="round"/>
<path d="M652.551 880.27C652.563 880.266 652.958 880.15 653.567 879.976C653.788 879.916 653.83 879.912 653.873 879.912C653.917 879.912 653.961 879.914 654.029 879.935" stroke="#FCD1DA" stroke-width="1.01355" stroke-linecap="round"/>
<path d="M655.219 879.585C655.148 879.591 654.932 879.581 654.735 879.575C654.399 879.566 654.042 879.614 653.544 879.637C653.436 879.643 653.39 879.621 653.344 879.598C653.298 879.575 653.253 879.544 653.277 879.512C653.444 879.294 653.69 879.385 653.905 879.363C654.158 879.336 654.455 879.299 654.628 879.267C654.723 879.249 654.803 879.196 654.854 879.13C654.879 879.099 654.878 879.056 654.859 879.035C654.752 878.919 654.522 879.046 654.36 879.062C654.18 879.078 654.006 879.104 653.792 879.145C653.742 879.152 653.703 879.154 653.569 879.161" stroke="#FCD1DA" stroke-width="1.01355" stroke-linecap="round"/>
<path d="M652.357 880.553C652.516 880.513 652.942 880.383 653.653 880.177C653.804 880.133 653.857 880.163 653.867 880.188C653.878 880.213 653.847 880.245 653.808 880.27C653.452 880.503 652.587 880.656 652.357 880.793C652.321 880.814 652.332 880.87 652.35 880.895C652.367 880.92 652.407 880.93 652.449 880.93C652.537 880.93 653.18 880.738 654.104 880.466C654.549 880.301 654.709 880.185 654.867 880.097C654.908 880.081 654.951 880.068 655.036 880.032" stroke="#FCD1DA" stroke-width="1.01355" stroke-linecap="round"/>
<path d="M657.121 864.806C657.15 864.799 657.224 864.782 657.265 864.781C657.276 864.781 657.289 864.782 657.299 864.784C657.309 864.785 657.316 864.787 657.3 864.798C657.197 864.869 657.149 864.871 657.119 864.886C657.112 864.889 657.108 864.897 657.109 864.902C657.11 864.914 657.14 864.917 657.163 864.92C657.171 864.921 657.165 864.93 657.159 864.936C657.147 864.946 657.126 864.958 657.108 864.978C657.1 864.985 657.102 864.994 657.104 865.001C657.107 865.008 657.112 865.014 657.117 865.019C657.152 865.045 657.224 865.006 657.254 865.003C657.289 865.001 657.327 864.991 657.359 864.988C657.39 864.985 657.423 864.98 657.455 864.977C657.488 864.973 657.521 864.969 657.553 864.965C657.588 864.961 657.617 864.954 657.648 864.95C657.68 864.946 657.717 864.94 657.751 864.934C657.785 864.929 657.816 864.928 657.866 864.916C657.903 864.907 657.939 864.9 657.97 864.897C658 864.894 658.031 864.899 658.108 864.882C658.166 864.869 658.224 864.852 658.232 864.848C658.255 864.835 658.187 864.807 658.141 864.784C658.106 864.767 658.069 864.778 657.877 864.825C657.818 864.84 657.719 864.852 657.586 864.872C657.47 864.889 657.349 864.918 657.3 864.925C657.255 864.932 657.178 864.854 657.136 864.824C657.106 864.803 657.114 864.756 657.117 864.742C657.125 864.702 657.206 864.693 657.238 864.681C657.258 864.673 657.208 864.648 657.204 864.637C657.201 864.626 657.226 864.621 657.236 864.615C657.239 864.613 657.232 864.607 657.232 864.602C657.235 864.578 657.285 864.588 657.318 864.585C657.35 864.583 657.383 864.579 657.415 864.576C657.455 864.574 657.49 864.575 657.52 864.572C657.552 864.569 657.588 864.569 657.64 864.569C657.675 864.57 657.708 864.568 657.741 864.565C657.774 864.562 657.807 864.56 657.838 864.555C657.87 864.551 657.901 864.549 657.93 864.551C657.938 864.551 657.945 864.55 657.955 864.548C657.965 864.546 657.977 864.542 657.99 864.538" stroke="#FCD1DA" stroke-width="0.202711" stroke-linecap="round"/>
<path d="M657.94 864.547C657.973 864.536 658.06 864.519 658.093 864.521C658.123 864.522 658.159 864.519 658.195 864.516C658.231 864.514 658.275 864.514 658.307 864.526C658.322 864.531 658.332 864.547 658.34 864.559C658.345 864.566 658.346 864.573 658.343 864.58C658.334 864.613 658.289 864.627 658.217 864.648C658.188 864.657 658.116 864.658 658.006 864.665C657.837 864.677 657.746 864.677 657.687 864.676C657.639 864.676 657.592 864.694 657.547 864.703C657.497 864.714 657.451 864.715 657.378 864.724C657.328 864.734 657.287 864.743 657.238 864.751C657.215 864.755 657.194 864.756 657.172 864.757" stroke="#FCD1DA" stroke-width="0.202711" stroke-linecap="round"/>
<path d="M641.505 911.912C641.562 911.895 641.743 911.815 641.956 911.678C642.146 911.555 642.306 911.475 642.571 911.378C643.088 911.187 643.193 911.161 643.236 911.15C643.27 911.141 643.164 911.217 643.153 911.252C643.149 911.266 643.187 911.27 643.194 911.285C643.141 911.376 643.058 911.448 643.034 911.467C643.035 911.473 643.061 911.47 643.069 911.462" stroke="#FCD1DA" stroke-width="0.202711" stroke-linecap="round"/>
<path d="M643.563 906.523C643.785 906.453 644.21 906.322 644.155 906.324C644.128 906.324 644.103 906.309 644.104 906.297C644.111 906.159 644.419 906.198 644.531 906.191C644.813 906.173 645.247 905.984 645.348 905.94C645.373 905.93 645.397 905.919 645.398 905.907C645.398 905.894 645.374 905.88 645.347 905.874C645.227 905.85 645.103 905.943 644.97 906.003C644.701 906.125 644.533 906.112 644.283 906.172C644.137 906.213 643.874 906.29 643.617 906.392C643.359 906.495 643.117 906.619 642.867 906.748" stroke="#FCD1DA" stroke-width="1.01355" stroke-linecap="round"/>
<path d="M641.865 911.815C641.864 911.815 641.847 911.82 641.82 911.833C641.807 911.839 641.802 911.854 641.806 911.861C641.809 911.869 641.822 911.871 641.833 911.87C641.876 911.865 641.917 911.828 641.973 911.789C642.001 911.769 642.116 911.713 642.299 911.625C642.523 911.518 642.585 911.502 642.71 911.462C642.768 911.444 642.912 911.389 642.942 911.38C642.985 911.367 642.844 911.422 642.814 911.438C642.822 911.438 642.847 911.432 642.871 911.426C642.895 911.419 642.918 911.414 642.941 911.408" stroke="#FCD1DA" stroke-width="0.506777" stroke-linecap="round"/>
<path d="M641.732 911.837C641.732 911.837 641.731 911.837 641.727 911.84C641.722 911.844 641.713 911.851 641.712 911.859C641.712 911.868 641.721 911.878 641.726 911.91" stroke="#FCD1DA" stroke-width="0.506777" stroke-linecap="round"/>
<path d="M660.828 836.269C660.827 836.269 660.793 836.279 660.772 836.293C660.761 836.3 660.846 836.293 660.873 836.295C660.895 836.297 660.804 836.341 660.716 836.381C660.702 836.387 660.773 836.39 660.803 836.39C660.833 836.391 660.826 836.395 660.79 836.408C660.753 836.421 660.688 836.443 660.667 836.454C660.656 836.459 660.755 836.457 660.847 836.444C660.883 836.439 660.896 836.435 660.846 836.451C660.795 836.467 660.681 836.502 660.72 836.493C660.76 836.485 660.955 836.431 661.143 836.38" stroke="#FCD1DA" stroke-width="0.202711" stroke-linecap="round"/>
<path d="M660.59 836.352C660.59 836.352 660.589 836.352 660.7 836.321C660.81 836.289 661.032 836.225 661.172 836.188C661.446 836.115 661.536 836.11 661.577 836.112C661.609 836.114 661.662 836.119 661.728 836.124C661.76 836.126 661.789 836.126 661.829 836.123" stroke="#FCD1DA" stroke-width="0.202711" stroke-linecap="round"/>
<path d="M661.761 836.172C661.758 836.175 661.616 836.217 661.356 836.285C661.239 836.316 661.146 836.324 661.078 836.337C660.968 836.356 660.857 836.413 660.735 836.479C660.655 836.522 660.612 836.532 660.6 836.549C660.578 836.584 660.598 836.637 660.591 836.667C660.59 836.672 660.603 836.672 660.612 836.67C660.649 836.661 660.68 836.639 660.704 836.634C660.741 836.627 660.617 836.676 660.625 836.676C660.641 836.672 660.681 836.66 660.706 836.654C660.731 836.648 660.741 836.648 660.75 836.648" stroke="#FCD1DA" stroke-width="0.202711" stroke-linecap="round"/>
<path d="M660.5 836.722C660.522 836.716 660.65 836.68 660.727 836.663C660.793 836.649 660.888 836.624 660.924 836.621C660.97 836.617 661.025 836.603 661.068 836.601C661.11 836.598 661.173 836.581 661.231 836.568C661.267 836.56 661.304 836.567 661.34 836.564C661.384 836.562 661.433 836.545 661.469 836.54C661.508 836.534 661.652 836.494 661.748 836.457C661.76 836.449 661.773 836.44 661.797 836.421" stroke="#FCD1DA" stroke-width="0.202711" stroke-linecap="round"/>
<path d="M661.838 836.389C661.787 836.403 661.661 836.434 661.542 836.426C661.437 836.419 661.276 836.415 661.205 836.415C661.173 836.415 661.117 836.414 661.219 836.397C661.322 836.38 661.583 836.345 661.722 836.328C661.873 836.311 661.898 836.311 661.923 836.311C661.935 836.311 661.944 836.313 661.954 836.315" stroke="#FCD1DA" stroke-width="0.202711" stroke-linecap="round"/>
<path d="M660.484 836.169C660.486 836.169 660.591 836.138 660.773 836.092C660.897 836.061 660.972 836.072 661.011 836.068C661.042 836.066 661.154 836.069 661.313 836.076C661.395 836.079 661.435 836.087 661.48 836.089C661.534 836.089 661.646 836.077 661.775 836.058C661.823 836.05 661.836 836.046 661.848 836.043" stroke="#FCD1DA" stroke-width="0.202711" stroke-linecap="round"/>
<path d="M660.441 835.996C660.515 835.975 660.717 835.927 660.795 835.922C660.84 835.918 660.893 835.922 660.948 835.923C660.998 835.923 661.047 835.922 661.094 835.926C661.172 835.932 661.231 835.934 661.334 835.947C661.496 835.979 661.612 836.001 661.667 836.007C661.688 836.01 661.698 836.011 661.708 836.011" stroke="#FCD1DA" stroke-width="0.202711" stroke-linecap="round"/>
<path d="M660.594 835.924C660.601 835.922 660.637 835.917 660.68 835.907C660.717 835.898 660.765 835.906 660.815 835.905C660.852 835.905 660.889 835.898 660.926 835.893C660.96 835.888 660.996 835.886 661.033 835.885C661.076 835.884 661.116 835.885 661.154 835.883C661.195 835.88 661.229 835.878 661.269 835.882C661.308 835.885 661.346 835.887 661.384 835.887C661.422 835.887 661.457 835.885 661.496 835.887C661.534 835.889 661.572 835.889 661.607 835.89C661.645 835.893 661.678 835.9 661.697 835.903C661.707 835.904 661.718 835.904 661.747 835.9" stroke="#FCD1DA" stroke-width="0.202711" stroke-linecap="round"/>
<path d="M660.315 811.952C660.313 811.952 660.508 811.895 660.681 811.846C660.704 811.84 660.413 811.93 660.235 811.996C659.951 812.114 659.833 812.179 659.826 812.195C659.828 812.2 659.844 812.198 659.893 812.187" stroke="#FCD1DA" stroke-width="0.202711" stroke-linecap="round"/>
<path d="M659.928 812.177C659.929 812.176 659.931 812.176 660.164 812.108C660.397 812.04 660.863 811.904 661.131 811.829C661.458 811.745 661.537 811.733 661.595 811.726C661.633 811.722 661.689 811.716 661.776 811.711" stroke="#FCD1DA" stroke-width="0.202711" stroke-linecap="round"/>
<path d="M661.397 811.948C661.395 811.948 661.394 811.948 661.196 811.998C660.998 812.047 660.603 812.146 660.195 812.247" stroke="#FCD1DA" stroke-width="0.202711" stroke-linecap="round"/>
<path d="M660.139 812.662C660.178 812.65 660.279 812.641 660.381 812.621C660.448 812.608 660.696 812.517 660.862 812.475C660.92 812.461 660.982 812.458 661.096 812.428C661.17 812.416 661.212 812.408 661.261 812.394C661.297 812.384 661.354 812.369 661.412 812.353" stroke="#FCD1DA" stroke-width="0.202711" stroke-linecap="round"/>
<path d="M659.831 810.033C659.858 810.025 659.938 810.007 659.996 810.003C660.056 809.999 660.12 810.007 660.182 810.006C660.196 810.006 660.211 810.004 660.211 810C660.215 809.955 660.123 809.977 660.104 809.973C660.059 809.962 660.215 809.977 660.256 809.975C660.316 809.973 660.137 809.962 660.081 809.968C660.067 809.969 660.053 809.971 660.034 809.971C660.016 809.971 659.993 809.968 659.966 809.967" stroke="#FCD1DA" stroke-width="0.202711" stroke-linecap="round"/>
<path d="M659.928 809.953C659.949 809.947 660.016 809.937 660.075 809.938C660.14 809.939 660.215 809.954 660.285 809.964C660.354 809.973 660.417 809.965 660.509 809.967C660.575 809.969 660.639 809.97 660.701 809.972C660.766 809.973 660.827 809.977 660.901 809.982C660.962 809.99 661.019 810 661.087 810.01C661.106 810.012 661.128 810.014 661.158 810.018" stroke="#FCD1DA" stroke-width="0.202711" stroke-linecap="round"/>
<path d="M661.503 811.312C661.5 811.313 661.498 811.314 661.29 811.375C661.083 811.436 660.671 811.557 660.503 811.607C660.335 811.657 660.423 811.633 660.785 811.606C661.146 811.578 661.779 811.547 661.973 811.569C662.167 811.591 661.903 811.667 661.634 811.726C661.365 811.784 661.1 811.824 660.969 811.852C660.838 811.88 660.849 811.894 660.87 811.909C660.89 811.924 660.919 811.939 660.842 811.974C660.392 812.176 660.282 812.131 660.218 812.136C660.2 812.137 660.281 812.196 660.34 812.231C660.366 812.246 660.275 812.305 660.226 812.347C660.088 812.468 660.687 812.242 660.849 812.187C660.983 812.142 661.225 812.063 661.296 812.001C661.368 811.939 661.262 811.896 661.152 811.852" stroke="#FCD1DA" stroke-width="0.506777" stroke-linecap="round"/>
<path d="M660.663 811.972C660.642 811.968 660.482 811.878 660.264 811.709C660.198 811.658 660.174 811.603 660.166 811.576C660.146 811.509 660.4 811.733 660.518 811.793C660.593 811.831 660.68 811.809 660.708 811.801C660.722 811.797 660.734 811.785 660.735 811.761C660.737 811.701 660.697 811.638 660.599 811.53C660.521 811.445 660.372 811.312 660.265 811.218C660.158 811.125 660.094 811.078 660.069 811.053C660.059 811.028 660.332 811.063 660.655 811.089C660.722 811.08 660.591 811.027 660.456 810.971" stroke="#FCD1DA" stroke-width="0.506777" stroke-linecap="round"/>
<path d="M660.04 810.827C660.035 810.822 660.048 810.812 660.08 810.799C660.097 810.793 660.116 810.79 660.315 810.82C660.513 810.85 660.891 810.913 661.104 810.946C661.317 810.979 661.356 810.981 661.368 810.978C661.38 810.974 661.148 810.87 660.808 810.732C660.492 810.603 660.335 810.631 660.238 810.647C660.209 810.652 660.18 810.662 660.165 810.676C660.061 810.774 660.252 811.027 660.329 811.127C660.378 811.19 660.441 811.214 660.497 811.236C660.574 811.266 660.811 811.236 661.101 811.165C661.147 811.153 661.148 811.13 661.149 811.088C661.156 810.86 661.084 810.722 661.006 810.65C660.977 810.623 660.906 810.597 660.787 810.559C660.455 810.454 660.18 810.486 660.106 810.477C660.089 810.475 660.077 810.466 660.066 810.451C660.042 810.416 660.044 810.373 660.056 810.344C660.08 810.286 660.224 810.256 660.35 810.243C660.56 810.22 660.897 810.32 660.97 810.328C661.01 810.329 661.046 810.331 661.079 810.334C661.096 810.336 661.113 810.34 661.144 810.347" stroke="#FCD1DA" stroke-width="0.506777" stroke-linecap="round"/>
<path d="M659.053 810.075C659.09 810.064 659.199 810.041 659.332 810.053C659.499 810.068 659.595 810.101 659.659 810.124C659.731 810.151 659.817 810.178 660.16 810.201C660.435 810.209 660.598 810.222 660.796 810.251C660.854 810.263 660.933 810.28 661.045 810.301" stroke="#FCD1DA" stroke-width="0.506777" stroke-linecap="round"/>
<path d="M649.753 895.665C649.763 895.642 649.773 895.619 649.746 895.607C649.718 895.595 649.654 895.594 649.577 895.616C649.5 895.637 649.413 895.682 648.922 896.113C648.431 896.545 647.54 897.36 647.111 897.765C646.683 898.17 646.744 898.138 646.847 898.028C647.109 897.746 647.625 896.839 648.196 895.804C648.382 895.467 648.345 895.508 647.897 896.404C647.449 897.3 646.588 899.048 646.289 899.826C645.99 900.604 646.279 900.359 646.626 900.079" stroke="#E54E6F" stroke-width="1.01355" stroke-linecap="round"/>
<path d="M644.042 904.234C644.044 904.233 644.045 904.232 644.219 904.182C644.392 904.131 644.737 904.029 645.065 903.93C645.393 903.831 645.694 903.737 646.004 903.64" stroke="#E54E6F" stroke-width="1.01355" stroke-linecap="round"/>
<path d="M650.733 884.271C650.934 884.211 651.53 883.992 651.838 883.851C652.117 883.724 652.27 883.613 652.319 883.562C652.369 883.509 652.187 883.435 652.138 883.339C652.113 883.291 652.123 883.232 652.151 883.199C652.544 883.083 653.105 882.918 653.223 882.866C653.291 882.839 653.377 882.809 653.491 882.786" stroke="#E54E6F" stroke-width="1.01355" stroke-linecap="round"/>
<path d="M658.264 888.252C658.252 888.262 658.24 888.271 656.729 888.745C655.219 889.218 652.211 890.155 650.331 890.801C648.452 891.448 647.791 891.775 647.441 891.967C647.09 892.16 647.068 892.207 647.175 892.702C647.488 894.145 647.815 895.11 647.929 895.101C648.064 895.091 648.173 894.99 648.265 894.871C648.379 894.725 648.542 894.376 648.88 893.369C649.13 892.627 649.429 891.379 649.589 890.791C649.748 890.203 649.732 890.302 649.475 891.13C649.218 891.959 648.722 893.512 648.39 894.473C647.942 895.77 647.643 896.268 647.411 896.735C647.283 897.024 647.136 897.417 647.055 897.65C646.975 897.883 646.966 897.943 646.968 898.073" stroke="#E54E6F" stroke-width="2.02711" stroke-linecap="round"/>
<path d="M646.733 899.494C646.726 899.559 646.176 900.616 645.798 901.238C645.656 901.471 645.494 901.73 645.446 901.951C645.418 902.059 645.373 902.159 645.305 902.282C645.264 902.358 645.21 902.464 645.139 902.592" stroke="#E54E6F" stroke-width="2.02711" stroke-linecap="round"/>
<path d="M651.48 890.906C651.479 890.902 651.434 890.748 651.333 890.5C651.196 890.16 650.721 890.14 650.552 889.976C650.471 889.897 650.46 889.772 650.456 889.657C650.439 889.149 651.113 888.464 651.254 887.954C651.427 887.33 651.612 886.775 651.769 886.43C651.966 885.996 652.191 885.676 652.387 885.198C652.43 885.091 652.427 885.035 652.396 885.006C652.323 884.936 652.179 884.992 652.074 885.047C651.708 885.561 651.218 886.455 651.142 886.679C651.106 886.799 651.072 886.931 651.041 887.126" stroke="#E54E6F" stroke-width="2.02711" stroke-linecap="round"/>
<path d="M654.136 874.73C654.155 874.77 654.308 874.897 654.486 874.996C654.569 875.042 654.614 875.1 654.632 875.136C654.681 875.238 654.501 875.42 654.259 875.663C654.061 875.862 654.015 876.066 653.957 876.136C653.882 876.226 653.844 876.388 653.765 876.499C653.737 876.538 653.691 876.546 653.674 876.569C653.667 876.579 653.69 876.595 653.718 876.597C653.842 876.607 653.922 876.567 654.003 876.558C654.139 876.543 654.325 876.494 654.409 876.485C654.498 876.476 654.593 876.466 654.685 876.446C654.769 876.436 654.865 876.43 655.014 876.415C655.052 876.413 655.085 876.414 655.119 876.415" stroke="#E54E6F" stroke-width="2.02711" stroke-linecap="round"/>
<path d="M655.427 874.725C655.393 874.612 655.39 874.305 655.415 873.876C655.426 873.697 655.464 873.6 655.674 873.123C655.885 872.647 656.276 871.793 656.562 871.075C656.848 870.358 657.018 869.802 657.119 869.461C657.22 869.121 657.249 869.013 657.301 868.876" stroke="#E54E6F" stroke-width="2.02711" stroke-linecap="round"/>
<path d="M657.166 868.443C657.149 868.386 657.115 868.225 657.126 868.076C657.14 867.878 657.114 867.737 657.066 867.718C656.947 867.67 656.877 867.723 656.836 867.715C656.749 867.698 656.722 867.576 656.679 867.456C656.663 867.411 656.627 867.381 656.61 867.351C656.575 867.291 656.717 867.248 656.786 867.206C656.851 867.165 656.975 867.18 657.101 867.135C657.344 867.047 657.434 867.049 657.516 867.041C657.596 867.032 657.676 867.029 657.757 867.03C657.796 867.029 657.85 867.02 657.911 867.011C657.938 867.011 657.957 867.018 657.998 867.056" stroke="#E54E6F" stroke-width="2.02711" stroke-linecap="round"/>
<path d="M659.572 856.892C659.552 856.905 659.49 857 659.343 857.394C659.221 857.726 659.029 858.333 658.859 858.921C658.689 859.509 658.555 860.063 658.48 860.364C658.405 860.666 658.394 860.698 658.335 860.829C658.057 861.444 658 861.516 657.902 861.647C657.817 861.76 657.65 861.895 657.49 861.997C657.385 862.063 657.292 862.129 657.249 862.192C657.227 862.224 657.258 862.307 657.293 862.39C657.324 862.467 657.414 862.464 657.447 862.481C657.59 862.556 657.85 862.399 657.934 862.393C658.017 862.387 658.098 862.392 658.178 862.387C658.266 862.381 658.358 862.414 658.444 862.427C658.466 862.428 658.486 862.427 658.512 862.423C658.538 862.419 658.568 862.412 658.634 862.401" stroke="#E54E6F" stroke-width="2.02711" stroke-linecap="round"/>
<path d="M658.837 857.605C658.834 857.606 658.807 857.523 658.773 857.302C658.752 857.166 658.771 856.977 658.866 856.537C658.962 856.097 659.145 855.411 659.335 854.804C659.526 854.197 659.72 853.689 659.846 853.191C659.973 852.692 660.026 852.219 660.057 851.962C660.088 851.705 660.096 851.679 660.107 851.659C660.118 851.639 660.134 851.626 660.15 851.612" stroke="#E54E6F" stroke-width="2.02711" stroke-linecap="round"/>
<path d="M659.97 850.484C659.959 850.444 659.93 850.232 659.996 849.541C660.051 848.973 660.208 847.972 660.33 847.272C660.452 846.573 660.549 846.206 660.597 846.033C660.645 845.859 660.64 845.891 660.395 846.833C660.149 847.775 659.663 849.627 659.397 850.769C659.131 851.912 659.099 852.289 659.068 852.702" stroke="#E54E6F" stroke-width="2.02711" stroke-linecap="round"/>
<path d="M660.217 844.929C660.219 844.93 660.224 844.91 660.308 844.69C660.385 844.49 660.547 844.115 660.645 843.859C660.79 843.482 660.815 843.327 660.845 843.17C660.871 843.035 660.924 842.788 660.963 842.53C661.001 842.272 661.026 842.01 661.065 841.748C661.105 841.485 661.16 841.229 661.191 841.061C661.234 840.821 661.225 840.692 661.198 840.541C661.121 840.114 660.973 840.012 660.842 839.91C660.745 839.835 660.623 839.808 660.519 839.76C660.425 839.716 660.389 839.628 660.356 839.505C660.311 839.334 660.36 839.175 660.37 839.085C660.379 839.003 660.502 838.969 660.549 838.898C660.658 838.732 661.018 838.754 661.102 838.746C661.199 838.737 661.278 838.717 661.457 838.67C661.555 838.652 661.636 838.642 661.731 838.627C661.759 838.625 661.792 838.625 661.826 838.626" stroke="#E54E6F" stroke-width="2.02711" stroke-linecap="round"/>
<path d="M661.99 827.455C661.988 827.464 661.912 827.71 661.783 828.169C661.722 828.384 661.697 828.57 661.678 828.791C661.66 829.012 661.655 829.266 661.652 829.407C661.65 829.549 661.649 829.571 661.631 829.792C661.613 830.014 661.578 830.434 661.547 830.692C661.506 831.034 661.419 831.201 661.337 831.347C661.282 831.444 661.143 831.596 660.958 831.809C660.748 832.05 660.728 832.251 660.715 832.392C660.697 832.594 660.831 832.842 660.841 832.894C660.862 833 660.697 833.037 660.579 833.107C660.431 833.195 660.367 833.343 660.294 833.558C660.279 833.602 660.299 833.618 660.316 833.63C660.396 833.672 660.475 833.693 660.554 833.678C660.574 833.674 660.594 833.671 660.669 833.658" stroke="#E54E6F" stroke-width="2.02711" stroke-linecap="round"/>
<path d="M659.871 832.219C659.925 832.403 660.058 832.828 660.105 832.928C660.202 833.132 660.349 833.312 660.429 833.392C660.492 833.455 660.58 833.505 660.663 833.54C660.769 833.585 660.914 833.744 660.973 833.825C660.976 833.829 660.952 833.826 660.95 833.817C660.947 833.808 660.962 833.794 660.979 833.785C661.059 833.744 661.18 833.76 661.363 833.757C661.462 833.756 661.56 833.763 661.626 833.778C661.692 833.793 661.472 833.736 661.409 833.739C661.41 833.739 661.435 833.737 661.465 833.732C661.494 833.726 661.527 833.717 661.56 833.707" stroke="#E54E6F" stroke-width="2.02711" stroke-linecap="round"/>
<path d="M661.82 832.277C661.821 832.275 661.815 832.32 661.803 832.4C661.794 832.456 661.728 832.81 661.628 833.334C661.577 833.564 661.543 833.649 661.503 833.725C661.483 833.757 661.466 833.773 661.422 833.803" stroke="#E54E6F" stroke-width="2.02711" stroke-linecap="round"/>
<path d="M661.866 829.869C661.866 829.867 661.865 829.866 661.819 829.703C661.773 829.54 661.681 829.215 661.599 828.594C661.517 827.973 661.448 827.065 661.442 826.375C661.436 825.684 661.495 825.237 661.611 824.688C661.727 824.14 661.897 823.503 662.105 822.8" stroke="#E54E6F" stroke-width="2.02711" stroke-linecap="round"/>
<path d="M661.052 824.008C661.051 824.004 661.026 823.908 660.982 823.612C660.952 823.412 660.95 823.104 660.972 822.638C660.993 822.172 661.05 821.557 661.13 820.976C661.21 820.396 661.311 819.869 661.364 819.553C661.417 819.236 661.419 819.145 661.414 818.986C661.41 818.828 661.399 818.604 661.403 818.421C661.408 818.239 661.428 818.104 661.429 817.915C661.39 817.217 661.398 817.114 661.468 817.018C661.504 816.989 661.559 816.949 661.617 816.908" stroke="#E54E6F" stroke-width="2.02711" stroke-linecap="round"/>
<path d="M661.421 817.295C661.42 817.295 661.42 817.295 661.369 817.114C661.318 816.932 661.217 816.569 661.159 816.357C661.068 816.025 661 815.935 660.931 815.868C660.717 815.662 660.655 815.092 660.594 815.034C660.567 815.008 660.507 815.033 660.453 815.039C660.412 815.043 660.386 814.948 660.372 814.864C660.359 814.791 660.5 814.783 660.667 814.718C661.245 814.552 661.356 814.534 661.472 814.515C661.521 814.504 661.599 814.483 661.678 814.461" stroke="#E54E6F" stroke-width="2.02711" stroke-linecap="round"/>
<ellipse cx="81" cy="74" rx="81" ry="74" transform="matrix(-0.959414 0.282002 0.282002 0.959414 734.066 298.759)" fill="#F5F5F5"/>
<ellipse cx="47.9734" cy="42.2043" rx="47.9734" ry="42.2043" transform="matrix(-0.959414 0.282002 0.282002 0.959414 739.34 337.202)" fill="#181617"/>
<ellipse cx="20.1902" cy="3.31033" rx="20.1902" ry="3.31033" transform="matrix(-0.628238 0.778022 0.809298 0.587398 690.402 358.962)" fill="white"/>
<ellipse cx="10.28" cy="12.9859" rx="10.28" ry="12.9859" transform="matrix(-0.959414 0.282002 0.282002 0.959414 739.055 377.279)" fill="white"/>
</svg>
