<svg width="1276" height="1543" viewBox="0 0 1276 1543" fill="none" xmlns="http://www.w3.org/2000/svg">
<path d="M829.919 253.116C859.711 256.056 878.484 260.593 898.593 269.087C923.886 235.928 937.324 215.208 970.177 203.653C864.987 219.047 823.097 192.743 772.023 97.3526C786.536 155.898 786.079 188.432 778.617 246.234C792.127 245.764 807.903 247.878 829.919 253.116Z" fill="#E54E6F"/>
<path d="M729.336 245.059C740.208 244.764 749.833 244.74 759.243 245.062C764.189 185.682 766.859 148.906 772.023 97.3526C715.854 207.499 659.218 205.593 532.864 138.043C594.048 189.044 618.972 221.085 657.235 280.506C676.211 268.221 694.755 258.768 729.336 245.059Z" fill="#E54E6F"/>
<path d="M585.508 379.447C597.108 346.596 605.722 327.973 638.857 293.04C604.653 233.866 581.256 199.907 532.864 138.043C571.825 265.836 549.124 315.205 414.075 356.024C479.621 357.167 516.901 360.911 585.508 379.447Z" fill="#E54E6F"/>
<path d="M581.043 399.749C516.827 376.191 479.968 368.589 414.075 356.024C500.592 419.543 516.737 457.885 457.023 533.731C502.498 511.637 528.56 501.111 578.598 494.167C573.175 462.927 573.416 437.791 581.043 399.749Z" fill="#E54E6F"/>
<path d="M582.206 512.376C534.541 515.778 506.757 521.972 457.023 533.731C552.812 567.367 553.097 596.594 507.486 657.677C536.224 639.642 554.329 629.947 601.469 615.747C595.987 593.115 591.127 566.499 582.206 512.376Z" fill="#E54E6F"/>
<path d="M617.859 728.932C620.341 691.167 620.011 669.575 604.436 627.411C555.041 638.809 536.31 645.527 507.486 657.677C601.776 667.351 609.404 683.831 573.685 725.279C589.082 727.352 597.963 728.997 615.827 735.77C616.5 733.56 617.176 731.283 617.859 728.932Z" fill="#E54E6F"/>
<path d="M596.372 783.199C600.041 776.768 603.213 770.288 606.14 763.285C552.967 751.845 518.91 725.808 458.894 641.85C417.364 543.103 400.678 491.034 412.884 452.73C373.584 553.014 338.481 556.149 259.82 482.782C370.431 641.438 445.161 709.441 596.372 783.199Z" fill="#E54E6F"/>
<path d="M404.779 680.159C293.987 571.393 279.886 536.557 259.82 482.782C289.43 610.949 256.751 641.875 132.889 642.515C311.533 691.056 411.893 726.331 580.379 807.222C586.291 799.326 591.182 792.097 595.414 784.858C529.934 765.206 487.839 746.647 404.779 680.159Z" fill="#E54E6F"/>
<path d="M579.394 808.531C305.525 715.886 189.119 674.17 132.889 642.515C260.634 735.022 248.009 778.994 154.629 850.788C211.198 814.554 258.674 801.932 373.9 792.441C458.019 789.06 504.229 795.718 570.713 818.118C571.369 817.489 572.028 816.857 572.691 816.221L575.717 813.318C576.985 811.692 578.209 810.098 579.394 808.531Z" fill="#E54E6F"/>
<path d="M567.797 820.915C409.697 794.446 315.478 799.728 154.629 850.788C292.59 840.889 289.403 876.298 244.591 959.348C275.459 911.203 300.712 885.826 393.467 850.256C458.213 831.536 498.289 826.867 550.144 837.876C555.753 832.472 561.613 826.846 567.797 820.915Z" fill="#E54E6F"/>
<path d="M396.196 885.154L462.733 927.469C491.104 895.767 514.287 872.525 544.43 843.389C535.604 842.914 527.02 842.688 518.634 842.719C491.338 901.646 460.651 901.288 396.196 885.154Z" fill="#E54E6F"/>
<path d="M451.971 939.617L396.196 885.154C412.733 979.485 383.101 1007.43 289.226 1029.2L378.986 1051.21C395.473 1007.51 408.553 981.683 451.971 939.617Z" fill="#E54E6F"/>
<path d="M376.851 1312.24C360.531 1279.53 354.35 1255.57 352.08 1216.32L264.46 1221.52C357.695 1265.41 371.507 1303.31 340.284 1388.9L391.601 1338.21C386.81 1330.44 381.972 1321.91 376.851 1312.24Z" fill="#E54E6F"/>
<path d="M452.849 1410.04C430.02 1388.5 414.587 1372.32 399.979 1351.09L340.284 1388.9C392.192 1373.77 415.811 1381.41 452.849 1410.04Z" fill="#E54E6F"/>
<path d="M778.617 246.234C786.079 188.432 786.536 155.898 772.023 97.3526C766.859 148.906 764.189 185.682 759.243 245.062C765.691 245.282 772.039 245.665 778.617 246.234Z" fill="#FCD1DA"/>
<path d="M638.857 293.04C645.358 288.443 651.317 284.337 657.235 280.506C618.972 221.085 594.048 189.044 532.864 138.043C581.256 199.907 604.653 233.866 638.857 293.04Z" fill="#FCD1DA"/>
<path d="M585.508 379.447C516.901 360.911 479.621 357.167 414.075 356.024C479.968 368.589 516.827 376.191 581.043 399.749C582.321 393.374 583.807 386.636 585.508 379.447Z" fill="#FCD1DA"/>
<path d="M582.206 512.376C580.814 506.013 579.608 499.984 578.598 494.167C528.56 501.111 502.498 511.637 457.023 533.731C506.757 521.972 534.541 515.778 582.206 512.376Z" fill="#FCD1DA"/>
<path d="M604.436 627.411C603.411 623.561 602.431 619.715 601.469 615.747C554.329 629.947 536.224 639.642 507.486 657.677C536.31 645.527 555.041 638.809 604.436 627.411Z" fill="#FCD1DA"/>
<path d="M615.827 735.77C597.963 728.997 589.082 727.352 573.685 725.279C593.766 734.085 603.029 738.811 612.413 746.473C613.554 743.073 614.686 739.518 615.827 735.77Z" fill="#FCD1DA"/>
<path d="M913.31 275.839L970.177 203.653C937.324 215.208 923.886 235.928 898.593 269.087C903.368 271.104 908.219 273.344 913.31 275.839Z" fill="#FCD1DA"/>
<path d="M607.553 759.819C498.444 695.584 449.274 634.365 416.014 444.562C414.967 447.353 413.924 450.075 412.884 452.73C400.678 491.034 417.364 543.103 458.894 641.85C518.91 725.808 552.967 751.845 606.14 763.285C606.617 762.144 607.088 760.99 607.553 759.819Z" fill="#FCD1DA"/>
<path d="M259.82 482.782C279.886 536.557 293.987 571.393 404.779 680.159C487.839 746.647 529.934 765.206 595.414 784.858C595.737 784.305 596.056 783.752 596.372 783.199C445.161 709.441 370.431 641.438 259.82 482.782Z" fill="#FCD1DA"/>
<path d="M580.379 807.222C411.893 726.331 311.533 691.056 132.889 642.515C189.119 674.17 305.525 715.886 579.394 808.531C579.725 808.093 580.053 807.656 580.379 807.222Z" fill="#F4CFD7"/>
<path d="M373.9 792.441C258.674 801.932 211.198 814.554 154.629 850.788C315.478 799.728 409.697 794.446 567.797 820.915L570.713 818.118C504.229 795.718 458.019 789.06 373.9 792.441Z" fill="#FCD1DA"/>
<path d="M393.467 850.256C300.712 885.826 275.459 911.203 244.591 959.348C353.434 876.932 423.193 843.082 518.634 842.719C527.02 842.688 535.604 842.914 544.43 843.389C546.307 841.576 548.21 839.739 550.144 837.876C498.289 826.867 458.213 831.536 393.467 850.256Z" fill="#FCD1DA"/>
<path d="M451.971 939.617C455.652 935.421 459.232 931.381 462.733 927.469L396.196 885.154L451.971 939.617Z" fill="#FCD1DA"/>
<path d="M351.198 1193.47C351.535 1140.63 355.384 1110.74 374.298 1063.22L289.226 1029.2C365.293 1117.61 339.921 1156.69 264.46 1221.52L351.33 1198.51C351.282 1196.85 351.238 1195.17 351.198 1193.47Z" fill="#E54E6F"/>
<path d="M376.822 1056.99C377.552 1055.03 378.272 1053.1 378.986 1051.21L289.226 1029.2L374.298 1063.22C375.111 1061.18 375.952 1059.1 376.822 1056.99Z" fill="#FCD1DA"/>
<path d="M351.33 1198.51L264.46 1221.52L352.08 1216.32C351.757 1210.72 351.512 1204.8 351.33 1198.51Z" fill="#FCD1DA"/>
<path d="M391.601 1338.21L340.284 1388.9L399.979 1351.09C397.172 1347.01 394.394 1342.74 391.601 1338.21Z" fill="#FCD1DA"/>
<path d="M606.14 763.285C609.734 764.058 613.414 764.765 617.196 765.418C613.93 763.547 610.716 761.682 607.553 759.819C607.088 760.99 606.617 762.144 606.14 763.285Z" fill="#FCD1DA"/>
<path d="M606.73 788.203C603.238 786.531 599.786 784.863 596.372 783.199C596.056 783.752 595.737 784.305 595.414 784.858C599.108 785.967 602.876 787.079 606.73 788.203Z" fill="#FCD1DA"/>
<path d="M591.812 812.731C587.966 810.871 584.155 809.035 580.379 807.222C580.053 807.656 579.725 808.093 579.394 808.531C583.498 809.92 587.637 811.319 591.812 812.731Z" fill="#F4CFD7"/>
<path d="M589.568 824.685C583.082 822.36 576.812 820.173 570.713 818.118L567.797 820.915C574.92 822.107 582.173 823.364 589.568 824.685Z" fill="#FCD1DA"/>
<path d="M914.372 750.776C898.336 713.313 857.955 675.011 857.955 675.011C857.541 674.922 857.063 674.706 856.528 674.375C820.57 674.108 798.991 672.383 758.564 667.178C767.685 693.108 772.916 713.423 782.39 749.512C836.971 754.875 866.048 755.471 914.372 750.776Z" fill="#FCD1DA"/>
<path d="M757.341 917.03C756.727 917.433 756.113 917.833 755.498 918.231C792.034 941.583 813.617 952.924 853.428 971.004C890.625 944.189 908.647 923.237 925.892 875.458C874.194 868.729 845.651 862.537 795.252 848.866C790.799 875.45 780.897 891.458 757.341 917.03Z" fill="#FCD1DA"/>
<path d="M667.872 965.717C692.018 984.883 708.225 995.03 739.932 1012.5C799.341 997.551 820.859 989.184 845.799 975.933C805.398 958.045 784.138 946.337 748.555 922.632C728.25 935.227 705.666 946.869 667.872 965.717Z" fill="#FCD1DA"/>
<path d="M660.355 969.462C630.276 982.722 613.112 992.221 583.354 1017.06C597.227 1030.29 606.616 1037.5 625.522 1050.06C655.326 1033.03 681.219 1025.65 728.599 1015.19C699.68 998.175 684.567 988.226 660.355 969.462Z" fill="#FCD1DA"/>
<path d="M525.872 1078.79C513.401 1111.21 517.127 1129.5 526.209 1162.13C529.224 1128.03 575.13 1084.73 583.848 1076.79C583.848 1076.79 588.075 1069.64 618.481 1053.9C599.497 1040.91 590.4 1033.84 576.308 1021.63C553.504 1035.52 542.765 1050.7 525.872 1078.79Z" fill="#FCD1DA"/>
<path d="M788.518 610.926C788.518 610.926 743.948 605.453 722.774 590.332C733.558 604.295 739.951 614.719 754.356 655.56C754.773 656.681 755.182 657.789 755.584 658.884C793.7 665.043 814.399 667.263 849.105 667.162C836.236 652.126 816.016 620.441 813.507 615.588C810.23 614.867 788.518 610.926 788.518 610.926Z" fill="#FCD1DA"/>
<path d="M849.105 667.162C814.399 667.263 793.7 665.043 755.584 658.884C756.625 661.725 757.616 664.482 758.564 667.178C798.991 672.383 820.57 674.108 856.528 674.375C854.649 673.211 852.073 670.629 849.105 667.162Z" fill="#E54E6F"/>
<path d="M782.39 749.512L782.817 751.139C783.58 753.4 784.309 755.596 785.004 757.737C838.306 761.874 867.369 762.276 917.448 758.886C916.566 756.197 915.533 753.488 914.372 750.776C866.048 755.471 836.971 754.875 782.39 749.512Z" fill="#E54E6F"/>
<path d="M927.708 867.548C931.991 828.122 933.416 804.583 917.799 759.983C917.685 759.618 917.568 759.252 917.448 758.886C867.369 762.276 838.306 761.874 785.004 757.737C795.046 788.669 798.085 807.965 796.399 840.831C847.75 855.566 876.5 861.425 927.708 867.548Z" fill="#FCD1DA"/>
<path d="M845.799 975.933C846.749 975.428 847.703 974.916 848.665 974.397C850.287 973.254 851.874 972.124 853.428 971.004C813.617 952.924 792.034 941.583 755.498 918.231C753.201 919.719 750.893 921.182 748.555 922.632C784.138 946.337 805.398 958.045 845.799 975.933Z" fill="#E54E6F"/>
<path d="M927.266 871.591C927.416 870.224 927.564 868.877 927.708 867.548C876.5 861.425 847.75 855.566 796.399 840.831C796.062 843.621 795.683 846.293 795.252 848.866C845.651 862.537 874.194 868.729 925.892 875.458C926.351 874.188 926.809 872.899 927.266 871.591Z" fill="#E54E6F"/>
<path d="M733.439 1014.12C735.653 1013.57 737.816 1013.03 739.932 1012.5C708.225 995.03 692.018 984.883 667.872 965.717L667.481 965.912C665.163 967.068 662.789 968.25 660.355 969.462C684.567 988.226 699.68 998.175 728.599 1015.19C730.188 1014.84 731.801 1014.48 733.439 1014.12Z" fill="#E54E6F"/>
<path d="M583.354 1017.06C582.748 1017.57 582.136 1018.08 581.519 1018.6C579.712 1019.61 577.978 1020.61 576.308 1021.63C590.4 1033.84 599.497 1040.91 618.481 1053.9C619.669 1053.28 620.898 1052.65 622.167 1052.01C623.292 1051.35 624.409 1050.7 625.522 1050.06C606.616 1037.5 597.227 1030.29 583.354 1017.06Z" fill="#E54E6F"/>
<path fill-rule="evenodd" clip-rule="evenodd" d="M502.5 1296.64C490.196 1260.05 491.92 1241.49 501.277 1209.79C510.209 1187 514.375 1169.85 526.209 1162.13C517.127 1129.5 513.401 1111.21 525.872 1078.79C542.765 1050.7 553.504 1035.52 576.308 1021.63C577.978 1020.61 579.712 1019.61 581.519 1018.6C582.136 1018.08 582.748 1017.57 583.354 1017.06C613.112 992.221 630.276 982.722 660.355 969.462C662.789 968.25 665.163 967.068 667.481 965.912L748.555 922.632C750.893 921.182 753.201 919.719 755.498 918.231C756.113 917.833 756.727 917.433 757.341 917.03C780.897 891.458 790.799 875.45 795.252 848.866C795.683 846.293 796.062 843.621 796.399 840.831C798.085 807.965 795.046 788.669 785.004 757.737C784.309 755.596 783.58 753.4 782.817 751.139L782.39 749.512C772.916 713.423 767.685 693.108 758.564 667.178C757.616 664.482 756.625 661.725 755.584 658.884C755.182 657.789 754.773 656.681 754.356 655.56C739.951 614.719 733.558 604.295 722.774 590.332C743.948 605.453 788.518 610.926 788.518 610.926C788.518 610.926 810.23 614.867 813.507 615.588C813.075 614.75 813.169 614.712 813.92 615.696C827.117 613.663 843.832 617.489 881.16 628.321L944.287 654.611C968.394 668.452 979.469 676.258 991.722 690.33C1004.41 699.998 1010.86 708.94 1021.69 728.442C1028.48 736.258 1032.25 742.925 1038.8 763.625C1037.35 777.992 1040.35 786.166 1047.29 800.797C1057.58 813.003 1064.02 816.445 1077.08 815.156C1091.83 810.688 1099.22 806.828 1112.05 796.455C1145.44 768.212 1157.92 753.917 1157.17 753.879C1172.09 727.659 1178.02 714.952 1179.25 704.916C1181.75 690.409 1181.66 683.302 1172.04 674.686C1150.36 665.751 1137.72 663.315 1114.26 663.837C1094.51 659.254 1087.27 655.372 1076 647.889C1038.25 627.279 1026.47 617.677 1008.46 601.175C972.054 570.664 956.292 554.057 943.666 526.102C932.912 505.09 929.27 493.144 925.53 471.649C933.917 442.335 940.987 435.022 954.089 423.901C972.428 410.335 980.541 400.913 984.828 375.531C987.65 354.376 984.662 342.501 973.354 321.298C955.898 300.831 945.289 292.389 925.079 281.811C920.98 279.673 917.079 277.686 913.31 275.839C908.219 273.344 903.368 271.104 898.593 269.087C878.484 260.593 859.711 256.056 829.919 253.116C807.903 247.878 792.127 245.764 778.617 246.234C772.039 245.665 765.691 245.282 759.243 245.062C749.833 244.74 740.208 244.764 729.336 245.059C694.755 258.768 676.211 268.221 657.235 280.506C651.317 284.337 645.358 288.443 638.857 293.04C605.722 327.973 597.108 346.596 585.508 379.447C583.807 386.636 582.321 393.374 581.043 399.749C573.416 437.791 573.175 462.927 578.598 494.167C579.608 499.984 580.814 506.013 582.206 512.376C591.127 566.499 595.987 593.115 601.469 615.747C602.431 619.715 603.411 623.561 604.436 627.411C620.011 669.575 620.341 691.167 617.859 728.932C617.176 731.283 616.5 733.56 615.827 735.77C614.686 739.518 613.554 743.073 612.413 746.473C610.829 751.191 609.226 755.608 607.553 759.819C610.716 761.682 613.93 763.547 617.196 765.418C634.251 805.18 625.447 822.573 585.36 847.098C571.091 845.34 557.495 844.093 544.43 843.389C514.287 872.525 491.104 895.767 462.733 927.469C459.232 931.381 455.652 935.421 451.971 939.617C408.553 981.683 395.473 1007.51 378.986 1051.21C378.272 1053.1 377.552 1055.03 376.822 1056.99C375.952 1059.1 375.111 1061.18 374.298 1063.22C355.384 1110.74 351.535 1140.63 351.198 1193.47C351.238 1195.17 351.282 1196.85 351.33 1198.51C351.512 1204.8 351.757 1210.72 352.08 1216.32C354.35 1255.57 360.531 1279.53 376.851 1312.24C381.972 1321.91 386.81 1330.44 391.601 1338.21C394.394 1342.74 397.172 1347.01 399.979 1351.09C414.587 1372.32 430.02 1388.5 452.849 1410.04C499.571 1434.61 526.413 1445.88 576.271 1458.48C624.146 1466.12 649.438 1465.22 690.058 1448.39C726.828 1435.48 743.682 1424.88 768.52 1401.25C796.469 1367.1 805.529 1345.39 810.79 1302.45C809.94 1267.22 808.194 1248.82 798.326 1223.28C783.113 1194.44 771.306 1181.14 743.644 1162.99C717.246 1150.24 701.606 1147.45 672.42 1149.62C640.567 1156.89 630.253 1163.75 614.198 1176.85C595.027 1194.42 588.546 1205.05 581.965 1224.93C574.262 1253.64 573.613 1265.88 579.243 1280.63C597.243 1298.72 605.806 1300.68 620.641 1301.81C639.462 1303.04 648.4 1299.62 663.045 1290.17C674.764 1266.77 674.941 1257.2 672.116 1241.86C669.549 1219.97 669.214 1210.04 663.348 1197.93C678.196 1172.06 690.127 1169.85 714.067 1174.97C735.623 1184.9 741.142 1194.62 748.021 1213.83C752.748 1247.32 751.2 1263.71 742.554 1289.63C723.615 1322.96 709.732 1336.53 680.494 1353.78C645.155 1363.92 624.598 1366 586.569 1362.44C537.989 1350.07 518.627 1336.46 502.5 1296.64ZM1102.76 725.101C1123.28 708.323 1135.14 687.334 1155.04 691.087C1165.66 704.468 1145.92 722.97 1128.28 748.455C1101.51 773.587 1085.88 789.044 1073.23 783.495C1066.31 774.453 1079.01 757.017 1102.76 725.101Z" fill="#F196A8"/>
<path d="M1155.04 691.087C1135.14 687.334 1123.28 708.323 1102.76 725.101C1079.01 757.017 1066.31 774.453 1073.23 783.495C1085.88 789.044 1101.51 773.587 1128.28 748.455C1145.92 722.97 1165.66 704.468 1155.04 691.087Z" fill="#E54E6F"/>
<path d="M606.14 763.285C603.213 770.288 600.041 776.768 596.372 783.199C599.786 784.863 603.238 786.531 606.73 788.203C602.876 787.079 599.108 785.967 595.414 784.858C591.182 792.097 586.291 799.326 580.379 807.222C584.155 809.035 587.966 810.871 591.812 812.731C587.637 811.319 583.498 809.92 579.394 808.531C578.209 810.098 576.985 811.692 575.717 813.318L572.691 816.221L570.713 818.118C576.812 820.173 583.082 822.36 589.568 824.685C582.173 823.364 574.92 822.107 567.797 820.915C561.613 826.846 555.753 832.472 550.144 837.876C561.226 840.229 572.846 843.297 585.36 847.098C625.447 822.573 634.251 805.18 617.196 765.418C613.414 764.765 609.734 764.058 606.14 763.285Z" fill="#E54E6F"/>
<path d="M550.144 837.876C548.21 839.739 546.307 841.576 544.43 843.389C557.495 844.093 571.091 845.34 585.36 847.098C572.846 843.297 561.226 840.229 550.144 837.876Z" fill="#E54E6F"/>
<path d="M898.593 269.087C878.484 260.593 859.711 256.056 829.919 253.116C807.903 247.878 792.127 245.764 778.617 246.234M898.593 269.087C923.886 235.928 937.324 215.208 970.177 203.653M898.593 269.087C903.368 271.104 908.219 273.344 913.31 275.839M970.177 203.653C864.987 219.047 823.097 192.743 772.023 97.3526M970.177 203.653L913.31 275.839M772.023 97.3526C786.536 155.898 786.079 188.432 778.617 246.234M772.023 97.3526C766.859 148.906 764.189 185.682 759.243 245.062M772.023 97.3526C715.854 207.499 659.218 205.593 532.864 138.043M778.617 246.234C772.039 245.665 765.691 245.282 759.243 245.062M759.243 245.062C749.833 244.74 740.208 244.764 729.336 245.059C694.755 258.768 676.211 268.221 657.235 280.506M532.864 138.043C594.048 189.044 618.972 221.085 657.235 280.506M532.864 138.043C581.256 199.907 604.653 233.866 638.857 293.04M532.864 138.043C571.825 265.836 549.124 315.205 414.075 356.024M657.235 280.506C651.317 284.337 645.358 288.443 638.857 293.04M585.508 379.447C597.108 346.596 605.722 327.973 638.857 293.04M585.508 379.447C516.901 360.911 479.621 357.167 414.075 356.024M585.508 379.447C583.807 386.636 582.321 393.374 581.043 399.749M414.075 356.024C479.968 368.589 516.827 376.191 581.043 399.749M414.075 356.024C500.592 419.543 516.737 457.885 457.023 533.731M581.043 399.749C573.416 437.791 573.175 462.927 578.598 494.167M457.023 533.731C502.498 511.637 528.56 501.111 578.598 494.167M457.023 533.731C506.757 521.972 534.541 515.778 582.206 512.376M457.023 533.731C552.812 567.367 553.097 596.594 507.486 657.677M578.598 494.167C579.608 499.984 580.814 506.013 582.206 512.376M582.206 512.376C591.127 566.499 595.987 593.115 601.469 615.747M507.486 657.677C536.224 639.642 554.329 629.947 601.469 615.747M507.486 657.677C536.31 645.527 555.041 638.809 604.436 627.411M507.486 657.677C601.776 667.351 609.404 683.831 573.685 725.279M601.469 615.747C602.431 619.715 603.411 623.561 604.436 627.411M604.436 627.411C620.011 669.575 620.341 691.167 617.859 728.932C617.176 731.283 616.5 733.56 615.827 735.77M573.685 725.279C589.082 727.352 597.963 728.997 615.827 735.77M573.685 725.279C593.766 734.085 603.029 738.811 612.413 746.473M615.827 735.77C614.686 739.518 613.554 743.073 612.413 746.473M596.372 783.199C600.041 776.768 603.213 770.288 606.14 763.285M596.372 783.199C445.161 709.441 370.431 641.438 259.82 482.782M596.372 783.199C596.056 783.752 595.737 784.305 595.414 784.858M596.372 783.199C599.786 784.863 603.238 786.531 606.73 788.203C602.876 787.079 599.108 785.967 595.414 784.858M606.14 763.285C552.967 751.845 518.91 725.808 458.894 641.85C417.364 543.103 400.678 491.034 412.884 452.73M606.14 763.285C606.617 762.144 607.088 760.99 607.553 759.819M606.14 763.285C609.734 764.058 613.414 764.765 617.196 765.418M412.884 452.73C373.584 553.014 338.481 556.149 259.82 482.782M412.884 452.73C413.924 450.075 414.967 447.353 416.014 444.562M412.884 452.73C413.773 449.938 414.816 447.22 416.014 444.562M259.82 482.782C279.886 536.557 293.987 571.393 404.779 680.159C487.839 746.647 529.934 765.206 595.414 784.858M259.82 482.782C289.43 610.949 256.751 641.875 132.889 642.515M132.889 642.515C311.533 691.056 411.893 726.331 580.379 807.222M132.889 642.515C189.119 674.17 305.525 715.886 579.394 808.531M132.889 642.515C260.634 735.022 248.009 778.994 154.629 850.788M580.379 807.222C586.291 799.326 591.182 792.097 595.414 784.858M580.379 807.222C580.053 807.656 579.725 808.093 579.394 808.531M580.379 807.222C584.155 809.035 587.966 810.871 591.812 812.731C587.637 811.319 583.498 809.92 579.394 808.531M579.394 808.531C578.209 810.098 576.985 811.692 575.717 813.318M154.629 850.788C211.198 814.554 258.674 801.932 373.9 792.441C458.019 789.06 504.229 795.718 570.713 818.118M154.629 850.788C315.478 799.728 409.697 794.446 567.797 820.915M154.629 850.788C292.59 840.889 289.403 876.298 244.591 959.348M570.713 818.118C571.369 817.489 572.028 816.857 572.691 816.221M570.713 818.118L567.797 820.915M570.713 818.118C576.812 820.173 583.082 822.36 589.568 824.685C582.173 823.364 574.92 822.107 567.797 820.915M570.713 818.118L572.691 816.221M570.713 818.118C569.733 819.058 568.761 819.99 567.797 820.915M572.691 816.221L575.717 813.318M572.691 816.221C573.691 815.262 574.7 814.294 575.717 813.318M567.797 820.915C561.613 826.846 555.753 832.472 550.144 837.876M244.591 959.348C275.459 911.203 300.712 885.826 393.467 850.256C458.213 831.536 498.289 826.867 550.144 837.876M244.591 959.348C353.434 876.932 423.193 843.082 518.634 842.719M550.144 837.876C548.21 839.739 546.307 841.576 544.43 843.389M550.144 837.876C561.226 840.229 572.846 843.297 585.36 847.098M396.196 885.154L462.733 927.469M396.196 885.154C460.651 901.288 491.338 901.646 518.634 842.719M396.196 885.154L451.971 939.617M396.196 885.154C412.733 979.485 383.101 1007.43 289.226 1029.2M462.733 927.469C491.104 895.767 514.287 872.525 544.43 843.389M462.733 927.469C459.232 931.381 455.652 935.421 451.971 939.617M544.43 843.389C535.604 842.914 527.02 842.688 518.634 842.719M544.43 843.389C557.495 844.093 571.091 845.34 585.36 847.098M451.971 939.617C408.553 981.683 395.473 1007.51 378.986 1051.21M289.226 1029.2L378.986 1051.21M289.226 1029.2L374.298 1063.22M289.226 1029.2C365.293 1117.61 339.921 1156.69 264.46 1221.52M378.986 1051.21C378.272 1053.1 377.552 1055.03 376.822 1056.99C375.952 1059.1 375.111 1061.18 374.298 1063.22M352.08 1216.32C354.35 1255.57 360.531 1279.53 376.851 1312.24C381.972 1321.91 386.81 1330.44 391.601 1338.21M352.08 1216.32L264.46 1221.52M352.08 1216.32C351.757 1210.72 351.512 1204.8 351.33 1198.51M264.46 1221.52C357.695 1265.41 371.507 1303.31 340.284 1388.9M264.46 1221.52L351.33 1198.51M340.284 1388.9L391.601 1338.21M340.284 1388.9L399.979 1351.09M340.284 1388.9C392.192 1373.77 415.811 1381.41 452.849 1410.04M391.601 1338.21C394.394 1342.74 397.172 1347.01 399.979 1351.09M452.849 1410.04C430.02 1388.5 414.587 1372.32 399.979 1351.09M452.849 1410.04C499.571 1434.61 526.413 1445.88 576.271 1458.48C624.146 1466.12 649.438 1465.22 690.058 1448.39C726.828 1435.48 743.682 1424.88 768.52 1401.25C796.469 1367.1 805.529 1345.39 810.79 1302.45C809.94 1267.22 808.194 1248.82 798.326 1223.28C783.113 1194.44 771.306 1181.14 743.644 1162.99C717.246 1150.24 701.606 1147.45 672.42 1149.62C640.567 1156.89 630.253 1163.75 614.198 1176.85C595.027 1194.42 588.546 1205.05 581.965 1224.93C574.262 1253.64 573.613 1265.88 579.243 1280.63C597.243 1298.72 605.806 1300.68 620.641 1301.81C639.462 1303.04 648.4 1299.62 663.045 1290.17C674.764 1266.77 674.941 1257.2 672.116 1241.86C669.549 1219.97 669.214 1210.04 663.348 1197.93C678.196 1172.06 690.127 1169.85 714.067 1174.97C735.623 1184.9 741.142 1194.62 748.021 1213.83C752.748 1247.32 751.2 1263.71 742.554 1289.63C723.615 1322.96 709.732 1336.53 680.494 1353.78C645.155 1363.92 624.598 1366 586.569 1362.44C537.989 1350.07 518.627 1336.46 502.5 1296.64C490.196 1260.05 491.92 1241.49 501.277 1209.79C510.209 1187 514.375 1169.85 526.209 1162.13M612.413 746.473C610.829 751.191 609.226 755.608 607.553 759.819M913.31 275.839C917.079 277.686 920.98 279.673 925.079 281.811C945.289 292.389 955.898 300.831 973.354 321.298C984.662 342.501 987.65 354.376 984.828 375.531C980.541 400.913 972.428 410.335 954.089 423.901C940.987 435.022 933.917 442.335 925.53 471.649C929.27 493.144 932.912 505.09 943.666 526.102C956.292 554.057 972.054 570.664 1008.46 601.175C1026.47 617.677 1038.25 627.279 1076 647.889C1087.27 655.372 1094.51 659.254 1114.26 663.837C1137.72 663.315 1150.36 665.751 1172.04 674.686C1181.66 683.302 1181.75 690.409 1179.25 704.916C1178.02 714.952 1172.09 727.659 1157.17 753.879C1157.92 753.917 1145.44 768.212 1112.05 796.455C1099.22 806.828 1091.83 810.688 1077.08 815.156C1064.02 816.445 1057.58 813.003 1047.29 800.797C1040.35 786.166 1037.35 777.992 1038.8 763.625C1032.25 742.925 1028.48 736.258 1021.69 728.442C1010.86 708.94 1004.41 699.998 991.722 690.33C979.469 676.258 968.394 668.452 944.287 654.611L881.16 628.321C843.832 617.489 827.117 613.663 813.92 615.696M607.553 759.819C498.444 695.584 449.274 634.365 416.014 444.562M607.553 759.819C610.716 761.682 613.93 763.547 617.196 765.418M374.298 1063.22C355.384 1110.74 351.535 1140.63 351.198 1193.47C351.238 1195.17 351.282 1196.85 351.33 1198.51M617.196 765.418C634.251 805.18 625.447 822.573 585.36 847.098M914.372 750.776C898.336 713.313 857.955 675.011 857.955 675.011C857.541 674.922 857.063 674.706 856.528 674.375M914.372 750.776C866.048 755.471 836.971 754.875 782.39 749.512M914.372 750.776C915.533 753.488 916.566 756.197 917.448 758.886M856.528 674.375C820.57 674.108 798.991 672.383 758.564 667.178M856.528 674.375C854.649 673.211 852.073 670.629 849.105 667.162M758.564 667.178C767.685 693.108 772.916 713.423 782.39 749.512M758.564 667.178C757.616 664.482 756.625 661.725 755.584 658.884M782.39 749.512L782.817 751.139M782.39 749.512C782.531 750.051 782.674 750.593 782.817 751.139M755.498 918.231C756.113 917.833 756.727 917.433 757.341 917.03C780.897 891.458 790.799 875.45 795.252 848.866M755.498 918.231C792.034 941.583 813.617 952.924 853.428 971.004M755.498 918.231C753.201 919.719 750.893 921.182 748.555 922.632M853.428 971.004C890.625 944.189 908.647 923.237 925.892 875.458M853.428 971.004C851.874 972.124 850.287 973.254 848.665 974.397C847.703 974.916 846.749 975.428 845.799 975.933M925.892 875.458C874.194 868.729 845.651 862.537 795.252 848.866M925.892 875.458C926.351 874.188 926.809 872.899 927.266 871.591C927.416 870.224 927.564 868.877 927.708 867.548M795.252 848.866C795.683 846.293 796.062 843.621 796.399 840.831M667.872 965.717C692.018 984.883 708.225 995.03 739.932 1012.5M667.872 965.717C705.666 946.869 728.25 935.227 748.555 922.632M667.872 965.717L667.481 965.912M667.872 965.717C667.742 965.782 667.611 965.847 667.481 965.912M739.932 1012.5C799.341 997.551 820.859 989.184 845.799 975.933M739.932 1012.5C737.816 1013.03 735.653 1013.57 733.439 1014.12C731.801 1014.48 730.188 1014.84 728.599 1015.19M845.799 975.933C805.398 958.045 784.138 946.337 748.555 922.632M748.555 922.632L667.481 965.912M660.355 969.462C630.276 982.722 613.112 992.221 583.354 1017.06M660.355 969.462C684.567 988.226 699.68 998.175 728.599 1015.19M660.355 969.462C662.789 968.25 665.163 967.068 667.481 965.912M583.354 1017.06C597.227 1030.29 606.616 1037.5 625.522 1050.06M583.354 1017.06C582.748 1017.57 582.136 1018.08 581.519 1018.6C579.712 1019.61 577.978 1020.61 576.308 1021.63M625.522 1050.06C655.326 1033.03 681.219 1025.65 728.599 1015.19M625.522 1050.06C624.409 1050.7 623.292 1051.35 622.167 1052.01C620.898 1052.65 619.669 1053.28 618.481 1053.9M526.209 1162.13C517.127 1129.5 513.401 1111.21 525.872 1078.79C542.765 1050.7 553.504 1035.52 576.308 1021.63M526.209 1162.13C529.224 1128.03 575.13 1084.73 583.848 1076.79C583.848 1076.79 588.075 1069.64 618.481 1053.9M526.209 1162.13C529.541 1124.44 585.271 1075.51 585.271 1075.51M618.481 1053.9C599.497 1040.91 590.4 1033.84 576.308 1021.63M755.584 658.884C755.182 657.789 754.773 656.681 754.356 655.56C739.951 614.719 733.558 604.295 722.774 590.332C743.948 605.453 788.518 610.926 788.518 610.926C788.518 610.926 810.23 614.867 813.507 615.588M755.584 658.884C793.7 665.043 814.399 667.263 849.105 667.162M849.105 667.162C836.236 652.126 816.016 620.441 813.507 615.588M813.507 615.588C813.075 614.75 813.169 614.712 813.92 615.696M813.507 615.588C813.774 615.646 813.919 615.683 813.92 615.696M782.817 751.139C783.58 753.4 784.309 755.596 785.004 757.737M785.004 757.737C838.306 761.874 867.369 762.276 917.448 758.886M785.004 757.737C795.046 788.669 798.085 807.965 796.399 840.831M917.448 758.886C917.568 759.252 917.685 759.618 917.799 759.983C933.416 804.583 931.991 828.122 927.708 867.548M927.708 867.548C876.5 861.425 847.75 855.566 796.399 840.831M1102.76 725.101C1123.28 708.323 1135.14 687.334 1155.04 691.087C1165.66 704.468 1145.92 722.97 1128.28 748.455C1101.51 773.587 1085.88 789.044 1073.23 783.495C1066.31 774.453 1079.01 757.017 1102.76 725.101Z" stroke="black" stroke-width="1.01355"/>
<path d="M545.157 841.307C545.149 841.305 545.14 841.304 545.959 841.457C546.777 841.611 548.423 841.92 549.628 842.085" stroke="#FCD1DA" stroke-width="2.02711" stroke-linecap="round"/>
<path d="M546.254 840.546C546.342 840.563 546.676 840.607 547.277 840.497C547.751 840.41 548.235 840.347 548.595 840.468C549.044 840.618 549.421 840.792 549.811 840.832C549.957 840.847 550.001 840.764 549.982 840.669C549.889 840.201 549.428 840.041 549.038 839.797C548.94 839.735 548.836 839.681 548.82 839.662C548.782 839.616 549.025 839.641 549.089 839.586C549.104 839.573 549.006 839.563 548.922 839.609C548.543 839.817 548.176 840.334 547.805 840.615C547.423 840.905 546.689 841.123 545.993 841.557C545.603 841.801 545.124 841.674 545.042 841.693C545.021 841.698 545.1 841.757 545.1 841.793C545.097 841.889 544.886 841.9 544.869 841.933C544.84 841.988 545.114 841.992 545.163 842.002C545.212 842.011 545.114 841.993 545.019 841.978C544.923 841.963 544.832 841.952 544.746 841.943" stroke="#FCD1DA" stroke-width="2.02711" stroke-linecap="round"/>
<path d="M549.272 840.414C549.27 840.41 549.267 840.406 549.251 840.363C549.234 840.32 549.203 840.237 549.16 840.167C549.116 840.097 549.061 840.043 548.983 839.982" stroke="#FCD1DA" stroke-width="2.02711" stroke-linecap="round"/>
<path d="M568.268 819.343C568.281 819.345 568.686 819.421 569.308 819.542C569.532 819.589 569.57 819.605 569.609 819.624C569.648 819.644 569.687 819.666 569.738 819.715" stroke="#FCD1DA" stroke-width="1.01355" stroke-linecap="round"/>
<path d="M570.956 819.944C570.89 819.918 570.702 819.81 570.529 819.716C570.235 819.555 569.894 819.435 569.44 819.23C569.342 819.186 569.31 819.145 569.28 819.104C569.249 819.063 569.223 819.015 569.259 818.997C569.507 818.879 569.684 819.072 569.887 819.149C570.124 819.24 570.405 819.342 570.574 819.392C570.667 819.419 570.762 819.409 570.838 819.373C570.874 819.356 570.892 819.318 570.885 819.291C570.843 819.139 570.58 819.148 570.428 819.088C570.261 819.02 570.094 818.965 569.885 818.904C569.837 818.888 569.801 818.872 569.679 818.817" stroke="#FCD1DA" stroke-width="1.01355" stroke-linecap="round"/>
<path d="M567.968 819.507C568.127 819.543 568.566 819.621 569.293 819.76C569.447 819.79 569.481 819.841 569.479 819.867C569.477 819.894 569.435 819.909 569.389 819.914C568.966 819.959 568.126 819.702 567.858 819.72C567.817 819.723 567.802 819.778 567.806 819.808C567.81 819.839 567.841 819.865 567.879 819.884C567.957 819.924 568.617 820.045 569.564 820.223C570.035 820.278 570.231 820.247 570.412 820.24C570.455 820.244 570.499 820.252 570.591 820.259" stroke="#FCD1DA" stroke-width="1.01355" stroke-linecap="round"/>
<path d="M579.364 807.642C579.394 807.648 579.468 807.667 579.504 807.685C579.514 807.69 579.525 807.697 579.533 807.702C579.542 807.708 579.548 807.713 579.528 807.716C579.404 807.732 579.36 807.712 579.327 807.712C579.319 807.712 579.312 807.716 579.31 807.721C579.306 807.733 579.331 807.748 579.351 807.762C579.356 807.767 579.347 807.772 579.339 807.774C579.324 807.778 579.301 807.779 579.275 807.788C579.265 807.792 579.262 807.801 579.261 807.808C579.26 807.815 579.262 807.823 579.265 807.829C579.284 807.869 579.366 807.866 579.394 807.878C579.426 807.891 579.464 807.899 579.494 807.911C579.523 807.923 579.555 807.934 579.584 807.945C579.616 807.957 579.647 807.969 579.677 807.98C579.71 807.991 579.739 807.999 579.769 808.01C579.799 808.02 579.835 808.031 579.868 808.042C579.9 808.053 579.928 808.066 579.979 808.078C580.016 808.087 580.051 808.097 580.079 808.108C580.108 808.119 580.134 808.138 580.21 808.157C580.267 808.172 580.327 808.184 580.335 808.183C580.362 808.182 580.314 808.126 580.283 808.085C580.26 808.054 580.222 808.047 580.03 808.002C579.971 807.988 579.876 807.954 579.749 807.911C579.638 807.874 579.516 807.845 579.47 807.829C579.427 807.814 579.393 807.71 579.37 807.664C579.353 807.632 579.381 807.594 579.39 807.582C579.415 807.55 579.492 807.58 579.525 807.583C579.547 807.585 579.514 807.54 579.516 807.529C579.518 807.517 579.543 807.525 579.553 807.524C579.557 807.523 579.554 807.514 579.556 807.51C579.57 807.49 579.609 807.522 579.64 807.534C579.67 807.547 579.702 807.558 579.731 807.57C579.768 807.586 579.799 807.603 579.827 807.615C579.856 807.626 579.888 807.642 579.934 807.666C579.965 807.683 579.995 807.696 580.026 807.709C580.057 807.721 580.088 807.733 580.118 807.744C580.148 807.754 580.176 807.766 580.202 807.782C580.208 807.785 580.215 807.788 580.225 807.79C580.235 807.793 580.247 807.795 580.26 807.798" stroke="#FCD1DA" stroke-width="0.202711" stroke-linecap="round"/>
<path d="M580.212 807.783C580.246 807.788 580.332 807.812 580.36 807.829C580.386 807.844 580.42 807.857 580.453 807.871C580.486 807.886 580.526 807.906 580.548 807.93C580.56 807.943 580.561 807.961 580.563 807.976C580.564 807.983 580.561 807.99 580.556 807.996C580.532 808.021 580.487 808.012 580.413 807.999C580.383 807.993 580.318 807.961 580.217 807.918C580.061 807.852 579.981 807.81 579.927 807.783C579.885 807.761 579.835 807.756 579.79 807.743C579.742 807.73 579.7 807.711 579.631 807.685C579.582 807.671 579.541 807.66 579.494 807.646C579.472 807.638 579.452 807.63 579.432 807.621" stroke="#FCD1DA" stroke-width="0.202711" stroke-linecap="round"/>
<path d="M544.055 842.516C544.114 842.527 544.312 842.537 544.564 842.511C544.789 842.488 544.968 842.49 545.248 842.524C545.796 842.589 545.901 842.613 545.945 842.623C545.978 842.63 545.85 842.65 545.824 842.676C545.814 842.687 545.846 842.708 545.846 842.724C545.757 842.781 545.65 842.807 545.62 842.814C545.618 842.82 545.643 842.829 545.654 842.825" stroke="#FCD1DA" stroke-width="0.202711" stroke-linecap="round"/>
<path d="M548.338 838.649C548.567 838.688 549.005 838.764 548.956 838.741C548.931 838.729 548.916 838.704 548.922 838.693C548.991 838.574 549.248 838.749 549.351 838.793C549.611 838.905 550.083 838.934 550.193 838.941C550.22 838.943 550.246 838.945 550.252 838.933C550.258 838.922 550.243 838.899 550.222 838.882C550.126 838.806 549.973 838.832 549.828 838.825C549.533 838.811 549.389 838.723 549.139 838.663C548.99 838.634 548.72 838.583 548.445 838.557C548.169 838.532 547.896 838.532 547.615 838.533" stroke="#FCD1DA" stroke-width="1.01355" stroke-linecap="round"/>
<path d="M544.421 842.592C544.421 842.592 544.404 842.589 544.373 842.588C544.359 842.588 544.348 842.599 544.348 842.607C544.347 842.615 544.358 842.623 544.368 842.627C544.409 842.642 544.462 842.627 544.53 842.618C544.564 842.614 544.692 842.615 544.895 842.621C545.142 842.627 545.205 842.641 545.335 842.662C545.395 842.672 545.548 842.688 545.578 842.694C545.623 842.702 545.473 842.687 545.439 842.688C545.445 842.691 545.471 842.697 545.495 842.702C545.519 842.708 545.542 842.713 545.565 842.719" stroke="#FCD1DA" stroke-width="0.506777" stroke-linecap="round"/>
<path d="M544.292 842.551C544.292 842.551 544.291 842.551 544.286 842.552C544.28 842.553 544.268 842.555 544.264 842.562C544.26 842.57 544.263 842.583 544.254 842.613" stroke="#FCD1DA" stroke-width="0.506777" stroke-linecap="round"/>
<path d="M595.628 783.902C595.628 783.901 595.593 783.895 595.568 783.897C595.555 783.899 595.634 783.931 595.657 783.945C595.675 783.957 595.574 783.955 595.478 783.95C595.463 783.949 595.525 783.984 595.551 783.998C595.578 784.012 595.569 784.013 595.531 784.008C595.493 784.003 595.425 783.992 595.401 783.993C595.389 783.993 595.479 784.036 595.566 784.066C595.6 784.077 595.614 784.08 595.562 784.071C595.51 784.063 595.392 784.042 595.431 784.052C595.47 784.063 595.668 784.104 595.859 784.143" stroke="#FCD1DA" stroke-width="0.202711" stroke-linecap="round"/>
<path d="M595.378 783.867C595.377 783.867 595.377 783.867 595.49 783.889C595.603 783.911 595.829 783.955 595.971 783.985C596.249 784.045 596.331 784.081 596.366 784.102C596.394 784.118 596.439 784.147 596.495 784.181C596.523 784.197 596.549 784.211 596.586 784.226" stroke="#FCD1DA" stroke-width="0.202711" stroke-linecap="round"/>
<path d="M596.504 784.239C596.5 784.24 596.354 784.213 596.092 784.156C595.974 784.13 595.887 784.095 595.821 784.075C595.714 784.043 595.589 784.043 595.45 784.046C595.359 784.049 595.316 784.038 595.299 784.048C595.263 784.068 595.257 784.125 595.237 784.149C595.233 784.153 595.245 784.159 595.254 784.161C595.292 784.169 595.329 784.164 595.353 784.171C595.388 784.181 595.256 784.168 595.263 784.172C595.279 784.176 595.32 784.183 595.345 784.19C595.37 784.196 595.379 784.2 595.387 784.204" stroke="#FCD1DA" stroke-width="0.202711" stroke-linecap="round"/>
<path d="M595.13 784.156C595.153 784.161 595.282 784.186 595.359 784.207C595.424 784.225 595.52 784.245 595.553 784.259C595.596 784.276 595.651 784.289 595.691 784.306C595.73 784.323 595.793 784.337 595.851 784.351C595.886 784.36 595.917 784.383 595.95 784.397C595.99 784.415 596.042 784.422 596.076 784.434C596.113 784.447 596.259 784.476 596.362 784.487C596.376 784.485 596.392 784.483 596.421 784.477" stroke="#FCD1DA" stroke-width="0.202711" stroke-linecap="round"/>
<path d="M596.474 784.467C596.422 784.456 596.295 784.426 596.193 784.365C596.102 784.311 595.961 784.235 595.897 784.202C595.869 784.188 595.82 784.162 595.919 784.193C596.018 784.224 596.266 784.312 596.398 784.36C596.541 784.413 596.563 784.425 596.585 784.436C596.595 784.442 596.602 784.447 596.611 784.454" stroke="#FCD1DA" stroke-width="0.202711" stroke-linecap="round"/>
<path d="M595.368 783.657C595.37 783.657 595.477 783.678 595.66 783.72C595.785 783.748 595.846 783.792 595.883 783.806C595.912 783.818 596.01 783.871 596.149 783.95C596.22 783.99 596.252 784.015 596.291 784.037C596.339 784.063 596.445 784.103 596.569 784.144C596.615 784.159 596.628 784.161 596.641 784.164" stroke="#FCD1DA" stroke-width="0.202711" stroke-linecap="round"/>
<path d="M595.407 783.483C595.482 783.497 595.684 783.547 595.756 783.577C595.797 783.594 595.843 783.622 595.892 783.648C595.936 783.67 595.98 783.692 596.02 783.717C596.088 783.758 596.139 783.786 596.225 783.845C596.354 783.947 596.448 784.019 596.494 784.05C596.512 784.062 596.52 784.067 596.528 784.072" stroke="#FCD1DA" stroke-width="0.202711" stroke-linecap="round"/>
<path d="M595.577 783.489C595.585 783.49 595.619 783.502 595.662 783.512C595.698 783.521 595.738 783.55 595.783 783.572C595.816 783.588 595.852 783.599 595.887 783.611C595.92 783.622 595.953 783.637 595.986 783.653C596.025 783.672 596.06 783.691 596.095 783.706C596.132 783.722 596.164 783.736 596.198 783.757C596.231 783.778 596.264 783.797 596.298 783.814C596.332 783.831 596.364 783.845 596.398 783.865C596.431 783.884 596.465 783.901 596.496 783.918C596.528 783.938 596.554 783.959 596.57 783.971C596.578 783.976 596.587 783.981 596.615 783.991" stroke="#FCD1DA" stroke-width="0.202711" stroke-linecap="round"/>
<path d="M606.217 762.005C606.215 762.005 606.415 762.042 606.591 762.077C606.614 762.081 606.314 762.03 606.126 762.007C605.819 761.984 605.684 761.988 605.671 761.999C605.671 762.004 605.686 762.01 605.734 762.023" stroke="#FCD1DA" stroke-width="0.202711" stroke-linecap="round"/>
<path d="M605.77 762.029C605.772 762.03 605.773 762.03 606.012 762.075C606.251 762.12 606.727 762.211 607 762.266C607.329 762.34 607.406 762.365 607.46 762.385C607.496 762.399 607.549 762.419 607.629 762.453" stroke="#FCD1DA" stroke-width="0.202711" stroke-linecap="round"/>
<path d="M607.183 762.492C607.182 762.492 607.181 762.492 606.982 762.446C606.783 762.4 606.386 762.308 605.977 762.213" stroke="#FCD1DA" stroke-width="0.202711" stroke-linecap="round"/>
<path d="M605.735 762.557C605.775 762.564 605.869 762.602 605.97 762.63C606.035 762.649 606.297 762.681 606.465 762.719C606.523 762.733 606.579 762.758 606.694 762.783C606.765 762.806 606.807 762.818 606.857 762.828C606.893 762.835 606.951 762.847 607.01 762.859" stroke="#FCD1DA" stroke-width="0.202711" stroke-linecap="round"/>
<path d="M606.658 760.076C606.685 760.081 606.765 760.1 606.818 760.123C606.874 760.147 606.927 760.184 606.983 760.211C606.996 760.217 607.009 760.222 607.011 760.219C607.036 760.18 606.943 760.159 606.928 760.146C606.894 760.116 607.025 760.2 607.063 760.217C607.117 760.242 606.963 760.151 606.91 760.131C606.897 760.126 606.884 760.121 606.867 760.112C606.851 760.104 606.832 760.092 606.808 760.078" stroke="#FCD1DA" stroke-width="0.202711" stroke-linecap="round"/>
<path d="M606.778 760.048C606.8 760.052 606.864 760.074 606.916 760.101C606.974 760.132 607.034 760.179 607.092 760.22C607.149 760.26 607.208 760.28 607.289 760.324C607.348 760.356 607.404 760.386 607.458 760.415C607.516 760.447 607.568 760.478 607.632 760.516C607.682 760.551 607.729 760.585 607.785 760.625C607.801 760.636 607.82 760.648 607.845 760.665" stroke="#FCD1DA" stroke-width="0.202711" stroke-linecap="round"/>
<path d="M607.566 761.974C607.563 761.973 607.56 761.973 607.348 761.933C607.135 761.893 606.713 761.814 606.541 761.782C606.368 761.751 606.457 761.769 606.792 761.909C607.127 762.048 607.705 762.308 607.867 762.416C608.03 762.523 607.76 762.471 607.494 762.401C607.228 762.332 606.973 762.247 606.844 762.212C606.715 762.177 606.719 762.195 606.73 762.218C606.741 762.241 606.76 762.267 606.676 762.263C606.183 762.238 606.106 762.148 606.047 762.124C606.029 762.117 606.075 762.206 606.112 762.264C606.128 762.289 606.02 762.3 605.958 762.316C605.78 762.361 606.416 762.432 606.585 762.456C606.726 762.477 606.977 762.516 607.068 762.493C607.16 762.47 607.085 762.384 607.008 762.295" stroke="#FCD1DA" stroke-width="0.506777" stroke-linecap="round"/>
<path d="M606.516 762.18C606.5 762.167 606.398 762.014 606.281 761.765C606.245 761.689 606.249 761.63 606.254 761.601C606.267 761.533 606.391 761.847 606.469 761.955C606.518 762.023 606.606 762.042 606.635 762.048C606.649 762.051 606.665 762.045 606.677 762.025C606.706 761.972 606.699 761.898 606.66 761.757C606.63 761.646 606.557 761.46 606.504 761.328C606.452 761.196 606.416 761.125 606.405 761.092C606.408 761.065 606.635 761.22 606.911 761.39C606.974 761.413 606.882 761.305 606.787 761.194" stroke="#FCD1DA" stroke-width="0.506777" stroke-linecap="round"/>
<path d="M606.482 760.877C606.481 760.871 606.496 760.868 606.531 760.871C606.549 760.873 606.567 760.879 606.731 760.996C606.894 761.113 607.202 761.34 607.377 761.467C607.552 761.593 607.585 761.612 607.597 761.615C607.61 761.617 607.451 761.419 607.211 761.141C606.987 760.883 606.835 760.837 606.741 760.807C606.713 760.798 606.682 760.794 606.662 760.8C606.525 760.839 606.581 761.151 606.604 761.276C606.619 761.354 606.664 761.404 606.704 761.45C606.759 761.511 606.984 761.592 607.274 761.66C607.321 761.671 607.332 761.651 607.352 761.614C607.462 761.414 607.46 761.258 607.424 761.158C607.41 761.121 607.359 761.066 607.269 760.978C607.022 760.733 606.763 760.637 606.7 760.595C606.686 760.585 606.679 760.572 606.677 760.554C606.672 760.512 606.693 760.475 606.716 760.454C606.764 760.413 606.906 760.453 607.024 760.498C607.222 760.573 607.476 760.815 607.538 760.855C607.573 760.874 607.605 760.892 607.633 760.91C607.646 760.92 607.66 760.93 607.684 760.951" stroke="#FCD1DA" stroke-width="0.506777" stroke-linecap="round"/>
<path d="M605.944 759.759C605.982 759.766 606.09 759.795 606.203 759.866C606.345 759.955 606.415 760.028 606.461 760.078C606.514 760.135 606.578 760.198 606.873 760.374C607.115 760.506 607.254 760.592 607.417 760.708C607.463 760.745 607.526 760.796 607.616 760.865" stroke="#FCD1DA" stroke-width="0.506777" stroke-linecap="round"/>
<path d="M558.784 831.788C558.803 831.772 558.822 831.756 558.803 831.732C558.785 831.709 558.728 831.679 558.649 831.663C558.571 831.648 558.473 831.648 557.84 831.81C557.207 831.971 556.042 832.293 555.477 832.459C554.911 832.624 554.98 832.624 555.121 832.573C555.483 832.44 556.355 831.866 557.334 831.204C557.652 830.989 557.601 831.008 556.795 831.603C555.989 832.197 554.428 833.363 553.808 833.921C553.188 834.478 553.557 834.391 553.993 834.299" stroke="#E54E6F" stroke-width="1.01355" stroke-linecap="round"/>
<path d="M549.804 836.827C549.806 836.827 549.808 836.827 549.986 836.861C550.163 836.894 550.516 836.96 550.854 837.021C551.191 837.082 551.502 837.135 551.822 837.189" stroke="#E54E6F" stroke-width="1.01355" stroke-linecap="round"/>
<path d="M564.831 822.081C565.038 822.119 565.668 822.195 566.006 822.209C566.313 822.222 566.5 822.193 566.567 822.17C566.635 822.146 566.506 821.997 566.506 821.888C566.506 821.835 566.542 821.786 566.582 821.77C566.984 821.845 567.56 821.953 567.688 821.96C567.761 821.967 567.851 821.979 567.963 822.011" stroke="#E54E6F" stroke-width="1.01355" stroke-linecap="round"/>
<path d="M569.733 829.049C569.718 829.052 569.703 829.055 568.142 828.791C566.582 828.526 563.476 827.995 561.508 827.717C559.54 827.439 558.803 827.43 558.403 827.443C558.003 827.455 557.962 827.487 557.833 827.977C557.456 829.404 557.31 830.413 557.415 830.457C557.539 830.508 557.682 830.468 557.818 830.404C557.986 830.326 558.29 830.088 559.048 829.346C559.608 828.797 560.441 827.822 560.851 827.37C561.261 826.919 561.2 827 560.596 827.621C559.991 828.242 558.843 829.401 558.111 830.107C557.123 831.059 556.63 831.366 556.211 831.676C555.966 831.876 555.656 832.16 555.479 832.33C555.301 832.501 555.266 832.55 555.209 832.667" stroke="#E54E6F" stroke-width="2.02711" stroke-linecap="round"/>
<path d="M554.354 833.827C554.319 833.882 553.349 834.574 552.729 834.956C552.497 835.099 552.236 835.256 552.092 835.431C552.018 835.515 551.933 835.584 551.816 835.662C551.745 835.711 551.649 835.781 551.527 835.863" stroke="#E54E6F" stroke-width="2.02711" stroke-linecap="round"/>
<path d="M562.483 828.332C562.484 828.327 562.513 828.17 562.537 827.903C562.569 827.538 562.154 827.304 562.079 827.082C562.042 826.974 562.089 826.858 562.138 826.754C562.354 826.294 563.265 825.989 563.622 825.599C564.06 825.121 564.477 824.711 564.774 824.475C565.147 824.178 565.492 823.995 565.884 823.657C565.971 823.582 565.993 823.53 565.979 823.491C565.945 823.396 565.792 823.38 565.673 823.381C565.114 823.673 564.271 824.246 564.102 824.412C564.015 824.502 563.925 824.605 563.809 824.764" stroke="#E54E6F" stroke-width="2.02711" stroke-linecap="round"/>
<path d="M572.196 815.127C572.196 815.171 572.274 815.353 572.387 815.522C572.44 815.601 572.455 815.673 572.454 815.714C572.451 815.827 572.208 815.907 571.883 816.013C571.616 816.101 571.482 816.262 571.398 816.298C571.291 816.344 571.183 816.471 571.062 816.534C571.02 816.556 570.975 816.543 570.95 816.556C570.939 816.561 570.953 816.586 570.976 816.6C571.082 816.665 571.172 816.666 571.248 816.695C571.376 816.744 571.564 816.784 571.643 816.814C571.726 816.846 571.815 816.88 571.906 816.904C571.986 816.934 572.073 816.972 572.213 817.027C572.248 817.042 572.277 817.058 572.307 817.074" stroke="#E54E6F" stroke-width="2.02711" stroke-linecap="round"/>
<path d="M573.35 815.708C573.37 815.592 573.507 815.318 573.725 814.947C573.816 814.792 573.893 814.723 574.297 814.394C574.701 814.065 575.437 813.482 576.018 812.973C576.599 812.463 577.003 812.045 577.248 811.788C577.493 811.53 577.567 811.447 577.675 811.349" stroke="#E54E6F" stroke-width="2.02711" stroke-linecap="round"/>
<path d="M577.752 810.902C577.763 810.844 577.805 810.685 577.882 810.557C577.985 810.387 578.026 810.25 577.991 810.21C577.907 810.114 577.821 810.129 577.788 810.104C577.719 810.05 577.75 809.928 577.766 809.801C577.772 809.754 577.754 809.711 577.752 809.677C577.748 809.607 577.894 809.634 577.974 809.627C578.051 809.621 578.155 809.691 578.288 809.707C578.544 809.739 578.623 809.782 578.7 809.812C578.775 809.841 578.848 809.875 578.92 809.912C578.955 809.929 579.007 809.945 579.065 809.965C579.09 809.977 579.104 809.992 579.123 810.044" stroke="#E54E6F" stroke-width="2.02711" stroke-linecap="round"/>
<path d="M585.143 801.704C585.119 801.706 585.021 801.762 584.711 802.048C584.451 802.287 584.004 802.741 583.586 803.188C583.168 803.635 582.797 804.067 582.593 804.302C582.389 804.536 582.364 804.56 582.252 804.65C581.726 805.071 581.642 805.11 581.496 805.181C581.368 805.244 581.158 805.289 580.97 805.306C580.846 805.318 580.733 805.334 580.666 805.37C580.632 805.389 580.622 805.477 580.615 805.567C580.608 805.65 580.689 805.688 580.711 805.718C580.805 805.849 581.108 805.828 581.185 805.861C581.262 805.894 581.331 805.934 581.405 805.966C581.487 806.001 581.553 806.072 581.624 806.122C581.643 806.133 581.662 806.142 581.686 806.15C581.711 806.158 581.741 806.165 581.805 806.186" stroke="#E54E6F" stroke-width="2.02711" stroke-linecap="round"/>
<path d="M584.164 802.006C584.161 802.005 584.175 801.919 584.245 801.707C584.287 801.576 584.39 801.416 584.675 801.068C584.96 800.719 585.434 800.191 585.88 799.737C586.326 799.282 586.729 798.918 587.068 798.531C587.407 798.145 587.67 797.747 587.814 797.532C587.959 797.317 587.977 797.298 587.996 797.285C588.015 797.272 588.035 797.268 588.056 797.262" stroke="#E54E6F" stroke-width="2.02711" stroke-linecap="round"/>
<path d="M588.408 796.176C588.416 796.135 588.487 795.933 588.86 795.348C589.166 794.867 589.76 794.046 590.187 793.478C590.613 792.91 590.867 792.628 590.988 792.495C591.11 792.363 591.091 792.388 590.445 793.116C589.798 793.844 588.524 795.273 587.768 796.17C587.011 797.067 586.812 797.389 586.597 797.743" stroke="#E54E6F" stroke-width="2.02711" stroke-linecap="round"/>
<path d="M591.152 791.34C591.154 791.341 591.167 791.326 591.341 791.169C591.501 791.025 591.816 790.765 592.02 790.581C592.319 790.311 592.412 790.184 592.51 790.058C592.595 789.95 592.754 789.754 592.906 789.541C593.058 789.329 593.198 789.107 593.353 788.891C593.508 788.675 593.673 788.472 593.776 788.336C593.924 788.142 593.974 788.023 594.019 787.876C594.145 787.46 594.059 787.302 593.988 787.152C593.936 787.041 593.839 786.962 593.769 786.872C593.705 786.79 593.713 786.695 593.74 786.571C593.777 786.398 593.893 786.279 593.943 786.202C593.988 786.134 594.113 786.159 594.187 786.117C594.359 786.019 594.671 786.202 594.749 786.233C594.839 786.269 594.918 786.287 595.099 786.326C595.195 786.356 595.272 786.384 595.363 786.413C595.389 786.424 595.419 786.439 595.449 786.455" stroke="#E54E6F" stroke-width="2.02711" stroke-linecap="round"/>
<path d="M600.667 776.577C600.661 776.583 600.482 776.769 600.158 777.119C600.007 777.283 599.9 777.437 599.783 777.625C599.666 777.814 599.546 778.038 599.48 778.162C599.413 778.287 599.402 778.307 599.286 778.496C599.169 778.685 598.947 779.044 598.802 779.259C598.611 779.546 598.457 779.655 598.318 779.747C598.224 779.809 598.032 779.881 597.77 779.987C597.474 780.106 597.365 780.277 597.289 780.396C597.181 780.568 597.188 780.849 597.173 780.901C597.144 781.004 596.98 780.962 596.843 780.971C596.671 780.982 596.547 781.086 596.385 781.243C596.352 781.276 596.361 781.3 596.371 781.318C596.423 781.391 596.484 781.446 596.562 781.469C596.581 781.474 596.6 781.48 596.673 781.504" stroke="#E54E6F" stroke-width="2.02711" stroke-linecap="round"/>
<path d="M596.616 779.859C596.581 780.047 596.506 780.486 596.502 780.597C596.496 780.823 596.545 781.05 596.581 781.158C596.608 781.242 596.664 781.327 596.722 781.396C596.795 781.484 596.853 781.691 596.868 781.79C596.869 781.795 596.849 781.782 596.851 781.773C596.853 781.764 596.872 781.758 596.892 781.758C596.982 781.757 597.082 781.827 597.247 781.907C597.335 781.95 597.419 782.002 597.471 782.045C597.523 782.089 597.353 781.938 597.295 781.911C597.297 781.913 597.32 781.922 597.349 781.93C597.377 781.939 597.411 781.945 597.445 781.952" stroke="#E54E6F" stroke-width="2.02711" stroke-linecap="round"/>
<path d="M598.324 780.796C598.326 780.795 598.301 780.831 598.253 780.897C598.22 780.943 598 781.229 597.673 781.65C597.523 781.832 597.454 781.892 597.384 781.942C597.352 781.961 597.33 781.967 597.277 781.974" stroke="#E54E6F" stroke-width="2.02711" stroke-linecap="round"/>
<path d="M599.461 778.671C599.461 778.669 599.461 778.668 599.494 778.502C599.527 778.336 599.593 778.005 599.802 777.414C600.011 776.824 600.362 775.984 600.67 775.366C600.979 774.747 601.234 774.376 601.586 773.94C601.939 773.504 602.38 773.014 602.884 772.482" stroke="#E54E6F" stroke-width="2.02711" stroke-linecap="round"/>
<path d="M601.398 773.08C601.399 773.076 601.42 772.979 601.516 772.696C601.58 772.504 601.718 772.228 601.949 771.823C602.18 771.418 602.51 770.895 602.845 770.415C603.18 769.934 603.509 769.511 603.7 769.253C603.891 768.995 603.934 768.915 604.002 768.771C604.07 768.628 604.162 768.423 604.248 768.263C604.335 768.102 604.415 767.991 604.501 767.823C604.784 767.184 604.838 767.095 604.944 767.042C604.989 767.032 605.056 767.022 605.126 767.011" stroke="#E54E6F" stroke-width="2.02711" stroke-linecap="round"/>
<path d="M604.775 767.267C604.774 767.267 604.773 767.267 604.81 767.082C604.848 766.897 604.923 766.528 604.967 766.312C605.037 765.976 605.017 765.864 604.985 765.773C604.889 765.493 605.092 764.956 605.065 764.877C605.052 764.841 604.987 764.837 604.937 764.818C604.898 764.802 604.918 764.706 604.943 764.625C604.966 764.554 605.094 764.611 605.273 764.629C605.864 764.744 605.97 764.777 606.083 764.813C606.132 764.826 606.21 764.843 606.291 764.86" stroke="#E54E6F" stroke-width="2.02711" stroke-linecap="round"/>
<ellipse cx="81" cy="74" rx="81" ry="74" transform="matrix(-0.982826 -0.184535 -0.184535 0.982826 905.014 338.3)" fill="#F5F5F5"/>
<ellipse cx="47.9734" cy="42.2043" rx="47.9734" ry="42.2043" transform="matrix(-0.982826 -0.184535 -0.184535 0.982826 892.251 374.943)" fill="#181617"/>
<ellipse cx="20.1902" cy="3.31033" rx="20.1902" ry="3.31033" transform="matrix(-0.913076 0.407789 0.454203 0.890898 838.768 372.102)" fill="white"/>
<ellipse cx="10.28" cy="12.9859" rx="10.28" ry="12.9859" transform="matrix(-0.982826 -0.184535 -0.184535 0.982826 873.794 410.519)" fill="white"/>
</svg>
