<svg width="1043" height="1376" viewBox="0 0 1043 1376" fill="none" xmlns="http://www.w3.org/2000/svg">
<path d="M614.819 143.478C644.642 140.87 663.929 141.864 685.261 146.502C704.001 109.244 713.384 86.4012 743.54 68.9814C642.997 103.522 596.974 85.4006 529.173 1.07324C554.241 55.9355 559.795 87.995 563.127 146.181C576.319 143.226 592.214 142.393 614.819 143.478Z" fill="#E54E6F"/>
<path d="M514.477 154.12C525.107 151.824 534.563 150.024 543.87 148.604C537.774 89.3315 533.612 52.6943 529.173 1.07324C494.295 119.693 438.28 128.271 301.63 85.1983C371.175 124.033 401.584 150.924 450.155 202.264C466.538 186.688 483.02 173.975 514.477 154.12Z" fill="#E54E6F"/>
<path d="M397.918 312.741C403.256 278.314 408.286 258.422 434.406 217.974C389.869 166.128 360.608 137.07 301.63 85.1983C363.504 203.607 350.303 256.317 225.107 321.357C289.738 310.384 327.069 307.185 397.918 312.741Z" fill="#E54E6F"/>
<path d="M397.276 333.519C329.815 322.216 292.187 321.546 225.107 321.357C321.86 367.819 344.803 402.523 300.11 488.086C340.727 457.98 364.399 442.825 412.297 426.766C401.202 397.064 396.801 372.315 397.276 333.519Z" fill="#E54E6F"/>
<path d="M419.203 443.997C372.984 456.136 346.82 467.351 300.11 488.086C400.462 503.467 406.135 532.14 372.579 600.591C397.495 577.563 413.5 564.694 457.211 542.038C447.646 520.807 437.958 495.544 419.203 443.997Z" fill="#E54E6F"/>
<path d="M494.206 650.255C489.676 612.68 485.367 591.52 462.279 552.954C415.836 573.271 398.666 583.331 372.579 600.591C467.035 592.699 477.573 607.489 450.116 654.816C465.631 654.012 474.663 653.99 493.471 657.35C493.724 655.054 493.968 652.691 494.206 650.255Z" fill="#E54E6F"/>
<path d="M483.102 707.554C485.521 700.557 487.443 693.603 489.028 686.18C434.656 684.749 396.379 665.444 321.901 594.003C262.862 504.615 236.854 456.52 241.782 416.621C221.663 522.436 187.741 531.994 96.8923 474.403C234.881 609.922 320.876 662.967 483.102 707.554Z" fill="#E54E6F"/>
<path d="M275.785 641.64C146.825 555.187 126.537 523.552 96.8923 474.403C149.645 594.904 123.234 631.33 1.61816 654.816C186.152 669.557 291.297 685.706 471.816 734.117C476.17 725.265 479.643 717.258 482.466 709.362C414.485 702.131 369.687 691.658 275.785 641.64Z" fill="#E54E6F"/>
<path d="M471.09 735.585C184.828 695.069 62.7233 675.55 1.61816 654.816C144.239 722.161 139.946 767.707 61.4179 855.5C110.329 809.449 154.661 788.283 266.156 757.692C348.206 738.846 394.852 736.862 464.327 746.609C464.856 745.87 465.387 745.127 465.921 744.379L468.36 740.968C469.306 739.136 470.215 737.343 471.09 735.585Z" fill="#E54E6F"/>
<path d="M461.977 749.896C301.708 753.057 210.083 775.635 61.4179 855.5C195.183 820.313 198.585 855.701 169.868 945.595C191.321 892.58 211.458 862.979 296.056 810.903C356.236 780.556 394.762 768.572 447.758 769.823C452.273 763.477 456.994 756.866 461.977 749.896Z" fill="#E54E6F"/>
<path d="M305.178 844.699L378.381 874.008C400.414 837.616 418.91 810.494 443.159 776.297C434.397 777.458 425.918 778.82 417.682 780.398C401.729 843.35 371.503 848.661 305.178 844.699Z" fill="#E54E6F"/>
<path d="M370.045 887.934L305.178 844.699C338.838 934.358 314.873 967.293 226.627 1006.01L318.907 1011.08C327.047 965.085 335.136 937.289 370.045 887.934Z" fill="#E54E6F"/>
<path d="M364.978 1268.02C342.902 1238.89 332.406 1216.47 322.932 1178.32L237.776 1199.6C337.508 1225.52 358.078 1260.23 343.186 1350.11L384.267 1290.82C378.125 1284.07 371.796 1276.58 364.978 1268.02Z" fill="#E54E6F"/>
<path d="M457.718 1350.11C431.306 1333.16 413.152 1320.1 394.877 1301.93L343.186 1350.11C391.409 1325.66 416.032 1328.81 457.718 1350.11Z" fill="#E54E6F"/>
<path d="M563.127 146.181C559.795 87.995 554.241 55.9355 529.173 1.07324C533.612 52.6943 537.774 89.3315 543.87 148.604C550.249 147.631 556.558 146.835 563.127 146.181Z" fill="#FCD1DA"/>
<path d="M434.406 217.974C439.947 212.257 445.046 207.121 450.155 202.264C401.584 150.924 371.175 124.033 301.63 85.1983C360.608 137.07 389.869 166.128 434.406 217.974Z" fill="#FCD1DA"/>
<path d="M397.918 312.741C327.069 307.185 289.738 310.384 225.107 321.357C292.187 321.546 329.815 322.216 397.276 333.519C397.356 327.018 397.573 320.121 397.918 312.741Z" fill="#FCD1DA"/>
<path d="M419.203 443.997C416.661 438 414.363 432.297 412.297 426.766C364.399 442.825 340.727 457.98 300.11 488.086C346.82 467.351 372.984 456.136 419.203 443.997Z" fill="#FCD1DA"/>
<path d="M462.279 552.954C460.561 549.359 458.888 545.761 457.211 542.038C413.5 564.694 397.495 577.563 372.579 600.591C398.666 583.331 415.836 573.271 462.279 552.954Z" fill="#FCD1DA"/>
<path d="M493.471 657.35C474.663 653.99 465.631 654.012 450.116 654.816C471.478 659.765 481.454 662.7 492.09 668.499C492.585 664.947 493.041 661.244 493.471 657.35Z" fill="#FCD1DA"/>
<path d="M700.971 150.422L743.54 68.9814C713.384 86.4012 704.001 109.244 685.261 146.502C690.326 147.603 695.507 148.91 700.971 150.422Z" fill="#FCD1DA"/>
<path d="M489.776 682.513C370.688 639.516 311.065 588.422 243.351 408.015C242.837 410.952 242.314 413.82 241.782 416.621C236.854 456.52 262.862 504.615 321.901 594.003C396.379 665.444 434.656 684.749 489.028 686.18C489.286 684.971 489.535 683.75 489.776 682.513Z" fill="#FCD1DA"/>
<path d="M96.8923 474.403C126.537 523.552 146.825 555.187 275.785 641.64C369.687 691.658 414.485 702.131 482.466 709.362C482.682 708.759 482.894 708.156 483.102 707.554C320.876 662.967 234.881 609.922 96.8923 474.403Z" fill="#FCD1DA"/>
<path d="M471.816 734.117C291.297 685.706 186.152 669.557 1.61816 654.816C62.7233 675.55 184.828 695.069 471.09 735.585C471.335 735.093 471.577 734.603 471.816 734.117Z" fill="#F4CFD7"/>
<path d="M266.156 757.692C154.661 788.283 110.329 809.449 61.4179 855.5C210.083 775.635 301.708 753.057 461.977 749.896L464.327 746.609C394.852 736.862 348.206 738.846 266.156 757.692Z" fill="#FCD1DA"/>
<path d="M296.056 810.903C211.458 862.979 191.321 892.58 169.868 945.595C261.633 844.508 323.948 798.366 417.682 780.398C425.918 778.82 434.397 777.458 443.159 776.297C444.669 774.167 446.201 772.011 447.758 769.823C394.762 768.572 356.236 780.556 296.056 810.903Z" fill="#FCD1DA"/>
<path d="M370.045 887.934C372.889 883.13 375.662 878.499 378.381 874.008L305.178 844.699L370.045 887.934Z" fill="#FCD1DA"/>
<path d="M317.847 1156.02C308.428 1104.03 306.695 1073.94 316.516 1023.75L226.627 1006.01C317.702 1078.87 299.977 1121.96 237.776 1199.6L318.907 1160.95C318.555 1159.33 318.202 1157.69 317.847 1156.02Z" fill="#E54E6F"/>
<path d="M317.847 1017.16C318.202 1015.1 318.555 1013.07 318.907 1011.08L226.627 1006.01L316.516 1023.75C316.938 1021.59 317.382 1019.4 317.847 1017.16Z" fill="#FCD1DA"/>
<path d="M318.907 1160.95L237.776 1199.6L322.932 1178.32C321.58 1172.87 320.248 1167.1 318.907 1160.95Z" fill="#FCD1DA"/>
<path d="M384.267 1290.82L343.186 1350.11L394.877 1301.93C391.365 1298.44 387.848 1294.76 384.267 1290.82Z" fill="#FCD1DA"/>
<path d="M489.028 686.18C492.702 686.277 496.45 686.292 500.287 686.236C496.732 685 493.229 683.76 489.776 682.513C489.535 683.75 489.286 684.971 489.028 686.18Z" fill="#FCD1DA"/>
<path d="M494.206 710.562C490.465 709.563 486.764 708.561 483.102 707.554C482.894 708.156 482.682 708.759 482.466 709.362C486.301 709.77 490.21 710.168 494.206 710.562Z" fill="#FCD1DA"/>
<path d="M484.07 737.421C479.947 736.303 475.863 735.202 471.816 734.117C471.577 734.603 471.335 735.093 471.09 735.585C475.38 736.192 479.706 736.804 484.07 737.421Z" fill="#F4CFD7"/>
<path d="M484.07 749.583C477.267 748.496 470.701 747.503 464.327 746.609L461.977 749.896C469.198 749.753 476.559 749.65 484.07 749.583Z" fill="#FCD1DA"/>
<path d="M789.657 617.006C766.983 583.146 720.228 552.954 720.228 552.954C719.805 552.943 719.295 552.818 718.708 552.591C683.319 558.965 661.792 561.251 621.098 563.596C634.848 587.398 643.738 606.399 659.709 640.119C714.342 635.319 743.03 630.538 789.657 617.006Z" fill="#FCD1DA"/>
<path d="M666.003 809.383C665.474 809.892 664.944 810.398 664.413 810.903C704.631 827.112 727.936 834.276 770.399 844.699C802.01 811.479 815.856 787.562 823.988 737.421C771.936 740.348 742.74 739.529 690.684 735.394C691.214 762.343 684.435 779.903 666.003 809.383Z" fill="#FCD1DA"/>
<path d="M587.055 873.744C614.323 888.125 632.124 895.107 666.51 906.426C722.14 880.771 741.745 868.577 763.811 850.95C720.803 840.826 697.748 833.242 658.402 816.51C640.77 832.636 620.722 848.245 587.055 873.744Z" fill="#FCD1DA"/>
<path d="M580.358 878.812C553.243 897.394 538.126 909.898 513.463 939.802C529.539 950.244 540.097 955.594 560.997 964.457C587.145 942.212 611.233 930.185 655.868 911.157C624.307 899.775 607.617 892.786 580.358 878.812Z" fill="#FCD1DA"/>
<path d="M468.36 1011.08C462.086 1045.25 469.122 1062.53 484.07 1092.93C480.74 1058.85 517.867 1007.82 524.97 998.411C524.97 998.411 527.807 990.612 554.784 969.525C533.731 960.266 523.485 954.992 507.382 945.595C487.531 963.448 479.779 980.355 468.36 1011.08Z" fill="#FCD1DA"/>
<path d="M640.158 502.783C640.158 502.783 595.343 505.628 571.743 494.674C584.918 506.408 593.124 515.473 614.819 552.954C615.436 553.979 616.042 554.992 616.639 555.994C655.236 555.014 675.99 553.376 710.082 546.872C694.659 534.469 668.939 507.06 665.578 502.753C662.223 502.649 640.158 502.783 640.158 502.783Z" fill="#FCD1DA"/>
<path d="M710.082 546.872C675.99 553.376 655.236 555.014 616.639 555.994C618.187 558.595 619.669 561.121 621.098 563.596C661.792 561.251 683.319 558.965 718.708 552.591C716.647 551.794 713.638 549.732 710.082 546.872Z" fill="#E54E6F"/>
<path d="M659.709 640.119L660.429 641.64C661.596 643.721 662.717 645.745 663.795 647.721C716.945 641.95 745.584 636.982 794.177 624.409C792.814 621.929 791.299 619.458 789.657 617.006C743.03 630.538 714.342 635.319 659.709 640.119Z" fill="#E54E6F"/>
<path d="M824.313 729.312C821.247 689.773 818.304 666.374 794.725 625.423C794.545 625.085 794.362 624.747 794.177 624.409C745.584 636.982 716.945 641.95 663.795 647.721C679.373 676.268 685.921 694.672 690.329 727.285C743.517 732.291 772.854 732.744 824.313 729.312Z" fill="#FCD1DA"/>
<path d="M763.811 850.95C764.652 850.279 765.496 849.6 766.345 848.912C767.728 847.489 769.079 846.086 770.399 844.699C727.936 834.276 704.631 827.112 664.413 810.903C662.43 812.79 660.432 814.653 658.402 816.51C697.748 833.242 720.803 840.826 763.811 850.95Z" fill="#E54E6F"/>
<path d="M824.625 733.367C824.52 731.996 824.417 730.645 824.313 729.312C772.854 732.744 743.517 732.291 690.329 727.285C690.513 730.089 690.633 732.785 690.684 735.394C742.74 739.529 771.936 740.348 823.988 737.421C824.204 736.088 824.416 734.737 824.625 733.367Z" fill="#E54E6F"/>
<path d="M660.429 909.218C662.503 908.27 664.529 907.339 666.51 906.426C632.124 895.107 614.323 888.125 587.055 873.744L586.706 874.008C584.642 875.571 582.527 877.172 580.358 878.812C607.617 892.786 624.307 899.775 655.868 911.157C657.365 910.519 658.885 909.873 660.429 909.218Z" fill="#E54E6F"/>
<path d="M513.463 939.802C512.961 940.411 512.454 941.028 511.943 941.652C510.354 942.975 508.835 944.287 507.382 945.595C523.485 954.992 533.731 960.266 554.784 969.525C555.839 968.701 556.93 967.856 558.06 966.991C559.042 966.131 560.021 965.287 560.997 964.457C540.097 955.594 529.539 950.244 513.463 939.802Z" fill="#E54E6F"/>
<path fill-rule="evenodd" clip-rule="evenodd" d="M485.591 1229.5C466.746 1195.81 465.013 1177.25 468.36 1144.36C472.935 1120.32 473.863 1102.69 484.07 1092.93C469.122 1062.53 462.086 1045.25 468.36 1011.08C479.779 980.355 487.531 963.448 507.382 945.595C508.835 944.287 510.354 942.975 511.943 941.652C512.454 941.028 512.961 940.411 513.463 939.802C538.126 909.898 553.243 897.394 580.358 878.812C582.527 877.172 584.642 875.571 586.706 874.008L658.402 816.51C660.432 814.653 662.43 812.79 664.413 810.903C664.944 810.398 665.474 809.892 666.003 809.383C684.435 779.903 691.214 762.343 690.684 735.394C690.633 732.785 690.513 730.089 690.329 727.285C685.921 694.672 679.373 676.268 663.795 647.721C662.717 645.745 661.596 643.721 660.429 641.64L659.709 640.119C643.738 606.399 634.848 587.398 621.098 563.596C619.669 561.121 618.187 558.595 616.639 555.994C616.042 554.992 615.436 553.979 614.819 552.954C593.124 515.473 584.918 506.408 571.743 494.674C595.343 505.628 640.158 502.783 640.158 502.783C640.158 502.783 662.223 502.649 665.578 502.753C664.998 502.009 665.084 501.954 666.003 502.783C678.599 498.349 695.733 499.026 734.418 502.783L801.313 516.973C827.559 526.127 839.886 531.756 854.524 543.325C868.778 550.485 876.764 558.084 891.012 575.252C899.131 581.68 904.063 587.537 914.324 606.672C915.542 621.061 920.002 628.541 929.528 641.64C941.89 651.737 948.855 653.932 961.455 650.255C975.125 643.141 981.671 637.985 992.368 625.423C1019.97 591.503 1029.6 575.151 1028.86 575.252C1038.68 546.729 1042.17 533.145 1041.53 523.054C1041.31 508.335 1039.91 501.366 1028.86 494.674C1005.9 489.894 993.027 489.833 970.07 494.674C949.81 493.815 941.98 491.335 929.528 486.059C888.614 472.771 875.267 465.507 854.524 452.612C813.111 429.343 794.556 415.93 776.987 390.785C762.541 372.118 756.757 361.05 749.115 340.614C751.948 310.256 757.547 301.763 768.372 288.416C783.893 271.699 790.128 260.942 789.657 235.204C788.527 213.891 783.399 202.772 768.372 184.02C747.439 167.125 735.455 160.787 713.64 154.12C709.216 152.774 705.016 151.542 700.971 150.422C695.507 148.91 690.326 147.603 685.261 146.502C663.929 141.864 644.642 140.87 614.819 143.478C592.214 142.393 576.319 143.226 563.127 146.181C556.558 146.835 550.249 147.631 543.87 148.604C534.563 150.024 525.107 151.824 514.477 154.12C483.02 173.975 466.538 186.688 450.155 202.264C445.046 207.121 439.947 212.257 434.406 217.974C408.286 258.422 403.256 278.314 397.918 312.741C397.573 320.121 397.356 327.018 397.276 333.519C396.801 372.315 401.202 397.064 412.297 426.766C414.363 432.297 416.661 438 419.203 443.997C437.958 495.544 447.646 520.807 457.211 542.038C458.888 545.761 460.561 549.359 462.279 552.954C485.367 591.52 489.676 612.68 494.206 650.255C493.968 652.691 493.724 655.054 493.471 657.35C493.041 661.244 492.585 664.947 492.09 668.499C491.404 673.429 490.643 678.066 489.776 682.513C493.229 683.76 496.732 685 500.287 686.236C524.386 722.169 518.943 740.887 484.07 772.388C469.722 773.294 456.13 774.577 443.159 776.297C418.91 810.494 400.414 837.616 378.381 874.008C375.662 878.499 372.889 883.13 370.045 887.934C335.136 937.289 327.047 965.085 318.907 1011.08C318.555 1013.07 318.202 1015.1 317.847 1017.16C317.382 1019.4 316.938 1021.59 316.516 1023.75C306.695 1073.94 308.428 1104.03 317.847 1156.02C318.202 1157.69 318.555 1159.33 318.907 1160.95C320.248 1167.1 321.58 1172.87 322.932 1178.32C332.406 1216.47 342.902 1238.89 364.978 1268.02C371.796 1276.58 378.125 1284.07 384.267 1290.82C387.848 1294.76 391.365 1298.44 394.877 1301.93C413.152 1320.1 431.306 1333.16 457.718 1350.11C508.171 1365.64 536.633 1371.77 587.96 1374.95C636.422 1373.62 661.113 1368.07 697.93 1344.03C731.685 1324.56 746.294 1311.03 766.345 1283.22C787.512 1244.5 792.411 1221.5 789.657 1178.32C782.32 1143.85 777.21 1126.09 762.798 1102.81C742.524 1077.27 728.466 1066.38 697.93 1053.65C669.632 1045.99 653.746 1046.13 625.461 1053.65C595.496 1066.67 586.626 1075.32 573.263 1091.15C557.664 1111.96 553.257 1123.61 550.458 1144.36C548.184 1173.99 549.807 1186.15 558.06 1199.6C579.09 1214.06 587.867 1214.4 602.656 1212.78C621.381 1210.52 629.535 1205.51 642.185 1193.52C649.384 1168.36 647.791 1158.91 642.185 1144.36C635.623 1123.33 633.459 1113.62 625.461 1102.81C635.28 1074.64 646.597 1070.26 671.071 1070.88C694.09 1076.66 701.307 1085.19 711.613 1102.81C722.439 1134.84 723.943 1151.25 720.228 1178.32C707.764 1214.56 696.625 1230.47 671.071 1252.81C638.211 1269.3 618.39 1275.14 580.358 1278.66C530.329 1275.46 508.789 1265.66 485.591 1229.5ZM970.07 557.008C987.145 536.731 994.928 513.914 1015.17 513.932C1028.08 525.123 1012.1 546.948 999.463 575.252C977.791 604.892 965.277 622.969 951.826 619.848C943.359 612.238 952.624 592.758 970.07 557.008Z" fill="#F196A8"/>
<path d="M1015.17 513.932C994.928 513.914 987.145 536.731 970.07 557.008C952.624 592.758 943.359 612.238 951.826 619.848C965.277 622.969 977.791 604.892 999.463 575.252C1012.1 546.948 1028.08 525.123 1015.17 513.932Z" fill="#E54E6F"/>
<path d="M489.028 686.18C487.443 693.603 485.521 700.557 483.102 707.554C486.764 708.561 490.465 709.563 494.206 710.562C490.21 710.168 486.301 709.77 482.466 709.362C479.643 717.258 476.17 725.265 471.816 734.117C475.863 735.202 479.947 736.303 484.07 737.421C479.706 736.804 475.38 736.192 471.09 735.585C470.215 737.343 469.306 739.136 468.36 740.968L465.921 744.379L464.327 746.609C470.701 747.503 477.267 748.496 484.07 749.583C476.559 749.65 469.198 749.753 461.977 749.896C456.994 756.866 452.273 763.477 447.758 769.823C459.083 770.09 471.07 770.962 484.07 772.388C518.943 740.887 524.386 722.169 500.287 686.236C496.45 686.292 492.702 686.277 489.028 686.18Z" fill="#E54E6F"/>
<path d="M447.758 769.823C446.201 772.011 444.669 774.167 443.159 776.297C456.13 774.577 469.722 773.294 484.07 772.388C471.07 770.962 459.083 770.09 447.758 769.823Z" fill="#E54E6F"/>
<path d="M685.261 146.502C663.929 141.864 644.642 140.87 614.819 143.478C592.214 142.393 576.319 143.226 563.127 146.181M685.261 146.502C704.001 109.244 713.384 86.4012 743.54 68.9814M685.261 146.502C690.326 147.603 695.507 148.91 700.971 150.422M743.54 68.9814C642.997 103.522 596.974 85.4006 529.173 1.07324M743.54 68.9814L700.971 150.422M529.173 1.07324C554.241 55.9355 559.795 87.995 563.127 146.181M529.173 1.07324C533.612 52.6943 537.774 89.3315 543.87 148.604M529.173 1.07324C494.295 119.693 438.28 128.271 301.63 85.1983M563.127 146.181C556.558 146.835 550.249 147.631 543.87 148.604M543.87 148.604C534.563 150.024 525.107 151.824 514.477 154.12C483.02 173.975 466.538 186.688 450.155 202.264M301.63 85.1983C371.175 124.033 401.584 150.924 450.155 202.264M301.63 85.1983C360.608 137.07 389.869 166.128 434.406 217.974M301.63 85.1983C363.504 203.607 350.303 256.317 225.107 321.357M450.155 202.264C445.046 207.121 439.947 212.257 434.406 217.974M397.918 312.741C403.256 278.314 408.286 258.422 434.406 217.974M397.918 312.741C327.069 307.185 289.738 310.384 225.107 321.357M397.918 312.741C397.573 320.121 397.356 327.018 397.276 333.519M225.107 321.357C292.187 321.546 329.815 322.216 397.276 333.519M225.107 321.357C321.86 367.819 344.803 402.523 300.11 488.086M397.276 333.519C396.801 372.315 401.202 397.064 412.297 426.766M300.11 488.086C340.727 457.98 364.399 442.825 412.297 426.766M300.11 488.086C346.82 467.351 372.984 456.136 419.203 443.997M300.11 488.086C400.462 503.467 406.135 532.14 372.579 600.591M412.297 426.766C414.363 432.297 416.661 438 419.203 443.997M419.203 443.997C437.958 495.544 447.646 520.807 457.211 542.038M372.579 600.591C397.495 577.563 413.5 564.694 457.211 542.038M372.579 600.591C398.666 583.331 415.836 573.271 462.279 552.954M372.579 600.591C467.035 592.699 477.573 607.489 450.116 654.816M457.211 542.038C458.888 545.761 460.561 549.359 462.279 552.954M462.279 552.954C485.367 591.52 489.676 612.68 494.206 650.255C493.968 652.691 493.724 655.054 493.471 657.35M450.116 654.816C465.631 654.012 474.663 653.99 493.471 657.35M450.116 654.816C471.478 659.765 481.454 662.7 492.09 668.499M493.471 657.35C493.041 661.244 492.585 664.947 492.09 668.499M483.102 707.554C485.521 700.557 487.443 693.603 489.028 686.18M483.102 707.554C320.876 662.967 234.881 609.922 96.8923 474.403M483.102 707.554C482.894 708.156 482.682 708.759 482.466 709.362M483.102 707.554C486.764 708.561 490.465 709.563 494.206 710.562C490.21 710.168 486.301 709.77 482.466 709.362M489.028 686.18C434.656 684.749 396.379 665.444 321.901 594.003C262.862 504.615 236.854 456.52 241.782 416.621M489.028 686.18C489.286 684.971 489.535 683.75 489.776 682.513M489.028 686.18C492.702 686.277 496.45 686.292 500.287 686.236M241.782 416.621C221.663 522.436 187.741 531.994 96.8923 474.403M241.782 416.621C242.314 413.82 242.837 410.952 243.351 408.015M241.782 416.621C242.141 413.713 242.664 410.849 243.351 408.015M96.8923 474.403C126.537 523.552 146.825 555.187 275.785 641.64C369.687 691.658 414.485 702.131 482.466 709.362M96.8923 474.403C149.645 594.904 123.234 631.33 1.61816 654.816M1.61816 654.816C186.152 669.557 291.297 685.706 471.816 734.117M1.61816 654.816C62.7233 675.55 184.828 695.069 471.09 735.585M1.61816 654.816C144.239 722.161 139.946 767.707 61.4179 855.5M471.816 734.117C476.17 725.265 479.643 717.258 482.466 709.362M471.816 734.117C471.577 734.603 471.335 735.093 471.09 735.585M471.816 734.117C475.863 735.202 479.947 736.303 484.07 737.421C479.706 736.804 475.38 736.192 471.09 735.585M471.09 735.585C470.215 737.343 469.306 739.136 468.36 740.968M61.4179 855.5C110.329 809.449 154.661 788.283 266.156 757.692C348.206 738.846 394.852 736.862 464.327 746.609M61.4179 855.5C210.083 775.635 301.708 753.057 461.977 749.896M61.4179 855.5C195.183 820.313 198.585 855.701 169.868 945.595M464.327 746.609C464.856 745.87 465.387 745.127 465.921 744.379M464.327 746.609L461.977 749.896M464.327 746.609C470.701 747.503 477.267 748.496 484.07 749.583C476.559 749.65 469.198 749.753 461.977 749.896M464.327 746.609L465.921 744.379M464.327 746.609C463.538 747.713 462.754 748.809 461.977 749.896M465.921 744.379L468.36 740.968M465.921 744.379C466.727 743.252 467.54 742.115 468.36 740.968M461.977 749.896C456.994 756.866 452.273 763.477 447.758 769.823M169.868 945.595C191.321 892.58 211.458 862.979 296.056 810.903C356.236 780.556 394.762 768.572 447.758 769.823M169.868 945.595C261.633 844.508 323.948 798.366 417.682 780.398M447.758 769.823C446.201 772.011 444.669 774.167 443.159 776.297M447.758 769.823C459.083 770.09 471.07 770.962 484.07 772.388M305.178 844.699L378.381 874.008M305.178 844.699C371.503 848.661 401.729 843.35 417.682 780.398M305.178 844.699L370.045 887.934M305.178 844.699C338.838 934.358 314.873 967.293 226.627 1006.01M378.381 874.008C400.414 837.616 418.91 810.494 443.159 776.297M378.381 874.008C375.662 878.499 372.889 883.13 370.045 887.934M443.159 776.297C434.397 777.458 425.918 778.82 417.682 780.398M443.159 776.297C456.13 774.577 469.722 773.294 484.07 772.388M370.045 887.934C335.136 937.289 327.047 965.085 318.907 1011.08M226.627 1006.01L318.907 1011.08M226.627 1006.01L316.516 1023.75M226.627 1006.01C317.702 1078.87 299.977 1121.96 237.776 1199.6M318.907 1011.08C318.555 1013.07 318.202 1015.1 317.847 1017.16C317.382 1019.4 316.938 1021.59 316.516 1023.75M322.932 1178.32C332.406 1216.47 342.902 1238.89 364.978 1268.02C371.796 1276.58 378.125 1284.07 384.267 1290.82M322.932 1178.32L237.776 1199.6M322.932 1178.32C321.58 1172.87 320.248 1167.1 318.907 1160.95M237.776 1199.6C337.508 1225.52 358.078 1260.23 343.186 1350.11M237.776 1199.6L318.907 1160.95M343.186 1350.11L384.267 1290.82M343.186 1350.11L394.877 1301.93M343.186 1350.11C391.409 1325.66 416.032 1328.81 457.718 1350.11M384.267 1290.82C387.848 1294.76 391.365 1298.44 394.877 1301.93M457.718 1350.11C431.306 1333.16 413.152 1320.1 394.877 1301.93M457.718 1350.11C508.171 1365.64 536.633 1371.77 587.96 1374.95C636.422 1373.62 661.113 1368.07 697.93 1344.03C731.685 1324.56 746.294 1311.03 766.345 1283.22C787.512 1244.5 792.411 1221.5 789.657 1178.32C782.32 1143.85 777.21 1126.09 762.798 1102.81C742.524 1077.27 728.466 1066.38 697.93 1053.65C669.632 1045.99 653.746 1046.13 625.461 1053.65C595.496 1066.67 586.626 1075.32 573.263 1091.15C557.664 1111.96 553.257 1123.61 550.458 1144.36C548.184 1173.99 549.807 1186.15 558.06 1199.6C579.09 1214.06 587.867 1214.4 602.656 1212.78C621.381 1210.52 629.535 1205.51 642.185 1193.52C649.384 1168.36 647.791 1158.91 642.185 1144.36C635.623 1123.33 633.459 1113.62 625.461 1102.81C635.28 1074.64 646.597 1070.26 671.071 1070.88C694.09 1076.66 701.307 1085.19 711.613 1102.81C722.439 1134.84 723.943 1151.25 720.228 1178.32C707.764 1214.56 696.625 1230.47 671.071 1252.81C638.211 1269.3 618.39 1275.14 580.358 1278.66C530.329 1275.46 508.789 1265.66 485.591 1229.5C466.746 1195.81 465.013 1177.25 468.36 1144.36C472.935 1120.32 473.863 1102.69 484.07 1092.93M492.09 668.499C491.404 673.429 490.643 678.066 489.776 682.513M700.971 150.422C705.016 151.542 709.216 152.774 713.64 154.12C735.455 160.787 747.439 167.125 768.372 184.02C783.399 202.772 788.527 213.891 789.657 235.204C790.128 260.942 783.893 271.699 768.372 288.416C757.547 301.763 751.948 310.256 749.115 340.614C756.757 361.05 762.541 372.118 776.987 390.785C794.556 415.93 813.111 429.343 854.524 452.612C875.267 465.507 888.614 472.771 929.528 486.059C941.98 491.335 949.81 493.815 970.07 494.674C993.027 489.833 1005.9 489.894 1028.86 494.674C1039.91 501.366 1041.31 508.335 1041.53 523.054C1042.17 533.145 1038.68 546.729 1028.86 575.252C1029.6 575.151 1019.97 591.503 992.368 625.423C981.671 637.985 975.125 643.141 961.455 650.255C948.855 653.932 941.89 651.737 929.528 641.64C920.002 628.541 915.542 621.061 914.324 606.672C904.063 587.537 899.131 581.68 891.012 575.252C876.764 558.084 868.778 550.485 854.524 543.325C839.886 531.756 827.559 526.127 801.313 516.973L734.418 502.783C695.733 499.026 678.599 498.349 666.003 502.783M489.776 682.513C370.688 639.516 311.065 588.422 243.351 408.015M489.776 682.513C493.229 683.76 496.732 685 500.287 686.236M316.516 1023.75C306.695 1073.94 308.428 1104.03 317.847 1156.02C318.202 1157.69 318.555 1159.33 318.907 1160.95M500.287 686.236C524.386 722.169 518.943 740.887 484.07 772.388M789.657 617.006C766.983 583.146 720.228 552.954 720.228 552.954C719.805 552.943 719.295 552.818 718.708 552.591M789.657 617.006C743.03 630.538 714.342 635.319 659.709 640.119M789.657 617.006C791.299 619.458 792.814 621.929 794.177 624.409M718.708 552.591C683.319 558.965 661.792 561.251 621.098 563.596M718.708 552.591C716.647 551.794 713.638 549.732 710.082 546.872M621.098 563.596C634.848 587.398 643.738 606.399 659.709 640.119M621.098 563.596C619.669 561.121 618.187 558.595 616.639 555.994M659.709 640.119L660.429 641.64M659.709 640.119C659.947 640.623 660.187 641.13 660.429 641.64M664.413 810.903C664.944 810.398 665.474 809.892 666.003 809.383C684.435 779.903 691.214 762.343 690.684 735.394M664.413 810.903C704.631 827.112 727.936 834.276 770.399 844.699M664.413 810.903C662.43 812.79 660.432 814.653 658.402 816.51M770.399 844.699C802.01 811.479 815.856 787.562 823.988 737.421M770.399 844.699C769.079 846.086 767.728 847.489 766.345 848.912C765.496 849.6 764.652 850.279 763.811 850.95M823.988 737.421C771.936 740.348 742.74 739.529 690.684 735.394M823.988 737.421C824.204 736.088 824.416 734.737 824.625 733.367C824.52 731.996 824.417 730.645 824.313 729.312M690.684 735.394C690.633 732.785 690.513 730.089 690.329 727.285M587.055 873.744C614.323 888.125 632.124 895.107 666.51 906.426M587.055 873.744C620.722 848.245 640.77 832.636 658.402 816.51M587.055 873.744L586.706 874.008M587.055 873.744C586.939 873.832 586.823 873.92 586.706 874.008M666.51 906.426C722.14 880.771 741.745 868.577 763.811 850.95M666.51 906.426C664.529 907.339 662.503 908.27 660.429 909.218C658.885 909.873 657.365 910.519 655.868 911.157M763.811 850.95C720.803 840.826 697.748 833.242 658.402 816.51M658.402 816.51L586.706 874.008M580.358 878.812C553.243 897.394 538.126 909.898 513.463 939.802M580.358 878.812C607.617 892.786 624.307 899.775 655.868 911.157M580.358 878.812C582.527 877.172 584.642 875.571 586.706 874.008M513.463 939.802C529.539 950.244 540.097 955.594 560.997 964.457M513.463 939.802C512.961 940.411 512.454 941.028 511.943 941.652C510.354 942.975 508.835 944.287 507.382 945.595M560.997 964.457C587.145 942.212 611.233 930.185 655.868 911.157M560.997 964.457C560.021 965.287 559.042 966.131 558.06 966.991C556.93 967.856 555.839 968.701 554.784 969.525M484.07 1092.93C469.122 1062.53 462.086 1045.25 468.36 1011.08C479.779 980.355 487.531 963.448 507.382 945.595M484.07 1092.93C480.74 1058.85 517.867 1007.82 524.97 998.411C524.97 998.411 527.807 990.612 554.784 969.525M484.07 1092.93C480.389 1055.26 526.133 996.891 526.133 996.891M554.784 969.525C533.731 960.266 523.485 954.992 507.382 945.595M616.639 555.994C616.042 554.992 615.436 553.979 614.819 552.954C593.124 515.473 584.918 506.408 571.743 494.674C595.343 505.628 640.158 502.783 640.158 502.783C640.158 502.783 662.223 502.649 665.578 502.753M616.639 555.994C655.236 555.014 675.99 553.376 710.082 546.872M710.082 546.872C694.659 534.469 668.939 507.06 665.578 502.753M665.578 502.753C664.998 502.009 665.084 501.954 666.003 502.783M665.578 502.753C665.851 502.761 666 502.771 666.003 502.783M660.429 641.64C661.596 643.721 662.717 645.745 663.795 647.721M663.795 647.721C716.945 641.95 745.584 636.982 794.177 624.409M663.795 647.721C679.373 676.268 685.921 694.672 690.329 727.285M794.177 624.409C794.362 624.747 794.545 625.085 794.725 625.423C818.304 666.374 821.247 689.773 824.313 729.312M824.313 729.312C772.854 732.744 743.517 732.291 690.329 727.285M970.07 557.008C987.145 536.731 994.928 513.914 1015.17 513.932C1028.08 525.123 1012.1 546.948 999.463 575.252C977.791 604.892 965.277 622.969 951.826 619.848C943.359 612.238 952.624 592.758 970.07 557.008Z" stroke="black" stroke-width="1.01355"/>
<path d="M443.49 774.115C443.481 774.115 443.473 774.115 444.305 774.115C445.138 774.115 446.813 774.115 448.027 774.055" stroke="#FCD1DA" stroke-width="2.02711" stroke-linecap="round"/>
<path d="M444.427 773.166C444.517 773.166 444.853 773.147 445.423 772.928C445.873 772.756 446.337 772.604 446.713 772.656C447.182 772.721 447.585 772.823 447.976 772.79C448.122 772.777 448.15 772.688 448.114 772.598C447.936 772.156 447.453 772.083 447.025 771.915C446.917 771.872 446.805 771.839 446.786 771.823C446.74 771.784 446.983 771.765 447.036 771.699C447.049 771.683 446.95 771.691 446.876 771.752C446.542 772.026 446.277 772.602 445.964 772.947C445.642 773.303 444.961 773.652 444.357 774.207C444.019 774.519 443.525 774.482 443.447 774.516C443.428 774.525 443.517 774.568 443.523 774.604C443.538 774.699 443.332 774.749 443.321 774.785C443.304 774.843 443.573 774.797 443.623 774.797C443.673 774.797 443.574 774.797 443.477 774.801C443.381 774.804 443.289 774.81 443.203 774.816" stroke="#FCD1DA" stroke-width="2.02711" stroke-linecap="round"/>
<path d="M447.37 772.478C447.366 772.475 447.363 772.472 447.339 772.433C447.315 772.393 447.269 772.317 447.214 772.257C447.158 772.196 447.093 772.153 447.006 772.108" stroke="#FCD1DA" stroke-width="2.02711" stroke-linecap="round"/>
<path d="M462.15 748.264C462.164 748.264 462.575 748.264 463.209 748.268C463.438 748.272 463.478 748.281 463.52 748.293C463.562 748.305 463.604 748.32 463.664 748.359" stroke="#FCD1DA" stroke-width="1.01355" stroke-linecap="round"/>
<path d="M464.904 748.359C464.834 748.345 464.63 748.274 464.442 748.213C464.123 748.109 463.766 748.054 463.282 747.937C463.178 747.911 463.139 747.877 463.101 747.843C463.063 747.808 463.029 747.765 463.062 747.741C463.284 747.579 463.493 747.736 463.706 747.775C463.956 747.82 464.252 747.869 464.426 747.886C464.523 747.896 464.615 747.869 464.682 747.82C464.715 747.796 464.726 747.756 464.713 747.73C464.644 747.588 464.387 747.646 464.227 747.615C464.05 747.579 463.876 747.555 463.659 747.534C463.609 747.527 463.571 747.518 463.441 747.487" stroke="#FCD1DA" stroke-width="1.01355" stroke-linecap="round"/>
<path d="M461.885 748.48C462.048 748.487 462.494 748.483 463.234 748.485C463.391 748.486 463.434 748.529 463.437 748.556C463.44 748.583 463.401 748.605 463.357 748.618C462.949 748.741 462.076 748.644 461.817 748.711C461.777 748.721 461.772 748.777 461.782 748.807C461.791 748.836 461.826 748.856 461.867 748.868C461.951 748.893 462.622 748.89 463.586 748.89C464.059 748.857 464.246 748.791 464.422 748.75C464.465 748.747 464.51 748.746 464.602 748.736" stroke="#FCD1DA" stroke-width="1.01355" stroke-linecap="round"/>
<path d="M470.896 734.716C470.926 734.718 471.002 734.722 471.041 734.733C471.052 734.736 471.064 734.741 471.073 734.745C471.083 734.749 471.089 734.753 471.07 734.759C470.951 734.798 470.905 734.787 470.872 734.792C470.864 734.793 470.858 734.799 470.857 734.805C470.855 734.817 470.883 734.827 470.905 734.838C470.911 734.841 470.903 734.848 470.896 734.851C470.882 734.857 470.859 734.864 470.835 734.877C470.826 734.882 470.825 734.891 470.825 734.899C470.826 734.906 470.828 734.913 470.833 734.919C470.859 734.954 470.938 734.937 470.968 734.943C471.003 734.95 471.042 734.951 471.073 734.957C471.104 734.963 471.137 734.968 471.168 734.974C471.202 734.98 471.234 734.986 471.266 734.991C471.3 734.996 471.33 734.998 471.361 735.003C471.393 735.008 471.43 735.012 471.465 735.017C471.498 735.021 471.528 735.029 471.581 735.031C471.618 735.033 471.655 735.037 471.685 735.043C471.714 735.048 471.744 735.062 471.822 735.067C471.881 735.071 471.942 735.072 471.95 735.07C471.976 735.063 471.918 735.017 471.881 734.983C471.852 734.957 471.814 734.957 471.616 734.948C471.556 734.945 471.457 734.929 471.324 734.91C471.208 734.894 471.083 734.888 471.034 734.881C470.989 734.874 470.937 734.778 470.905 734.737C470.883 734.709 470.903 734.666 470.91 734.653C470.929 734.617 471.01 734.632 471.043 734.629C471.065 734.627 471.024 734.589 471.024 734.577C471.024 734.566 471.049 734.568 471.06 734.565C471.064 734.564 471.059 734.556 471.06 734.552C471.07 734.529 471.115 734.553 471.147 734.56C471.179 734.566 471.212 734.572 471.243 734.579C471.283 734.587 471.316 734.598 471.345 734.604C471.376 734.61 471.411 734.62 471.461 734.635C471.494 734.646 471.526 734.653 471.559 734.66C471.591 734.666 471.624 734.673 471.655 734.678C471.687 734.682 471.717 734.689 471.745 734.7C471.752 734.702 471.759 734.703 471.769 734.704C471.779 734.704 471.792 734.704 471.805 734.704" stroke="#FCD1DA" stroke-width="0.202711" stroke-linecap="round"/>
<path d="M471.755 734.699C471.789 734.697 471.878 734.705 471.909 734.716C471.937 734.726 471.973 734.733 472.008 734.741C472.043 734.749 472.086 734.762 472.113 734.781C472.126 734.791 472.131 734.809 472.136 734.823C472.138 734.831 472.137 734.838 472.133 734.844C472.114 734.873 472.068 734.873 471.992 734.874C471.962 734.874 471.893 734.854 471.785 734.831C471.62 734.794 471.533 734.768 471.476 734.751C471.43 734.737 471.38 734.741 471.333 734.738C471.283 734.734 471.238 734.722 471.166 734.71C471.115 734.705 471.073 734.702 471.024 734.697C471.001 734.693 470.98 734.688 470.959 734.683" stroke="#FCD1DA" stroke-width="0.202711" stroke-linecap="round"/>
<path d="M442.63 775.507C442.69 775.507 442.886 775.481 443.129 775.409C443.346 775.345 443.522 775.314 443.804 775.295C444.354 775.258 444.461 775.262 444.506 775.264C444.541 775.265 444.418 775.308 444.398 775.339C444.39 775.351 444.425 775.365 444.428 775.381C444.352 775.454 444.251 775.499 444.223 775.511C444.222 775.517 444.248 775.522 444.258 775.516" stroke="#FCD1DA" stroke-width="0.202711" stroke-linecap="round"/>
<path d="M446.125 770.917C446.358 770.912 446.803 770.907 446.75 770.892C446.723 770.885 446.703 770.864 446.708 770.852C446.753 770.722 447.038 770.847 447.148 770.871C447.423 770.933 447.893 770.874 448.002 770.861C448.029 770.858 448.055 770.855 448.059 770.843C448.063 770.831 448.044 770.81 448.02 770.798C447.912 770.741 447.766 770.794 447.622 770.814C447.329 770.855 447.172 770.796 446.915 770.783C446.764 770.781 446.489 770.781 446.213 770.806C445.938 770.832 445.67 770.883 445.394 770.936" stroke="#FCD1DA" stroke-width="1.01355" stroke-linecap="round"/>
<path d="M443.002 775.514C443.002 775.514 442.984 775.514 442.954 775.519C442.94 775.522 442.932 775.534 442.933 775.542C442.934 775.55 442.945 775.556 442.957 775.558C443 775.566 443.049 775.541 443.114 775.52C443.147 775.509 443.272 775.487 443.473 775.455C443.717 775.416 443.782 775.418 443.913 775.415C443.973 775.413 444.127 775.401 444.158 775.401C444.204 775.401 444.053 775.414 444.02 775.421C444.027 775.423 444.053 775.424 444.078 775.425C444.102 775.426 444.126 775.427 444.15 775.428" stroke="#FCD1DA" stroke-width="0.506777" stroke-linecap="round"/>
<path d="M442.869 775.498C442.869 775.498 442.868 775.498 442.863 775.5C442.857 775.502 442.846 775.506 442.844 775.514C442.841 775.522 442.847 775.534 442.843 775.566" stroke="#FCD1DA" stroke-width="0.506777" stroke-linecap="round"/>
<path d="M482.499 708.383C482.499 708.383 482.463 708.383 482.44 708.389C482.427 708.393 482.51 708.41 482.536 708.42C482.556 708.428 482.456 708.445 482.361 708.458C482.346 708.46 482.413 708.483 482.441 708.492C482.47 708.501 482.462 708.503 482.423 708.505C482.385 708.507 482.316 708.509 482.293 708.514C482.281 708.517 482.377 708.542 482.469 708.555C482.504 708.56 482.518 708.561 482.465 708.562C482.412 708.563 482.293 708.565 482.333 708.567C482.373 708.57 482.576 708.574 482.771 708.578" stroke="#FCD1DA" stroke-width="0.202711" stroke-linecap="round"/>
<path d="M482.248 708.395C482.248 708.395 482.247 708.395 482.362 708.396C482.478 708.397 482.708 708.398 482.853 708.402C483.137 708.409 483.224 708.429 483.263 708.443C483.293 708.454 483.342 708.474 483.404 708.497C483.434 708.508 483.463 708.516 483.502 708.525" stroke="#FCD1DA" stroke-width="0.202711" stroke-linecap="round"/>
<path d="M483.422 708.553C483.419 708.554 483.271 708.555 483.003 708.547C482.881 708.543 482.789 708.525 482.721 708.518C482.61 708.506 482.487 708.529 482.351 708.558C482.262 708.577 482.218 708.574 482.203 708.587C482.171 708.614 482.176 708.671 482.161 708.698C482.158 708.702 482.17 708.706 482.18 708.707C482.218 708.708 482.253 708.696 482.278 708.698C482.315 708.701 482.183 708.714 482.191 708.716C482.207 708.717 482.249 708.717 482.274 708.718C482.3 708.719 482.309 708.722 482.319 708.725" stroke="#FCD1DA" stroke-width="0.202711" stroke-linecap="round"/>
<path d="M482.058 708.725C482.081 708.725 482.213 708.726 482.292 708.733C482.36 708.738 482.457 708.74 482.493 708.747C482.538 708.756 482.595 708.759 482.637 708.768C482.678 708.778 482.743 708.78 482.802 708.783C482.839 708.786 482.873 708.802 482.908 708.81C482.951 708.82 483.003 708.817 483.039 708.823C483.078 708.829 483.227 708.831 483.33 708.822C483.343 708.818 483.358 708.813 483.386 708.802" stroke="#FCD1DA" stroke-width="0.202711" stroke-linecap="round"/>
<path d="M483.436 708.783C483.383 708.782 483.253 708.775 483.141 708.734C483.042 708.698 482.889 708.649 482.82 708.629C482.79 708.62 482.737 708.604 482.84 708.616C482.943 708.628 483.203 708.669 483.342 708.691C483.491 708.717 483.515 708.724 483.539 708.732C483.55 708.735 483.558 708.739 483.568 708.744" stroke="#FCD1DA" stroke-width="0.202711" stroke-linecap="round"/>
<path d="M482.199 708.19C482.201 708.19 482.311 708.19 482.498 708.197C482.626 708.202 482.694 708.234 482.733 708.242C482.764 708.248 482.87 708.282 483.021 708.334C483.098 708.36 483.135 708.379 483.177 708.394C483.229 708.409 483.34 708.429 483.469 708.447C483.518 708.453 483.53 708.453 483.544 708.453" stroke="#FCD1DA" stroke-width="0.202711" stroke-linecap="round"/>
<path d="M482.206 708.012C482.282 708.012 482.49 708.023 482.566 708.04C482.61 708.049 482.661 708.068 482.713 708.084C482.76 708.098 482.808 708.112 482.852 708.128C482.926 708.156 482.981 708.175 483.076 708.216C483.222 708.293 483.328 708.346 483.378 708.368C483.399 708.377 483.408 708.38 483.417 708.383" stroke="#FCD1DA" stroke-width="0.202711" stroke-linecap="round"/>
<path d="M482.373 707.986C482.381 707.986 482.417 707.991 482.461 707.994C482.498 707.996 482.543 708.017 482.591 708.03C482.626 708.04 482.663 708.044 482.701 708.049C482.735 708.054 482.77 708.063 482.805 708.072C482.847 708.083 482.885 708.096 482.922 708.104C482.962 708.113 482.996 708.121 483.033 708.135C483.069 708.15 483.106 708.163 483.142 708.173C483.178 708.183 483.213 708.191 483.249 708.204C483.285 708.217 483.322 708.228 483.355 708.239C483.39 708.253 483.42 708.268 483.438 708.277C483.447 708.281 483.457 708.284 483.486 708.288" stroke="#FCD1DA" stroke-width="0.202711" stroke-linecap="round"/>
<path d="M488.866 684.908C488.865 684.908 489.067 684.908 489.247 684.91C489.271 684.91 488.967 684.915 488.777 684.927C488.471 684.96 488.34 684.99 488.328 685.003C488.329 685.008 488.345 685.011 488.394 685.014" stroke="#FCD1DA" stroke-width="0.202711" stroke-linecap="round"/>
<path d="M488.431 685.014C488.432 685.014 488.434 685.014 488.677 685.015C488.92 685.015 489.405 685.016 489.683 685.02C490.02 685.032 490.1 685.042 490.157 685.052C490.195 685.059 490.251 685.069 490.335 685.088" stroke="#FCD1DA" stroke-width="0.202711" stroke-linecap="round"/>
<path d="M489.905 685.209C489.904 685.209 489.902 685.209 489.698 685.2C489.494 685.192 489.087 685.175 488.668 685.157" stroke="#FCD1DA" stroke-width="0.202711" stroke-linecap="round"/>
<path d="M488.495 685.539C488.536 685.539 488.636 685.559 488.739 685.568C488.807 685.574 489.071 685.557 489.242 685.564C489.302 685.567 489.362 685.582 489.479 685.585C489.554 685.594 489.597 685.598 489.648 685.598C489.685 685.599 489.743 685.6 489.804 685.601" stroke="#FCD1DA" stroke-width="0.202711" stroke-linecap="round"/>
<path d="M488.943 682.93C488.971 682.93 489.053 682.935 489.11 682.948C489.168 682.961 489.228 682.987 489.287 683.003C489.301 683.007 489.315 683.01 489.317 683.006C489.334 682.963 489.239 682.959 489.222 682.949C489.182 682.927 489.327 682.985 489.367 682.995C489.425 683.009 489.257 682.949 489.201 682.938C489.187 682.936 489.173 682.933 489.156 682.928C489.138 682.923 489.117 682.914 489.091 682.905" stroke="#FCD1DA" stroke-width="0.202711" stroke-linecap="round"/>
<path d="M489.058 682.881C489.08 682.881 489.147 682.89 489.203 682.908C489.265 682.927 489.333 682.962 489.397 682.991C489.461 683.02 489.523 683.03 489.611 683.058C489.674 683.078 489.735 683.098 489.794 683.116C489.857 683.137 489.913 683.157 489.983 683.183C490.039 683.208 490.091 683.233 490.153 683.262C490.172 683.27 490.192 683.278 490.22 683.29" stroke="#FCD1DA" stroke-width="0.202711" stroke-linecap="round"/>
<path d="M490.185 684.629C490.182 684.629 490.179 684.629 489.963 684.629C489.747 684.629 489.318 684.629 489.142 684.63C488.967 684.631 489.058 684.632 489.413 684.708C489.768 684.783 490.384 684.931 490.563 685.007C490.743 685.083 490.468 685.081 490.194 685.062C489.919 685.043 489.654 685.006 489.52 684.996C489.387 684.985 489.393 685.003 489.409 685.023C489.424 685.043 489.448 685.066 489.364 685.077C488.875 685.144 488.783 685.07 488.72 685.056C488.702 685.052 488.763 685.132 488.81 685.182C488.831 685.204 488.726 685.235 488.668 685.262C488.502 685.339 489.139 685.291 489.31 685.283C489.452 685.278 489.706 685.27 489.792 685.231C489.878 685.192 489.788 685.121 489.696 685.048" stroke="#FCD1DA" stroke-width="0.506777" stroke-linecap="round"/>
<path d="M489.193 685.025C489.174 685.016 489.046 684.883 488.885 684.66C488.836 684.592 488.828 684.533 488.828 684.504C488.828 684.435 489.008 684.721 489.105 684.812C489.166 684.87 489.255 684.873 489.285 684.873C489.3 684.874 489.314 684.865 489.322 684.843C489.341 684.786 489.32 684.714 489.256 684.583C489.206 684.479 489.1 684.31 489.024 684.19C488.948 684.07 488.9 684.006 488.882 683.976C488.88 683.949 489.132 684.059 489.435 684.176C489.501 684.186 489.391 684.097 489.277 684.006" stroke="#FCD1DA" stroke-width="0.506777" stroke-linecap="round"/>
<path d="M488.918 683.751C488.915 683.745 488.93 683.739 488.965 683.736C488.983 683.734 489.002 683.737 489.184 683.822C489.366 683.906 489.711 684.073 489.906 684.165C490.101 684.257 490.137 684.27 490.15 684.27C490.163 684.27 489.97 684.105 489.683 683.876C489.415 683.663 489.257 683.646 489.16 683.634C489.131 683.63 489.099 683.632 489.081 683.642C488.953 683.706 489.065 684.002 489.112 684.12C489.141 684.194 489.194 684.235 489.242 684.272C489.308 684.323 489.543 684.361 489.841 684.374C489.889 684.376 489.896 684.354 489.909 684.314C489.98 684.097 489.95 683.945 489.896 683.853C489.875 683.819 489.815 683.775 489.71 683.705C489.422 683.51 489.149 683.463 489.08 683.433C489.065 683.427 489.056 683.415 489.05 683.397C489.037 683.357 489.051 683.316 489.07 683.292C489.109 683.243 489.256 683.255 489.381 683.278C489.589 683.315 489.884 683.507 489.952 683.534C489.989 683.547 490.024 683.558 490.055 683.571C490.07 683.578 490.085 683.586 490.113 683.602" stroke="#FCD1DA" stroke-width="0.506777" stroke-linecap="round"/>
<path d="M488.184 682.751C488.222 682.751 488.334 682.759 488.458 682.808C488.614 682.87 488.696 682.929 488.751 682.969C488.813 683.016 488.888 683.065 489.21 683.184C489.472 683.269 489.625 683.327 489.806 683.412C489.858 683.439 489.93 683.478 490.031 683.53" stroke="#FCD1DA" stroke-width="0.506777" stroke-linecap="round"/>
<path d="M455.126 762.245C455.142 762.226 455.158 762.207 455.135 762.187C455.112 762.168 455.051 762.149 454.971 762.148C454.891 762.147 454.794 762.166 454.202 762.441C453.61 762.716 452.524 763.248 451.999 763.515C451.474 763.782 451.542 763.77 451.671 763.693C452.002 763.495 452.753 762.771 453.593 761.939C453.866 761.669 453.819 761.697 453.137 762.431C452.454 763.164 451.135 764.598 450.629 765.26C450.123 765.922 450.469 765.769 450.881 765.598" stroke="#E54E6F" stroke-width="1.01355" stroke-linecap="round"/>
<path d="M447.229 768.855C447.231 768.855 447.233 768.855 447.414 768.855C447.595 768.855 447.954 768.855 448.297 768.852C448.639 768.85 448.955 768.844 449.279 768.839" stroke="#E54E6F" stroke-width="1.01355" stroke-linecap="round"/>
<path d="M459.278 751.589C459.488 751.589 460.122 751.547 460.456 751.498C460.76 751.455 460.939 751.392 461 751.356C461.063 751.32 460.909 751.198 460.889 751.091C460.879 751.038 460.905 750.984 460.941 750.961C461.351 750.96 461.936 750.96 462.063 750.944C462.136 750.937 462.227 750.932 462.343 750.942" stroke="#E54E6F" stroke-width="1.01355" stroke-linecap="round"/>
<path d="M465.381 757.533C465.367 757.539 465.353 757.544 463.77 757.573C462.188 757.601 459.037 757.652 457.052 757.742C455.066 757.832 454.34 757.959 453.95 758.045C453.559 758.131 453.524 758.17 453.488 758.676C453.38 760.148 453.423 761.166 453.535 761.19C453.666 761.218 453.799 761.152 453.921 761.064C454.072 760.956 454.327 760.666 454.935 759.796C455.384 759.154 456.023 758.042 456.342 757.522C456.661 757.003 456.617 757.094 456.137 757.816C455.658 758.538 454.743 759.888 454.154 760.717C453.358 761.835 452.931 762.228 452.576 762.611C452.373 762.852 452.12 763.188 451.977 763.389C451.834 763.589 451.809 763.644 451.774 763.769" stroke="#E54E6F" stroke-width="2.02711" stroke-linecap="round"/>
<path d="M451.149 765.067C451.124 765.127 450.298 765.986 449.759 766.477C449.558 766.66 449.33 766.863 449.221 767.061C449.164 767.157 449.093 767.241 448.993 767.339C448.932 767.401 448.851 767.487 448.746 767.589" stroke="#E54E6F" stroke-width="2.02711" stroke-linecap="round"/>
<path d="M458.123 758.166C458.123 758.161 458.123 758.001 458.097 757.734C458.061 757.37 457.611 757.216 457.495 757.012C457.44 756.913 457.464 756.79 457.493 756.679C457.62 756.187 458.46 755.719 458.739 755.27C459.081 754.72 459.415 754.24 459.663 753.953C459.975 753.592 460.28 753.349 460.603 752.944C460.675 752.854 460.687 752.799 460.666 752.763C460.615 752.676 460.462 752.689 460.345 752.712C459.849 753.102 459.127 753.821 458.992 754.015C458.922 754.119 458.852 754.237 458.768 754.415" stroke="#E54E6F" stroke-width="2.02711" stroke-linecap="round"/>
<path d="M465.232 743.395C465.24 743.439 465.351 743.604 465.493 743.749C465.56 743.817 465.587 743.885 465.594 743.925C465.612 744.037 465.388 744.16 465.088 744.325C464.842 744.46 464.74 744.643 464.664 744.694C464.567 744.759 464.485 744.904 464.378 744.987C464.34 745.017 464.294 745.012 464.271 745.03C464.262 745.037 464.279 745.059 464.305 745.068C464.422 745.113 464.51 745.097 464.59 745.112C464.725 745.136 464.917 745.141 465 745.156C465.088 745.172 465.182 745.189 465.275 745.196C465.359 745.21 465.452 745.232 465.6 745.26C465.637 745.268 465.669 745.278 465.701 745.289" stroke="#E54E6F" stroke-width="2.02711" stroke-linecap="round"/>
<path d="M466.475 743.754C466.473 743.636 466.557 743.341 466.703 742.936C466.763 742.768 466.826 742.686 467.163 742.288C467.5 741.89 468.115 741.181 468.592 740.573C469.069 739.965 469.388 739.48 469.582 739.182C469.775 738.883 469.832 738.788 469.921 738.672" stroke="#E54E6F" stroke-width="2.02711" stroke-linecap="round"/>
<path d="M469.914 738.218C469.914 738.159 469.927 737.995 469.979 737.855C470.049 737.669 470.063 737.526 470.022 737.494C469.922 737.414 469.84 737.446 469.803 737.427C469.725 737.386 469.733 737.261 469.726 737.133C469.723 737.086 469.697 737.047 469.689 737.014C469.672 736.946 469.821 736.945 469.898 736.924C469.972 736.903 470.087 736.953 470.221 736.945C470.479 736.929 470.564 736.956 470.646 736.971C470.724 736.986 470.803 737.006 470.88 737.029C470.917 737.04 470.971 737.046 471.033 737.055C471.059 737.061 471.075 737.074 471.104 737.122" stroke="#E54E6F" stroke-width="2.02711" stroke-linecap="round"/>
<path d="M475.48 727.814C475.457 727.821 475.371 727.894 475.119 728.232C474.908 728.515 474.552 729.043 474.224 729.56C473.895 730.076 473.61 730.569 473.453 730.838C473.296 731.106 473.276 731.134 473.183 731.243C472.743 731.754 472.668 731.807 472.537 731.905C472.423 731.99 472.225 732.072 472.043 732.125C471.923 732.159 471.816 732.196 471.756 732.244C471.726 732.268 471.733 732.356 471.742 732.446C471.751 732.529 471.838 732.551 471.865 732.577C471.981 732.689 472.275 732.612 472.357 732.63C472.438 732.648 472.514 732.675 472.593 732.693C472.679 732.712 472.758 732.769 472.837 732.806C472.858 732.813 472.878 732.818 472.903 732.822C472.929 732.825 472.96 732.826 473.026 732.835" stroke="#E54E6F" stroke-width="2.02711" stroke-linecap="round"/>
<path d="M474.573 728.291C474.57 728.291 474.568 728.204 474.597 727.983C474.615 727.847 474.687 727.67 474.902 727.275C475.118 726.88 475.487 726.273 475.841 725.745C476.195 725.216 476.524 724.783 476.786 724.341C477.048 723.898 477.233 723.459 477.335 723.221C477.437 722.983 477.451 722.961 477.468 722.945C477.485 722.929 477.503 722.92 477.523 722.911" stroke="#E54E6F" stroke-width="2.02711" stroke-linecap="round"/>
<path d="M477.669 721.779C477.669 721.737 477.701 721.526 477.959 720.881C478.172 720.352 478.605 719.436 478.919 718.799C479.233 718.162 479.43 717.838 479.525 717.685C479.62 717.532 479.606 717.561 479.105 718.395C478.604 719.23 477.615 720.87 477.038 721.891C476.46 722.912 476.324 723.265 476.178 723.653" stroke="#E54E6F" stroke-width="2.02711" stroke-linecap="round"/>
<path d="M479.474 716.519C479.475 716.52 479.485 716.503 479.628 716.316C479.758 716.146 480.019 715.832 480.186 715.613C480.431 715.292 480.498 715.15 480.572 715.009C480.635 714.887 480.755 714.665 480.865 714.428C480.975 714.191 481.072 713.947 481.184 713.706C481.297 713.466 481.421 713.236 481.498 713.083C481.607 712.865 481.635 712.738 481.651 712.586C481.699 712.154 481.585 712.015 481.488 711.88C481.416 711.78 481.306 711.721 481.221 711.645C481.143 711.576 481.133 711.481 481.137 711.354C481.141 711.178 481.233 711.039 481.268 710.955C481.3 710.879 481.427 710.881 481.492 710.826C481.643 710.698 481.983 710.82 482.066 710.837C482.161 710.855 482.243 710.859 482.428 710.863C482.527 710.875 482.608 710.888 482.703 710.9C482.731 710.906 482.762 710.916 482.795 710.926" stroke="#E54E6F" stroke-width="2.02711" stroke-linecap="round"/>
<path d="M486.1 700.254C486.096 700.261 485.953 700.477 485.7 700.881C485.581 701.07 485.504 701.24 485.424 701.448C485.344 701.655 485.268 701.896 485.226 702.031C485.183 702.166 485.176 702.188 485.097 702.395C485.017 702.603 484.864 702.996 484.762 703.234C484.627 703.551 484.496 703.687 484.376 703.803C484.296 703.881 484.12 703.988 483.882 704.14C483.613 704.312 483.537 704.5 483.485 704.631C483.41 704.819 483.469 705.095 483.464 705.149C483.454 705.256 483.285 705.244 483.153 705.278C482.985 705.321 482.883 705.446 482.753 705.631C482.726 705.669 482.74 705.69 482.753 705.706C482.817 705.769 482.887 705.812 482.968 705.819C482.988 705.821 483.008 705.824 483.084 705.833" stroke="#E54E6F" stroke-width="2.02711" stroke-linecap="round"/>
<path d="M482.725 704.227C482.725 704.418 482.732 704.864 482.749 704.973C482.784 705.196 482.874 705.41 482.929 705.51C482.972 705.588 483.042 705.661 483.112 705.718C483.201 705.791 483.295 705.984 483.329 706.078C483.331 706.083 483.309 706.073 483.309 706.064C483.309 706.055 483.327 706.046 483.346 706.042C483.434 706.025 483.546 706.075 483.722 706.123C483.817 706.15 483.91 706.185 483.969 706.218C484.028 706.251 483.832 706.134 483.771 706.119C483.773 706.12 483.797 706.125 483.827 706.128C483.856 706.13 483.891 706.131 483.926 706.131" stroke="#E54E6F" stroke-width="2.02711" stroke-linecap="round"/>
<path d="M484.577 704.833C484.579 704.831 484.56 704.872 484.526 704.945C484.502 704.996 484.338 705.318 484.094 705.793C483.981 705.999 483.924 706.071 483.864 706.132C483.836 706.157 483.815 706.168 483.765 706.184" stroke="#E54E6F" stroke-width="2.02711" stroke-linecap="round"/>
<path d="M485.301 702.535C485.301 702.533 485.301 702.532 485.302 702.362C485.304 702.193 485.308 701.855 485.404 701.237C485.501 700.618 485.69 699.727 485.879 699.063C486.068 698.398 486.251 697.986 486.517 697.493C486.783 696.999 487.126 696.436 487.523 695.82" stroke="#E54E6F" stroke-width="2.02711" stroke-linecap="round"/>
<path d="M486.173 696.683C486.173 696.678 486.176 696.579 486.217 696.283C486.246 696.083 486.33 695.786 486.482 695.346C486.634 694.905 486.862 694.33 487.103 693.796C487.343 693.261 487.589 692.785 487.729 692.496C487.869 692.207 487.897 692.12 487.937 691.967C487.977 691.813 488.03 691.596 488.085 691.422C488.141 691.248 488.198 691.124 488.253 690.943C488.412 690.263 488.45 690.166 488.543 690.094C488.586 690.076 488.65 690.053 488.717 690.03" stroke="#E54E6F" stroke-width="2.02711" stroke-linecap="round"/>
<path d="M488.42 690.346C488.42 690.346 488.419 690.346 488.421 690.157C488.424 689.969 488.43 689.592 488.434 689.372C488.44 689.028 488.4 688.922 488.352 688.839C488.205 688.581 488.306 688.016 488.265 687.943C488.246 687.91 488.181 687.918 488.128 687.908C488.087 687.901 488.089 687.802 488.099 687.718C488.108 687.644 488.245 687.676 488.423 687.661C489.025 687.665 489.136 687.678 489.254 687.693C489.304 687.696 489.384 687.698 489.466 687.7" stroke="#E54E6F" stroke-width="2.02711" stroke-linecap="round"/>
<ellipse cx="81" cy="74" rx="81" ry="74" transform="matrix(-1 0 0 1 704.345 213.341)" fill="#F5F5F5"/>
<ellipse cx="47.9734" cy="42.2043" rx="47.9734" ry="42.2043" transform="matrix(-1 0 0 1 698.562 251.71)" fill="#181617"/>
<ellipse cx="20.1902" cy="3.31033" rx="20.1902" ry="3.31033" transform="matrix(-0.822143 0.569281 0.610805 0.791781 645.475 258.787)" fill="white"/>
<ellipse cx="10.28" cy="12.9859" rx="10.28" ry="12.9859" transform="matrix(-1 0 0 1 686.987 290.081)" fill="white"/>
</svg>
