<svg width="6912" height="4468" viewBox="0 0 6912 4468" fill="none" xmlns="http://www.w3.org/2000/svg">
<g clip-path="url(#clip0_2003_6124)">
<rect width="6912" height="4468" fill="white"/>
<rect width="6912" height="4468" fill="url(#paint0_linear_2003_6124)" fill-opacity="0.98"/>
<path d="M2848.69 136.345L1483.89 4046.32C1743.46 4153.42 2309.17 4317.79 2495.41 4118.46L3089.67 136.345H2848.69Z" fill="url(#paint1_linear_2003_6124)" fill-opacity="0.78"/>
<path d="M1291.25 88L665 1709.41L1291.25 1878.24L1483.89 88H1291.25Z" fill="url(#paint2_linear_2003_6124)" fill-opacity="0.78"/>
<path d="M3719.64 320.798L3940.54 4118.46L4652.32 4046.32L3940.54 320.798H3719.64Z" fill="url(#paint3_linear_2003_6124)" fill-opacity="0.78"/>
<path d="M5239.15 253.86L6066.22 4436.79L6969.9 3677.41L5527.74 253.86H5239.15Z" fill="url(#paint4_linear_2003_6124)" fill-opacity="0.78"/>
<path d="M28.2964 2746.65C1740.22 2848.82 5648.53 3029.95 7586.36 2937.05C9524.19 2844.16 7737.94 4031.08 6602.58 4636.15L-102 4415.01L28.2964 2746.65Z" fill="#299CB9" stroke="#6EC9DD" stroke-width="1.75254"/>
<path d="M-36.287 89.4069C128.052 128.117 458.649 214.527 466.322 250.489C475.914 295.442 513.322 662.56 578.546 774.943C684.375 792.737 896.609 836.379 898.911 868.596C901.213 900.812 1007.3 1003.77 1060.05 1051.22C1072.52 1184.52 1112.34 1451.7 1134.87 1484.83C1296.01 1721.77 1979.9 1560.69 2392.35 2036.44C2398.43 2139.46 2406.93 2360.11 2392.35 2418.54C2439.99 2461.31 2537.76 2558.27 2547.74 2603.98C2560.21 2661.1 2631.19 3846.74 2615.84 4044.35L-231 3975.99L-36.287 89.4069Z" fill="#243040" stroke="#243040" stroke-width="1.9223"/>
<path d="M12.4531 1060.44C118.82 1191.79 455.734 1390.69 952.456 1135.41C958.223 1057.55 894.402 902.808 592.986 906.652C505.522 919.468 310.601 956.632 230.634 1002.77C150.666 1048.9 51.8602 1060.44 12.4531 1060.44Z" fill="#33455C"/>
<path d="M134.519 1984.1L730.431 1924.51L1066.83 1667.88C1376.64 1738.37 2048.55 1920.28 2257.69 2084.06C2466.84 2247.84 1993.06 2260.59 1730.02 2246.49L838.079 2012.93C644.248 2023.19 232.172 2031.77 134.519 1984.1Z" fill="#33455C"/>
<path d="M334.438 2185.94H701.596L855.38 2135L1479.16 2359.91L2172.15 2388.74C2272.75 2434.24 2333.24 2529.84 1770.39 2548.29C1640.32 2572 1373.82 2616.53 1348.45 2605C1323.07 2593.47 1009.16 2412.45 855.38 2323.38C691.344 2311.53 357.505 2267.45 334.438 2185.94Z" fill="#33455C"/>
<path d="M12.4531 1060.44C118.82 1191.79 455.734 1390.69 952.456 1135.41C958.223 1057.55 894.402 902.808 592.986 906.652C505.522 919.468 310.601 956.632 230.634 1002.77C150.666 1048.9 51.8602 1060.44 12.4531 1060.44Z" stroke="#33455C" stroke-width="1.9223"/>
<path d="M134.519 1984.1L730.431 1924.51L1066.83 1667.88C1376.64 1738.37 2048.55 1920.28 2257.69 2084.06C2466.84 2247.84 1993.06 2260.59 1730.02 2246.49L838.079 2012.93C644.248 2023.19 232.172 2031.77 134.519 1984.1Z" stroke="#33455C" stroke-width="1.9223"/>
<path d="M334.438 2185.94H701.596L855.38 2135L1479.16 2359.91L2172.15 2388.74C2272.75 2434.24 2333.24 2529.84 1770.39 2548.29C1640.32 2572 1373.82 2616.53 1348.45 2605C1323.07 2593.47 1009.16 2412.45 855.38 2323.38C691.344 2311.53 357.505 2267.45 334.438 2185.94Z" stroke="#33455C" stroke-width="1.9223"/>
<path d="M1453.54 142.134C1451.98 142.134 1450.42 142.134 1448.44 141.744C1446.46 141.353 1444.12 140.571 1446.04 139.387C1447.95 138.203 1454.21 136.64 1458.99 135.835C1463.77 135.03 1466.9 135.03 1470.12 135.03" stroke="#22EDEE" stroke-width="33.3196" stroke-linecap="round"/>
<path d="M4832.77 270.01C4825.74 270.01 4818.7 270.01 4836.57 269.228C4854.44 268.447 4897.42 266.884 4957.07 259.827C5016.72 252.77 5091.74 240.267 5141.72 233.826C5214.05 224.504 5244.74 225.822 5258.91 223.454C5266 222.269 5273.09 222.648 5316.95 235.933C5360.82 249.218 5441.31 275.788 5494.5 291.038C5570.25 312.758 5621.85 312.635 5605.46 311.463C5562.58 308.398 5449.18 307.946 5369.31 304.394C5289.45 300.842 5246.47 296.153 5187.6 292.956C5128.73 289.759 5055.27 288.196 5010.79 285.828C4966.3 283.46 4953.02 280.334 4948.52 278.333C4944.02 276.332 4948.71 275.551 4998.01 275.148C5047.32 274.746 5141.09 274.746 5192.92 274.355C5244.74 273.964 5251.77 273.183 5269.07 272.78C5313.71 271.741 5338.78 272.378 5331.7 271.987C5322.99 271.506 5314.31 270.01 5311.13 270.4C5310.31 270.5 5317.32 271.573 5323.66 271.975C5329.99 272.378 5337.02 272.378 5321.5 267.689C5305.98 263 5267.69 253.623 5269.45 252.308C5271.22 250.994 5314.2 258.027 5388.3 265.167C5462.41 272.307 5566.35 279.34 5623.01 283.744C5686.03 288.642 5694.72 291.322 5693.58 292.494C5670.46 316.338 5627.77 299.989 5587.93 300.404C5579.54 300.013 5575.63 299.232 5570.49 298.829C5565.35 298.426 5559.1 298.426 5552.66 298.426" stroke="#22EDEE" stroke-width="48.3135" stroke-linecap="round"/>
<path d="M4558.07 492.608C4554.95 492.608 4529.11 493.389 4517.02 493.401C4504.86 493.413 4578.39 490.287 4610.01 487.907C4654.12 483.183 4687.32 478.423 4722.41 474.871C4737.17 473.663 4745.77 473.663 4754.62 473.663" stroke="#22EDEE" stroke-width="48.3135" stroke-linecap="round"/>
<path d="M2043.19 168.183C2027.44 157.147 2013.26 147.722 1995.12 137.824C1963.1 120.351 1911.52 110.591 1889.75 104.268C1882.42 102.139 1870.56 101.119 1808.25 100.314C1745.95 99.5087 1633.42 99.5087 1569.59 100.29C1494 101.215 1478.05 104.245 1457.67 107.371C1378.71 119.483 1366.78 124.752 1354.92 130.27C1345.92 134.459 1336.75 137.374 1331.23 142.098C1328.67 144.293 1327.28 146.823 1327.25 149.593C1327.23 152.364 1328.79 155.49 1335.07 157.881C1351.57 164.172 1365.9 163.446 1389.77 167.354C1411.36 170.888 1451.93 179.076 1487.32 183.101C1551.34 190.383 1587.67 187.908 1601.83 189.093C1609.72 189.752 1619.12 189.495 1641.92 191.449C1664.72 193.402 1700.67 197.31 1764.91 199.323C1829.14 201.335 1920.57 201.335 1970.02 200.554C2024.19 199.698 2032.11 195.036 2037.23 191.105C2039.69 189.219 2040.02 185.611 2039.64 182.438C2039.26 179.265 2037.69 176.139 2034.55 173.747C2031.4 171.356 2026.71 169.793 1999.28 162.736C1971.86 155.679 1921.85 143.176 1891.4 134.781C1860.94 126.386 1851.57 122.479 1844 120.075C1836.43 117.672 1830.96 116.89 1770.71 117.269C1710.45 117.648 1595.58 119.211 1525.07 121.97C1454.56 124.729 1431.9 128.636 1419.05 131.039C1398.3 134.922 1387.28 136.593 1366.37 139.351C1364.04 139.658 1371.32 145.212 1391.73 151.132C1412.15 157.053 1446.53 164.867 1508.79 168.502C1571.04 172.137 1660.13 171.356 1720.48 168.999C1780.83 166.643 1809.75 162.736 1843 160.723C1876.26 158.71 1912.99 158.71 1944.03 160.664C1975.06 162.618 1999.28 166.525 1987.93 168.538C1976.58 170.551 1928.91 170.551 1896.53 171.723C1848.44 173.464 1823.05 177.655 1799.08 176.092C1784.43 175.137 1764.94 171.403 1752.14 169.011C1739.34 166.62 1733.87 165.057 1767.39 164.252C1800.91 163.446 1873.59 163.446 1882.89 158.758C1892.2 154.069 1835.94 144.691 1788.98 139.86C1742.02 135.03 1706.07 135.03 1714.51 136.983C1722.96 138.937 1776.88 142.844 1753.47 145.248C1730.06 147.651 1627.69 148.433 1577.3 148.054C1526.9 147.675 1531.59 146.112 1565.66 146.479C1599.72 146.846 1663.02 149.191 1640.54 148.835C1618.05 148.48 1507.86 145.354 1484.7 145.698C1461.55 146.041 1528.75 149.948 1565.72 152.352C1602.68 154.756 1607.37 155.537 1670.35 158.284C1733.33 161.031 1854.45 165.72 1918.42 168.917C1985.59 172.274 1993.41 176.068 2001.69 178.034C2005.36 178.907 2007.62 180.781 1943.58 171.427C1879.53 162.073 1749.03 141.755 1663.43 131.288C1577.84 120.821 1541.11 120.821 1519.85 121.603C1493.8 122.56 1486.72 125.557 1473.01 127.902C1461.57 129.858 1441.32 134.935 1512.13 137.35C1582.93 139.766 1745.48 139.766 1831.95 140.156C1918.42 140.547 1923.89 141.329 1932.17 143.294C1967 151.554 1980.77 157.905 2011.1 168.928C2026.33 174.463 2036.04 175.287 2045.52 178.034C2048.07 178.773 2050.25 180.781 2050.28 181.976C2050.52 189.889 2036.11 187.908 2034.12 189.483C2031.12 191.855 2048.64 191.863 2060.87 190.691C2065.41 190.255 2066.06 187.174 2066.47 184.794C2066.87 182.415 2066.87 180.07 2066.09 177.69C2065.31 175.31 2063.74 172.966 2061.38 171.368C2056.41 168.018 2048.75 168.183 2045.18 169.745C2038.88 172.497 2060.5 179.999 2068.79 184.723C2071.99 186.55 2071.61 189.448 2070.43 191.437C2062.98 204.088 2034.57 199.725 2023.89 201.726C2017.98 202.833 2006.96 203.703 1970.11 202.531C1941.08 201.359 1891.06 199.015 1848.5 195.072C1805.93 191.129 1772.33 185.659 1732.97 180.023" stroke="#22EDEE" stroke-width="33.3196" stroke-linecap="round"/>
<path d="M2185.27 111.349C2186.84 111.349 2188.4 111.349 2211.87 111.349C2235.33 111.349 2280.66 111.349 2350.11 112.522C2419.57 113.694 2511.78 116.038 2569.83 114.511C2627.89 112.983 2648.99 107.513 2662.59 104.304C2695 96.6601 2723.49 86.1532 2762.13 72.7262C2795.36 61.183 2811.13 60.8149 2843.71 69.0439C2866.4 74.7724 2900.52 87.4319 2929.18 95.8149C2957.83 104.198 2979.71 108.887 3042.95 113.256C3106.19 117.625 3210.12 121.532 3271.48 125.499C3332.84 129.465 3348.47 133.372 3361.6 137.73C3398.86 150.096 3411.83 162.594 3422.56 174.849C3424.56 177.131 3423.77 179.976 3422.6 182.356C3420 187.639 3404.16 193.403 3379.36 200.495C3367.14 203.988 3355.33 206.025 3274.66 206.841C3194 207.658 3044.74 206.877 2942.06 201.395C2839.38 195.913 2787.8 185.754 2748.73 180.52C2709.66 175.287 2684.65 175.287 2664.73 174.506C2644.82 173.724 2630.75 172.161 2579.74 165.104C2528.74 158.048 2441.21 145.544 2392.61 139.103C2325.24 130.175 2304.58 130.294 2275.39 123.616C2231.23 113.512 2197.21 116.891 2179.03 112.154C2166.85 108.98 2156.88 110.568 2151.76 109.384C2149.04 108.752 2145.87 108.981 2235.3 110.544C2324.73 112.107 2506.81 115.233 2604.51 115.671C2702.22 116.109 2710.04 113.765 2717.58 112.166C2750.97 105.09 2782.74 96.3832 2798.54 92.8074C2806.23 91.0678 2833.1 97.0936 2890.1 110.449C2924.58 118.529 2969.76 131.62 3036.09 140.796C3102.42 149.972 3188.38 155.443 3243.22 160.214C3298.05 164.986 3319.15 168.893 3335.88 172.86C3352.61 176.826 3364.33 180.734 3283.24 178.058C3202.14 175.382 3027.88 166.004 2920.52 158.048C2813.16 150.091 2778 143.839 2732.92 140.619C2687.85 137.398 2633.93 137.398 2643.66 136.226C2653.39 135.054 2728.41 132.709 2781.91 129.157C2835.4 125.605 2865.1 120.916 2883.52 118.501C2901.94 116.085 2908.2 116.085 2916.5 118.039C2924.8 119.993 2934.95 123.9 2906.59 123.959C2878.22 124.018 2811.01 120.111 2769.75 120.052C2728.48 119.993 2715.2 123.9 2679.83 125.913C2644.46 127.926 2587.42 127.926 2559.59 127.926C2531.77 127.926 2534.89 127.926 2633.01 130.27C2731.14 132.615 2924.16 137.303 3038.44 142.063C3152.72 146.823 3182.42 151.512 3219.2 154.318C3255.99 157.124 3298.97 157.905 3326.58 160.262C3354.2 162.618 3365.14 166.525 3373.12 168.929C3381.1 171.332 3385.79 172.114 3390.62 172.919" stroke="#22EDEE" stroke-width="48.3135" stroke-linecap="round"/>
<path d="M1766.13 376.572C1777.11 377.354 1801.53 382.848 1861.88 394.238C1910.23 403.363 1995.69 412.662 2131.39 417.516C2267.09 422.371 2450.73 420.808 2584.8 427.817C2718.87 434.827 2797.8 450.456 2846.66 461.633C2912.52 476.698 2934.32 488.629 2943 494.537C2946.51 496.927 2946.99 499.664 2945.43 502.044C2941.49 508.092 2917.19 511.528 2871.2 515.08C2844 517.18 2808.79 516.288 2777.78 518.632C2746.77 520.977 2720.98 525.666 2681.51 528.472C2642.05 531.278 2589.69 532.059 2542.01 526.992C2494.33 521.924 2452.91 510.984 2422.59 501.44C2392.27 491.897 2374.29 484.082 2356.44 477.322C2321.72 464.177 2295.08 457.892 2260.96 455.524C2235.48 453.755 2193.23 454.718 2166.41 453.937C2139.59 453.156 2129.44 451.593 2100.76 444.927C2072.08 438.26 2025.19 426.539 1997.52 420.109C1948.91 408.813 1926.44 404.231 1909.45 402.23C1905.87 401.808 1903.52 401.058 1975.77 406.126C2048.02 411.193 2194.94 422.134 2278.82 429.333C2362.71 436.532 2379.12 439.658 2438.37 444.784C2497.62 449.911 2599.21 456.944 2662.1 462.912C2724.98 468.879 2746.08 473.568 2769.06 479.891C2816.57 492.963 2845.13 502.08 2847.54 502.47C2849.07 502.72 2839 503.643 2765.05 502.092C2691.09 500.54 2550.43 496.633 2476.01 493.448C2401.6 490.263 2397.69 487.919 2395.29 485.539C2392.88 483.159 2392.1 480.815 2396.39 478.825C2409.19 472.882 2439.25 473.663 2482.92 476.398C2535.72 479.705 2572.76 491.021 2584.61 492.205C2587.88 492.531 2585.52 492.607 2550.32 486.747C2515.12 480.886 2447.13 469.164 2410.94 463.125C2374.74 457.087 2372.4 457.087 2369.98 454.718" stroke="#22EDEE" stroke-width="48.3135" stroke-linecap="round"/>
<path d="M1176.48 331.579C1182.73 331.579 1197.67 330.016 1243.57 325.694C1277.7 322.48 1334 319.028 1370.41 315.453C1421.86 310.4 1454.94 305.53 1487.64 306.312C1513.41 306.928 1529.27 311.829 1539.89 314.979C1582.43 327.592 1624.02 360.777 1628.35 363.915C1630.85 365.723 1631.9 370.178 1631.15 374.145C1630.39 378.112 1627.26 382.019 1606.51 384.032C1585.75 386.045 1547.46 386.045 1499.6 387.217C1451.74 388.389 1395.48 390.733 1362.58 391.16C1321.87 391.687 1306.01 385.287 1282.06 377.034C1215.08 353.958 1204.94 348.984 1195.1 342.283C1190.26 338.984 1184.48 337.925 1199.64 337.12C1214.79 336.315 1250.74 336.315 1272.78 335.924C1294.81 335.534 1301.84 334.752 1342.98 335.131C1384.11 335.51 1459.13 337.073 1498.56 339.441C1539.84 341.921 1544.29 349.718 1553.71 352.868C1559.87 354.927 1569.39 356.017 1528.5 356.823C1487.62 357.628 1396.19 357.628 1347.52 357.237C1298.86 356.846 1295.73 356.065 1292.51 355.26" stroke="#22EDEE" stroke-width="48.3135" stroke-linecap="round"/>
<path d="M499.215 35.5714C500.778 35.5714 502.341 35.5714 620.365 35.1806C738.389 34.7899 972.827 34.0085 1104.54 35.9503C1236.25 37.8921 1258.13 42.5808 1269.4 46.5592C1280.68 50.5375 1280.68 53.6634 1279.89 56.4459C1276.18 69.6646 1245.32 78.9306 1176.3 88.391C1124.03 95.5557 1035.39 94.7256 981.305 95.1518C927.219 95.5781 910.026 94.0152 897.263 92.4286C876.603 89.8606 842.844 86.1058 797.52 82.5656C765.288 80.048 740.094 75.047 714.898 72.6908C665.686 68.0887 632.726 64.7933 605.92 62.4252C553.191 57.7672 534.878 49.022 518.597 46.6302C513.02 45.8108 506.366 42.6756 502.779 40.7219C493.974 35.9271 526.755 29.2723 617.144 30.4208C698.976 31.4606 853.667 40.1654 947.051 45.3515C1040.44 50.5375 1067.79 53.6634 1096.33 55.6644C1153.72 59.687 1188.27 60.8149 1192.25 63.9645C1191.54 65.5511 1185.29 67.114 1117.6 67.9191C1049.91 68.7243 920.967 68.7243 788.119 68.7243" stroke="#22EDEE" stroke-width="48.3135" stroke-linecap="round"/>
<path d="M3989.74 90.0365C3985.05 90.0365 3980.36 90.0365 3930.27 89.2551C3880.19 88.4736 3784.85 86.9107 3727.92 87.2777C3655.32 87.7459 3632.23 92.4046 3618.45 93.1861C3592.36 94.6651 3559.74 99.5088 3541.82 102.256C3538.84 102.712 3535.92 105.003 3533.92 106.98C3531.92 108.957 3531.14 111.302 3531.91 113.291C3533.61 117.696 3542.13 120.798 3552.75 125.522C3565.35 131.13 3588.59 135.788 3662.28 141.305C3720.23 145.644 3820.37 145.26 3884.01 143.33C3947.66 141.4 3971.88 135.93 3985.53 132.33C3999.18 128.731 4001.53 127.168 4003.52 125.19C4007.49 121.247 4008.68 113.765 4007.9 105.097C4007.54 101.059 4005.56 97.9932 4003.58 95.9922C3993.58 85.8704 3945.83 101.782 3908.93 111.325C3888.13 116.703 3866.67 116.867 3820.85 118.051C3782.06 118.453 3711.73 118.453 3673.93 118.063C3636.14 117.672 3633.01 116.89 3629.79 116.085" stroke="#22EDEE" stroke-width="48.3135" stroke-linecap="round"/>
<path d="M3224.85 490.239C3223.29 493.365 3210.76 494.976 3194.96 496.538C3190.6 496.969 3194.78 501.227 3201.48 504.01C3217.07 510.481 3232.69 512.333 3273.02 514.69C3307.85 516.725 3371.96 518.609 3408.48 520.598C3452.12 522.975 3480.39 525.76 3513.92 524.979C3535.56 524.475 3549.18 517.093 3587.27 511.966C3614.07 508.36 3665.08 509.989 3696.71 508.414C3728.35 506.84 3739.29 504.495 3786.34 501.334C3833.4 498.172 3916.23 494.265 3968.67 490.299C4021.11 486.332 4040.65 482.425 4055.79 478.068C4070.94 473.71 4081.1 469.022 4087.89 466.215C4094.69 463.409 4097.82 462.628 4061.92 469.258C4026.02 475.889 3951 489.955 3906.88 497.202C3862.76 504.448 3851.82 504.448 3839.93 505.229C3828.05 506.011 3815.54 507.574 3764.56 507.988C3713.57 508.402 3624.49 507.621 3576.25 505.656C3514.62 503.144 3493.39 487.919 3476.32 485.113C3465.81 483.385 3455.38 483.135 3433.83 480.4C3416.12 478.152 3384.93 472.195 3352.03 468.986C3285.72 462.52 3245.43 464.972 3234.02 467.328C3221.47 469.918 3213.04 476.789 3209.48 482.697C3207.92 485.297 3208.28 487.824 3213.36 490.204C3227.8 496.973 3260.94 498.125 3295.27 498.528C3320.8 498.827 3340.84 488.677 3351.11 488.262C3354.27 488.653 3358.17 489.434 3361.75 489.837C3365.33 490.239 3368.45 490.239 3371.67 490.239" stroke="#22EDEE" stroke-width="48.3135" stroke-linecap="round"/>
<path d="M3864.23 409.725C3861.11 409.725 3829.02 408.944 3774.64 405.806C3710.02 402.078 3685.96 388.413 3666.56 384.482C3655.96 382.336 3644.85 378.183 3630.63 374.216C3625.1 372.672 3620.35 370.274 3616.01 366.733C3613.84 364.959 3612.46 362.412 3612.44 360.032C3612.41 357.652 3613.98 355.307 3619.47 352.927C3624.96 350.548 3634.34 348.203 3660.27 345.433C3686.2 342.662 3728.4 339.536 3797.42 328.939C3866.43 318.342 3960.99 300.368 4075.74 291.5C4190.48 282.632 4322.55 283.413 4394.49 283.425C4466.43 283.437 4474.24 282.655 4482.18 281.08C4490.11 279.506 4497.93 277.161 4529.3 274.391C4560.68 271.62 4615.38 268.494 4663.88 266.884C4712.38 265.274 4753.01 265.274 4779.42 264.101C4805.82 262.929 4816.76 260.585 4854.83 249.609C4892.89 238.633 4957.76 219.096 5038.84 208.641C5119.92 198.186 5215.26 197.405 5266.72 197.784C5318.18 198.163 5322.86 199.726 5337.78 206.001C5377.86 222.859 5409.72 236.052 5430.92 241.936C5445.91 246.098 5469.31 253.291 5524.36 261.603C5579.42 269.915 5665.38 279.293 5713.18 285.686C5781.62 294.841 5796.52 305.507 5802.07 311.403C5804.57 314.065 5799.79 319.644 5786.07 324.013C5772.35 328.382 5748.12 332.29 5627.41 335.084C5506.7 337.878 5290.23 339.441 5147.46 333.213C5004.69 326.985 4942.17 312.919 4839.25 307.626C4736.32 302.334 4594.87 306.241 4488.8 315.678C4382.72 325.115 4316.3 339.962 4236.75 349.956C4157.21 359.949 4066.56 364.638 4017.52 367.444C3963.75 370.52 3947.23 378.088 3915.41 387.56C3895.89 393.368 3867.17 390.781 3833.92 386.874C3800.67 382.966 3763.16 375.152 3763.77 369.954C3768.52 329.073 3855.45 357.652 3875.92 353.709C3896.16 349.811 3918.58 348.179 3942.2 344.627C3954.03 342.849 3965.82 343.42 3994.91 337.949C4024.01 332.479 4070.11 321.539 4096.99 315.512C4129.99 308.112 4140.47 307.899 4144.43 307.899C4161.36 307.899 4104.26 324.428 4094.34 330.774C4072.2 344.933 4148.35 307.141 4152.73 300.806C4154.07 298.879 4150.01 309.438 4142.54 317.703C4138.41 322.267 4132.72 326.749 4093.96 336.197C4055.19 345.646 3983.3 359.712 3933.76 367.349C3884.22 374.986 3859.21 375.767 3837.73 374.607C3773.19 371.12 3746.73 365.537 3720.67 363.951C3708.63 363.218 3744.62 376.407 3816.36 400.881C3862.59 416.651 3891.77 405.794 3921.99 397.175C3979.04 380.901 4021.23 363.169 4034.25 360.411C4039.44 359.215 4041.79 358.433 4044.56 357.249C4047.33 356.065 4050.46 354.502 4058.41 350.524" stroke="#22EDEE" stroke-width="48.3135" stroke-linecap="round"/>
<path d="M4439.67 504.448C4427.93 504.448 4401.07 502.885 4388.4 498.551C4385.47 497.549 4384.45 493.46 4386.38 490.677C4391.51 483.28 4413.48 478.446 4437.14 469.779C4452.11 464.293 4468.75 453.984 4505.67 443.352C4529.65 436.445 4566.03 433.5 4590.41 431.085C4626.42 427.518 4647.18 430.233 4667.63 435.336C4679.63 438.331 4694.33 444.346 4711.75 449.509C4729.17 454.671 4748.7 459.36 4827.54 460.212C4906.37 461.065 5043.91 457.939 5117.49 455.938C5196.57 453.788 5210.78 449.224 5221.07 444.098C5223.42 442.929 5217.3 441.315 5148.44 447.555C5079.59 453.795 4947.53 467.08 4875.19 475.486C4802.86 483.893 4794.27 487.019 4787.49 489.801C4780.72 492.584 4776.03 494.928 4751.73 501.606C4727.44 508.284 4683.68 519.224 4658.01 525.251C4632.34 531.278 4626.09 532.059 4603.33 532.462C4541.51 533.555 4497.33 532.083 4489.46 530.117C4466.86 524.476 4438.96 514.725 4427.48 509.207C4424.6 507.825 4421.58 506.058 4418.41 504.471C4415.23 502.885 4412.11 501.322 4415.97 498.954C4419.83 496.586 4430.77 493.46 4460.24 487.942C4489.71 482.425 4537.38 474.61 4577.95 469.803C4618.53 464.996 4650.57 463.433 4669.42 463.409C4693.01 463.379 4700.13 468.122 4704.47 471.662C4706.64 473.436 4708.02 475.984 4706.87 478.363C4703.86 484.595 4687.63 487.848 4643.72 492.181C4609.96 494.17 4552.91 495.733 4543.84 496.538C4534.77 497.343 4575.41 497.343 4617.28 497.343" stroke="#22EDEE" stroke-width="48.3135" stroke-linecap="round"/>
<path d="M5178.51 445.246C5198.14 443.683 5242.21 440.51 5273.93 438.544C5279.51 438.199 5283.41 438.142 5279.56 441.268C5265.46 452.728 5240.98 458.649 5207.99 461.017C5185.98 462.597 5153.12 461.822 5140.9 463.776C5134.47 464.804 5170.38 474.444 5207.46 474.847C5249.02 475.298 5288.15 459.502 5300.43 448.052C5302.93 445.715 5303.21 442.925 5301.27 440.545C5289.45 426.062 5265.41 431.038 5241.36 433.785C5230.7 436.532 5211.02 439.705 5185.79 442.073C5175.4 442.878 5169.93 442.878 5164.3 442.878" stroke="#22EDEE" stroke-width="48.3135" stroke-linecap="round"/>
<path d="M6052.32 120.821C6051.54 120.821 6050.76 120.821 6010.89 130.59C5971.02 140.358 5892.1 159.894 5775.63 171.522C5659.17 183.149 5507.57 186.275 5425.95 188.666C5344.34 191.058 5337.31 192.621 5325.48 193.426C5313.65 194.231 5297.24 194.231 5285.27 194.622C5273.3 195.013 5266.26 195.794 5254.28 196.599" stroke="#22EDEE" stroke-width="48.3135" stroke-linecap="round"/>
<path d="M1922.52 508.926C1927.4 508.926 1940.42 507.307 1959.23 506.069C1982.96 504.507 2005.85 505.64 2023.4 509.318C2034.52 511.649 2043.47 515.449 2062.94 520.33C2107.65 531.534 2143.19 534.259 2151.76 535.89C2184.19 542.061 2237.21 539.164 2239.69 541.199C2250.95 550.451 2214.4 542.475 2200.93 539.998C2190.65 538.108 2173.59 535.902 2147.53 534.688C2114.82 533.165 2073.98 523.689 2029.12 515.523C1951.62 501.411 1918.47 516.283 1913.96 516.688C1913.49 517.092 1916.73 517.902 1922.45 518.319C1928.16 518.736 1936.25 518.736 1944.59 518.736" stroke="#18B6C9" stroke-width="19.9918" stroke-linecap="round"/>
<path d="M2388.47 607.021C2401.42 607.021 2434.8 613.496 2478.9 623.71C2515.37 632.155 2550.89 633.139 2592.95 639.27C2609.87 641.737 2618.02 641.355 2668.32 642.974C2718.61 644.592 2810.87 647.829 2870.13 646.664C2953.13 645.033 2981.09 632.379 2989.25 629.927C3003.46 625.652 3028.35 626.641 3061.53 629.89C3080.21 631.719 3108.47 638.069 3150.03 644.163C3173.15 647.555 3199.67 655.922 3223.14 661.293C3246.61 666.664 3266.04 669.901 3311.65 670.759C3357.27 671.617 3428.48 669.999 3468 668.76C3538.03 666.566 3581.9 650.355 3586.45 648.724C3619.08 637.03 3515.89 651.949 3488.49 654.426C3466.11 656.45 3437.43 658.522 3410.9 658.926C3399.73 659.097 3393.27 660.14 3365.25 660.557C3337.23 660.974 3287.86 660.974 3261.22 660.569C3223.98 656.903 3210.05 653.617 3205.16 653.212C3202.69 652.808 3200.26 651.998 3197.76 651.165" stroke="#18B6C9" stroke-width="19.9918" stroke-linecap="round"/>
<path d="M2314.9 339.711C2315.71 339.711 2316.52 339.711 2348.9 340.52C2381.29 341.329 2445.22 342.948 2503.25 349.851C2561.27 356.755 2611.45 368.894 2638.91 375.148C2666.38 381.401 2669.62 381.401 2677.86 383.854" stroke="#18B6C9" stroke-width="19.9918" stroke-linecap="round"/>
<path d="M6886.16 317.639C6886.16 319.258 6882.11 320.901 6778.06 335.481C6678.08 349.488 6482.2 375.957 6372.41 389.715C6262.61 403.473 6244.81 403.473 6232.4 403.878C6213.49 404.494 6201.18 405.925 6152.54 411.995C6109.47 417.369 6029.44 430.204 5985.74 437.267C5929.22 446.402 5915.11 457.377 5906.43 465.972C5899.91 472.423 5929.6 479.473 5956.09 483.151C5986.36 487.355 6024.34 481.974 6074.83 473.844C6104.45 469.076 6141.51 459.24 6175.66 453.845C6209.81 448.45 6239.76 446.831 6262.06 444.784C6284.37 442.736 6298.12 440.308 6378.05 435.415C6457.97 430.523 6603.64 423.239 6664.12 420.296C6724.59 417.354 6695.46 418.972 6635.54 427.899C6575.61 436.826 6485.78 453.011 6386.5 462.159C6287.21 471.306 6181.19 472.925 6118.49 475.377C6055.78 477.83 6039.59 481.067 6018.31 482.734C5971.24 486.422 5937.16 483.593 5918.43 482.367C5907.01 481.618 5891.62 481.95 5887.34 479.522C5883.06 477.094 5890.34 472.238 5895.71 469.737C5903.84 465.952 5910.08 466.426 5910.93 465.2C5920.68 451.066 5881.54 470.497 5872.57 472.937C5867.57 474.298 5861.99 476.996 5762.77 494.028C5663.54 511.059 5470.93 542.622 5366.04 560.5C5261.15 578.378 5249.82 581.615 5242.37 583.282C5234.91 584.95 5231.68 584.95 5213.42 587.783C5195.16 590.615 5161.98 596.28 5109.28 600.008C5056.58 603.735 4985.36 605.354 4953.12 606.188C4920.89 607.022 4929.79 607.022 4947.73 604.998C4992.5 599.949 5027.98 592.332 5048.74 588.653C5103.28 578.989 5124.48 580.045 5126.97 580.045C5161.36 580.045 5048.58 593.116 5039.56 594.747C5033.87 595.775 5080.09 596.403 5129.08 593.963C5162.09 592.318 5195.43 586.593 5247.14 582.13C5277.91 579.474 5317.46 572.001 5356.91 568.262C5396.36 564.522 5434.39 563.712 5474.22 561.272C5514.05 558.832 5554.51 554.786 5577.38 551.892C5611.98 547.514 5632.03 540.856 5688.48 525.811C5730.9 514.507 5802.4 500.244 5843.54 492.323C5884.68 484.402 5893.58 484.402 5895.74 484.402C5897.89 484.402 5893.04 484.402 5832.27 495.732C5771.5 507.062 5654.96 529.722 5590.88 541.396C5526.8 553.069 5518.71 553.069 5546.1 546.999C5573.49 540.93 5636.62 528.79 5674.8 522.537C5712.98 516.283 5724.31 516.283 5743.5 515.069C5789.45 512.162 5826.63 506.498 5847.41 502.01C5870.38 497.05 5886.37 495.855 5906.24 494.628C5922.86 493.604 5952.83 494.212 6002.65 491.784C6052.47 489.356 6121.26 484.5 6160.74 481.189C6200.22 477.879 6208.32 476.26 6252.95 470.571C6297.58 464.881 6378.51 455.169 6421.42 450.167C6464.32 445.164 6466.75 445.164 6459.5 445.164C6452.26 445.164 6435.26 445.164 6404.25 448.806C6373.24 452.447 6328.73 459.731 6296.49 463.483C6222.88 472.051 6209.35 462.33 6204.82 462.33C6204.49 462.33 6210.82 462.33 6233.16 459.093C6255.5 455.856 6294.35 449.382 6328.93 446.047C6363.5 442.711 6392.64 442.711 6422.66 442.711" stroke="#18B6C9" stroke-width="19.9918" stroke-linecap="round"/>
<path d="M2675.84 474.793C2655.42 476.52 2600.33 471.388 2582.63 469.209C2565.84 467.143 2526.57 458.545 2508.65 445.612C2505.83 443.581 2508.21 437.914 2512.47 434.445C2516.72 430.976 2525.23 428.423 2559.83 427.533C2594.42 426.644 2654.85 427.495 2691.08 429.21C2737.67 431.415 2764.22 444.619 2789.57 459.641C2799.26 465.379 2800.46 470.408 2801.33 474.728C2802.21 479.048 2802.21 483.303 2800.93 486.772C2799.66 490.241 2797.1 492.794 2791.53 494.534C2748.26 492.046 2694.87 479.95 2679.34 477.81C2675.04 477.372 2669.09 477.372 2662.95 477.372" stroke="#92FFFC" stroke-width="81.6331" stroke-linecap="round"/>
<path d="M2196.16 423.214C2202.12 426.644 2219.32 430.074 2237.38 430.525C2245.03 430.716 2202.37 428.371 2191.86 428.797C2182.8 429.164 2239.23 430.074 2238.96 430.512C2238.68 430.95 2198.69 430.95 2198.5 430.95C2157.83 430.95 2280.41 434.355 2272.74 439.513C2227.19 470.138 2168.69 429.248 2163.1 425.393C2161.01 423.954 2163.46 420.686 2169.01 418.945C2210.36 405.996 2252.87 422.337 2256.31 426.192C2271.18 442.844 2174.03 434.432 2140.08 426.283C2127.97 423.377 2127.4 418.984 2129.52 415.954C2131.63 412.924 2136.74 410.37 2151.71 409.055C2166.68 407.74 2191.36 407.74 2216.79 407.74" stroke="#92FFFC" stroke-width="81.6331" stroke-linecap="round"/>
<path d="M1734.53 139.529C1705.54 148.091 1646.95 155.003 1631.42 157.143C1618.56 158.917 1610.76 161.012 1605.62 161.876C1603.06 162.305 1600.47 161.038 1598.73 159.323C1596.99 157.608 1596.14 155.054 1599.96 150.761C1630.86 115.993 1684.6 106.054 1701.79 95.7257C1712.3 89.4111 1722.46 87.0992 1729.74 85.8097C1737.77 84.3896 1766.94 94.7328 1808.17 111.896C1846.72 127.944 1848.85 144.661 1850.99 149.806C1852.1 152.479 1853.98 154.951 1848.05 155.841C1801.26 162.86 1757.89 147.266 1721.34 151.547C1696.74 151.573 1683 149.845 1673.56 149.419C1669.23 148.994 1665.82 148.143 1659.74 147.266" stroke="#92FFFC" stroke-width="81.6331" stroke-linecap="round"/>
<path d="M1448.26 142.108C1438.02 136.125 1417.37 129.213 1391.22 124.932C1383.08 123.6 1374.5 124.055 1370.55 125.758C1366.59 127.46 1367.44 130.864 1370.86 134.745C1394.32 161.401 1446.41 162.74 1474.81 158.033C1480.94 157.018 1485.14 155.88 1488.18 154.165C1491.23 152.45 1492.93 149.897 1492.96 146.879C1492.98 143.862 1491.28 140.458 1487.85 137.427C1484.42 134.397 1479.31 131.844 1474.98 130.103C1470.65 128.362 1467.24 127.511 1461.16 126.634" stroke="#92FFFC" stroke-width="81.6331" stroke-linecap="round"/>
<path d="M1479.21 340.687C1437.35 327.844 1380.39 317.477 1374.8 319.604C1371.96 320.689 1371.77 325.987 1374.74 329.456C1382.2 338.182 1401.74 339.81 1443.6 342.389C1475.19 344.336 1528 343.266 1551.78 341.139C1575.56 339.011 1568.75 334.756 1543.97 332.138C1519.18 329.52 1476.63 328.669 1432.79 327.793" stroke="#92FFFC" stroke-width="81.6331" stroke-linecap="round"/>
<path d="M2688.74 111.161C2714.27 116.267 2747.85 121.451 2829.43 128.298C2890.53 133.426 2991.87 138.549 3046.59 142.469C3119.62 147.7 3141.7 154.126 3167.89 165.706C3173.45 168.161 3176.11 167.898 3171.47 169.174C3166.82 170.451 3154.91 173.004 3111.75 173.894C3068.59 174.784 2994.55 173.933 2950.02 172.643C2892.68 170.982 2861.71 167.047 2832.08 165.332C2792.24 163.026 2749.86 142.16 2723.23 130.116C2710.86 124.519 2700.81 122.354 2695.65 116.796C2693.9 112.94 2693.9 106.983 2690.92 103.914C2687.94 100.845 2681.98 100.845 2673.26 106.003" stroke="#92FFFC" stroke-width="81.6331" stroke-linecap="round"/>
<path d="M2415.37 124.055C2414.52 124.055 2413.67 124.055 2414.93 123.204C2416.19 122.353 2419.6 120.651 2422.63 119.774C2425.66 118.898 2428.21 118.898 2430.84 118.898" stroke="#92FFFC" stroke-width="81.6331" stroke-linecap="round"/>
<path d="M3248.37 227.214C3252.62 229.793 3268.07 231.495 3302.82 231.946C3321.14 232.184 3342.81 218.652 3368.64 219.025C3373.5 219.096 3373.86 225.408 3374.3 228.877C3375.06 234.867 3371.33 241.785 3364.47 249.083C3348.58 265.996 3307.79 250.476 3294.4 244.428C3287.38 241.253 3279.37 237.529 3277.16 237.529C3280.06 237.529 3291.13 237.529 3304.49 235.827C3317.85 234.125 3333.16 230.721 3354.11 227.214" stroke="#92FFFC" stroke-width="81.6331" stroke-linecap="round"/>
<path d="M3872.47 51.8447C3864.76 47.5637 3840.86 40.7037 3758.88 21.4002C3733.61 15.449 3717.81 14.0373 3680.68 11.8839C3651.25 10.1773 3600.14 12.2836 3571.7 13.9986C3528.74 16.5904 3515.75 28.6084 3509.75 33.7534C3506.95 36.1433 3505.44 38.8984 3506.69 41.9158C3514.41 60.5511 3560.16 65.539 3627.78 74.5653C3669.61 80.1489 3727.74 77.6342 3759.68 76.7832C3804.8 75.5811 3818.27 69.8974 3828.59 65.1908C3831.19 63.8884 3833.74 63.0374 3838.88 62.5989C3844.03 62.1605 3851.69 62.1605 3854.42 62.1605" stroke="#92FFFC" stroke-width="81.6331" stroke-linecap="round"/>
<path d="M3753.84 304.582C3737.57 302.88 3693.13 299.424 3663.64 302.416C3654.61 303.332 3647.28 310.565 3642.12 317.425C3639.79 320.523 3640.37 324.285 3642.07 327.316C3652.69 346.225 3703.76 344.117 3767.92 344.981C3809.96 345.547 3871.24 344.143 3907.91 342.854C3978.14 340.384 4009.93 315.775 4022.44 307.625C4025.55 305.598 4028.86 303.757 4031.04 301.603C4033.22 299.45 4034.07 296.897 4032.38 294.731C4030.69 292.564 4026.44 290.862 3987.22 289.985C3948.01 289.108 3873.97 289.108 3830.29 290.385C3761.6 298.547 3752.17 304.556 3742.74 308.425C3737.57 309.74 3731.61 309.74 3725.47 307.161" stroke="#92FFFC" stroke-width="81.6331" stroke-linecap="round"/>
<path d="M4535.27 294.266C4530.16 294.266 4502.85 295.117 4465.88 294.705C4453.53 294.567 4454.44 290.037 4457.43 286.581C4464.38 278.557 4479.3 273.66 4521.56 269.792C4555.19 266.713 4614.03 268.477 4644.7 270.604C4675.38 272.732 4676.23 276.987 4676.67 281.733C4677.58 291.552 4674.55 301.952 4669.84 310.965C4663 324.017 4643.68 329.495 4618.35 334.653C4576.55 333.827 4566.26 328.669 4553.42 322.686C4545.68 318.405 4535.47 311.597 4522.37 302.003" stroke="#92FFFC" stroke-width="81.6331" stroke-linecap="round"/>
<path d="M4535.27 441.266C4543.78 441.266 4556.67 441.266 4575.1 442.117C4596.08 444.671 4612.58 447.275 4622.45 448.99C4627.21 449.854 4631.46 450.705 4638.42 451.582" stroke="#92FFFC" stroke-width="81.6331" stroke-linecap="round"/>
<path d="M5329.58 281.371C5296.13 282.222 5253.35 283.95 5232.9 277.129C5227.88 275.457 5231.58 262.648 5235.41 256.549C5243.06 244.368 5266.71 242.713 5317.95 238.419C5357.18 235.132 5423.66 235.827 5470.62 237.091C5543.24 239.045 5576.23 246.968 5592.08 249.973C5630 257.163 5662.94 259.863 5710.25 270.153C5719.15 272.089 5721.53 274.46 5724.12 275.337C5726.71 276.214 5729.27 276.214 5689.31 276.639C5649.34 277.065 5566.79 277.916 5520.01 279.631C5464.59 281.662 5439.78 286.529 5411.45 285.678C5391.63 283.125 5376.08 281.371 5363.2 280.946C5357.97 280.52 5355.42 279.669 5350.21 278.792" stroke="#92FFFC" stroke-width="81.6331" stroke-linecap="round"/>
<path d="M5063.95 242.687C5049.38 243.539 5016.91 245.266 4984.09 240.56C4969.64 238.487 4956.56 227.265 4933.39 222.494C4916.63 219.042 4901.53 224.609 4892.52 229.754C4888.44 232.078 4886.06 234.899 4884.32 237.916C4882.57 240.934 4881.72 244.338 4882.99 248.219C4885.89 257.139 4904.78 265.846 4930.52 273.583C4966.09 284.277 4986.48 259.915 5008.84 256.021C5024.24 255.582 5037.26 254.731 5046.26 253.442C5051.01 253.003 5056.11 253.003 5061.37 253.003" stroke="#92FFFC" stroke-width="81.6331" stroke-linecap="round"/>
<path d="M6353.42 139.529C6342.33 139.529 6299.52 129.317 6276.12 118.498C6263.74 112.774 6252.02 110.31 6246.43 107.744C6243.92 106.586 6243.4 103.476 6246.8 99.1817C6256.14 87.3526 6286.16 75.133 6333.71 60.5491C6360.46 52.3412 6394.02 47.6672 6451.96 45.4493C6509.91 43.2314 6591.61 44.9335 6634.55 47.938C6677.49 50.9425 6679.2 55.1977 6677.94 59.0919C6670.31 82.872 6622.66 92.1799 6578.84 102.96C6551.96 109.569 6532.27 110.284 6514.34 114.991C6478.19 124.476 6450.6 126.635 6441.61 127.486C6428.18 128.757 6397.5 131.793 6361.83 129.239C6348.92 128.315 6347.44 121.58 6348.69 116.822C6355.33 91.5599 6409.08 83.7209 6456.44 80.2006C6463.65 79.6649 6462.62 86.1451 6454.94 93.018C6419.36 124.897 6391.44 121.477 6374.09 126.183C6371.29 126.943 6368.95 128.337 6367.21 130.052C6365.47 131.767 6364.62 134.32 6365.88 136.912C6367.14 139.504 6370.55 142.057 6375.7 143.372C6411.94 152.612 6462.46 118.073 6493.43 105.191C6500.37 102.573 6505.48 101.722 6512.36 100.007C6519.25 98.292 6527.76 95.7388 6539.11 93.1083" stroke="#92FFFC" stroke-width="81.6331" stroke-linecap="round"/>
<path d="M803.527 57.0029C786.455 57.0029 753.753 55.3008 738.228 54.8495C726.936 54.5212 769.898 58.705 812.373 60.4329C834.398 61.3289 874.577 64.7397 929.496 66.0163C974.354 67.059 1006.28 72.4766 1027.32 72.9021C1062.2 73.608 1096.6 76.7576 1118.52 78.9111C1121.85 79.2384 1119.91 82.7408 1115.63 85.3327C1105.17 91.6639 1094.12 94.8103 1073.65 97.3892C1026.3 103.352 988.412 97.415 973.428 96.1256C936.92 92.9837 890.747 93.1082 845.77 86.6866C819.99 83.0057 799.349 76.8092 780.381 70.7745C771.806 69.8976 762.316 68.1955 752.877 65.6166C748.544 64.7397 745.14 64.7397 741.632 64.7397" stroke="#92FFFC" stroke-width="81.6331" stroke-linecap="round"/>
<path d="M129.474 45.3389C99.6356 42.7599 30.8035 46.1641 15.5877 48.7818C2.02422 51.1152 42.5635 22.1799 61.493 14.4173C69.3232 11.2062 99.9709 10.0846 144.213 11.7996C167.225 12.6917 208.209 21.1999 263.205 31.5157C296.866 37.8295 315.932 41.8831 328.014 46.6026C331.146 47.8256 333.16 52.1473 334.475 55.1776C335.79 58.2078 335.79 60.761 330.684 64.2039C294.693 88.4701 244.805 81.4442 220.253 83.5847C201.776 85.1956 188.016 81.4442 130.983 72.4565C116.493 70.1732 97.8304 65.9963 59.288 62.1278C36.9156 60.8126 8.83083 60.8126 -3.93496 60.387C-16.7008 59.9615 -13.2966 59.1105 -9.78918 58.2336" stroke="#92FFFC" stroke-width="81.6331" stroke-linecap="round"/>
<path d="M5259.18 11C5247.04 13.4279 5234.9 15.8557 5195.87 26.0086C5156.84 36.1615 5091.29 53.9659 5050.24 63.9471C5009.18 73.9284 4994.62 75.5469 4964.05 81.2365C4933.48 86.926 4887.35 96.6375 4782.66 106.091C4677.96 115.545 4516.1 124.448 4430.7 128.629C4341.29 133.006 4332.22 128.739 4323.65 123.847C4311.25 116.769 4302.8 105.074 4282.83 89.967C4258.83 71.8054 4240.65 56.0014 4235.75 47.4425C4233.36 43.2686 4234.08 38.0744 4373.68 34.359C4513.28 30.6437 4792.49 28.2158 4939.15 26.5604C5085.82 24.9051 5091.49 24.0958 5097.24 23.6789C5102.99 23.262 5108.65 23.262 5020.53 37.0199C4932.4 50.7778 4750.31 78.2936 4644.37 92.4684C4538.42 106.643 4514.14 106.643 4495.57 105.834C4464.78 104.493 4445.87 101.738 4425.54 100.525C4390.51 98.4332 4359.25 91.9534 4341.7 87.8702C4312.32 81.0319 4290.51 69.0481 4288.85 66.608C4287.84 65.1146 4293.67 62.5493 4375.07 60.0846C4456.46 57.62 4615.08 55.1921 4694.37 53.9414C4773.66 52.6906 4768.8 52.6907 4729.07 57.951C4689.34 63.2114 4614.89 73.7322 4575.32 79.152C4525.93 85.9172 4508.01 91.0951 4484.7 86.644C4484.17 82.1684 4519.05 74.0019 4570.12 64.6093C4588.82 60.8816 4592.86 59.2631 4597.03 57.5954" stroke="#22EDEE" stroke-width="48.3135" stroke-linecap="round"/>
<path d="M7042.67 1426.23C6891.12 1418.49 6525.91 1416.44 6277.45 1470.18L6132.51 1724.76L5031.69 2013.35L4527.01 2628.67L4316.51 3531.75L4017.15 3570.73L3817 4075.76L7042.67 4162V1426.23Z" fill="#2A4765" stroke="#2A4765" stroke-width="1.64749"/>
<path d="M6947.77 451C6864.09 468.415 6693.79 513.859 6682.06 556.318C6667.39 609.391 6641.51 1738.86 6682.06 1806.03C6618.79 1870.16 6483.29 2009.04 6447.4 2051.5C6411.51 2093.96 6432.45 2751.96 6447.4 3075.65L6112.67 3272.19V4103.95L6947.77 4065.8V451Z" fill="#243040" stroke="#243040" stroke-width="1.64749"/>
<path d="M-39 3950.82C309.796 3938.26 1109.24 4022.1 1561.21 4022.1C3153.02 4022.1 5885.21 4164.66 6966 3930.34V4614.46H-39V3950.82Z" fill="#DDE4AE" stroke="#CFB296" stroke-width="1.68169"/>
<path d="M5180.87 3296.1C5072.5 3425.34 5054.12 3563.71 5058.48 3616.74H5125.17C5130.22 3593.6 5152.26 3530.5 5200.12 3463.18C5259.94 3379.02 5326.64 3315.14 5324.58 3202.12C5322.51 3089.09 5316.32 3050.39 5114.17 2837.24C4959.44 2674.1 4960.64 2524.94 4982.51 2463.03C4929.09 2603.81 4977.47 2728.54 5008.97 2773.97C5111.42 2894.16 5289.23 3166.86 5180.87 3296.1Z" fill="#1D4C2A"/>
<path d="M4982.51 2463.03C4960.64 2524.94 4959.44 2674.1 5114.17 2837.24C5316.32 3050.39 5322.51 3089.09 5324.58 3202.12C5326.64 3315.14 5259.94 3379.02 5200.12 3463.18C5152.26 3530.5 5130.22 3593.6 5125.17 3616.74H5058.48C5054.12 3563.71 5072.5 3425.34 5180.87 3296.1C5289.23 3166.86 5111.42 2894.16 5008.97 2773.97C4977.47 2728.54 4929.09 2603.81 4982.51 2463.03ZM4982.51 2463.03C4983.5 2460.23 4984.53 2457.61 4985.59 2455.17C4984.53 2457.8 4983.51 2460.41 4982.51 2463.03Z" stroke="#1D4C2A"/>
<path d="M6049.3 3554.7C6143.27 3447 6327.09 3199.17 6310.59 3069.43C6294.08 2939.7 6433.44 2635.76 6505.17 2500.01C6461.63 2656.24 6400.66 3037.98 6505.17 3315.14C6609.69 3592.29 6244.81 3590.33 6049.3 3554.7Z" fill="#1D4C2A" stroke="#1D4C2A"/>
<path d="M5769.45 3551.02C5726.36 3416.08 5653.11 3095.97 5704.82 2894.98C5756.52 2694 5747.9 2461.93 5737.13 2371.02C5785.72 2476.06 5882.49 2730.98 5880.84 2910.34C5879.19 3089.7 5818.73 3209.08 5788.7 3246.34L5769.45 3551.02Z" fill="#1D4C2A" stroke="#1D4C2A"/>
<path d="M5374.08 3535.66C5367.66 3405.85 5372.43 3093.64 5442.84 2883.31C5513.25 2672.99 5499.68 2513.12 5484.1 2459.47C5516.18 2552.02 5566.61 2766.36 5511.6 2883.31C5456.59 3000.27 5397 3366.94 5374.08 3535.66Z" fill="#1D4C2A" stroke="#1D4C2A"/>
<path d="M5927.59 3517.85C5882.67 3357.93 5852.37 2994.74 6090.55 2821.27C6328.73 2647.8 6140.75 2457.01 6016.98 2383.3C6143.96 2445.34 6359.81 2624.71 6207.44 2845.84C6055.07 3066.98 6001.85 3163.62 5994.29 3184.3L5927.59 3517.85Z" fill="#1D4C2A" stroke="#1D4C2A"/>
<path d="M5209.06 3074.96C5133.15 3345.73 5503.35 3368.58 5582.43 3543.03C5716.51 3631.69 5914.67 3748.19 5634.68 3504.95C5354.69 3261.7 5302.57 3172.22 5311.51 3157.89C5508.03 2885.33 5425.14 2640.83 5322.97 2503.39C5407.5 2663.85 5291.24 2938.51 5209.06 3074.96Z" fill="#285936"/>
<path d="M5322.97 2503.39C5425.14 2640.83 5508.03 2885.33 5311.51 3157.89C5302.57 3172.22 5354.69 3261.7 5634.68 3504.95C5914.67 3748.19 5716.51 3631.69 5582.43 3543.03C5503.35 3368.58 5133.15 3345.73 5209.06 3074.96C5291.24 2938.51 5407.5 2663.85 5322.97 2503.39ZM5322.97 2503.39C5299.88 2472.33 5275.81 2446.74 5253.75 2427.53C5284.73 2447.82 5307.3 2473.65 5322.97 2503.39Z" stroke="#276337"/>
<path d="M5198.75 3635.78C5130.91 3531.36 5011.04 3265.02 5074.29 3035.04C5137.55 2805.06 5008.51 2582.12 4936.09 2499.4C5030.97 2582.73 5214.01 2795.6 5187.06 2980.37C5153.37 3211.33 5120.36 3311.45 5159.55 3398.06C5164.83 3415.06 5180.05 3486.4 5198.75 3635.78Z" fill="#285936" stroke="#276337"/>
<path d="M5630.55 2549.15C5725.72 2443.5 5670.21 2327.81 5630.55 2283.18C5670.89 2324.74 5741.12 2446.2 5699.31 2599.52C5657.51 2752.84 5593.87 3292.82 5567.28 3543.64C5548.86 3248.41 5536.58 2653.49 5630.55 2549.15Z" fill="#285936"/>
<path d="M5567.98 3554.7C5567.75 3551.06 5567.52 3547.38 5567.28 3543.64M5567.28 3543.64C5548.86 3248.41 5536.58 2653.49 5630.55 2549.15C5725.72 2443.5 5670.21 2327.81 5630.55 2283.18C5670.89 2324.74 5741.12 2446.2 5699.31 2599.52C5657.51 2752.84 5593.87 3292.82 5567.28 3543.64Z" stroke="#276337"/>
<path d="M5949.6 2964.4C6043.11 3059.73 5920.26 3372.67 5847.15 3517.23L5870.52 3527.06C6010.1 3355.68 6247.6 2989.46 6080.93 2895.6C5914.25 2801.74 5855.63 2587.03 5847.15 2491.41C5847.15 2278.68 5918.41 2209.48 5966.7 2197.35C5820.23 2221.08 5786.72 2413.56 5788.7 2510.46C5803.37 2622.05 5856.08 2869.06 5949.6 2964.4Z" fill="#285936"/>
<path d="M5966.7 2197.35C5918.41 2209.48 5847.15 2278.68 5847.15 2491.41C5855.63 2587.03 5914.25 2801.74 6080.93 2895.6C6247.6 2989.46 6010.1 3355.68 5870.52 3527.06L5847.15 3517.23C5920.26 3372.67 6043.11 3059.73 5949.6 2964.4C5856.08 2869.06 5803.37 2622.05 5788.7 2510.46C5786.72 2413.56 5820.23 2221.08 5966.7 2197.35ZM5966.7 2197.35C5973.18 2195.72 5979.24 2195.12 5984.66 2195.34C5978.49 2195.73 5972.51 2196.41 5966.7 2197.35Z" stroke="#276337"/>
<path d="M5640.87 3531.36C5830.48 3259.31 5211.7 2765.03 5534.49 2179.92C5051.49 2986.42 5662.58 3245.49 5509.54 3531.36H5640.87Z" fill="#2A693B"/>
<path d="M5534.49 2179.92C5211.7 2765.03 5830.48 3259.31 5640.87 3531.36H5509.54C5662.58 3245.49 5051.49 2986.42 5534.49 2179.92ZM5534.49 2179.92C5552.76 2149.41 5572.6 2118.11 5594.11 2086C5571.41 2117.55 5551.62 2148.86 5534.49 2179.92Z" stroke="#2A693B"/>
<path d="M4890.7 3681.85C4918.21 3604.66 4963.45 3416.86 4924.4 3283.2C4885.34 3149.53 4678.01 3023.16 4579.22 2976.68C4521.01 2929.79 4414.34 2810.58 4453.39 2708.86C4436.89 2874.71 4945.02 2965.01 4987.65 3224.84C5001.63 3336.02 5008.56 3586.15 4924.4 3697.21C4840.24 3808.27 4866.87 3733.25 4890.7 3681.85Z" fill="#285936" stroke="#276337"/>
<path d="M5794.2 3540.57C5768.76 3507.4 5779.49 3399.66 6025.92 3234.06C6272.35 3068.45 6128.6 2689.21 6025.92 2520.28C6152.9 2682.24 6329.88 3031.49 6146.94 3234.06C6098.12 3288.11 6083.68 3253.1 5794.2 3540.57Z" fill="#2A693B" stroke="#2A693B"/>
<path d="M5694.5 3499.42C5704.58 3277.67 5756.25 2783.8 5882.21 2582.32C6039.67 2330.48 5784.57 2388.83 5757.76 2189.2C5926.13 2413.4 5999.1 2304.06 6060.3 2533.8C6019.73 2871.03 5942.72 2786.26 5882.21 3122.88L5757.76 3516L5694.5 3499.42Z" fill="#2A693B" stroke="#2A693B"/>
<path d="M6318.88 2971.68C6362.99 2739.97 6256.52 2551.34 6189.95 2476.06C6351.6 2667.77 6099.21 3326.51 5945.82 3645.32C6050.92 3521.92 6272.68 3214.44 6318.88 2971.68Z" fill="#648B22"/>
<path d="M5892.53 3574.36C5892.86 3573.68 5945.49 3646.01 5945.82 3645.32M6128.42 2393.06C6124.7 2389.39 6120.79 2385.93 6116.68 2382.69C5913.71 2222.49 6039.93 2322.85 6128.42 2393.06ZM6128.42 2393.06C6131.63 2396.23 6187.01 2472.57 6189.95 2476.06M6128.42 2393.06C6131.39 2396.13 6186.78 2472.47 6189.95 2476.06M5945.82 3645.32C6050.92 3521.92 6272.68 3214.44 6318.88 2971.68C6362.99 2739.97 6256.52 2551.34 6189.95 2476.06M5945.82 3645.32C6099.21 3326.51 6351.6 2667.77 6189.95 2476.06" stroke="#648B22"/>
<path d="M4890.71 3004.32C4755.94 3471.65 4804.3 3678.17 4845.32 3723.01C4820.02 3431.11 4887.5 3306.13 4924.4 3280.13C5056.97 3161.21 5097.95 2990.19 5035.1 2919.55C4832.41 2691.72 4753.78 2544.43 4731.53 2472.84C4776.54 2665.01 4951.9 2878.87 4890.71 3004.32Z" fill="#2A693B"/>
<path d="M4731.53 2472.84C4753.78 2544.43 4832.41 2691.72 5035.1 2919.55C5097.95 2990.19 5056.97 3161.21 4924.4 3280.13C4887.5 3306.13 4820.02 3431.11 4845.32 3723.01C4804.3 3678.17 4755.94 3471.65 4890.71 3004.32C4951.9 2878.87 4776.54 2665.01 4731.53 2472.84ZM4731.53 2472.84C4726.18 2455.64 4724.09 2442.81 4724.31 2434.29C4726.05 2447.02 4728.49 2459.88 4731.53 2472.84Z" stroke="#2A693B"/>
<path d="M4889.27 3783.21C4806.08 3740 4605.99 3695.37 4649.3 3316.98C4716.03 3096.61 4817.38 2863.36 4584.07 2708.89C4651.04 2757.94 4724.83 2902.92 4569.54 3167.1C4361.2 3521.53 4564.73 3688 4889.27 3783.21Z" fill="#648B22"/>
<path d="M4584.07 2708.89C4817.38 2863.36 4716.03 3096.61 4649.3 3316.98C4605.99 3695.37 4806.08 3740 4889.27 3783.21C4564.73 3688 4361.2 3521.53 4569.54 3167.1C4724.83 2902.92 4651.04 2757.94 4584.07 2708.89ZM4584.07 2708.89C4579.16 2705.3 4574.29 2702.22 4569.54 2699.65C4574.52 2702.7 4579.36 2705.78 4584.07 2708.89Z" stroke="#648B22"/>
<path d="M6199.17 3908.17C6176.05 3831 6138 3643.27 6170.84 3509.65C6203.68 3376.04 6378.01 3249.71 6461.07 3203.25C6510.02 3156.38 6599.71 3037.21 6566.87 2935.53C6580.75 3101.32 6153.5 3191.58 6117.65 3451.32C6105.9 3562.46 6100.08 3812.5 6170.84 3923.52C6241.61 4034.54 6219.21 3959.54 6199.17 3908.17Z" fill="#285936" stroke="#276337"/>
<path d="M6216.63 3817.61C6038.78 3545.44 6619.17 3050.95 6316.41 2465.59C6769.45 3272.43 6196.26 3531.61 6339.81 3817.61H6216.63Z" fill="#648B22"/>
<path d="M6316.41 2465.59C6619.17 3050.95 6038.78 3545.44 6216.63 3817.61H6339.81C6196.26 3531.61 6769.45 3272.43 6316.41 2465.59ZM6316.41 2465.59C6299.27 2435.07 6280.66 2403.76 6260.48 2371.63C6281.78 2403.2 6300.34 2434.52 6316.41 2465.59Z" stroke="#648B22"/>
<path d="M4943.13 3131.63C4856.2 3184.98 4724.81 3294.55 4746.31 3401.75C4769.96 3519.69 4885.89 3639.27 4940.9 3684.31C4852.05 3553.2 4733.91 3266.08 4943.13 3131.63Z" fill="#648B22"/>
<path d="M4943.13 3131.63C4856.2 3184.98 4724.81 3294.55 4746.31 3401.75C4769.96 3519.69 4885.89 3639.27 4940.9 3684.31C4852.05 3553.2 4733.91 3266.08 4943.13 3131.63ZM4943.13 3131.63C4950.87 3126.65 4959.06 3121.89 4967.71 3117.35C4960.1 3121.5 4951.84 3126.28 4943.13 3131.63Z" stroke="#648B22"/>
<path d="M3972.94 4100.4C4147.39 3966.8 4510.46 3699.59 4567.13 3699.59H4874.85L5435.2 3443H6123.83L6437.84 3567.32H6789.64L7009.21 3673.74V4173L3972.94 4100.4Z" fill="#556880"/>
<path d="M4567.13 3699.59C4510.46 3699.59 4147.39 3966.8 3972.94 4100.4L7009.21 4173V3673.74L6789.64 3567.32H6437.84L6123.83 3443H5435.2L4874.85 3699.59M4567.13 3699.59C4623.79 3699.59 4795.88 3699.59 4874.85 3699.59M4567.13 3699.59H4874.85" stroke="#33455C" stroke-width="1.57725"/>
<path d="M4328.87 4266.5C4317.85 4239.67 4311.18 4200.1 4372.69 4256.5C4421.48 4246.5 4493.91 4235.9 4393.36 4273.5C4434.15 4289.17 4489.28 4315.1 4383.44 4293.5C4376.27 4320.17 4358.63 4357.5 4345.41 4293.5C4300.48 4297 4234.28 4296.5 4328.87 4266.5Z" fill="#DE9663" stroke="#DE9663"/>
<path d="M3716.1 4113.17C3727.41 4076.78 3763.12 4004 3815.52 4004H3976.35C4006.56 4005.28 4067.58 4019.71 4069.92 4067.2C4072.26 4114.7 4024.11 4148.28 3999.74 4159.14C3888.23 4172.86 3675.4 4182.87 3716.1 4113.17Z" fill="#7290A4"/>
<path d="M3815.52 4004C3763.12 4004 3727.41 4076.78 3716.1 4113.17C3675.4 4182.87 3888.23 4172.86 3999.74 4159.14C4024.11 4148.28 4072.26 4114.7 4069.92 4067.2C4067.58 4019.71 4006.56 4005.28 3976.35 4004M3815.52 4004C3867.92 4004 3944.57 4004 3976.35 4004M3815.52 4004H3976.35" stroke="#5F7C90"/>
<path d="M1871.27 4184.95C1848.32 4185.3 1800.64 4185.31 1793.48 4182.62C1791.86 4182.01 1791.69 4180.66 1792.56 4179.4C1794.68 4176.34 1805.86 4174.54 1824.2 4173.46C1848.32 4172.04 1872.35 4174.16 1889.85 4176.31C1910.11 4178.8 1919.91 4184.21 1936.54 4187.45C1939.88 4188.09 1940.15 4189.94 1940.16 4191.21C1940.17 4192.48 1939.58 4193.54 1937.81 4194.63C1928.1 4200.56 1911.11 4199.66 1894.51 4199.67C1880.81 4199.68 1857.76 4197.87 1828.42 4196.27C1785.2 4193.92 1782.19 4185.67 1779.82 4184.42C1778.61 4183.78 1779.79 4182.1 1785.97 4181.37C1820.73 4181.7 1840.87 4184.58 1862.78 4185.66C1874.12 4186.02 1885.88 4186.02 1897.99 4186.02" stroke="#C7B9A0" stroke-width="20" stroke-linecap="round"/>
<path d="M1555.89 4224.81C1555.89 4224.46 1555.89 4224.1 1575.59 4223.56C1595.28 4223.02 1634.68 4222.31 1654.97 4222.66C1675.27 4223 1675.27 4224.42 1674.39 4225.69C1670.12 4231.81 1636.28 4231.28 1597.92 4233.07C1585.77 4233.63 1569.29 4233.43 1561.1 4232.54C1552.91 4231.65 1553.5 4229.88 1554.69 4228.78C1555.87 4227.69 1557.64 4227.33 1557.37 4227.15C1557.1 4226.97 1554.75 4226.97 1555.89 4226.97C1557.03 4226.97 1561.73 4226.97 1566.58 4226.97" stroke="#C7B9A0" stroke-width="20" stroke-linecap="round"/>
<path d="M4864.65 4254.68C4869.32 4257.11 4888.13 4259.97 4902.6 4259.98C4907.78 4259.98 4908.4 4258.37 4908.41 4257.14C4908.42 4255.91 4907.76 4254.7 4906.08 4253.88C4904.41 4253.06 4901.74 4252.65 4894.7 4252.44C4887.66 4252.24 4876.33 4252.24 4866.67 4252.24" stroke="#C7B9A0" stroke-width="20" stroke-linecap="round"/>
<path d="M4957.57 4298.65C4967.56 4294.61 5003.86 4288.07 5036.56 4289.08C5043.76 4289.3 5049.03 4290.49 5052.77 4291.51C5056.52 4292.53 5058.52 4293.74 5057.88 4294.97C5029.82 4298.65 4982.53 4299.05 4972.12 4299.67C4967.04 4299.87 4962.37 4299.87 4957.57 4299.87" stroke="#C7B9A0" stroke-width="20" stroke-linecap="round"/>
<path d="M-127.844 2336.68C-71.452 2221.79 182.148 2083.85 745.415 2451.26L805.066 3063.28L1001.62 3280.98C1058.01 3423.56 1167.86 3746.73 1156.13 3898.73C1141.46 4088.74 217.352 4410.5 -119.043 4196.63C-388.159 4025.53 -237.042 2885.37 -127.844 2336.68Z" fill="#33455C" stroke="#33455C" stroke-width="1.9598"/>
<path d="M748.805 2534.43C555.437 2391.69 116.964 2158.35 -89.9914 2366.87C-296.947 2575.39 174.582 2686.97 436.216 2716.69L748.805 2534.43Z" fill="#5F7C90" stroke="#5F7C90" stroke-width="1.9598"/>
<path d="M-102 3658.68C89.0809 3725.32 570.409 3786.27 967.073 3497C1032.4 3575.39 1139.14 3765.1 1043.51 3896.8C947.867 4028.5 578.379 4135.9 405.589 4173.13L-102 4110.42V3658.68Z" fill="#5F7C90" stroke="#5F7C90" stroke-width="1.9598"/>
<path d="M2644.09 3730.02C2643.07 3729.68 2642.05 3729.35 2621.02 3718.83C2599.98 3708.32 2558.96 3687.63 2535.96 3676.3C2509.42 3663.23 2502 3660.52 2493.65 3656.77C2488.74 3654.56 2482.24 3652.33 2461.12 3646.2C2440 3640.06 2404.41 3630.23 2368.78 3614.82C2333.15 3599.42 2298.57 3578.73 2280.07 3567.4C2257.47 3552.64 2253.7 3550.25 2251.65 3548.37C2250.62 3547.5 2249.6 3546.83 2246.5 3544.07" stroke="#A82D54" stroke-width="20" stroke-linecap="round"/>
<path d="M2507.74 3325.05C2512.23 3325.05 2522.16 3324.6 2528.83 3323.13C2536.93 3321.35 2542.74 3317.6 2542.86 3316.58C2543.29 3312.89 2534.64 3317.81 2526.86 3320.74C2519.94 3322.56 2515.9 3323.01 2511.5 3322.9C2509.78 3322.79 2509.11 3322.57 2507.06 3322.34" stroke="#A82D54" stroke-width="10" stroke-linecap="round"/>
<path d="M2488.77 3323.69C2487.65 3321.67 2484.06 3313.15 2481.78 3303.85C2480.72 3299.55 2480.19 3288.1 2480.86 3273.32C2481.47 3259.95 2492.14 3253.01 2494.51 3251.55C2495.51 3250.93 2496.21 3250.75 2496.44 3251.31C2498.35 3255.85 2492.85 3263.8 2491.6 3275.52C2489.05 3299.38 2492.84 3303.12 2493.62 3306.07C2494.47 3309.24 2496.44 3313.05 2498.14 3316.34C2498.53 3317.11 2498.7 3318.03 2498.37 3318.6C2498.04 3319.17 2497.14 3319.4 2496.24 3319.18C2490.33 3317.74 2489.68 3303.64 2488.21 3295.72C2486.97 3288.02 2486.06 3281.73 2485.5 3273.93C2485.38 3270.89 2485.38 3266.2 2485.38 3261.36" stroke="#A82D54" stroke-width="10" stroke-linecap="round"/>
<path d="M2513.16 3318.95C2516.3 3318.73 2523.96 3316.93 2530.86 3315.45C2537.17 3314.1 2540.25 3311.96 2543.18 3310.6C2547.31 3308.69 2550.41 3307.21 2554.25 3306.08C2557.82 3305.02 2563.94 3304.72 2569.02 3305.62C2570.94 3305.95 2570.75 3308.3 2570.64 3309.56C2570.52 3310.81 2570.3 3311.48 2569.85 3312.05C2567.32 3315.25 2554.57 3318.46 2547.16 3322.78C2543.13 3325.13 2536.91 3329.31 2531.25 3331.7C2525.31 3334.21 2511.9 3333.85 2502.79 3332.73C2501.64 3332.59 2500.98 3332.5 2500.3 3332.39C2499.62 3332.28 2498.95 3332.05 2499.38 3331.49C2500.9 3329.53 2511.27 3327.1 2524.7 3323.94C2531.59 3322.32 2536.17 3321.22 2541.57 3318.63C2546.98 3315.37 2551.98 3312.41 2556.38 3310.38C2558.53 3309.47 2560.55 3308.8 2563.97 3308.11" stroke="#A82D54" stroke-width="10" stroke-linecap="round"/>
<path d="M2468.45 3340.63C2467.55 3339.73 2464.19 3335.25 2458.66 3326.58C2455.8 3322.09 2453.81 3316.79 2450.98 3308.22C2448.16 3299.65 2444.8 3287.8 2442.18 3279.46C2438.12 3266.53 2433.91 3259.36 2429.86 3254.28C2423.9 3246.83 2420.36 3246.24 2415.51 3243.31C2410.46 3240.25 2405.02 3239.91 2396.55 3240.02C2395.02 3240.04 2394.83 3241.02 2394.71 3241.7C2394.26 3244.4 2398.19 3248.01 2401.81 3250.85C2406.71 3254.68 2409.49 3256.84 2411.75 3259.43C2415.17 3263.35 2420.98 3273.26 2425.53 3283.58C2426.67 3286.18 2427.79 3290.24 2430.04 3299.34C2431.52 3305.33 2434.07 3314.03 2436.23 3319.86C2441.8 3334.89 2451.71 3340.38 2454.32 3343.22C2455.41 3344.39 2457.59 3345.36 2459.96 3346.16C2460.94 3346.49 2461.66 3345.83 2462.12 3345.15C2464.08 3342.25 2462.58 3337.72 2460.22 3332.74C2457.17 3326.33 2448.81 3321.9 2446.66 3318.28C2445.54 3316.41 2442.05 3309.08 2437.99 3298.58C2433.92 3288.08 2430.98 3273.61 2428.03 3267.7C2426.45 3264.53 2423.3 3260.93 2419.12 3256.19C2413.14 3249.41 2409.52 3248.04 2406.8 3246.46C2406.1 3246.05 2405.45 3245.56 2406 3246.11C2408.22 3248.35 2412.19 3252.08 2418.6 3261.5C2423.33 3268.47 2429.69 3280.76 2434.6 3290.45C2442.9 3306.83 2445.86 3315.77 2447.21 3319.37C2450.47 3328.09 2453.53 3331.81 2456.13 3336.21C2457.14 3337.91 2458.28 3339.49 2459.29 3340.29C2463.66 3343.71 2454.91 3325.75 2452.42 3321.67C2450.68 3318.82 2448.81 3317.6 2447.45 3316.47C2446.82 3315.95 2446.1 3315.79 2445.76 3316.35C2444.74 3317.98 2445.64 3320.74 2446.31 3323C2447.03 3325.41 2449.69 3327.97 2452.06 3329.78C2452.73 3330.29 2452.86 3328.91 2451.86 3327.33C2450.85 3325.74 2448.84 3323.73 2447.69 3323.25C2446.54 3322.78 2446.32 3323.89 2446.32 3325.36C2447.21 3331.81 2450.8 3338.56 2454.1 3342.65C2454.67 3343.33 2455.11 3344 2456.25 3345.37" stroke="#A82D54" stroke-width="10" stroke-linecap="round"/>
<path d="M2467.09 3341.31C2471.82 3345.59 2477.45 3348.75 2491.02 3353.01C2501.57 3356.33 2520.02 3360.41 2532.15 3363.05C2544.27 3365.69 2549.64 3366.36 2558.22 3368.49C2566.79 3370.63 2578.42 3374.21 2584.86 3376.27C2592.23 3378.64 2594 3379.92 2595.69 3381.27C2597.25 3382.51 2597.85 3385.99 2597.4 3390.28C2597.23 3391.94 2596.06 3392.34 2595.15 3392.57C2591.4 3393.52 2584.57 3393.47 2578 3392.46C2574.37 3391.91 2567.42 3388.75 2550.23 3384.92C2538.44 3382.3 2520.3 3378.87 2510.3 3376.8C2500.3 3374.73 2498.96 3374.29 2494.8 3372.49C2483.72 3367.57 2473.67 3362.11 2468.26 3357.82C2465.76 3355.78 2463.74 3353.99 2460.32 3350.79" stroke="#A82D54" stroke-width="10" stroke-linecap="round"/>
<path d="M2461.67 3345.37C2462.12 3345.37 2472.41 3351.41 2490.22 3361.34C2497.8 3365.56 2503.12 3366.79 2509.57 3368.27C2516.02 3369.75 2523.62 3371.09 2529.88 3372.45C2540.91 3374.85 2549.03 3376.98 2558.03 3378.78C2580.88 3383.34 2585.4 3386.92 2589.59 3388.61C2590.4 3388.94 2591.06 3389.18 2591.74 3389.41C2592.42 3389.63 2593.09 3389.86 2591.87 3389.08C2583.4 3383.67 2578.89 3383.54 2572.49 3382.08C2561.31 3379.53 2552.03 3374.52 2547.86 3372.37C2545.36 3371.09 2542.76 3370.45 2535.92 3368.31C2530.64 3366.85 2521.7 3364.61 2509.71 3361C2497.73 3357.39 2482.97 3352.47 2467.09 3346.73" stroke="#A82D54" stroke-width="10" stroke-linecap="round"/>
<path d="M2433.22 3369.08C2432.77 3369.08 2425.61 3364.84 2414.1 3357.51C2407.19 3353.1 2403.87 3349.67 2398.71 3345.41C2395.02 3342.36 2389.52 3337.12 2384.85 3331.34C2375.68 3319.99 2372.02 3310.62 2368.21 3303.32C2365.5 3298.13 2360.37 3290.43 2355.15 3283.94C2340.22 3265.36 2335.67 3265.66 2331.16 3264.86C2329.6 3264.59 2327.57 3264.75 2326.31 3265.08C2325.05 3265.42 2324.6 3266.09 2324.37 3267.78C2323.78 3272.11 2325.26 3276.03 2327.4 3278.06C2331.18 3281.64 2336.75 3285.95 2341.51 3289.13C2344.97 3291.44 2351.63 3300.14 2355.52 3305.28C2356.44 3306.48 2357.78 3307.65 2360.47 3312.02C2366.44 3321.73 2372.23 3330.22 2376.27 3336.29C2382.2 3345.19 2389.38 3351.23 2393.22 3354.38C2398.3 3358.56 2403.16 3362.74 2411.39 3368.39C2416.16 3371.66 2419.65 3372.7 2421.91 3372.7C2422.85 3372.7 2423.27 3371.81 2423.39 3371.13C2423.92 3368.07 2418.78 3364.59 2406.17 3356.13C2401.29 3352.87 2399.35 3350.57 2394.31 3346.65C2381.29 3336.54 2373.37 3327.76 2371.91 3325.29C2368.94 3320.26 2364.35 3314.46 2361.2 3309.27C2355.64 3300.13 2347.42 3288.26 2343.57 3282.5C2339.79 3276.83 2335.45 3274.02 2333.29 3272.55C2335.83 3274.42 2338.81 3276.94 2339.94 3278.4C2340.61 3279.19 2341.51 3280.09 2342.43 3281.01" stroke="#A82D54" stroke-width="10" stroke-linecap="round"/>
<path d="M2328.2 3268.81C2328.65 3268.81 2330.89 3269.48 2333.72 3270.84C2334.08 3272.19 2333.85 3273.77 2334.74 3275.69C2335.42 3276.71 2336.54 3277.82 2337.69 3278.98" stroke="#A82D54" stroke-width="10" stroke-linecap="round"/>
<path d="M2432.54 3372.47C2436.57 3374.71 2446.96 3381.04 2457.07 3385.09C2463.49 3387.66 2473 3390.03 2483.43 3392.64C2493.85 3395.26 2505.03 3397.72 2511.8 3398.98C2518.56 3400.25 2520.57 3400.25 2528.76 3401.93C2536.96 3403.6 2551.26 3406.96 2561.65 3409.8C2572.04 3412.65 2578.08 3414.88 2583.76 3417.94C2601.66 3427.55 2602.36 3431.63 2603.04 3433.43C2603.37 3434.31 2603.27 3435.24 2601.03 3435.7C2589.08 3438.16 2585.67 3433.91 2582.28 3432.21C2579.05 3430.59 2575.29 3429.17 2569.19 3427.13C2565.27 3425.82 2558.15 3423.3 2549.58 3421.15C2541.34 3419.09 2532.86 3418.78 2521.72 3415.41C2515.19 3413.43 2507.23 3409.8 2498.38 3407.18C2480.4 3401.85 2468.91 3400.26 2465.65 3399.13C2462.29 3397.97 2458.75 3397.77 2451.01 3394.63C2444.84 3391.94 2434.11 3387.02 2427.91 3384.27C2421.71 3381.51 2420.37 3381.06 2418.31 3379.92" stroke="#A82D54" stroke-width="10" stroke-linecap="round"/>
<path d="M2423.05 3375.18C2425.74 3375.63 2429.8 3377.42 2439.46 3381.92C2446.31 3385.11 2457.61 3389.1 2465.38 3391.73C2477.04 3395.69 2486.01 3397.53 2494.58 3399.78C2501.27 3401.54 2508.38 3402.72 2515.26 3404.53C2519.62 3405.67 2523.08 3406.34 2531.83 3409.03C2538.75 3411.17 2550.86 3414.41 2557.75 3416.25C2568.45 3419.11 2575.67 3421.24 2581.46 3423.17C2584.97 3424.41 2588.57 3426.66 2592.3 3429.15C2593.1 3429.61 2593.77 3429.83 2595.82 3430.74" stroke="#A82D54" stroke-width="10" stroke-linecap="round"/>
<path d="M2399.34 3394.15C2398.89 3394.15 2393.3 3392.36 2383.71 3388.98C2376.45 3386.42 2372.92 3384.44 2365.09 3376.17C2357.68 3368.34 2344.29 3352.24 2336.59 3342.61C2328.89 3332.98 2327.55 3330.07 2325.52 3326.68C2323.49 3323.28 2320.8 3319.48 2317.3 3313.61C2313.79 3307.74 2309.54 3299.91 2306.01 3294.31C2300.3 3285.25 2293.68 3280.13 2285.14 3275.51C2273.65 3269.31 2262.74 3267.69 2255.76 3267.01C2251.93 3266.64 2247.44 3266.78 2245.03 3267.12C2242.61 3267.45 2242.39 3268.12 2242.39 3268.92C2242.37 3273.25 2250.03 3277.82 2255.47 3281C2257.57 3282.23 2259.09 3283.71 2260.78 3284.95C2262.85 3286.47 2273.68 3292.91 2288.36 3303.18C2295.3 3308.05 2301.51 3313.93 2309.51 3323.73C2316.19 3331.91 2322.29 3341.71 2329.06 3350.06C2332.45 3354.23 2338.31 3362.69 2348.68 3375.54C2357.2 3386.11 2365.89 3391.65 2371.41 3395.37C2375.37 3397.53 2379.44 3399.56 2383.5 3401.7C2385.11 3402.51 2385.78 3402.73 2387.15 3402.96" stroke="#A82D54" stroke-width="10" stroke-linecap="round"/>
<path d="M2389.86 3402.96C2389.86 3402.51 2390.08 3401.39 2390.42 3399.47C2390.6 3398.46 2390.53 3397.34 2388.41 3395.98C2377.91 3389.26 2372.94 3388.75 2364.93 3383C2358.95 3378.71 2355.76 3372.72 2353.06 3367.64C2349.82 3361.57 2345.83 3358.49 2343.01 3354.2C2339.61 3349.04 2334.99 3344.94 2331.16 3341.21C2325.08 3335.31 2322.36 3327.36 2317.27 3318.98C2313.28 3312.41 2309.48 3310.6 2306.2 3307.22C2299.64 3300.46 2289.6 3297.05 2283.86 3293.9C2273.03 3287.95 2268.15 3285.09 2263.52 3281.81C2259.89 3279.25 2257.53 3275.15 2257.29 3272.78C2256.61 3265.94 2268.57 3275.36 2271.62 3276.94C2276.29 3279.36 2284.56 3282.57 2291.26 3285.74C2296.86 3288.4 2298.84 3289.13 2299.63 3290.48C2300.01 3291.14 2300.19 3291.83 2298.86 3291.4C2290.02 3288.51 2285.55 3284.64 2281.69 3283.38C2273.27 3280.62 2296.56 3294.54 2304.8 3299.51C2305.91 3300.19 2305.63 3298.2 2304.39 3296.61C2301.61 3293.04 2297.95 3291.18 2291.9 3288.26C2278.44 3281.78 2267.47 3277.18 2263.64 3275.04C2259.37 3273.12 2256.39 3271.98 2255.04 3271.53C2254.36 3271.3 2253.69 3271.08 2251.64 3269.49" stroke="#A82D54" stroke-width="10" stroke-linecap="round"/>
<path d="M2395.28 3398.22C2395.72 3398.22 2396.17 3398.22 2412.95 3405.59C2429.72 3412.97 2462.81 3427.73 2484.66 3436.9C2506.52 3446.06 2516.13 3449.19 2524.55 3451.36C2532.96 3453.54 2539.9 3454.65 2544.36 3455.23C2548.83 3455.8 2550.61 3455.8 2558.58 3457.26C2566.54 3458.71 2580.63 3461.62 2589.78 3464.01C2609.4 3469.13 2615.44 3475.44 2618.73 3478.49C2620.61 3480.23 2620.21 3484.46 2618.98 3487.85C2615.33 3497.9 2598.31 3484.94 2591.25 3483.26C2585.04 3481.78 2573.69 3478.23 2566.14 3476.28C2558.59 3474.33 2555.23 3473.88 2541.55 3470.41C2527.86 3466.94 2503.93 3460.45 2482.78 3452.86C2461.62 3445.28 2443.96 3436.78 2434.42 3432.07C2423.88 3426.87 2416.57 3422.19 2406.3 3416.1C2399.58 3411.77 2395.97 3409.96 2392.69 3407.82C2391.89 3407.25 2391.22 3406.81 2390.53 3406.35" stroke="#A82D54" stroke-width="10" stroke-linecap="round"/>
<path d="M2390.53 3400.93C2391.43 3401.15 2392.32 3401.37 2395.91 3403.28C2399.5 3405.18 2405.76 3408.76 2426.76 3417.53C2447.76 3426.31 2483.31 3440.17 2511.13 3449.66C2538.94 3459.14 2557.94 3463.84 2568.96 3466.71C2586.63 3471.3 2591.51 3472.96 2598.16 3475.1C2606.31 3477.73 2608.68 3480.86 2612.18 3483.57C2614.17 3485.12 2607.19 3482.04 2592.42 3476.06C2581.74 3471.74 2574.83 3470.49 2564.63 3467.24C2556.51 3464.65 2542.13 3461.08 2533.75 3459.01C2523.43 3456.45 2516.15 3454.69 2506.79 3451.2C2499.26 3448.39 2493.99 3445.65 2487.58 3443.18C2483.34 3441.55 2477.38 3438.47 2469.46 3435.19C2441.39 3423.54 2438.64 3423.06 2437.96 3422.95C2437.85 3422.93 2438.62 3423.5 2449.25 3428.09C2459.88 3432.68 2480.45 3441.4 2492.61 3446.23C2504.77 3451.06 2507.9 3451.73 2506.5 3451.18C2499.23 3448.34 2492.17 3447 2487.8 3445.43C2477.05 3441.58 2467.8 3436.62 2460.71 3434.03C2456.28 3432.42 2450.28 3429.88 2448.17 3429.29C2447.45 3429.08 2459.1 3435.22 2464.37 3437.4C2468.08 3438.93 2444.16 3428.62 2451.63 3431.87C2459.09 3435.11 2491.06 3448.98 2507.87 3456.12C2524.67 3463.26 2525.34 3463.26 2526.03 3463.26" stroke="#A82D54" stroke-width="10" stroke-linecap="round"/>
<path d="M2155.07 3300.59C2155.74 3300.59 2157.45 3300.59 2160.69 3301.27C2165.31 3302.23 2180.96 3310.12 2203.37 3319.36C2216.19 3324.64 2229.96 3334.08 2246.73 3345.54C2256.37 3352.13 2262.56 3359.78 2269.57 3369.35C2276.23 3378.45 2279.71 3384.82 2282.78 3388.06C2287.42 3392.95 2295.74 3404.96 2307.04 3417.11C2314.64 3424.2 2322.14 3430.34 2330.88 3435.5C2333.12 3436.87 2335.49 3438.56 2337.94 3441.34" stroke="#A82D54" stroke-width="20" stroke-linecap="round"/>
<path d="M2669.77 3573.87C2664.68 3570.46 2651.67 3560.9 2644.8 3555.39C2633.09 3546 2623.58 3542.72 2606.16 3536.05C2581.6 3526.66 2574.59 3530.38 2561.85 3527.49C2550.79 3524.99 2530.46 3520.2 2518.8 3517.24C2507.13 3514.29 2504.76 3513.27 2490.82 3509.36C2476.89 3505.44 2451.46 3498.66 2428.87 3490.59C2406.28 3482.52 2387.29 3473.37 2376.66 3467.98C2359.88 3457.79 2351.66 3450.95 2348.05 3445.8C2347.19 3444.77 2346.17 3444.09 2344.1 3442.36" stroke="#A82D54" stroke-width="20" stroke-linecap="round"/>
<path d="M2674.91 3633.45C2674.23 3632.77 2673.55 3632.1 2659.3 3625.64C2645.05 3619.19 2617.25 3606.99 2584.12 3596.46C2550.98 3585.94 2513.35 3577.46 2476.5 3565.13C2439.65 3552.79 2404.73 3536.86 2377.59 3522.72C2350.45 3508.58 2332.14 3496.71 2322.03 3490.26C2311.92 3483.81 2310.57 3483.13 2309.17 3482.43" stroke="#A82D54" stroke-width="20" stroke-linecap="round"/>
<path d="M2632.79 3665.3C2631.43 3664.28 2630.08 3663.27 2621.75 3658.33C2613.42 3653.4 2598.17 3644.59 2579.97 3635.98C2561.77 3627.37 2541.09 3619.23 2510.43 3609.62C2479.77 3600 2439.77 3589.15 2409.16 3578.99C2378.55 3568.82 2358.55 3559.67 2346.72 3553.93C2325.88 3543.84 2320.49 3536.22 2311.44 3528.7C2308.18 3525.96 2304.12 3522.23 2299.82 3518.78C2295.52 3515.34 2291.11 3512.29 2285.54 3508.11" stroke="#A82D54" stroke-width="20" stroke-linecap="round"/>
<path d="M2083.15 3324.22C2093.36 3328.3 2109.48 3335.85 2122.76 3341.46C2132.39 3345.53 2147.57 3352.84 2157.97 3358.2C2173.78 3366.35 2183.44 3374.18 2198.09 3386.44C2208.12 3394.83 2222.91 3408.19 2230.94 3415.51C2239.84 3423.64 2242.71 3427.61 2251.56 3436.3C2267.79 3452.23 2282.09 3462.55 2287.05 3465.46C2293.75 3468.73 2296.83 3470.44 2298.88 3471.12C2299.91 3471.47 2300.93 3471.81 2301.98 3473.18" stroke="#A82D54" stroke-width="20" stroke-linecap="round"/>
<path d="M2024.59 3368.39C2025.95 3368.39 2028.34 3368.73 2045.66 3375.52C2061.39 3381.68 2090.77 3394.51 2107.49 3401.82C2124.21 3409.13 2127.27 3410.82 2136.97 3417.12C2146.68 3423.42 2162.96 3434.27 2173.71 3441.72C2189.42 3452.61 2196.48 3459.12 2205.16 3466.11C2231.53 3487.33 2238.59 3488.57 2246.98 3494.05C2252.14 3497.42 2258.79 3499.2 2263.95 3501.77C2264.98 3502.29 2266 3502.63 2267.03 3502.97C2268.07 3503.32 2269.08 3503.66 2270.13 3504" stroke="#A82D54" stroke-width="20" stroke-linecap="round"/>
<path d="M2022.54 3439.28C2026.61 3441.99 2032.77 3445.09 2045.04 3451.04C2053.35 3455.08 2065.44 3462.09 2073.42 3466.94C2081.4 3471.79 2084.8 3474.5 2096.2 3481.49C2107.61 3488.48 2126.94 3499.67 2138.76 3506.79C2154.52 3516.28 2161.54 3521.11 2168.37 3524.87C2180.97 3531.79 2185.87 3535.5 2199.19 3541.31C2209.5 3544.41 2214.64 3545.44 2216.86 3546.29C2218.06 3546.8 2219.42 3547.48 2222.87 3549.21" stroke="#A82D54" stroke-width="20" stroke-linecap="round"/>
<path d="M2014.32 3504C2022.48 3506.04 2040.29 3513.22 2057.66 3521.57C2069.44 3527.24 2087.92 3534.33 2098.88 3539.02C2113.03 3545.08 2117.72 3547.83 2123.34 3550.55C2133.61 3555.53 2145.08 3563.21 2154.15 3569.37C2162.25 3574.88 2169.74 3581.02 2178.46 3587.52C2181.77 3589.95 2182.78 3590.63 2183.83 3591.33" stroke="#A82D54" stroke-width="20" stroke-linecap="round"/>
<path d="M2566.01 3758.79C2566.01 3758.11 2561.6 3753.69 2550.69 3744.82C2544.41 3739.71 2535.7 3734.59 2501.67 3718.23C2467.64 3701.87 2408.31 3674.75 2375.71 3660.27C2343.11 3645.79 2339.04 3644.77 2322.37 3637.13C2305.7 3629.49 2276.54 3615.25 2258.64 3605.88C2228.36 3587.23 2224.27 3583.81 2219.47 3579.88C2218.09 3578.67 2216.4 3577.32 2212.6 3575.92" stroke="#A82D54" stroke-width="20" stroke-linecap="round"/>
<path d="M2481.77 3789.61C2480.75 3788.25 2479.73 3786.9 2465.14 3778.23C2450.54 3769.57 2422.41 3753.63 2392.31 3738.14C2362.22 3722.64 2331.03 3708.06 2313.44 3699.36C2295.85 3690.67 2292.79 3688.29 2274.1 3677.07C2255.41 3665.85 2221.17 3645.84 2202.34 3634.86C2183.51 3623.88 2181.14 3622.52 2178.56 3621.31C2175.98 3620.11 2173.27 3619.09 2168.42 3615.99" stroke="#A82D54" stroke-width="20" stroke-linecap="round"/>
<path d="M2011.24 3562.56C2012.59 3562.56 2030.58 3570.36 2057.97 3582.52C2070.25 3587.97 2077.96 3591.3 2086.52 3596.77C2095.46 3603.99 2107.39 3612.84 2120.39 3622.77C2125.59 3626.59 2127.96 3627.95 2130.41 3630.37" stroke="#A82D54" stroke-width="20" stroke-linecap="round"/>
<path d="M2403.69 3827.62C2403.35 3826.61 2403.01 3825.59 2399.27 3822.01C2395.54 3818.44 2388.42 3812.34 2352.54 3787.32C2316.67 3762.31 2252.25 3718.58 2218.39 3695.37C2182.97 3671.1 2180.42 3668.39 2177.86 3666.34C2172.82 3662.31 2167.41 3658.13 2161.59 3654.35C2156.79 3652.29 2152.68 3650.24 2150.12 3649.04C2148.91 3648.52 2147.89 3648.18 2144.79 3646.81" stroke="#A82D54" stroke-width="20" stroke-linecap="round"/>
<path d="M2286.57 3833.79C2285.89 3833.79 2283.84 3831.75 2262.8 3813.58C2243.73 3797.12 2206.49 3767.28 2179.15 3746.14C2151.81 3725 2135.2 3713.81 2125.62 3707.2C2110.9 3696.81 2107.82 3695.44 2105.6 3694.08C2104.4 3693.39 2103.04 3692.71 2101.64 3692.01" stroke="#A82D54" stroke-width="20" stroke-linecap="round"/>
<path d="M2198.21 3836.87C2197.88 3836.53 2197.54 3836.19 2185.84 3826.52C2174.13 3816.86 2151.08 3797.87 2130.05 3781.82C2109.02 3765.77 2090.71 3753.22 2080.6 3746.42C2070.49 3739.62 2069.14 3738.94 2065.69 3737.22" stroke="#A82D54" stroke-width="20" stroke-linecap="round"/>
<path d="M2088.29 3833.79C2084.9 3830.4 2077.73 3823.23 2064.42 3811.45C2034.88 3789.62 2030.1 3786.88 2025.47 3784.65C2024.26 3784.14 2022.91 3783.8 2019.46 3782.42" stroke="#A82D54" stroke-width="20" stroke-linecap="round"/>
<path d="M2046.16 3864.61C2043.78 3862.91 2036.96 3855.4 2018.16 3841.72C2010.95 3835.55 2004.42 3830.39 1998.26 3826.62C1995.83 3825.23 1994.82 3824.89 1991.71 3823.51" stroke="#A82D54" stroke-width="20" stroke-linecap="round"/>
<path d="M1974.25 3605.71C1974.93 3606.39 1982.06 3612.5 1996.57 3623.95C2004.1 3629.89 2012.78 3635.05 2024.77 3639.71C2036.76 3644.37 2052.02 3648.1 2060.9 3650.53C2076.96 3654.93 2089.58 3661.5 2096.66 3664.44C2097.86 3664.95 2099.22 3665.63 2100.43 3666.32C2101.63 3667.01 2102.65 3667.68 2103.7 3668.38" stroke="#A82D54" stroke-width="20" stroke-linecap="round"/>
<path d="M1970.14 3669.41C1970.82 3669.41 1979.3 3673.82 2001.8 3683.89C2016.17 3689.55 2036.51 3696.33 2048.51 3700.16C2060.52 3703.99 2063.57 3704.67 2067.74 3707.42" stroke="#A82D54" stroke-width="20" stroke-linecap="round"/>
<path d="M1957.81 3721.81C1967.32 3725.2 1989.27 3734.79 1999.05 3739.09C2004.71 3742.34 2009.17 3745.42 2013.76 3748.83C2017.34 3751.22 2023.44 3754.95 2029.73 3759.82" stroke="#A82D54" stroke-width="20" stroke-linecap="round"/>
<path d="M1921.86 3758.79C1922.53 3758.79 1928.31 3760.82 1939.75 3765.6C1952.2 3771.73 1964.6 3779.97 1975.88 3788.86C1981.39 3793 1986.48 3796.39 1992.74 3800.91" stroke="#A82D54" stroke-width="20" stroke-linecap="round"/>
<path d="M1508.15 3693.21C1508.29 3693.21 1508.43 3693.21 1508.5 3697.48C1508.57 3701.75 1508.57 3710.3 1508.43 3716C1508.23 3724.28 1507.34 3728.15 1506.65 3730.68C1506.24 3733.34 1505.83 3735.56 1505.42 3736.99C1505.28 3737.62 1505.28 3738.02 1505.28 3738.44" stroke="#A82D54" stroke-width="20" stroke-linecap="round"/>
<path d="M1546.4 3694.03C1546.4 3694.16 1546.4 3694.3 1545.04 3700.41C1543.69 3706.52 1540.97 3718.6 1538.56 3726.92C1534.1 3739.45 1531.87 3744.2 1531.46 3745.08C1531.19 3745.56 1530.78 3746.11 1530.36 3746.67" stroke="#A82D54" stroke-width="20" stroke-linecap="round"/>
<path d="M1588.35 3694.03C1588.08 3694.03 1587.53 3695.79 1586.3 3700.09C1584.62 3706 1582.32 3711.96 1579.6 3719.46C1577.82 3724.36 1574.16 3731.04 1571.26 3736.16C1562.99 3748.58 1561.07 3750.64 1560.11 3751.94C1559.7 3752.56 1559.43 3753.1 1559.15 3754.07" stroke="#A82D54" stroke-width="20" stroke-linecap="round"/>
<path d="M1629.06 3655.78C1629.06 3656.19 1629.06 3656.6 1626.08 3669.63C1623.09 3682.66 1617.12 3708.31 1613.16 3723.7C1609.2 3739.08 1607.44 3743.43 1605.65 3747.09C1602.39 3753.75 1598.1 3759.12 1594.54 3763.23C1592.61 3765.16 1591.51 3766.13 1590.48 3767.09C1590 3767.5 1589.59 3767.77 1589.17 3768.05" stroke="#A82D54" stroke-width="20" stroke-linecap="round"/>
<path d="M1666.48 3682.51C1666.48 3682.65 1666.48 3682.78 1664.38 3691.95C1662.28 3701.11 1658.07 3719.29 1653.26 3734.43C1648.44 3749.57 1643.15 3761.1 1639.61 3768.06C1634.44 3777.06 1631.81 3779.97 1629.9 3781.75C1628.93 3782.71 1627.98 3783.79 1626.18 3784.91" stroke="#A82D54" stroke-width="20" stroke-linecap="round"/>
<path d="M1713.37 3712.12C1713.37 3712.26 1713.37 3712.39 1708.35 3723.25C1703.32 3734.11 1693.28 3755.69 1686.21 3769.38C1679.13 3783.08 1675.33 3788.24 1673.04 3791.16C1667.73 3797.37 1663.07 3803.13 1661.42 3805.06C1661.01 3805.47 1660.46 3805.88 1659.08 3807.12" stroke="#A82D54" stroke-width="20" stroke-linecap="round"/>
<path d="M1768.06 3685.39C1768.06 3685.53 1768.06 3685.66 1765.42 3695.1C1762.77 3704.53 1757.48 3723.26 1750.95 3740.57C1744.42 3757.89 1736.82 3773.22 1731.21 3783.64C1725.6 3794.05 1722.21 3799.07 1715.37 3806.54C1708.53 3814.01 1698.36 3823.78 1687.87 3833.85" stroke="#A82D54" stroke-width="20" stroke-linecap="round"/>
<path d="M1792.74 3764.76C1792.6 3764.9 1792.47 3765.03 1790.16 3769.85C1787.85 3774.67 1783.37 3784.17 1775.36 3797.07C1767.35 3809.97 1755.96 3825.99 1748.93 3835.46C1741.9 3844.93 1739.6 3847.37 1736.51 3850.26C1733.42 3853.15 1729.62 3856.4 1727.39 3858.22C1725.16 3860.03 1724.62 3860.3 1723.24 3860.58" stroke="#A82D54" stroke-width="20" stroke-linecap="round"/>
<path d="M1816.18 3822.75C1816.18 3823.02 1815.36 3825.33 1812.64 3831.06C1810.9 3834.71 1807.74 3839.51 1802.4 3846.37C1797.06 3853.23 1789.46 3861.91 1782.15 3869.37C1774.85 3876.83 1768.06 3882.81 1763.14 3886.83C1758.22 3890.86 1755.37 3892.76 1752.43 3894.72" stroke="#A82D54" stroke-width="20" stroke-linecap="round"/>
<path d="M1839.62 3881.56C1839.62 3881.83 1837.31 3884.55 1831.24 3890.62C1827.6 3894.26 1822.31 3898.47 1819.32 3900.84C1814.34 3904.78 1810.17 3906.77 1801.93 3911.33C1795.59 3914.54 1784.87 3919.56 1778.46 3922.42C1772.06 3925.28 1770.29 3925.82 1768.06 3926.79" stroke="#A82D54" stroke-width="20" stroke-linecap="round"/>
<path d="M1444 3759.42C1444.27 3759.42 1446.72 3760.23 1453.06 3762.01C1457.06 3763.13 1462.8 3764.05 1467.98 3764.75C1473.15 3765.44 1477.63 3765.72 1480.96 3765.79C1486.32 3765.9 1492.76 3764.23 1499.95 3761.9C1504.02 3760.39 1507.31 3758.61 1510.87 3756.55C1512.39 3755.72 1513.34 3755.31 1514.32 3754.89" stroke="#A82D54" stroke-width="20" stroke-linecap="round"/>
<path d="M1464.15 3730.63C1464.96 3730.9 1471.76 3732.94 1481.9 3735.89C1491.26 3738.29 1499.24 3740.63 1500.54 3741.11C1501.29 3741.45 1502.24 3741.99 1504.04 3742.55" stroke="#A82D54" stroke-width="20" stroke-linecap="round"/>
<path d="M1451.81 3807.94C1452.08 3807.94 1456.57 3808.76 1467.01 3809.99C1473.09 3810.71 1480.85 3810.41 1488.44 3809.6C1496.02 3808.78 1503.21 3807.15 1507.93 3805.91C1512.66 3804.66 1514.69 3803.85 1519 3801.19C1523.3 3798.53 1529.82 3794.05 1534.73 3789.98C1539.65 3785.91 1542.77 3782.38 1544.86 3779.68C1549.27 3772.86 1550.37 3770.8 1550.85 3769.09C1551.06 3768.33 1551.19 3767.79 1551.33 3767.23" stroke="#A82D54" stroke-width="20" stroke-linecap="round"/>
<path d="M1594.1 3784.5C1593.97 3784.64 1593.83 3784.77 1591.12 3788.17C1588.4 3791.56 1583.11 3798.21 1576.72 3805.1C1570.33 3811.99 1563 3818.91 1555.29 3825.25C1547.58 3831.6 1539.7 3837.17 1526.49 3844.1C1513.27 3851.04 1494.95 3859.18 1482.26 3864.26C1469.56 3869.34 1463.05 3871.1 1456.34 3872.92" stroke="#A82D54" stroke-width="20" stroke-linecap="round"/>
<path d="M1632.76 3801.77C1632.62 3801.77 1632.49 3801.77 1626.38 3809.24C1620.27 3816.7 1608.19 3831.63 1596.95 3843.73C1585.71 3855.83 1575.66 3864.65 1565.81 3872.18C1555.95 3879.71 1546.59 3885.68 1541.36 3888.9C1536.13 3892.11 1535.31 3892.38 1534.47 3892.66" stroke="#A82D54" stroke-width="20" stroke-linecap="round"/>
<path d="M1661.55 3817.81C1661.55 3818.08 1661.14 3819.72 1658.42 3826.32C1656.28 3831.51 1651.9 3840.12 1644.78 3851.17C1637.66 3862.23 1627.75 3875.4 1618.31 3886.45C1608.86 3897.51 1600.17 3906.06 1588.71 3915.14C1577.25 3924.23 1563.27 3933.59 1554.51 3939.17C1545.75 3944.74 1542.62 3946.23 1538.59 3947.77" stroke="#A82D54" stroke-width="20" stroke-linecap="round"/>
<path d="M1696.51 3845.78C1696.37 3845.91 1696.23 3846.05 1693.38 3852.09C1690.53 3858.13 1684.97 3870.07 1680 3879.21C1675.03 3888.35 1670.82 3894.32 1663.9 3902.28C1656.98 3910.24 1647.48 3920.02 1637.84 3928.58C1628.2 3937.14 1618.7 3944.2 1606.41 3951.56C1594.12 3958.93 1579.32 3966.4 1564.08 3974.09" stroke="#A82D54" stroke-width="20" stroke-linecap="round"/>
<path d="M1722.41 3872.92C1722.28 3872.92 1722.14 3872.92 1719.02 3879.57C1715.9 3886.22 1709.79 3899.52 1705.35 3908.54C1700.92 3917.56 1698.34 3921.91 1695.31 3926.38C1692.29 3930.86 1688.9 3935.34 1684.84 3940.02C1680.79 3944.7 1676.17 3949.45 1666.6 3956.92C1657.03 3964.39 1642.65 3974.43 1627.42 3985.19" stroke="#A82D54" stroke-width="20" stroke-linecap="round"/>
<path d="M1749.97 3911.17C1749.83 3911.3 1749.7 3911.44 1744.94 3918.9C1740.19 3926.37 1730.83 3941.16 1723.22 3951.7C1715.62 3962.24 1710.05 3968.07 1706.91 3971.28C1703.78 3974.49 1703.23 3974.9 1701.85 3975.73" stroke="#A82D54" stroke-width="20" stroke-linecap="round"/>
<path d="M1768.47 3947.36C1768.47 3947.63 1767.66 3949.4 1762.69 3956.88C1758.72 3962.87 1751.08 3972.79 1745.26 3979.79C1739.45 3986.8 1735.52 3990.46 1733.08 3992.62C1730.65 3994.78 1729.83 3995.32 1728.58 3995.88" stroke="#A82D54" stroke-width="20" stroke-linecap="round"/>
<path d="M2795.45 3760.77C2788.29 3769.03 2781.58 3777.69 2776.16 3785.88C2772.13 3792.69 2767.95 3801.32 2763.92 3810.62C2762.37 3814.42 2761.82 3816.35 2761.25 3818.33" stroke="#A82D54" stroke-width="20" stroke-linecap="round"/>
<path d="M2817.97 3779.13C2813.28 3783.54 2799.4 3798.51 2794.35 3806.63C2793.51 3808.03 2792.41 3809.41 2791.57 3810.8C2790.73 3812.2 2790.18 3813.58 2788.78 3815.83" stroke="#A82D54" stroke-width="20" stroke-linecap="round"/>
<path d="M2849.67 3817.5C2843.32 3820.82 2821.16 3824.72 2808 3823.35C2805.22 3822.79 2801.64 3822.24 2798.83 3821.54C2796.02 3820.84 2794.1 3820.02 2792.11 3819.17" stroke="#A82D54" stroke-width="20" stroke-linecap="round"/>
<path d="M2772.09 3830.85C2772.64 3830.85 2778.71 3834.97 2792.97 3843.71C2801.2 3848.75 2812.47 3853.27 2822.82 3856.65C2833.17 3860.03 2842.53 3861.68 2848.31 3862.53C2854.1 3863.38 2856.03 3863.38 2858.01 3863.38" stroke="#A82D54" stroke-width="20" stroke-linecap="round"/>
<path d="M2723.71 3842.52C2723.71 3844.18 2725.36 3847.78 2734.19 3856.49C2740.84 3863.05 2754.04 3871.54 2764.42 3878.01C2774.79 3884.47 2782.5 3888.05 2789.23 3890.86C2808.78 3897.85 2814.88 3899.51 2819.61 3901.32C2821.57 3902.03 2822.68 3902.3 2823.81 3902.58" stroke="#A82D54" stroke-width="20" stroke-linecap="round"/>
<path d="M2747.9 3771.62C2746.25 3772.72 2740.17 3779.89 2730.18 3794.17C2721.29 3810.37 2716.48 3822.2 2715.65 3828.02C2715.37 3830.82 2715.37 3833.3 2715.37 3835.85" stroke="#A82D54" stroke-width="20" stroke-linecap="round"/>
<path d="M2696.18 3784.97C2696.18 3785.52 2694.25 3787.45 2689.27 3792.43C2681.51 3800.18 2674.25 3811.33 2667.86 3821.59C2660.87 3835.01 2659.49 3840.81 2658.23 3847.48C2657.81 3850.02 2657.81 3850.85 2656.97 3851.7" stroke="#A82D54" stroke-width="20" stroke-linecap="round"/>
<path d="M2661.98 3861.71C2663.91 3865.3 2672.5 3875.29 2692.39 3889.67C2707.13 3900.33 2733.2 3915.06 2748.46 3923.83C2767.84 3934.25 2777.32 3937.05 2786.35 3938.72C2790.14 3939.29 2792.35 3939.29 2794.61 3939.29" stroke="#A82D54" stroke-width="20" stroke-linecap="round"/>
<path d="M2592.74 3875.89C2594.4 3878.09 2596.05 3880.3 2605.98 3890.24C2615.92 3900.18 2634.09 3917.8 2651.43 3932.11C2668.77 3946.41 2684.74 3956.87 2697.78 3964.6C2710.82 3972.33 2720.46 3977.01 2729.27 3980.52C2738.09 3984.03 2745.8 3986.24 2754.57 3988.5" stroke="#A82D54" stroke-width="20" stroke-linecap="round"/>
<path d="M2640.29 3795.81C2638.09 3797.46 2635.03 3800.24 2628.67 3808.94C2624.23 3815.71 2617.35 3827.28 2612.16 3837.5C2606.96 3847.72 2603.66 3856.25 2600.25 3865.05" stroke="#A82D54" stroke-width="20" stroke-linecap="round"/>
<path d="M2571.89 3819.17C2570.79 3820.82 2562.24 3828.28 2546.29 3842.83C2529.19 3858.43 2521.85 3871.14 2520.18 3874.48C2519.34 3875.88 2518.52 3876.71 2517.96 3877.55C2517.39 3878.39 2517.12 3879.21 2516.83 3881.73" stroke="#A82D54" stroke-width="20" stroke-linecap="round"/>
<path d="M2645.3 3986C2643.65 3985.45 2641.99 3984.9 2633.3 3981.18C2624.6 3977.45 2608.91 3970.57 2598.49 3965.51C2588.06 3960.45 2583.38 3957.42 2575.88 3953.11C2568.38 3948.8 2558.19 3943.29 2546.89 3935.36C2535.59 3927.43 2523.47 3917.25 2516.96 3911.45C2510.44 3905.65 2509.89 3904.55 2509.47 3903.57C2509.05 3902.59 2508.78 3901.77 2507.66 3900.08" stroke="#A82D54" stroke-width="20" stroke-linecap="round"/>
<path d="M2457.61 3849.2C2456.51 3849.75 2446.58 3857.46 2428.41 3872.99C2419.59 3881.09 2411.61 3889.62 2407.36 3894.43C2403.11 3899.24 2402.83 3900.07 2401.72 3901.75" stroke="#A82D54" stroke-width="20" stroke-linecap="round"/>
<path d="M2533.52 4003.52C2508.74 3990.31 2492.68 3981.57 2482.44 3973.97C2475.51 3968.3 2465.05 3958.94 2454.43 3947.38C2443.81 3935.81 2433.35 3922.32 2422.57 3907.59" stroke="#A82D54" stroke-width="20" stroke-linecap="round"/>
<path d="M2445.93 4024.37C2443.99 4023 2435.98 4016.63 2424.33 4008.73C2418.3 4004.64 2412.68 3999.45 2406.54 3993.18C2400.39 3986.91 2394.06 3979.48 2388.46 3971.52C2382.86 3963.56 2378.18 3955.3 2374.39 3947.61C2370.6 3939.91 2367.85 3933.03 2366.16 3928.52C2364.46 3924.01 2363.91 3922.09 2363.35 3920.1" stroke="#A82D54" stroke-width="20" stroke-linecap="round"/>
<path d="M2349.16 3862.54C2348.06 3862.54 2341.72 3867.22 2330.48 3876.79C2319.57 3886.08 2310.83 3896.97 2304.16 3905.58C2300.8 3910.34 2299.12 3912.59 2297.73 3914.25C2297.17 3915.09 2296.89 3915.91 2296.61 3917.6" stroke="#A82D54" stroke-width="20" stroke-linecap="round"/>
<path d="M2350.83 4030.21C2349.73 4029.11 2340.08 4020.56 2323.15 4004.75C2315.05 3997.19 2308.97 3989.49 2302.82 3980.71C2296.67 3971.92 2290.89 3962.01 2287.22 3954.84C2283.56 3947.67 2282.18 3943.54 2281.33 3940.31C2280.49 3937.09 2280.21 3934.88 2279.93 3931.78" stroke="#A82D54" stroke-width="20" stroke-linecap="round"/>
<path d="M2263.24 3867.55C2260.49 3869.2 2256.04 3872.25 2247.88 3879.58C2234.5 3891.59 2226.83 3903.67 2223.65 3909.35C2221.84 3912.29 2219.63 3915.31 2218.22 3917.42C2216.81 3919.53 2216.26 3920.64 2214.86 3921.77" stroke="#A82D54" stroke-width="20" stroke-linecap="round"/>
<path d="M2267.42 4022.71C2266.86 4022.16 2256.95 4011.14 2240.42 3991.43C2233.15 3982.76 2229.68 3975.58 2225.63 3967.21C2221.58 3958.85 2217.45 3949.22 2215.18 3943.7C2212.92 3938.19 2212.64 3937.09 2211.53 3935.95" stroke="#A82D54" stroke-width="20" stroke-linecap="round"/>
<path d="M2170.65 3869.22C2166.24 3871.97 2160.4 3877.24 2150.71 3889.83C2144.21 3898.27 2136.06 3912.04 2131.53 3919.54C2126.72 3928.14 2126.16 3930.1 2125.61 3931.77C2125.33 3932.61 2125.05 3933.43 2124.77 3934.28" stroke="#A82D54" stroke-width="20" stroke-linecap="round"/>
<path d="M2105.58 3875.06C2104.48 3877.26 2099.51 3883.9 2089.67 3897.61C2077.91 3916.55 2070.83 3928.99 2070 3931.62C2069.71 3932.88 2069.71 3933.98 2069.71 3935.12" stroke="#A82D54" stroke-width="20" stroke-linecap="round"/>
<path d="M2108.92 4027.71C2105.07 4023.31 2100.05 4017.46 2093.13 4008.18C2083.6 3995.43 2078.07 3982.98 2074.75 3974.39C2071.42 3964.15 2069.16 3955.45 2068.33 3950.31C2068.05 3948.2 2068.05 3947.1 2068.05 3945.96" stroke="#A82D54" stroke-width="20" stroke-linecap="round"/>
<path d="M2180.66 4022.71C2177.91 4021.6 2167.4 4014.16 2151.58 4000.84C2139.06 3990.31 2134.52 3978.81 2131.05 3971.46C2127 3960.43 2126.44 3955.99 2125.05 3951.13C2124.77 3949.87 2124.77 3948.76 2124.77 3947.63" stroke="#A82D54" stroke-width="20" stroke-linecap="round"/>
<path d="M1794.92 4049.18C1806.16 3976.34 1763.55 3812.18 1503.15 3738.18C1497.65 3738.01 1489.35 3739.78 1500.15 3748.18C1614.48 3780.35 1828.75 3892.59 1771.15 4084.18C1778.48 4073.15 1786.41 4061.46 1794.92 4049.18Z" fill="#922145"/>
<path d="M2429.15 3384.68C2537.35 3308.28 2519.9 3307.18 2497.65 3316.18C2189.16 3534.57 1924.97 3861.34 1794.92 4049.18C1786.41 4061.46 1778.48 4073.15 1771.15 4084.18C1762.67 4096.94 1754.99 4108.8 1748.15 4119.68C1746.55 4144.08 1762.82 4129.84 1771.15 4119.68C1786.64 4091.15 1806.17 4060.02 1828.77 4027.18C1835.89 4016.84 1843.31 4006.33 1851 3995.68C2018.47 3763.85 2315.67 3464.8 2429.15 3384.68Z" fill="#922145"/>
<path d="M2797.15 3811.68C2240.15 3972.18 1960.15 3899.68 1851 3995.68C1843.31 4006.33 1835.89 4016.84 1828.77 4027.18C1901.86 3928.18 2475.65 3949.18 2802.15 3824.68C2822.68 3816.85 2806.48 3811.01 2797.15 3811.68Z" fill="#922145"/>
<path d="M1794.92 4049.18C1924.97 3861.34 2189.16 3534.57 2497.65 3316.18C2519.9 3307.18 2537.35 3308.28 2429.15 3384.68C2315.67 3464.8 2018.47 3763.85 1851 3995.68M1794.92 4049.18C1806.16 3976.34 1763.55 3812.18 1503.15 3738.18C1497.65 3738.01 1489.35 3739.78 1500.15 3748.18C1614.48 3780.35 1828.75 3892.59 1771.15 4084.18M1794.92 4049.18C1786.41 4061.46 1778.48 4073.15 1771.15 4084.18M1771.15 4084.18C1762.67 4096.94 1754.99 4108.8 1748.15 4119.68C1746.55 4144.08 1762.82 4129.84 1771.15 4119.68C1786.64 4091.15 1806.17 4060.02 1828.77 4027.18M1851 3995.68C1960.15 3899.68 2240.15 3972.18 2797.15 3811.68C2806.48 3811.01 2822.68 3816.85 2802.15 3824.68C2475.65 3949.18 1901.86 3928.18 1828.77 4027.18M1851 3995.68C1843.31 4006.33 1835.89 4016.84 1828.77 4027.18" stroke="#922145"/>
<path d="M732.317 968.965C810.413 945.908 980.735 859.482 1037.26 698.234C1101.22 667.988 1193.75 616.569 1052.14 652.865C1065.28 622.618 1096.32 533.118 1115.36 417.091C1146.59 386.349 1208.03 309.245 1203.86 246.769C1198.66 168.674 1142.88 363.54 1115.36 345.69C1087.84 327.839 1123.54 219.993 1087.84 233.381C1059.28 244.091 1063.04 312.716 1068.5 345.69C1069.49 364.532 1053.18 380.052 979.991 291.395C960.901 276.024 934.175 269.528 979.991 366.515C992.139 373.457 1023.58 389.423 1052.14 397.753C1080.7 406.083 1054.12 503.368 1037.26 550.969C1017.67 546.844 971.17 529.713 920.807 492.211C910.631 484.634 900.297 476.225 889.996 466.923C886.824 464.06 883.935 461.59 881.317 459.486C854.81 438.186 856.119 454.492 874.567 481.799C883.115 494.451 895.342 509.465 910.187 524.193C936.588 550.387 971.268 575.679 1008.25 585.182C997.346 656.831 952.174 804.295 858.757 820.955C825.04 784.759 770.844 740.331 823.8 852.194C807.438 874.011 758.498 913.629 693.642 897.563C671.329 900.786 667.759 865.433 831.982 698.234C896.938 694.515 990.851 680.235 846.858 652.865L910.187 524.193C895.342 509.465 883.115 494.451 874.567 481.799L831.982 565.844C802.15 539.316 756.368 506.045 811.901 585.182C819.339 611.214 793.456 701.06 630.422 852.194C618.274 844.756 603.945 810.691 643.81 733.935C683.23 731.704 740.351 721.44 653.479 698.234C666.867 648.402 697.51 543.829 712.98 524.193C732.317 499.649 968.835 328.583 723.393 466.923C727.607 456.759 742.879 432.561 770.25 417.091C797.62 401.621 809.422 280.734 811.901 222.225C804.711 164.955 769.352 39.7169 756.862 66.7778C747.937 86.1157 745.706 122.312 756.862 141.898C715.459 109.172 652.586 71.9841 732.317 185.036C751.196 211.804 764.414 230.344 773.322 242.639C772.399 239.209 771.359 236.112 770.25 233.381C776.198 258.669 802.036 282.275 773.322 242.639C783.54 280.622 779.321 359.433 693.642 434.198C692.402 367.259 685.312 240.819 666.867 270.569C655.918 274.784 640.591 309.989 666.867 417.091C689.18 478.08 669.544 607.644 614.803 685.59C571.665 688.813 509.188 704.036 604.39 739.141C601.911 766.413 589.811 820.955 561.25 820.955C525.55 820.955 409.522 704.928 577.613 565.844C624.719 554.44 694.683 530.887 597.696 527.912C601.167 430.975 610.935 235.166 622.24 227.431C636.371 217.762 700.335 189.499 637.115 196.937C633.396 141.402 620.306 64.3977 597.696 200.655C561.995 174.376 506.213 141.898 568.689 222.225C570.92 293.874 571.961 451.156 558.276 507.087C490.841 475.105 391.672 439.106 534.476 550.969C478.941 597.33 390.036 716.233 478.693 820.955C470.512 830.376 448.2 848.177 424.4 844.012C400.599 839.847 366.882 802.609 352.998 784.511C387.707 745.587 431.986 683.954 331.429 748.81C310.108 732.695 269.696 690.053 278.622 648.402C289.778 596.338 424.4 604.52 424.4 585.182C424.4 565.844 395.393 543.531 278.622 585.182C272.175 584.934 261.217 576.257 268.952 543.531C278.622 502.624 297.96 524.937 320.273 503.368C342.586 481.799 389.443 368.746 390.187 292.882C390.931 217.018 448.201 287.676 483.901 292.882C519.602 298.089 446.713 211.068 383.493 243.05C382.997 227.679 389.741 196.937 420.681 196.937C459.357 196.937 432.582 109.916 350.767 205.118C361.676 256.19 367.725 375.292 304.654 443.123C241.583 510.954 215.402 531.879 210.196 533.862C205.981 587.909 203.502 698.829 227.302 710.134C172.511 751.289 100.415 818.129 250.358 756.248C287.793 818.476 374.267 941.148 420.679 934.008C467.09 926.868 647.776 954.337 732.317 968.965Z" fill="#C37200"/>
<path d="M889.996 466.923C900.297 476.225 910.631 484.634 920.807 492.211C932.602 407.67 932.271 229.86 945.779 222.225C979.991 202.887 1197.92 38.5147 945.779 174.624C889.996 78.678 846.858 40.746 910.187 196.937L881.317 459.486C883.935 461.59 886.824 464.06 889.996 466.923Z" fill="#C37200"/>
<path d="M910.187 524.193C936.588 550.387 971.268 575.679 1008.25 585.182C997.346 656.831 952.174 804.295 858.757 820.955C825.04 784.759 770.844 740.331 823.8 852.194C807.438 874.011 758.498 913.629 693.642 897.563C671.329 900.786 667.759 865.433 831.982 698.234C896.938 694.515 990.851 680.235 846.858 652.865L910.187 524.193ZM910.187 524.193C895.342 509.465 883.115 494.451 874.567 481.799M920.807 492.211C971.17 529.713 1017.67 546.844 1037.26 550.969C1054.12 503.368 1080.7 406.083 1052.14 397.753C1023.58 389.423 992.139 373.457 979.991 366.515C934.175 269.528 960.901 276.024 979.991 291.395C1053.18 380.052 1069.49 364.532 1068.5 345.69C1063.04 312.716 1059.28 244.091 1087.84 233.381C1123.54 219.993 1087.84 327.839 1115.36 345.69C1142.88 363.54 1198.66 168.674 1203.86 246.769C1208.03 309.245 1146.59 386.349 1115.36 417.091C1096.32 533.118 1065.28 622.618 1052.14 652.865C1193.75 616.569 1101.22 667.988 1037.26 698.234C980.735 859.482 810.413 945.908 732.317 968.965C647.776 954.337 467.09 926.868 420.679 934.008C374.267 941.148 287.793 818.476 250.358 756.248C100.415 818.129 172.511 751.289 227.302 710.134C203.502 698.829 205.981 587.909 210.196 533.862C215.402 531.879 241.583 510.954 304.654 443.123C367.725 375.291 361.676 256.19 350.767 205.118C432.582 109.916 459.357 196.937 420.681 196.937C389.741 196.937 382.997 227.679 383.493 243.05C446.713 211.068 519.602 298.089 483.901 292.882C448.2 287.676 390.931 217.018 390.187 292.882C389.443 368.746 342.586 481.799 320.273 503.368C297.96 524.937 278.622 502.624 268.952 543.531C261.217 576.257 272.175 584.934 278.622 585.182C395.393 543.531 424.4 565.844 424.4 585.182C424.4 604.52 289.778 596.338 278.622 648.402C269.696 690.053 310.108 732.695 331.429 748.81C431.986 683.954 387.707 745.587 352.998 784.511C366.882 802.609 400.599 839.847 424.4 844.012C448.2 848.177 470.512 830.376 478.693 820.955C390.036 716.233 478.941 597.33 534.476 550.969C391.672 439.106 490.841 475.105 558.276 507.087C571.961 451.156 570.92 293.874 568.689 222.225C506.213 141.898 561.995 174.376 597.696 200.655C620.306 64.3977 633.396 141.402 637.115 196.937C700.335 189.499 636.371 217.762 622.24 227.431C610.935 235.166 601.167 430.975 597.696 527.912C694.683 530.887 624.719 554.44 577.613 565.844C409.522 704.928 525.55 820.955 561.25 820.955C589.811 820.955 601.911 766.413 604.39 739.141C509.188 704.036 571.665 688.813 614.803 685.59C669.544 607.644 689.18 478.08 666.867 417.091C640.591 309.989 655.918 274.784 666.867 270.569C685.312 240.819 692.402 367.259 693.642 434.198C779.321 359.433 783.54 280.622 773.322 242.64M920.807 492.211C910.631 484.634 900.297 476.225 889.996 466.923C886.824 464.06 883.935 461.589 881.317 459.486M920.807 492.211C932.602 407.67 932.271 229.86 945.779 222.225C979.991 202.887 1197.92 38.5147 945.779 174.624C889.996 78.678 846.858 40.746 910.187 196.937L881.317 459.486M881.317 459.486C854.81 438.186 856.119 454.492 874.567 481.799M874.567 481.799L831.982 565.844C802.15 539.316 756.368 506.045 811.901 585.182C819.339 611.214 793.456 701.06 630.422 852.194C618.274 844.756 603.945 810.691 643.81 733.935C683.23 731.704 740.351 721.44 653.479 698.234C666.867 648.402 697.51 543.829 712.98 524.193C732.317 499.649 968.835 328.583 723.393 466.923C727.607 456.759 742.879 432.561 770.25 417.091C797.62 401.621 809.422 280.734 811.901 222.225C804.711 164.955 769.352 39.7169 756.862 66.7778C747.937 86.1157 745.706 122.312 756.862 141.898C715.459 109.172 652.586 71.9841 732.317 185.036C751.196 211.804 764.414 230.344 773.322 242.64M773.322 242.64C772.399 239.209 771.359 236.112 770.25 233.381C776.198 258.669 802.036 282.275 773.322 242.64Z" stroke="#EC8202" stroke-width="1.48753"/>
</g>
<defs>
<linearGradient id="paint0_linear_2003_6124" x1="3456" y1="0" x2="3456" y2="4468" gradientUnits="userSpaceOnUse">
<stop stop-color="#1EB4C3"/>
<stop offset="0.635568" stop-color="#0A3C71"/>
</linearGradient>
<linearGradient id="paint1_linear_2003_6124" x1="3817.45" y1="88" x2="3909.3" y2="2052.28" gradientUnits="userSpaceOnUse">
<stop offset="0.149038" stop-color="#00FFFC" stop-opacity="0.48"/>
<stop offset="1" stop-color="white" stop-opacity="0"/>
</linearGradient>
<linearGradient id="paint2_linear_2003_6124" x1="3817.45" y1="88" x2="3909.3" y2="2052.28" gradientUnits="userSpaceOnUse">
<stop offset="0.149038" stop-color="#00FFFC" stop-opacity="0.48"/>
<stop offset="1" stop-color="white" stop-opacity="0"/>
</linearGradient>
<linearGradient id="paint3_linear_2003_6124" x1="3817.45" y1="88" x2="3909.3" y2="2052.28" gradientUnits="userSpaceOnUse">
<stop offset="0.149038" stop-color="#00FFFC" stop-opacity="0.48"/>
<stop offset="1" stop-color="white" stop-opacity="0"/>
</linearGradient>
<linearGradient id="paint4_linear_2003_6124" x1="3817.45" y1="88" x2="3909.3" y2="2052.28" gradientUnits="userSpaceOnUse">
<stop offset="0.149038" stop-color="#00FFFC" stop-opacity="0.48"/>
<stop offset="1" stop-color="white" stop-opacity="0"/>
</linearGradient>
<clipPath id="clip0_2003_6124">
<rect width="6912" height="4468" fill="white"/>
</clipPath>
</defs>
</svg>
