<svg width="1303" height="1139" viewBox="0 0 1303 1139" fill="none" xmlns="http://www.w3.org/2000/svg">
<rect x="127.707" y="305.08" width="1035.85" height="174.331" rx="20.2711" fill="#4D3E26"/>
<rect x="106.423" y="449.005" width="1072.34" height="459.14" rx="50.6777" fill="#7D633B"/>
<path d="M642.594 0C915.412 6.76331e-05 1140.46 57.8097 1172.76 132.452C1176.59 139.584 1178.76 147.739 1178.76 156.401V273.66C1178.76 301.649 1156.07 324.338 1128.09 324.338H157.101C129.112 324.338 106.423 301.648 106.423 273.66V156.401C106.423 147.739 108.597 139.584 112.429 132.452C144.728 57.8095 369.775 0 642.594 0Z" fill="#7D633B"/>
<path d="M1062.21 58.624C1133.93 84.8507 1176.74 117.963 1176.74 153.96C1176.74 239.045 937.593 308.02 642.594 308.021C347.595 308.021 108.451 239.045 108.45 153.96C108.45 117.963 151.254 84.8507 222.981 58.624V213.86H1062.21V58.624Z" fill="#E5D570"/>
<ellipse cx="357.784" cy="409.983" rx="49.6642" ry="40.0354" fill="#F6F4F4"/>
<path d="M847.344 339.794H794.613L820.979 389.144L847.344 339.794Z" fill="#B92417" stroke="#EA3330" stroke-width="1.01355"/>
<path d="M819.978 389.966H767.247L793.612 340.616L819.978 389.966Z" fill="#B92417" stroke="#EA3330" stroke-width="1.01355"/>
<path d="M847.344 440.644H794.613L820.979 391.294L847.344 440.644Z" fill="#B92417" stroke="#EA3330" stroke-width="1.01355"/>
<path d="M819.978 390.472H767.247L793.612 439.821L819.978 390.472Z" fill="#B92417" stroke="#EA3330" stroke-width="1.01355"/>
<path d="M874.71 390.472H821.979L848.345 439.821L874.71 390.472Z" fill="#B92417" stroke="#EA3330" stroke-width="1.01355"/>
<path d="M874.71 389.966H821.979L848.345 340.616L874.71 389.966Z" fill="#B92417" stroke="#EA3330" stroke-width="1.01355"/>
<path d="M414.62 427.262L371.137 400.226L356.82 471.737L414.62 427.262Z" fill="#C2E7FF" stroke="#EBF5FF" stroke-width="1.01355"/>
<path d="M414.871 426.582L371.636 399.7L416.534 375.698L414.871 426.582Z" fill="#C2E7FF" stroke="#EBF5FF" stroke-width="1.01355"/>
<path d="M459.285 454.198L416.05 427.316L460.948 403.314L459.285 454.198Z" fill="#C2E7FF" stroke="#EBF5FF" stroke-width="1.01355"/>
<path d="M370.457 398.967L327.222 372.084L372.12 348.082L370.457 398.967Z" fill="#C2E7FF" stroke="#EBF5FF" stroke-width="1.01355"/>
<path d="M416.212 374.902L372.977 348.019L371.313 398.903L416.212 374.902Z" fill="#C2E7FF" stroke="#EBF5FF" stroke-width="1.01355"/>
<path d="M460.627 402.517L417.392 375.634L415.728 426.519L460.627 402.517Z" fill="#C2E7FF" stroke="#EBF5FF" stroke-width="1.01355"/>
<path d="M370.419 400.137L327.225 373.28L355.968 470.868L370.419 400.137Z" fill="#C2E7FF" stroke="#EBF5FF" stroke-width="1.01355"/>
<path d="M415.338 427.35L458.539 454.211L357.979 472.106L415.338 427.35Z" fill="#C2E7FF" stroke="#EBF5FF" stroke-width="1.01355"/>
<path d="M417.765 373.72C430.025 381.343 440.997 388.445 448.823 393.765C452.738 396.426 455.86 398.637 457.962 400.242C458.829 400.904 459.514 401.459 460.008 401.895C459.399 401.644 458.598 401.276 457.62 400.792C455.251 399.617 451.887 397.795 447.769 395.461C439.536 390.795 428.313 384.097 416.052 376.474C403.792 368.851 392.82 361.748 384.993 356.429C381.079 353.768 377.956 351.557 375.855 349.952C374.987 349.289 374.302 348.734 373.808 348.298C374.418 348.548 375.218 348.917 376.196 349.402C378.566 350.577 381.93 352.399 386.048 354.733C394.281 359.399 405.504 366.097 417.765 373.72Z" fill="#C2E7FF" stroke="#EBF5FF" stroke-width="1.01355"/>
<rect x="406.692" y="410.329" width="94.2606" height="25.3389" rx="12.6694" transform="rotate(-18.4915 406.692 410.329)" fill="#E5D570" stroke="#91874C" stroke-width="1.01355"/>
<line x1="419.988" y1="405.348" x2="428.346" y2="430.34" stroke="#91874C" stroke-width="1.01355"/>
<line x1="431.523" y1="401.491" x2="439.881" y2="426.482" stroke="#91874C" stroke-width="1.01355"/>
<line x1="443.058" y1="397.632" x2="451.416" y2="422.624" stroke="#91874C" stroke-width="1.01355"/>
<line x1="458.438" y1="392.49" x2="466.796" y2="417.482" stroke="#91874C" stroke-width="1.01355"/>
<line x1="470.933" y1="388.31" x2="479.291" y2="413.302" stroke="#91874C" stroke-width="1.01355"/>
<line x1="483.429" y1="384.131" x2="491.787" y2="409.123" stroke="#91874C" stroke-width="1.01355"/>
<path d="M450.745 393.458C461.352 389.911 471.091 387.132 478.261 385.505C481.849 384.691 484.778 384.17 486.844 383.983C487.881 383.888 488.673 383.881 489.213 383.952C489.484 383.988 489.662 384.041 489.767 384.092C489.795 384.106 489.812 384.12 489.825 384.129C489.82 384.144 489.815 384.166 489.801 384.193C489.748 384.298 489.637 384.447 489.442 384.639C489.054 385.021 488.417 385.491 487.532 386.04C485.769 387.133 483.115 388.479 479.76 389.987C473.054 393.001 463.602 396.639 452.996 400.187C442.389 403.734 432.65 406.513 425.48 408.14C421.892 408.953 418.964 409.474 416.898 409.662C415.86 409.756 415.068 409.764 414.528 409.692C414.257 409.656 414.079 409.604 413.974 409.552C413.945 409.538 413.928 409.524 413.915 409.515C413.92 409.5 413.926 409.479 413.94 409.451C413.993 409.347 414.104 409.198 414.299 409.006C414.687 408.624 415.325 408.154 416.21 407.605C417.973 406.512 420.626 405.166 423.981 403.658C430.687 400.644 440.139 397.005 450.745 393.458Z" fill="#E5D570" stroke="#91874C" stroke-width="1.01355"/>
<rect x="549.634" y="387.994" width="94.2606" height="25.3389" rx="12.6694" transform="rotate(136.385 549.634 387.994)" fill="#E5D570" stroke="#91874C" stroke-width="1.01355"/>
<line x1="539.71" y1="398.149" x2="521.532" y2="379.071" stroke="#91874C" stroke-width="1.01355"/>
<line x1="530.905" y1="406.54" x2="512.726" y2="387.461" stroke="#91874C" stroke-width="1.01355"/>
<line x1="522.099" y1="414.93" x2="503.921" y2="395.851" stroke="#91874C" stroke-width="1.01355"/>
<line x1="510.359" y1="426.116" x2="492.18" y2="407.037" stroke="#91874C" stroke-width="1.01355"/>
<line x1="500.819" y1="435.205" x2="482.64" y2="416.126" stroke="#91874C" stroke-width="1.01355"/>
<line x1="491.28" y1="444.294" x2="473.101" y2="425.215" stroke="#91874C" stroke-width="1.01355"/>
<path d="M516.911 421.973C508.814 429.688 501.176 436.34 495.375 440.856C492.472 443.116 490.041 444.832 488.25 445.879C487.351 446.405 486.638 446.748 486.119 446.912C485.858 446.995 485.674 447.023 485.557 447.021C485.527 447.02 485.505 447.015 485.49 447.012C485.488 446.997 485.483 446.975 485.484 446.944C485.488 446.826 485.524 446.645 485.619 446.388C485.809 445.877 486.186 445.181 486.754 444.309C487.887 442.57 489.718 440.225 492.115 437.435C496.907 431.859 503.92 424.552 512.017 416.837C520.114 409.122 527.752 402.471 533.552 397.954C536.455 395.694 538.885 393.979 540.676 392.932C541.576 392.406 542.29 392.063 542.809 391.898C543.07 391.816 543.253 391.788 543.37 391.79C543.402 391.79 543.424 391.796 543.439 391.798C543.441 391.814 543.445 391.836 543.444 391.867C543.44 391.984 543.403 392.166 543.308 392.422C543.119 392.933 542.741 393.63 542.173 394.502C541.04 396.241 539.21 398.585 536.812 401.375C532.021 406.951 525.008 414.259 516.911 421.973Z" fill="#E5D570" stroke="#91874C" stroke-width="1.01355"/>
<rect x="501.608" y="400.44" width="94.2606" height="25.3389" rx="12.6694" transform="rotate(5.74734 501.608 400.44)" fill="#E5D570" stroke="#91874C" stroke-width="1.01355"/>
<line x1="515.778" y1="401.356" x2="513.139" y2="427.576" stroke="#91874C" stroke-width="1.01355"/>
<line x1="527.879" y1="402.574" x2="525.24" y2="428.794" stroke="#91874C" stroke-width="1.01355"/>
<line x1="539.981" y1="403.792" x2="537.342" y2="430.012" stroke="#91874C" stroke-width="1.01355"/>
<line x1="556.116" y1="405.416" x2="553.477" y2="431.636" stroke="#91874C" stroke-width="1.01355"/>
<line x1="569.226" y1="406.735" x2="566.587" y2="432.955" stroke="#91874C" stroke-width="1.01355"/>
<line x1="582.335" y1="408.056" x2="579.696" y2="434.276" stroke="#91874C" stroke-width="1.01355"/>
<path d="M548.704 403.142C559.832 404.262 569.854 405.726 577.059 407.187C580.665 407.918 583.55 408.645 585.511 409.322C586.495 409.662 587.22 409.98 587.683 410.267C587.916 410.411 588.056 410.532 588.131 410.622C588.151 410.646 588.161 410.666 588.169 410.679C588.158 410.691 588.145 410.709 588.12 410.728C588.029 410.802 587.867 410.892 587.611 410.987C587.1 411.176 586.326 411.343 585.294 411.48C583.237 411.753 580.265 411.891 576.586 411.889C569.234 411.884 559.122 411.321 547.994 410.201C536.866 409.081 526.844 407.617 519.639 406.157C516.034 405.426 513.15 404.699 511.189 404.022C510.204 403.682 509.478 403.364 509.015 403.077C508.783 402.933 508.642 402.812 508.567 402.721C508.547 402.697 508.537 402.677 508.529 402.664C508.539 402.652 508.554 402.635 508.578 402.616C508.669 402.542 508.831 402.452 509.088 402.357C509.599 402.168 510.373 402.001 511.406 401.864C513.462 401.591 516.434 401.453 520.112 401.455C527.464 401.46 537.577 402.022 548.704 403.142Z" fill="#E5D570" stroke="#91874C" stroke-width="1.01355"/>
<rect x="847.602" y="426.732" width="94.2606" height="25.3389" rx="12.6694" transform="rotate(-18.4915 847.602 426.732)" fill="#E5D570" stroke="#91874C" stroke-width="1.01355"/>
<line x1="860.899" y1="421.75" x2="869.257" y2="446.742" stroke="#91874C" stroke-width="1.01355"/>
<line x1="872.434" y1="417.893" x2="880.792" y2="442.885" stroke="#91874C" stroke-width="1.01355"/>
<line x1="883.968" y1="414.036" x2="892.326" y2="439.027" stroke="#91874C" stroke-width="1.01355"/>
<line x1="899.348" y1="408.892" x2="907.706" y2="433.884" stroke="#91874C" stroke-width="1.01355"/>
<line x1="911.844" y1="404.713" x2="920.202" y2="429.705" stroke="#91874C" stroke-width="1.01355"/>
<line x1="924.34" y1="400.535" x2="932.698" y2="425.526" stroke="#91874C" stroke-width="1.01355"/>
<path d="M891.656 409.861C902.263 406.314 912.002 403.535 919.172 401.909C922.76 401.095 925.689 400.574 927.755 400.386C928.792 400.292 929.584 400.284 930.124 400.356C930.395 400.392 930.573 400.444 930.678 400.496C930.706 400.509 930.723 400.523 930.736 400.532C930.731 400.547 930.726 400.569 930.712 400.597C930.659 400.701 930.548 400.85 930.353 401.042C929.965 401.424 929.328 401.894 928.443 402.443C926.68 403.536 924.026 404.882 920.671 406.39C913.965 409.404 904.513 413.043 893.907 416.59C883.3 420.137 873.561 422.916 866.391 424.543C862.804 425.357 859.875 425.877 857.809 426.065C856.772 426.159 855.979 426.167 855.439 426.096C855.168 426.06 854.99 426.007 854.885 425.956C854.857 425.942 854.839 425.928 854.826 425.919C854.831 425.904 854.837 425.882 854.851 425.855C854.904 425.75 855.015 425.601 855.21 425.409C855.598 425.027 856.236 424.557 857.121 424.008C858.884 422.915 861.537 421.569 864.892 420.061C871.598 417.047 881.05 413.409 891.656 409.861Z" fill="#E5D570" stroke="#91874C" stroke-width="1.01355"/>
<rect x="928.349" y="382.815" width="94.2606" height="25.3389" rx="12.6694" transform="rotate(51.3247 928.349 382.815)" fill="#E5D570" stroke="#91874C" stroke-width="1.01355"/>
<line x1="937.612" y1="393.576" x2="917.038" y2="410.044" stroke="#91874C" stroke-width="1.01355"/>
<line x1="945.211" y1="403.071" x2="924.638" y2="419.539" stroke="#91874C" stroke-width="1.01355"/>
<line x1="952.813" y1="412.567" x2="932.239" y2="429.034" stroke="#91874C" stroke-width="1.01355"/>
<line x1="962.946" y1="425.228" x2="942.372" y2="441.695" stroke="#91874C" stroke-width="1.01355"/>
<line x1="971.18" y1="435.514" x2="950.607" y2="451.982" stroke="#91874C" stroke-width="1.01355"/>
<line x1="979.414" y1="445.801" x2="958.841" y2="462.269" stroke="#91874C" stroke-width="1.01355"/>
<path d="M959.383 418.343C966.371 427.074 972.341 435.256 976.341 441.425C978.343 444.511 979.842 447.081 980.731 448.955C981.178 449.896 981.458 450.637 981.577 451.168C981.637 451.435 981.649 451.62 981.637 451.737C981.634 451.767 981.627 451.788 981.623 451.803C981.607 451.804 981.585 451.807 981.554 451.803C981.437 451.79 981.26 451.737 981.012 451.62C980.52 451.388 979.858 450.952 979.038 450.311C977.404 449.033 975.225 447.007 972.652 444.378C967.509 439.124 960.833 431.508 953.844 422.776C946.855 414.045 940.886 405.863 936.885 399.695C934.884 396.608 933.385 394.039 932.495 392.165C932.049 391.224 931.768 390.483 931.649 389.951C931.59 389.684 931.577 389.499 931.589 389.382C931.593 389.351 931.6 389.33 931.604 389.315C931.619 389.314 931.642 389.312 931.673 389.316C931.789 389.33 931.967 389.382 932.214 389.499C932.707 389.732 933.368 390.168 934.189 390.809C935.823 392.087 938.001 394.113 940.575 396.742C945.717 401.996 952.394 409.612 959.383 418.343Z" fill="#E5D570" stroke="#91874C" stroke-width="1.01355"/>
<rect x="1070.58" y="423.693" width="94.2606" height="25.3389" rx="12.6694" transform="rotate(-18.4915 1070.58 423.693)" fill="#E5D570" stroke="#91874C" stroke-width="1.01355"/>
<line x1="1083.88" y1="418.711" x2="1092.24" y2="443.703" stroke="#91874C" stroke-width="1.01355"/>
<line x1="1095.42" y1="414.854" x2="1103.77" y2="439.846" stroke="#91874C" stroke-width="1.01355"/>
<line x1="1106.95" y1="410.996" x2="1115.31" y2="435.988" stroke="#91874C" stroke-width="1.01355"/>
<line x1="1122.33" y1="405.853" x2="1130.69" y2="430.845" stroke="#91874C" stroke-width="1.01355"/>
<line x1="1134.83" y1="401.674" x2="1143.18" y2="426.666" stroke="#91874C" stroke-width="1.01355"/>
<line x1="1147.32" y1="397.496" x2="1155.68" y2="422.487" stroke="#91874C" stroke-width="1.01355"/>
<path d="M1114.64 406.822C1125.25 403.275 1134.98 400.496 1142.15 398.869C1145.74 398.056 1148.67 397.535 1150.74 397.347C1151.77 397.253 1152.57 397.245 1153.11 397.317C1153.38 397.353 1153.56 397.405 1153.66 397.457C1153.69 397.47 1153.71 397.484 1153.72 397.493C1153.71 397.508 1153.71 397.53 1153.69 397.558C1153.64 397.662 1153.53 397.811 1153.34 398.003C1152.95 398.385 1152.31 398.855 1151.43 399.404C1149.66 400.497 1147.01 401.843 1143.65 403.351C1136.95 406.365 1127.5 410.004 1116.89 413.551C1106.28 417.098 1096.54 419.877 1089.37 421.504C1085.79 422.318 1082.86 422.838 1080.79 423.026C1079.75 423.12 1078.96 423.128 1078.42 423.056C1078.15 423.021 1077.97 422.968 1077.87 422.917C1077.84 422.903 1077.82 422.889 1077.81 422.88C1077.81 422.865 1077.82 422.843 1077.83 422.816C1077.89 422.711 1078 422.562 1078.19 422.37C1078.58 421.988 1079.22 421.518 1080.1 420.969C1081.87 419.876 1084.52 418.53 1087.87 417.022C1094.58 414.008 1104.03 410.37 1114.64 406.822Z" fill="#E5D570" stroke="#91874C" stroke-width="1.01355"/>
<rect x="1043.12" y="392.702" width="94.2606" height="25.3389" rx="12.6694" transform="rotate(27.3804 1043.12 392.702)" fill="#E5D570" stroke="#91874C" stroke-width="1.01355"/>
<line x1="1055.95" y1="398.778" x2="1043.83" y2="422.178" stroke="#91874C" stroke-width="1.01355"/>
<line x1="1066.75" y1="404.372" x2="1054.64" y2="427.772" stroke="#91874C" stroke-width="1.01355"/>
<line x1="1077.55" y1="409.965" x2="1065.43" y2="433.366" stroke="#91874C" stroke-width="1.01355"/>
<line x1="1091.95" y1="417.423" x2="1079.83" y2="440.824" stroke="#91874C" stroke-width="1.01355"/>
<line x1="1103.65" y1="423.483" x2="1091.53" y2="446.883" stroke="#91874C" stroke-width="1.01355"/>
<line x1="1115.35" y1="429.543" x2="1103.23" y2="452.943" stroke="#91874C" stroke-width="1.01355"/>
<path d="M1085.9 412.577C1095.83 417.72 1104.61 422.776 1110.77 426.789C1113.85 428.798 1116.27 430.538 1117.84 431.89C1118.63 432.569 1119.19 433.132 1119.51 433.569C1119.67 433.789 1119.76 433.953 1119.8 434.065C1119.81 434.094 1119.81 434.116 1119.81 434.131C1119.8 434.138 1119.78 434.15 1119.75 434.159C1119.63 434.194 1119.45 434.218 1119.18 434.212C1118.63 434.199 1117.85 434.069 1116.84 433.816C1114.83 433.312 1112.02 432.344 1108.6 430.986C1101.76 428.271 1092.57 424.02 1082.64 418.877C1072.71 413.733 1063.93 408.678 1057.77 404.664C1054.69 402.655 1052.28 400.916 1050.71 399.563C1049.92 398.884 1049.36 398.321 1049.03 397.884C1048.87 397.664 1048.79 397.5 1048.75 397.388C1048.74 397.358 1048.74 397.336 1048.73 397.32C1048.75 397.314 1048.77 397.303 1048.8 397.294C1048.91 397.259 1049.09 397.235 1049.37 397.241C1049.91 397.254 1050.69 397.384 1051.7 397.637C1053.72 398.142 1056.53 399.109 1059.95 400.468C1066.78 403.182 1075.97 407.433 1085.9 412.577Z" fill="#E5D570" stroke="#91874C" stroke-width="1.01355"/>
<path d="M788.558 363.105H735.827L762.192 412.455L788.558 363.105Z" fill="#1B9D14" stroke="#2AB823" stroke-width="1.01355"/>
<path d="M761.191 413.277H708.461L734.826 363.928L761.191 413.277Z" fill="#1B9D14" stroke="#2AB823" stroke-width="1.01355"/>
<path d="M788.558 463.955H735.827L762.192 414.605L788.558 463.955Z" fill="#1B9D14" stroke="#2AB823" stroke-width="1.01355"/>
<path d="M761.191 413.783H708.461L734.826 463.133L761.191 413.783Z" fill="#1B9D14" stroke="#2AB823" stroke-width="1.01355"/>
<path d="M815.924 413.783H763.193L789.559 463.133L815.924 413.783Z" fill="#1B9D14" stroke="#2AB823" stroke-width="1.01355"/>
<path d="M815.924 413.277H763.193L789.559 363.928L815.924 413.277Z" fill="#1B9D14" stroke="#2AB823" stroke-width="1.01355"/>
<path d="M983.16 328.645H930.43L956.795 377.994L983.16 328.645Z" fill="#1B9D14" stroke="#2AB823" stroke-width="1.01355"/>
<path d="M955.794 378.816H903.063L929.429 329.467L955.794 378.816Z" fill="#1B9D14" stroke="#2AB823" stroke-width="1.01355"/>
<path d="M983.16 429.494H930.43L956.795 380.145L983.16 429.494Z" fill="#1B9D14" stroke="#2AB823" stroke-width="1.01355"/>
<path d="M955.794 379.322H903.063L929.429 428.672L955.794 379.322Z" fill="#1B9D14" stroke="#2AB823" stroke-width="1.01355"/>
<path d="M1010.53 379.322H957.795L984.16 428.672L1010.53 379.322Z" fill="#1B9D14" stroke="#2AB823" stroke-width="1.01355"/>
<path d="M1010.53 378.816H957.795L984.16 329.467L1010.53 378.816Z" fill="#1B9D14" stroke="#2AB823" stroke-width="1.01355"/>
<path d="M654.769 375.269H602.038L628.403 424.618L654.769 375.269Z" fill="#B92417" stroke="#EA3330" stroke-width="1.01355"/>
<path d="M627.402 425.44H574.672L601.037 376.091L627.402 425.44Z" fill="#B92417" stroke="#EA3330" stroke-width="1.01355"/>
<path d="M654.769 476.118H602.038L628.403 426.769L654.769 476.118Z" fill="#B92417" stroke="#EA3330" stroke-width="1.01355"/>
<path d="M627.402 425.946H574.672L601.037 475.296L627.402 425.946Z" fill="#B92417" stroke="#EA3330" stroke-width="1.01355"/>
<path d="M682.135 425.946H629.404L655.77 475.296L682.135 425.946Z" fill="#B92417" stroke="#EA3330" stroke-width="1.01355"/>
<path d="M682.135 425.44H629.404L655.77 376.091L682.135 425.44Z" fill="#B92417" stroke="#EA3330" stroke-width="1.01355"/>
<path d="M583.82 342.834H531.09L557.455 392.184L583.82 342.834Z" fill="#361FC8" stroke="#4E69FF" stroke-width="1.01355"/>
<path d="M556.454 393.006H503.724L530.089 343.656L556.454 393.006Z" fill="#361FC8" stroke="#4E69FF" stroke-width="1.01355"/>
<path d="M583.82 443.684H531.09L557.455 394.334L583.82 443.684Z" fill="#361FC8" stroke="#4E69FF" stroke-width="1.01355"/>
<path d="M556.454 393.512H503.724L530.089 442.861L556.454 393.512Z" fill="#361FC8" stroke="#4E69FF" stroke-width="1.01355"/>
<path d="M611.187 393.512H558.456L584.821 442.861L611.187 393.512Z" fill="#361FC8" stroke="#4E69FF" stroke-width="1.01355"/>
<path d="M611.187 393.006H558.456L584.821 343.656L611.187 393.006Z" fill="#361FC8" stroke="#4E69FF" stroke-width="1.01355"/>
<path d="M1030.8 367.16H978.066L1004.43 416.51L1030.8 367.16Z" fill="#361FC8" stroke="#4E69FF" stroke-width="1.01355"/>
<path d="M1003.43 417.332H950.701L977.066 367.982L1003.43 417.332Z" fill="#361FC8" stroke="#4E69FF" stroke-width="1.01355"/>
<path d="M1030.8 468.01H978.066L1004.43 418.66L1030.8 468.01Z" fill="#361FC8" stroke="#4E69FF" stroke-width="1.01355"/>
<path d="M1003.43 417.838H950.701L977.066 467.188L1003.43 417.838Z" fill="#361FC8" stroke="#4E69FF" stroke-width="1.01355"/>
<path d="M1058.16 417.838H1005.43L1031.8 467.188L1058.16 417.838Z" fill="#361FC8" stroke="#4E69FF" stroke-width="1.01355"/>
<path d="M1058.16 417.332H1005.43L1031.8 367.982L1058.16 417.332Z" fill="#361FC8" stroke="#4E69FF" stroke-width="1.01355"/>
<rect x="-0.641344" y="0.319881" width="94.2606" height="25.3389" rx="12.6694" transform="matrix(-0.948371 -0.317164 -0.317164 0.948371 758.403 424.199)" fill="#E5D570" stroke="#91874C" stroke-width="1.01355"/>
<line y1="-0.506777" x2="26.3524" y2="-0.506777" transform="matrix(-0.317164 0.948371 0.948371 0.317164 746.094 419.885)" stroke="#91874C" stroke-width="1.01355"/>
<line y1="-0.506777" x2="26.3524" y2="-0.506777" transform="matrix(-0.317164 0.948371 0.948371 0.317164 734.559 416.027)" stroke="#91874C" stroke-width="1.01355"/>
<line y1="-0.506777" x2="26.3524" y2="-0.506777" transform="matrix(-0.317164 0.948371 0.948371 0.317164 723.023 412.17)" stroke="#91874C" stroke-width="1.01355"/>
<line y1="-0.506777" x2="26.3524" y2="-0.506777" transform="matrix(-0.317164 0.948371 0.948371 0.317164 707.645 407.026)" stroke="#91874C" stroke-width="1.01355"/>
<line y1="-0.506777" x2="26.3524" y2="-0.506777" transform="matrix(-0.317164 0.948371 0.948371 0.317164 695.148 402.848)" stroke="#91874C" stroke-width="1.01355"/>
<line y1="-0.506777" x2="26.3524" y2="-0.506777" transform="matrix(-0.317164 0.948371 0.948371 0.317164 682.652 398.668)" stroke="#91874C" stroke-width="1.01355"/>
<path d="M714.855 407.835C704.249 404.288 694.509 401.509 687.34 399.882C683.752 399.068 680.823 398.547 678.757 398.36C677.72 398.265 676.928 398.258 676.388 398.329C676.117 398.365 675.939 398.418 675.834 398.469C675.806 398.483 675.789 398.497 675.776 398.506C675.781 398.521 675.786 398.543 675.8 398.57C675.853 398.675 675.963 398.824 676.158 399.016C676.547 399.398 677.184 399.868 678.069 400.417C679.832 401.51 682.486 402.856 685.841 404.364C692.547 407.378 701.999 411.016 712.605 414.564C723.212 418.111 732.951 420.89 740.12 422.516C743.708 423.33 746.637 423.851 748.703 424.039C749.74 424.133 750.532 424.141 751.072 424.069C751.344 424.033 751.521 423.981 751.627 423.929C751.655 423.915 751.673 423.901 751.686 423.892C751.681 423.877 751.675 423.856 751.661 423.828C751.607 423.724 751.497 423.575 751.302 423.383C750.914 423.001 750.276 422.531 749.391 421.982C747.627 420.889 744.975 419.543 741.619 418.035C734.914 415.021 725.462 411.382 714.855 407.835Z" fill="#E5D570" stroke="#91874C" stroke-width="1.01355"/>
<path d="M874.253 430.389L847.217 473.873L918.728 488.189L874.253 430.389Z" fill="#C2E7FF" stroke="#EBF5FF" stroke-width="1.01355"/>
<path d="M873.574 430.139L846.692 473.374L822.69 428.476L873.574 430.139Z" fill="#C2E7FF" stroke="#EBF5FF" stroke-width="1.01355"/>
<path d="M901.19 385.725L874.307 428.96L850.305 384.062L901.19 385.725Z" fill="#C2E7FF" stroke="#EBF5FF" stroke-width="1.01355"/>
<path d="M845.959 474.553L819.077 517.788L795.075 472.89L845.959 474.553Z" fill="#C2E7FF" stroke="#EBF5FF" stroke-width="1.01355"/>
<path d="M821.894 428.797L795.011 472.032L845.896 473.696L821.894 428.797Z" fill="#C2E7FF" stroke="#EBF5FF" stroke-width="1.01355"/>
<path d="M849.509 384.383L822.627 427.618L873.511 429.282L849.509 384.383Z" fill="#C2E7FF" stroke="#EBF5FF" stroke-width="1.01355"/>
<path d="M847.129 474.59L820.272 517.783L917.86 489.041L847.129 474.59Z" fill="#C2E7FF" stroke="#EBF5FF" stroke-width="1.01355"/>
<path d="M874.341 429.671L901.202 386.47L919.097 487.03L874.341 429.671Z" fill="#C2E7FF" stroke="#EBF5FF" stroke-width="1.01355"/>
<path d="M820.711 427.244C828.334 414.983 835.437 404.012 840.756 396.185C843.417 392.271 845.628 389.149 847.233 387.047C847.895 386.18 848.45 385.495 848.886 385.001C848.636 385.61 848.268 386.411 847.783 387.389C846.608 389.758 844.786 393.122 842.452 397.24C837.786 405.473 831.089 416.696 823.465 428.956C815.842 441.217 808.739 452.189 803.42 460.016C800.759 463.93 798.548 467.052 796.943 469.154C796.28 470.022 795.725 470.707 795.289 471.201C795.539 470.591 795.908 469.79 796.393 468.812C797.568 466.443 799.39 463.079 801.724 458.961C806.39 450.728 813.088 439.504 820.711 427.244Z" fill="#C2E7FF" stroke="#EBF5FF" stroke-width="1.01355"/>
<rect x="106.423" y="449.005" width="116.559" height="459.14" rx="20.2711" fill="#E5D570"/>
<rect x="106.423" y="138.857" width="116.559" height="191.562" rx="20.2711" fill="#E5D570"/>
<rect x="1062.21" y="449.005" width="116.559" height="459.14" rx="20.2711" fill="#E5D570"/>
<path d="M1062.21 159.128C1062.21 147.932 1071.28 138.857 1082.48 138.857H1162.04C1171.28 138.857 1178.76 146.344 1178.76 155.58V310.147C1178.76 321.343 1169.69 330.418 1158.49 330.418H1082.48C1071.28 330.418 1062.21 321.343 1062.21 310.147V172.811V159.128Z" fill="#E5D570"/>
<rect x="106.423" y="908.146" width="116.559" height="1072.34" rx="20.2711" transform="rotate(-90 106.423 908.146)" fill="#E5D570"/>
<rect x="106.423" y="538.197" width="116.559" height="1072.34" rx="20.2711" transform="rotate(-90 106.423 538.197)" fill="#E5D570"/>
<rect x="109.464" y="330.419" width="116.559" height="1054.1" rx="20.2711" transform="rotate(-90 109.464 330.419)" fill="#E5D570"/>
<path d="M625.896 384.947C634.006 395.711 650.167 395.711 658.276 384.947L732.171 286.872C742.235 273.514 732.705 254.402 715.981 254.402H568.192C551.467 254.402 541.938 273.514 552.002 286.872L625.896 384.947Z" fill="#E5D570"/>
<ellipse cx="642.594" cy="291.903" rx="19.2575" ry="16.2169" fill="#272727"/>
<path d="M633.472 296.972H651.209C650.389 316.984 653.169 327.163 660.331 344.609H624.856C632.008 325.934 634.303 315.496 633.472 296.972Z" fill="#272727"/>
<ellipse cx="180.412" cy="384.138" rx="73.9895" ry="59.7997" fill="#F6F4F4"/>
<ellipse cx="282.782" cy="378.563" rx="59.7997" ry="48.1438" fill="#F6F4F4"/>
<ellipse cx="91.22" cy="678.068" rx="73.9895" ry="59.7997" fill="#F6F4F4"/>
<ellipse cx="73.9895" cy="775.37" rx="73.9895" ry="59.7997" fill="#F6F4F4"/>
<ellipse cx="109.464" cy="879.766" rx="73.9895" ry="59.7997" fill="#F6F4F4"/>
<ellipse cx="200.177" cy="929.43" rx="82.6047" ry="66.8946" fill="#F6F4F4"/>
<ellipse cx="308.12" cy="894.97" rx="73.9895" ry="59.7997" fill="#F6F4F4"/>
<ellipse cx="414.544" cy="848.346" rx="73.9895" ry="59.7997" fill="#F6F4F4"/>
<ellipse cx="473.33" cy="931.457" rx="80.0708" ry="64.8675" fill="#F6F4F4"/>
<ellipse cx="407.449" cy="1004.94" rx="81.0844" ry="65.3743" fill="#F6F4F4"/>
<ellipse cx="109.464" cy="466.235" rx="73.9895" ry="59.7997" fill="#F6F4F4"/>
<ellipse cx="91.22" cy="573.673" rx="73.9895" ry="59.7997" fill="#F6F4F4"/>
<path d="M650.331 941.134L693.814 914.098L708.131 985.609L650.331 941.134Z" fill="#C2E7FF" stroke="#EBF5FF" stroke-width="1.01355"/>
<path d="M650.08 940.454L693.315 913.572L648.417 889.57L650.08 940.454Z" fill="#C2E7FF" stroke="#EBF5FF" stroke-width="1.01355"/>
<path d="M605.666 968.07L648.901 941.188L604.003 917.186L605.666 968.07Z" fill="#C2E7FF" stroke="#EBF5FF" stroke-width="1.01355"/>
<path d="M694.494 912.839L737.729 885.957L692.831 861.954L694.494 912.839Z" fill="#C2E7FF" stroke="#EBF5FF" stroke-width="1.01355"/>
<path d="M648.739 888.774L691.975 861.891L693.639 912.775L648.739 888.774Z" fill="#C2E7FF" stroke="#EBF5FF" stroke-width="1.01355"/>
<path d="M604.324 916.389L647.56 889.507L649.224 940.391L604.324 916.389Z" fill="#C2E7FF" stroke="#EBF5FF" stroke-width="1.01355"/>
<path d="M694.532 914.009L737.726 887.152L708.983 984.74L694.532 914.009Z" fill="#C2E7FF" stroke="#EBF5FF" stroke-width="1.01355"/>
<path d="M649.613 941.222L606.412 968.083L706.972 985.978L649.613 941.222Z" fill="#C2E7FF" stroke="#EBF5FF" stroke-width="1.01355"/>
<path d="M647.186 887.592C634.926 895.215 623.954 902.318 616.128 907.637C612.213 910.298 609.091 912.509 606.989 914.114C606.122 914.776 605.437 915.331 604.943 915.767C605.553 915.516 606.353 915.148 607.331 914.664C609.7 913.489 613.065 911.667 617.182 909.333C625.415 904.667 636.638 897.969 648.899 890.346C661.159 882.723 672.131 875.62 679.958 870.301C683.872 867.64 686.995 865.429 689.097 863.824C689.964 863.161 690.649 862.606 691.143 862.17C690.533 862.42 689.733 862.789 688.755 863.274C686.385 864.449 683.021 866.271 678.903 868.605C670.67 873.271 659.447 879.969 647.186 887.592Z" fill="#C2E7FF" stroke="#EBF5FF" stroke-width="1.01355"/>
<rect x="868.109" y="944.126" width="94.2606" height="25.3389" rx="12.6694" fill="#E5D570" stroke="#91874C" stroke-width="1.01355"/>
<line x1="882.299" y1="943.619" x2="882.299" y2="969.972" stroke="#91874C" stroke-width="1.01355"/>
<line x1="894.462" y1="943.619" x2="894.462" y2="969.972" stroke="#91874C" stroke-width="1.01355"/>
<line x1="906.624" y1="943.619" x2="906.624" y2="969.972" stroke="#91874C" stroke-width="1.01355"/>
<line x1="922.841" y1="943.619" x2="922.841" y2="969.972" stroke="#91874C" stroke-width="1.01355"/>
<line x1="936.017" y1="943.619" x2="936.017" y2="969.972" stroke="#91874C" stroke-width="1.01355"/>
<line x1="949.194" y1="943.619" x2="949.194" y2="969.972" stroke="#91874C" stroke-width="1.01355"/>
<path d="M915.239 942.099C926.423 942.099 936.541 942.552 943.856 943.283C947.517 943.649 950.46 944.084 952.479 944.562C953.493 944.801 954.246 945.045 954.735 945.284C954.981 945.404 955.133 945.51 955.217 945.593C955.239 945.614 955.25 945.633 955.26 945.646C955.25 945.658 955.239 945.677 955.217 945.699C955.133 945.782 954.981 945.888 954.735 946.008C954.246 946.247 953.493 946.491 952.479 946.73C950.46 947.208 947.517 947.643 943.856 948.009C936.541 948.74 926.423 949.193 915.239 949.193C904.055 949.193 893.937 948.74 886.622 948.009C882.961 947.643 880.019 947.208 878 946.73C876.986 946.491 876.233 946.247 875.743 946.008C875.497 945.888 875.345 945.781 875.262 945.699C875.239 945.677 875.227 945.658 875.218 945.646C875.227 945.633 875.24 945.615 875.262 945.593C875.345 945.51 875.497 945.404 875.743 945.284C876.233 945.045 876.986 944.801 878 944.562C880.019 944.084 882.961 943.649 886.622 943.283C893.937 942.552 904.055 942.099 915.239 942.099Z" fill="#E5D570" stroke="#91874C" stroke-width="1.01355"/>
<rect x="932.977" y="1007.98" width="94.2606" height="25.3389" rx="12.6694" fill="#E5D570" stroke="#91874C" stroke-width="1.01355"/>
<line x1="947.167" y1="1007.47" x2="947.167" y2="1033.83" stroke="#91874C" stroke-width="1.01355"/>
<line x1="959.329" y1="1007.47" x2="959.329" y2="1033.83" stroke="#91874C" stroke-width="1.01355"/>
<line x1="971.493" y1="1007.47" x2="971.493" y2="1033.83" stroke="#91874C" stroke-width="1.01355"/>
<line x1="987.71" y1="1007.47" x2="987.71" y2="1033.83" stroke="#91874C" stroke-width="1.01355"/>
<line x1="1000.89" y1="1007.47" x2="1000.89" y2="1033.83" stroke="#91874C" stroke-width="1.01355"/>
<line x1="1014.06" y1="1007.47" x2="1014.06" y2="1033.83" stroke="#91874C" stroke-width="1.01355"/>
<path d="M980.108 1005.95C991.292 1005.95 1001.41 1006.41 1008.73 1007.14C1012.39 1007.5 1015.33 1007.94 1017.35 1008.42C1018.36 1008.66 1019.12 1008.9 1019.6 1009.14C1019.85 1009.26 1020 1009.36 1020.09 1009.45C1020.11 1009.47 1020.12 1009.49 1020.13 1009.5C1020.12 1009.51 1020.11 1009.53 1020.09 1009.55C1020 1009.64 1019.85 1009.74 1019.6 1009.86C1019.12 1010.1 1018.36 1010.35 1017.35 1010.58C1015.33 1011.06 1012.39 1011.5 1008.73 1011.86C1001.41 1012.59 991.292 1013.05 980.108 1013.05C968.924 1013.05 958.806 1012.59 951.491 1011.86C947.831 1011.5 944.888 1011.06 942.869 1010.58C941.856 1010.35 941.102 1010.1 940.612 1009.86C940.367 1009.74 940.214 1009.64 940.131 1009.55C940.108 1009.53 940.096 1009.51 940.087 1009.5C940.096 1009.49 940.109 1009.47 940.131 1009.45C940.214 1009.36 940.366 1009.26 940.612 1009.14C941.102 1008.9 941.856 1008.66 942.869 1008.42C944.888 1007.94 947.831 1007.5 951.491 1007.14C958.806 1006.41 968.924 1005.95 980.108 1005.95Z" fill="#E5D570" stroke="#91874C" stroke-width="1.01355"/>
<rect x="806.283" y="1032.3" width="94.2606" height="25.3389" rx="12.6694" fill="#E5D570" stroke="#91874C" stroke-width="1.01355"/>
<line x1="820.473" y1="1031.8" x2="820.473" y2="1058.15" stroke="#91874C" stroke-width="1.01355"/>
<line x1="832.636" y1="1031.8" x2="832.636" y2="1058.15" stroke="#91874C" stroke-width="1.01355"/>
<line x1="844.798" y1="1031.8" x2="844.798" y2="1058.15" stroke="#91874C" stroke-width="1.01355"/>
<line x1="861.016" y1="1031.8" x2="861.016" y2="1058.15" stroke="#91874C" stroke-width="1.01355"/>
<line x1="874.191" y1="1031.8" x2="874.191" y2="1058.15" stroke="#91874C" stroke-width="1.01355"/>
<line x1="887.367" y1="1031.8" x2="887.367" y2="1058.15" stroke="#91874C" stroke-width="1.01355"/>
<path d="M853.413 1030.28C864.597 1030.28 874.715 1030.73 882.03 1031.46C885.691 1031.83 888.634 1032.26 890.653 1032.74C891.667 1032.98 892.42 1033.22 892.909 1033.46C893.155 1033.58 893.307 1033.69 893.391 1033.77C893.412 1033.79 893.424 1033.81 893.434 1033.83C893.424 1033.84 893.413 1033.86 893.391 1033.88C893.307 1033.96 893.155 1034.07 892.909 1034.19C892.42 1034.43 891.667 1034.67 890.653 1034.91C888.634 1035.39 885.691 1035.82 882.03 1036.19C874.715 1036.92 864.597 1037.37 853.413 1037.37C842.229 1037.37 832.111 1036.92 824.796 1036.19C821.135 1035.82 818.193 1035.39 816.174 1034.91C815.16 1034.67 814.406 1034.43 813.917 1034.19C813.671 1034.07 813.519 1033.96 813.436 1033.88C813.413 1033.86 813.401 1033.84 813.392 1033.83C813.401 1033.81 813.413 1033.79 813.436 1033.77C813.519 1033.69 813.671 1033.58 813.917 1033.46C814.406 1033.22 815.16 1032.98 816.174 1032.74C818.193 1032.26 821.135 1031.83 824.796 1031.46C832.111 1030.73 842.229 1030.28 853.413 1030.28Z" fill="#E5D570" stroke="#91874C" stroke-width="1.01355"/>
<rect x="822.5" y="1012.03" width="94.2606" height="25.3389" rx="12.6694" fill="#E5D570" stroke="#91874C" stroke-width="1.01355"/>
<line x1="836.689" y1="1011.53" x2="836.689" y2="1037.88" stroke="#91874C" stroke-width="1.01355"/>
<line x1="848.852" y1="1011.53" x2="848.852" y2="1037.88" stroke="#91874C" stroke-width="1.01355"/>
<line x1="861.015" y1="1011.53" x2="861.015" y2="1037.88" stroke="#91874C" stroke-width="1.01355"/>
<line x1="877.232" y1="1011.53" x2="877.232" y2="1037.88" stroke="#91874C" stroke-width="1.01355"/>
<line x1="890.408" y1="1011.53" x2="890.408" y2="1037.88" stroke="#91874C" stroke-width="1.01355"/>
<line x1="903.584" y1="1011.53" x2="903.584" y2="1037.88" stroke="#91874C" stroke-width="1.01355"/>
<path d="M869.63 1010.01C880.814 1010.01 890.932 1010.46 898.247 1011.19C901.908 1011.56 904.851 1011.99 906.87 1012.47C907.883 1012.71 908.637 1012.95 909.126 1013.19C909.372 1013.31 909.524 1013.42 909.607 1013.5C909.629 1013.52 909.641 1013.54 909.65 1013.55C909.641 1013.57 909.63 1013.59 909.607 1013.61C909.524 1013.69 909.372 1013.8 909.126 1013.92C908.637 1014.16 907.883 1014.4 906.87 1014.64C904.851 1015.12 901.908 1015.55 898.247 1015.92C890.932 1016.65 880.814 1017.1 869.63 1017.1C858.446 1017.1 848.328 1016.65 841.013 1015.92C837.352 1015.55 834.41 1015.12 832.391 1014.64C831.377 1014.4 830.623 1014.16 830.134 1013.92C829.888 1013.8 829.736 1013.69 829.652 1013.61C829.63 1013.59 829.618 1013.57 829.608 1013.55C829.618 1013.54 829.63 1013.52 829.652 1013.5C829.736 1013.42 829.888 1013.31 830.134 1013.19C830.623 1012.95 831.377 1012.71 832.391 1012.47C834.41 1011.99 837.352 1011.56 841.013 1011.19C848.328 1010.46 858.446 1010.01 869.63 1010.01Z" fill="#E5D570" stroke="#91874C" stroke-width="1.01355"/>
<rect x="989.735" y="975.547" width="94.2606" height="25.3389" rx="12.6694" fill="#E5D570" stroke="#91874C" stroke-width="1.01355"/>
<line x1="1003.92" y1="975.04" x2="1003.92" y2="1001.39" stroke="#91874C" stroke-width="1.01355"/>
<line x1="1016.09" y1="975.04" x2="1016.09" y2="1001.39" stroke="#91874C" stroke-width="1.01355"/>
<line x1="1028.25" y1="975.04" x2="1028.25" y2="1001.39" stroke="#91874C" stroke-width="1.01355"/>
<line x1="1044.47" y1="975.04" x2="1044.47" y2="1001.39" stroke="#91874C" stroke-width="1.01355"/>
<line x1="1057.64" y1="975.04" x2="1057.64" y2="1001.39" stroke="#91874C" stroke-width="1.01355"/>
<line x1="1070.82" y1="975.04" x2="1070.82" y2="1001.39" stroke="#91874C" stroke-width="1.01355"/>
<path d="M1036.87 973.52C1048.05 973.52 1058.17 973.973 1065.48 974.704C1069.14 975.07 1072.09 975.505 1074.11 975.982C1075.12 976.222 1075.87 976.466 1076.36 976.705C1076.61 976.825 1076.76 976.931 1076.84 977.014C1076.87 977.035 1076.88 977.054 1076.89 977.066C1076.88 977.079 1076.87 977.098 1076.84 977.12C1076.76 977.202 1076.61 977.309 1076.36 977.429C1075.87 977.668 1075.12 977.912 1074.11 978.151C1072.09 978.629 1069.14 979.064 1065.48 979.43C1058.17 980.161 1048.05 980.614 1036.87 980.614C1025.68 980.614 1015.56 980.161 1008.25 979.43C1004.59 979.064 1001.65 978.629 999.627 978.151C998.613 977.912 997.86 977.668 997.37 977.429C997.124 977.309 996.972 977.202 996.889 977.12C996.866 977.098 996.854 977.079 996.845 977.066C996.854 977.054 996.867 977.035 996.889 977.014C996.972 976.931 997.124 976.825 997.37 976.705C997.86 976.466 998.613 976.222 999.627 975.982C1001.65 975.505 1004.59 975.07 1008.25 974.704C1015.56 973.973 1025.68 973.52 1036.87 973.52Z" fill="#E5D570" stroke="#91874C" stroke-width="1.01355"/>
<rect x="1048.52" y="948.211" width="94.2606" height="25.3389" rx="12.6694" transform="rotate(18.3505 1048.52 948.211)" fill="#E5D570" stroke="#91874C" stroke-width="1.01355"/>
<line x1="1062.15" y1="952.198" x2="1053.86" y2="977.21" stroke="#91874C" stroke-width="1.01355"/>
<line x1="1073.7" y1="956.027" x2="1065.4" y2="981.039" stroke="#91874C" stroke-width="1.01355"/>
<line x1="1085.24" y1="959.856" x2="1076.94" y2="984.868" stroke="#91874C" stroke-width="1.01355"/>
<line x1="1100.63" y1="964.961" x2="1092.34" y2="989.974" stroke="#91874C" stroke-width="1.01355"/>
<line x1="1113.14" y1="969.11" x2="1104.84" y2="994.122" stroke="#91874C" stroke-width="1.01355"/>
<line x1="1125.65" y1="973.258" x2="1117.35" y2="998.271" stroke="#91874C" stroke-width="1.01355"/>
<path d="M1093.9 961.125C1104.51 964.646 1113.97 968.261 1120.69 971.259C1124.05 972.759 1126.7 974.098 1128.47 975.187C1129.35 975.733 1129.99 976.202 1130.38 976.583C1130.58 976.774 1130.69 976.923 1130.74 977.027C1130.76 977.055 1130.76 977.076 1130.77 977.091C1130.75 977.1 1130.74 977.115 1130.71 977.128C1130.6 977.18 1130.43 977.233 1130.15 977.27C1129.61 977.343 1128.82 977.337 1127.79 977.245C1125.72 977.063 1122.79 976.549 1119.2 975.744C1112.02 974.135 1102.28 971.38 1091.66 967.859C1081.05 964.338 1071.59 960.722 1064.87 957.725C1061.52 956.225 1058.86 954.886 1057.09 953.797C1056.21 953.25 1055.57 952.782 1055.18 952.401C1054.98 952.209 1054.87 952.061 1054.82 951.956C1054.8 951.928 1054.8 951.906 1054.79 951.891C1054.81 951.882 1054.82 951.869 1054.85 951.855C1054.96 951.803 1055.14 951.75 1055.41 951.714C1055.95 951.641 1056.74 951.647 1057.78 951.738C1059.84 951.921 1062.77 952.435 1066.36 953.24C1073.54 954.848 1083.28 957.604 1093.9 961.125Z" fill="#E5D570" stroke="#91874C" stroke-width="1.01355"/>
<rect x="868.109" y="923.854" width="94.2606" height="25.3389" rx="12.6694" fill="#E5D570" stroke="#91874C" stroke-width="1.01355"/>
<line x1="882.299" y1="923.348" x2="882.299" y2="949.7" stroke="#91874C" stroke-width="1.01355"/>
<line x1="894.462" y1="923.348" x2="894.462" y2="949.7" stroke="#91874C" stroke-width="1.01355"/>
<line x1="906.624" y1="923.348" x2="906.624" y2="949.7" stroke="#91874C" stroke-width="1.01355"/>
<line x1="922.841" y1="923.348" x2="922.841" y2="949.7" stroke="#91874C" stroke-width="1.01355"/>
<line x1="936.017" y1="923.348" x2="936.017" y2="949.7" stroke="#91874C" stroke-width="1.01355"/>
<line x1="949.194" y1="923.348" x2="949.194" y2="949.7" stroke="#91874C" stroke-width="1.01355"/>
<path d="M915.239 921.827C926.423 921.827 936.541 922.28 943.856 923.012C947.517 923.378 950.46 923.813 952.479 924.29C953.493 924.53 954.246 924.774 954.735 925.013C954.981 925.133 955.133 925.239 955.217 925.321C955.239 925.343 955.25 925.362 955.26 925.374C955.25 925.387 955.239 925.406 955.217 925.428C955.133 925.51 954.981 925.616 954.735 925.736C954.246 925.975 953.493 926.219 952.479 926.459C950.46 926.936 947.517 927.371 943.856 927.737C936.541 928.469 926.423 928.922 915.239 928.922C904.055 928.922 893.937 928.469 886.622 927.737C882.961 927.371 880.019 926.936 878 926.459C876.986 926.219 876.233 925.975 875.743 925.736C875.497 925.616 875.345 925.51 875.262 925.428C875.239 925.406 875.227 925.387 875.218 925.374C875.227 925.362 875.24 925.343 875.262 925.321C875.345 925.239 875.497 925.133 875.743 925.013C876.233 924.774 876.986 924.53 878 924.29C880.019 923.813 882.961 923.378 886.622 923.012C893.937 922.28 904.055 921.827 915.239 921.827Z" fill="#E5D570" stroke="#91874C" stroke-width="1.01355"/>
<rect x="803.031" y="974.537" width="94.2606" height="25.3389" rx="12.6694" transform="rotate(-49.82 803.031 974.537)" fill="#E5D570" stroke="#91874C" stroke-width="1.01355"/>
<line x1="811.799" y1="963.37" x2="831.932" y2="980.372" stroke="#91874C" stroke-width="1.01355"/>
<line x1="819.645" y1="954.077" x2="839.779" y2="971.079" stroke="#91874C" stroke-width="1.01355"/>
<line x1="827.493" y1="944.785" x2="847.627" y2="961.787" stroke="#91874C" stroke-width="1.01355"/>
<line x1="837.956" y1="932.395" x2="858.09" y2="949.397" stroke="#91874C" stroke-width="1.01355"/>
<line x1="846.457" y1="922.328" x2="866.591" y2="939.33" stroke="#91874C" stroke-width="1.01355"/>
<line x1="854.958" y1="912.26" x2="875.092" y2="929.263" stroke="#91874C" stroke-width="1.01355"/>
<path d="M831.889 937.221C839.105 928.676 845.979 921.238 851.258 916.121C853.899 913.561 856.131 911.593 857.798 910.358C858.635 909.738 859.307 909.32 859.806 909.101C860.056 908.99 860.235 908.943 860.352 908.932C860.383 908.929 860.405 908.932 860.42 908.933C860.424 908.948 860.431 908.97 860.433 909.001C860.442 909.118 860.425 909.302 860.359 909.568C860.226 910.096 859.926 910.829 859.455 911.757C858.517 913.608 856.95 916.137 854.868 919.17C850.708 925.231 844.526 933.254 837.31 941.799C830.094 950.343 823.22 957.782 817.941 962.899C815.3 965.459 813.069 967.427 811.402 968.661C810.565 969.281 809.892 969.7 809.393 969.919C809.143 970.03 808.964 970.077 808.847 970.088C808.816 970.091 808.793 970.088 808.778 970.087C808.774 970.072 808.768 970.05 808.766 970.019C808.757 969.902 808.774 969.718 808.841 969.452C808.974 968.924 809.274 968.191 809.745 967.262C810.683 965.411 812.249 962.883 814.331 959.85C818.492 953.789 824.673 945.766 831.889 937.221Z" fill="#E5D570" stroke="#91874C" stroke-width="1.01355"/>
<path d="M654.77 972.252H602.039L628.404 1021.6L654.77 972.252Z" fill="#1B9D14" stroke="#2AB823" stroke-width="1.01355"/>
<path d="M627.403 1022.42H574.673L601.038 973.074L627.403 1022.42Z" fill="#1B9D14" stroke="#2AB823" stroke-width="1.01355"/>
<path d="M654.77 1073.1H602.039L628.404 1023.75L654.77 1073.1Z" fill="#1B9D14" stroke="#2AB823" stroke-width="1.01355"/>
<path d="M627.403 1022.93H574.673L601.038 1072.28L627.403 1022.93Z" fill="#1B9D14" stroke="#2AB823" stroke-width="1.01355"/>
<path d="M682.136 1022.93H629.405L655.771 1072.28L682.136 1022.93Z" fill="#1B9D14" stroke="#2AB823" stroke-width="1.01355"/>
<path d="M682.136 1022.42H629.405L655.771 973.074L682.136 1022.42Z" fill="#1B9D14" stroke="#2AB823" stroke-width="1.01355"/>
<path d="M772.342 1002.66H719.611L745.977 1052.01L772.342 1002.66Z" fill="#B92417" stroke="#EA3330" stroke-width="1.01355"/>
<path d="M744.976 1052.83H692.245L718.61 1003.48L744.976 1052.83Z" fill="#B92417" stroke="#EA3330" stroke-width="1.01355"/>
<path d="M772.342 1103.51H719.611L745.977 1054.16L772.342 1103.51Z" fill="#B92417" stroke="#EA3330" stroke-width="1.01355"/>
<path d="M744.976 1053.34H692.245L718.61 1102.69L744.976 1053.34Z" fill="#B92417" stroke="#EA3330" stroke-width="1.01355"/>
<path d="M799.708 1053.34H746.978L773.343 1102.69L799.708 1053.34Z" fill="#B92417" stroke="#EA3330" stroke-width="1.01355"/>
<path d="M799.708 1052.83H746.978L773.343 1003.48L799.708 1052.83Z" fill="#B92417" stroke="#EA3330" stroke-width="1.01355"/>
<path d="M709.501 1021.92H656.771L683.136 1071.27L709.501 1021.92Z" fill="#361FC8" stroke="#4E69FF" stroke-width="1.01355"/>
<path d="M682.135 1072.09H629.404L655.77 1022.74L682.135 1072.09Z" fill="#361FC8" stroke="#4E69FF" stroke-width="1.01355"/>
<path d="M709.501 1122.77H656.771L683.136 1073.42L709.501 1122.77Z" fill="#361FC8" stroke="#4E69FF" stroke-width="1.01355"/>
<path d="M682.135 1072.59H629.404L655.77 1121.94L682.135 1072.59Z" fill="#361FC8" stroke="#4E69FF" stroke-width="1.01355"/>
<path d="M736.867 1072.59H684.137L710.502 1121.94L736.867 1072.59Z" fill="#361FC8" stroke="#4E69FF" stroke-width="1.01355"/>
<path d="M736.867 1072.09H684.137L710.502 1022.74L736.867 1072.09Z" fill="#361FC8" stroke="#4E69FF" stroke-width="1.01355"/>
</svg>
