<svg width="1199" height="1336" viewBox="0 0 1199 1336" fill="none" xmlns="http://www.w3.org/2000/svg">
<path d="M290.951 819.565C375.414 768.043 562.584 672.6 635.56 703.007C646.54 716.521 672.048 744.055 686.237 746.083C703.975 748.616 1195.55 703.007 1180.35 923.455C1192.17 956.395 1208.72 1023.29 1180.35 1027.34C1194.7 1048.46 1208.72 1097.28 1149.94 1123.63C1148.25 1143.06 1136.26 1184.95 1101.79 1197.11C1101.79 1215.7 1087.61 1253.87 1030.85 1257.93C1020.71 1277.35 985.743 1314.18 926.957 1306.07C912.598 1318.74 873.745 1338.51 833.203 1316.21C809.553 1328.88 753.132 1346.61 716.644 1316.21C692.995 1326.34 637.587 1338.51 605.153 1306.07C573.057 1317.05 494.676 1324.32 437.917 1265.53C372.036 1230.05 261.558 1104.37 346.697 885.446C349.231 879.534 341.629 858.08 290.951 819.565Z" fill="#EF8B61"/>
<path d="M290.951 819.565C375.414 768.043 562.584 672.6 635.56 703.007C646.54 716.521 672.048 744.055 686.237 746.083C703.975 748.616 1195.55 703.007 1180.35 923.455C1192.17 956.395 1208.72 1023.29 1180.35 1027.34C1194.7 1048.46 1208.72 1097.28 1149.94 1123.63C1148.25 1143.06 1136.26 1184.95 1101.79 1197.11C1101.79 1215.7 1087.61 1253.87 1030.85 1257.93C1020.71 1277.35 985.743 1314.18 926.957 1306.07C912.598 1318.74 873.745 1338.51 833.203 1316.21C809.553 1328.88 753.132 1346.61 716.644 1316.21C692.995 1326.34 637.587 1338.51 605.153 1306.07C573.057 1317.05 494.676 1324.32 437.917 1265.53C372.036 1230.05 261.558 1104.37 346.697 885.446C349.231 879.534 341.629 858.08 290.951 819.565Z" fill="url(#paint0_linear_2271_1604)" fill-opacity="0.2"/>
<path d="M290.951 819.565C375.414 768.043 562.584 672.6 635.56 703.007C646.54 716.521 672.048 744.055 686.237 746.083C703.975 748.616 1195.55 703.007 1180.35 923.455C1192.17 956.395 1208.72 1023.29 1180.35 1027.34C1194.7 1048.46 1208.72 1097.28 1149.94 1123.63C1148.25 1143.06 1136.26 1184.95 1101.79 1197.11C1101.79 1215.7 1087.61 1253.87 1030.85 1257.93C1020.71 1277.35 985.743 1314.18 926.957 1306.07C912.598 1318.74 873.745 1338.51 833.203 1316.21C809.553 1328.88 753.132 1346.61 716.644 1316.21C692.995 1326.34 637.587 1338.51 605.153 1306.07C573.057 1317.05 494.676 1324.32 437.917 1265.53C372.036 1230.05 261.558 1104.37 346.697 885.446C349.231 879.534 341.629 858.08 290.951 819.565Z" stroke="#A93808" stroke-width="5.06777"/>
<path d="M290.95 819.563C180.304 708.072 -31.3601 455.19 7.15502 335.591C11.3781 303.495 24.3854 245.385 42.6294 269.71C50.231 234.235 74.5563 163.287 111.044 163.287C126.248 134.569 162.736 81.6954 187.061 99.9394C212.4 65.3096 268.652 4.15842 290.95 36.5922C317.134 15.4765 379.13 -17.633 417.645 18.855C453.964 7.87481 531.67 -7.49747 551.941 18.855C569.678 13.7873 611.234 11.2534 635.559 41.6601C649.073 42.5046 684.21 55.3429 716.643 99.9394C737.759 107.541 782.524 134.4 792.66 181.024C820.533 216.498 870.704 304.678 848.405 373.599C820.533 459.751 729.313 571.242 683.703 599.115C648.044 620.907 602.618 677.666 635.559 703.005C558.529 672.598 373.724 768.041 290.95 819.563Z" fill="#EF8B61"/>
<path d="M290.95 819.563C180.304 708.072 -31.3601 455.19 7.15502 335.591C11.3781 303.495 24.3854 245.385 42.6294 269.71C50.231 234.235 74.5563 163.287 111.044 163.287C126.248 134.569 162.736 81.6954 187.061 99.9394C212.4 65.3096 268.652 4.15842 290.95 36.5922C317.134 15.4765 379.13 -17.633 417.645 18.855C453.964 7.87481 531.67 -7.49747 551.941 18.855C569.678 13.7873 611.234 11.2534 635.559 41.6601C649.073 42.5046 684.21 55.3429 716.643 99.9394C737.759 107.541 782.524 134.4 792.66 181.024C820.533 216.498 870.704 304.678 848.405 373.599C820.533 459.751 729.313 571.242 683.703 599.115C648.044 620.907 602.618 677.666 635.559 703.005C558.529 672.598 373.724 768.041 290.95 819.563Z" fill="url(#paint1_linear_2271_1604)" fill-opacity="0.2"/>
<path d="M290.95 819.563C180.304 708.072 -31.3601 455.19 7.15502 335.591C11.3781 303.495 24.3854 245.385 42.6294 269.71C50.231 234.235 74.5563 163.287 111.044 163.287C126.248 134.569 162.736 81.6954 187.061 99.9394C212.4 65.3096 268.652 4.15842 290.95 36.5922C317.134 15.4765 379.13 -17.633 417.645 18.855C453.964 7.87481 531.67 -7.49747 551.941 18.855C569.678 13.7873 611.234 11.2534 635.559 41.6601C649.073 42.5046 684.21 55.3429 716.643 99.9394C737.759 107.541 782.524 134.4 792.66 181.024C820.533 216.498 870.704 304.678 848.405 373.599C820.533 459.751 729.313 571.242 683.703 599.115C648.044 620.907 602.618 677.666 635.559 703.005C558.529 672.598 373.724 768.041 290.95 819.563Z" stroke="#A93808" stroke-width="5.06777"/>
<path d="M369.5 817.029C437.915 782.399 578.799 718.714 595.016 741.012C615.287 768.885 617.821 796.758 716.642 806.893C815.464 817.029 1071.39 786.622 1117 875.308C1121.22 892.201 1122.57 927.506 1094.19 933.588C1134.73 949.636 1194.53 995.415 1109.39 1050.15C1123.75 1066.19 1140.82 1101.33 1094.19 1113.49C1101.79 1147.28 1079.5 1212.32 929.489 1202.18C929.489 1235.96 890.974 1287.83 736.914 1224.98C730.157 1249.48 687.249 1279.21 569.677 1202.18C553.629 1212.32 508.864 1216.88 458.186 1154.04C422.712 1159.95 365.953 1138.83 422.712 1007.07C431.158 981.732 432.34 908.249 369.5 817.029Z" fill="#F6D3E5" stroke="#E670AD" stroke-width="5.06777"/>
<path d="M296.018 761.284C326.424 749.46 389.772 724.796 399.907 720.742C412.577 715.674 448.051 624.455 511.398 672.598C529.98 675.132 572.212 678.68 592.483 672.598C600.084 604.183 785.058 439.481 774.922 388.803C774.922 382.891 770.868 374.613 754.651 388.803C760.564 374.444 763.773 347.247 729.312 353.329C734.38 334.747 734.38 298.09 693.838 300.117C707.352 270.555 714.109 214.978 633.025 229.168C637.248 216.499 635.052 193.187 592.483 201.295C597.55 181.869 594.003 150.111 539.271 178.49C545.183 152.307 531.669 112.103 430.314 160.753C429.469 137.948 404.975 108.049 313.755 170.889C314.6 141.327 293.991 111.596 204.798 229.168C192.129 208.052 161.215 190.146 138.917 287.448C105.132 264.643 47.697 300.117 78.1036 454.684C57.8325 477.489 310.208 753.176 296.018 761.284Z" fill="#F6D3E5" stroke="#E670AD" stroke-width="5.06777"/>
<path d="M318.823 703.004C342.472 697.092 390.278 683.746 392.305 677.665C394.839 670.064 422.712 611.784 463.254 634.589C486.059 633.744 537.243 628.508 559.542 614.318C547.717 591.513 532.176 531.713 564.61 474.954C591.638 429.344 587.674 306.828 377.102 350.794C146.518 398.938 247.873 647.258 318.823 703.004Z" fill="#E670AD" stroke="#AD4279" stroke-width="5.06777"/>
<path d="M506.331 819.564C486.06 619.387 821.105 533.924 840.804 819.564C850.939 966.529 579.813 1090.69 506.331 819.564Z" fill="#AD4279"/>
<path d="M506.331 819.564C486.06 619.387 821.105 533.924 840.804 819.564C850.939 966.529 579.813 1090.69 506.331 819.564Z" fill="url(#paint2_linear_2271_1604)" fill-opacity="0.2"/>
<path d="M506.331 819.564C486.06 619.387 821.105 533.924 840.804 819.564C850.939 966.529 579.813 1090.69 506.331 819.564Z" stroke="#450023" stroke-width="5.06777"/>
<path d="M250.408 480.022C199.73 388.802 165.832 225.272 166.789 279.845C169.323 424.277 207.332 447.082 250.408 480.022Z" fill="white"/>
<path d="M303.619 419.209C265.611 389.647 208.852 301.637 285.882 186.092C292.639 174.267 302.099 168.354 285.882 239.303C269.665 310.252 290.95 388.802 303.619 419.209Z" fill="white"/>
<path d="M415.11 320.388C442.983 257.04 511.398 153.151 473.39 186.092C439.793 215.208 412.576 300.116 415.11 320.388Z" fill="white"/>
<path d="M250.408 480.022C199.73 388.802 165.832 225.272 166.789 279.845C169.323 424.277 207.332 447.082 250.408 480.022Z" stroke="#FFB5DB" stroke-width="5.06777"/>
<path d="M303.619 419.209C265.611 389.647 208.852 301.637 285.882 186.092C292.639 174.267 302.099 168.354 285.882 239.303C269.665 310.252 290.95 388.802 303.619 419.209Z" stroke="#FFB5DB" stroke-width="5.06777"/>
<path d="M415.11 320.388C442.983 257.04 511.398 153.151 473.39 186.092C439.793 215.208 412.576 300.116 415.11 320.388Z" stroke="#FFB5DB" stroke-width="5.06777"/>
<path d="M833.2 908.248C905.838 943.722 1057.2 1011.12 1081.52 996.934C1105.85 982.744 926.109 931.898 833.2 908.248Z" fill="white"/>
<path d="M817.997 936.121C885.567 997.779 1026.28 1111.97 1048.58 1075.48C1070.88 1039 904.149 967.372 817.997 936.121Z" fill="white"/>
<path d="M635.557 984.265C638.936 1057.75 652.788 1202.18 681.167 1192.04C709.547 1181.91 662.585 1049.3 635.557 984.265Z" fill="white"/>
<path d="M564.608 966.527C540.114 1019.74 492.336 1166.4 531.668 1156.57C541.804 1154.04 554.473 1075.48 564.608 966.527Z" fill="white"/>
<path d="M833.2 908.248C905.838 943.722 1057.2 1011.12 1081.52 996.934C1105.85 982.744 926.109 931.898 833.2 908.248Z" stroke="#FFB5DB" stroke-width="5.06777"/>
<path d="M817.997 936.121C885.567 997.779 1026.28 1111.97 1048.58 1075.48C1070.88 1039 904.149 967.372 817.997 936.121Z" stroke="#FFB5DB" stroke-width="5.06777"/>
<path d="M635.557 984.265C638.936 1057.75 652.788 1202.18 681.167 1192.04C709.547 1181.91 662.585 1049.3 635.557 984.265Z" stroke="#FFB5DB" stroke-width="5.06777"/>
<path d="M564.608 966.527C540.114 1019.74 492.336 1166.4 531.668 1156.57C541.804 1154.04 554.473 1075.48 564.608 966.527Z" stroke="#FFB5DB" stroke-width="5.06777"/>
<path d="M721.373 680.775C660.559 642.26 591.3 696.823 564.272 728.919C541.467 759.326 559.204 789.733 609.882 739.055C650.424 698.513 685.898 698.513 698.568 703.58C731.508 712.027 782.186 719.29 721.373 680.775Z" fill="#F28FC2"/>
<path d="M769.855 739.055C779.991 737.173 798.741 738.477 792.66 758.748C785.058 784.087 747.05 759.904 769.855 739.055Z" fill="#F28FC2"/>
<path d="M721.373 680.775C660.559 642.26 591.3 696.823 564.272 728.919C541.467 759.326 559.204 789.733 609.882 739.055C650.424 698.513 685.898 698.513 698.568 703.58C731.508 712.027 782.186 719.29 721.373 680.775Z" stroke="#A94579" stroke-width="5.06777"/>
<path d="M769.855 739.055C779.991 737.173 798.741 738.477 792.66 758.748C785.058 784.087 747.05 759.904 769.855 739.055Z" stroke="#A94579" stroke-width="5.06777"/>
<defs>
<linearGradient id="paint0_linear_2271_1604" x1="432.849" y1="697.939" x2="1071.39" y2="1331.41" gradientUnits="userSpaceOnUse">
<stop offset="0.165042" stop-color="#A93808"/>
<stop offset="1" stop-color="#EF8B61"/>
</linearGradient>
<linearGradient id="paint1_linear_2271_1604" x1="428.248" y1="2.53174" x2="519" y2="784.089" gradientUnits="userSpaceOnUse">
<stop stop-color="#EF8B61"/>
<stop offset="0.627089" stop-color="#A93808"/>
</linearGradient>
<linearGradient id="paint2_linear_2271_1604" x1="673.264" y1="635.994" x2="673.264" y2="979.666" gradientUnits="userSpaceOnUse">
<stop offset="0.138657" stop-color="#FFE6F3"/>
<stop offset="0.429392" stop-color="#ECE5E9" stop-opacity="0.338401"/>
<stop offset="0.886261" stop-color="#450023"/>
</linearGradient>
</defs>
</svg>
