<svg width="962" height="713" viewBox="0 0 962 713" fill="none" xmlns="http://www.w3.org/2000/svg">
<path d="M72.903 183.093C157.366 131.57 296.392 49.5821 369.368 79.9887C380.348 93.5028 405.856 121.038 420.046 123.065C437.783 125.599 929.357 79.9887 914.153 300.437C925.978 333.377 942.533 400.272 914.153 404.326C928.512 425.442 942.533 474.262 883.747 500.614C882.057 520.04 870.064 561.934 835.603 574.097C835.603 592.678 821.413 630.856 764.654 634.91C754.518 654.336 719.551 691.162 660.765 683.054C646.406 695.723 607.553 715.487 567.011 693.189C543.361 705.859 486.94 723.596 450.452 693.189C426.803 703.325 371.395 715.487 338.961 683.054C306.865 694.034 228.484 701.298 171.725 642.512C105.844 607.037 -4.63386 481.356 80.5047 262.429C83.0386 256.516 123.581 221.608 72.903 183.093Z" fill="#A93808" stroke="#A93808" stroke-width="5.06777"/>
<path fill-rule="evenodd" clip-rule="evenodd" d="M12.0919 150.149C-3.57648 160.662 17.3554 148.155 4.49023 156.002C55.168 194.518 62.7696 215.971 60.2357 221.884C-24.9028 440.811 85.5746 566.492 151.456 601.966C208.215 660.753 286.596 653.489 318.692 642.509C351.126 674.942 406.534 662.78 430.183 652.644C466.671 683.051 523.092 665.314 546.742 652.644C587.284 674.942 626.137 655.178 640.496 642.509C699.282 650.617 734.25 613.791 744.385 594.365C801.144 590.311 825.469 571.619 825.469 553.037C859.93 540.875 887.127 506.583 888.817 487.156C947.603 460.804 958.921 404.383 944.562 383.267C972.942 379.213 951.319 292.047 939.494 259.106C954.698 38.6582 556.499 11.4663 440.319 25.9888C342.671 38.1948 330.475 22.9619 319.895 9.74656C319.493 9.2448 319.094 8.74594 318.692 8.25161C300.941 0.855171 321.308 0.404895 295.887 8.25159C338.963 38.6582 376.972 46.6348 389.641 46.2599C514.646 42.5604 793.036 87.7091 825.469 156.002C847.43 186.147 878.174 242.89 825.469 259.106C854.187 288.668 891.857 356.914 812.8 393.402C810.266 425.498 785.941 515.536 729.182 477.021C731.716 509.117 723.607 591.552 640.496 553.037C634.583 585.133 597.927 632.601 498.598 565.707C486.773 595.269 393.695 628.04 308.557 553.037C303.489 576.687 279.67 608.276 224.938 545.436C203.823 563.173 135.571 535.112 88.1085 466.885C47.5663 408.606 86.4192 268.135 88.1085 226.166C86.4192 210.328 76.9594 187.203 12.0919 150.149Z" fill="#EF8B61"/>
<path d="M389.641 46.2599C376.972 46.6348 338.963 38.6582 295.887 8.25159C232.722 27.7491 74.2678 108.432 12.0919 150.149C76.9594 187.203 86.4192 210.328 88.1085 226.166C86.4192 268.135 47.5663 408.606 88.1085 466.885C135.571 535.112 203.823 563.173 224.938 545.436C279.67 608.276 303.489 576.687 308.557 553.037C393.695 628.04 486.773 595.269 498.598 565.707C597.927 632.601 634.583 585.133 640.496 553.037C723.607 591.552 731.716 509.117 729.182 477.021C785.941 515.536 810.266 425.498 812.8 393.402C891.857 356.914 854.187 288.668 825.469 259.106C878.174 242.89 847.43 186.147 825.469 156.002C793.036 87.7091 514.646 42.5604 389.641 46.2599Z" fill="#F6D3E5"/>
<path d="M389.641 46.2599C376.972 46.6348 338.963 38.6582 295.887 8.25159C232.722 27.7491 74.2678 108.432 12.0919 150.149C76.9594 187.203 86.4192 210.328 88.1085 226.166C86.4192 268.135 47.5663 408.606 88.1085 466.885C135.571 535.112 203.823 563.173 224.938 545.436C279.67 608.276 303.489 576.687 308.557 553.037C393.695 628.04 486.773 595.269 498.598 565.707C597.927 632.601 634.583 585.133 640.496 553.037C723.607 591.552 731.716 509.117 729.182 477.021C785.941 515.536 810.266 425.498 812.8 393.402C891.857 356.914 854.187 288.668 825.469 259.106C878.174 242.89 847.43 186.147 825.469 156.002C793.036 87.7091 514.646 42.5604 389.641 46.2599Z" fill="url(#paint0_linear_2257_3556)"/>
<path d="M295.887 8.25159C321.308 0.404895 300.941 0.855171 318.692 8.25161C319.094 8.74594 319.493 9.2448 319.895 9.74656C330.475 22.9619 342.671 38.1948 440.319 25.9888C556.499 11.4663 954.698 38.6582 939.494 259.106C951.319 292.047 972.942 379.213 944.562 383.267C958.921 404.383 947.603 460.804 888.817 487.156C887.127 506.583 859.93 540.875 825.469 553.037C825.469 571.619 801.144 590.311 744.385 594.365C734.25 613.791 699.282 650.617 640.496 642.509C626.137 655.178 587.284 674.942 546.742 652.644C523.092 665.314 466.671 683.051 430.183 652.644C406.534 662.78 351.126 674.942 318.692 642.509C286.596 653.489 208.215 660.753 151.456 601.966C85.5746 566.492 -24.9028 440.811 60.2357 221.884C62.7696 215.971 55.168 194.518 4.49023 156.002C17.3554 148.155 -3.57648 160.662 12.0919 150.149M295.887 8.25159C338.963 38.6582 376.972 46.6348 389.641 46.2599C514.646 42.5604 793.036 87.7091 825.469 156.002C847.43 186.147 878.174 242.89 825.469 259.106C854.187 288.668 891.857 356.914 812.8 393.402C810.266 425.498 785.941 515.536 729.182 477.021C731.716 509.117 723.607 591.552 640.496 553.037C634.583 585.133 597.927 632.601 498.598 565.707C486.773 595.269 393.695 628.04 308.557 553.037C303.489 576.687 279.67 608.276 224.938 545.436C203.823 563.173 135.571 535.112 88.1085 466.885C47.5663 408.606 86.4192 268.135 88.1085 226.166C86.4192 210.328 76.9594 187.203 12.0919 150.149M295.887 8.25159C232.722 27.7491 74.2678 108.432 12.0919 150.149" stroke="#A93808" stroke-width="5.06777"/>
<path d="M389.642 109.606C574.615 135.79 743.358 138.974 779.86 205.894C795.063 233.767 782.092 193.225 389.642 109.606Z" fill="#F6D3E5"/>
<path d="M270.549 127.344C404 154.372 770.231 297.114 751.987 388.334C733.743 479.554 620.225 307.25 270.549 127.344Z" fill="#F6D3E5"/>
<path d="M270.549 205.894C346.565 243.058 518.87 401.003 465.658 401.003C422.561 401.003 430.184 357.927 270.549 205.894Z" fill="#F6D3E5"/>
<path d="M389.642 109.606C574.615 135.79 743.358 138.974 779.86 205.894C795.063 233.767 782.092 193.225 389.642 109.606Z" stroke="#FFB5DB" stroke-width="5.06777"/>
<path d="M270.549 127.344C404 154.372 770.231 297.114 751.987 388.334C733.743 479.554 620.225 307.25 270.549 127.344Z" stroke="#FFB5DB" stroke-width="5.06777"/>
<path d="M270.549 205.894C346.565 243.058 518.87 401.003 465.658 401.003C422.561 401.003 430.184 357.927 270.549 205.894Z" stroke="#FFB5DB" stroke-width="5.06777"/>
<defs>
<linearGradient id="paint0_linear_2257_3556" x1="481.526" y1="2.53418" x2="481.526" y2="669.433" gradientUnits="userSpaceOnUse">
<stop stop-color="#AD4279" stop-opacity="0"/>
<stop offset="1" stop-color="#AD4279"/>
</linearGradient>
</defs>
</svg>
