<svg width="2560" height="1382" viewBox="0 0 2560 1382" fill="none" xmlns="http://www.w3.org/2000/svg">
<path d="M541.24 1064.7L919.24 1177.2C856.275 1117.29 840.882 1082.98 852.74 1020.7L569.24 967.703L541.24 1064.7Z" fill="#F9D1AE"/>
<path d="M840.24 820.703L505.74 744.203L454.24 839.762L840.24 967.703C814.167 898.399 810.64 864.602 840.24 820.703Z" fill="#F9D1AE"/>
<path d="M1677.74 778.703C1654.09 778.305 1643.14 786.951 1627.74 819.703C1604.85 869.282 1585.12 911.168 1567.04 950.27C1612.7 909.06 1653.64 859.657 1696.04 798.14C1691.75 790.008 1685.45 783.714 1677.74 778.703Z" fill="#F9D1AE"/>
<path d="M2027.24 1119.7L2063.74 1088.2C2180.67 998.402 2246.05 947.272 2360.74 847.703C2480.01 873.706 2523.24 860.735 2556.24 786.203C2558.39 772.081 2555.7 764.326 2547.24 750.703C2554.3 633.42 2526.42 640.95 2460.74 691.203C2423.46 694.661 2422.08 688.041 2443.24 665.703C2432.91 638.929 2417.81 638.201 2378.24 656.203C2344.7 686.052 2339.5 711.556 2346.74 767.703C2217.73 848.158 2148.88 897.306 2031.24 991.203C2019.4 987.563 2005.9 981.222 1991.01 972.44C1978.01 1017.46 1962.74 1041.71 1943.11 1055.07C1971.81 1080.76 1999.51 1102.45 2027.24 1119.7Z" fill="#F9D1AE"/>
<path d="M919.24 1177.2V1231.2C1078.2 1206.1 1160.2 1176.37 1295.24 1098.2C1142.79 955.537 1098.03 873.52 1059.24 725.203C1059.24 725.203 852.74 767.703 840.24 775.703C827.74 783.704 840.24 820.703 840.24 820.703C810.64 864.602 814.167 898.399 840.24 967.703L852.74 1020.7C840.882 1082.98 856.275 1117.29 919.24 1177.2Z" fill="#98BE33"/>
<path fill-rule="evenodd" clip-rule="evenodd" d="M1778.74 522.703C1846.63 515.958 1879.18 502.427 1921.24 450.203C1965.58 513.416 1998.61 522.031 2061.24 525.203C2106.66 512.292 2131.3 496.994 2149.24 465.854C2153.84 457.869 2158 448.842 2161.95 438.547C2164.85 430.325 2166.94 422.035 2168.21 413.656C2169.53 397.751 2169.53 384.225 2167.82 372.12C2166.89 366.496 2165.61 360.821 2163.98 355.087C2157.58 335.083 2144.8 318.246 2123.24 298.703C2066.01 292.514 2016.7 287.99 1973.24 285.221C1959.1 284.32 1945.58 283.605 1932.61 283.08C1932.15 283.061 1931.7 283.043 1931.24 283.025C1861.69 280.269 1807.89 282.978 1758.74 291.639C1741.84 294.617 1725.49 298.298 1709.24 302.703C1701.27 314.63 1694.79 325.699 1689.66 336.203C1686.04 343.617 1683.09 350.749 1680.76 357.703C1676.34 370.945 1674.18 383.541 1673.98 396.203C1673.53 423.902 1682.4 451.917 1697.24 487.703C1722.08 507.149 1739.31 515.306 1778.74 522.703ZM2058.74 505.203C1987.71 499.656 1963.31 475.067 1921.24 429.203C1869.47 484.113 1837.9 496.968 1778.74 500.203C1745.17 494.934 1731.85 488.514 1716.24 471.703C1685.21 401.883 1689.54 367.59 1740.74 316.203C1883.71 301.845 1968.53 295.34 2116.24 324.203C2149.83 353.013 2149.59 377.281 2141.74 423.703C2132.12 472.874 2111.27 488.684 2058.74 505.203Z" fill="#1E5CFF"/>
<path fill-rule="evenodd" clip-rule="evenodd" d="M1921.24 429.203C1963.31 475.067 1987.71 499.656 2058.74 505.203C2111.27 488.684 2132.12 472.874 2141.74 423.703C2149.59 377.281 2149.83 353.013 2116.24 324.203C1968.53 295.34 1883.71 301.845 1740.74 316.203C1689.54 367.59 1685.21 401.883 1716.24 471.703C1731.85 488.514 1745.17 494.934 1778.74 500.203C1837.9 496.968 1869.47 484.113 1921.24 429.203ZM1914.24 405.203C1905.15 433.973 1892.7 446.472 1859.24 463.203C1816.14 456.345 1801.03 444.537 1795.24 405.203C1800.44 366.979 1811.89 352.088 1854.74 342.703C1892.74 350.665 1907.16 362.741 1914.24 405.203ZM2047.24 408.703C2042.06 451.763 2025.92 460.897 1989.24 468.203C1954.35 454.191 1935.58 440.346 1928.74 406.703C1939.66 369.602 1953.51 357.962 1990.74 352.203C2025.03 358.915 2036.13 372.876 2047.24 408.703ZM2044.74 345.703C2017.87 327.023 2000.69 318.488 1967.24 335.203C1974.17 325.18 1980.23 320.307 2008.74 317.703C2029.23 323.444 2034.71 331.314 2044.22 344.954L2044.74 345.703ZM1879.24 332.703C1849.31 323.666 1832.92 325.074 1804.74 342.703C1809.37 330.037 1812.84 323.168 1839.24 316.203C1859.14 315.085 1866.23 321.638 1879.24 332.703Z" fill="#F9D1AE"/>
<path d="M1967.24 335.203C2000.69 318.488 2017.87 327.023 2044.74 345.703L2044.22 344.954C2034.71 331.314 2029.23 323.444 2008.74 317.703C1980.23 320.307 1974.17 325.18 1967.24 335.203Z" fill="#A34C05"/>
<path d="M1804.74 342.703C1832.92 325.074 1849.31 323.666 1879.24 332.703C1866.23 321.638 1859.14 315.085 1839.24 316.203C1812.84 323.168 1809.37 330.037 1804.74 342.703Z" fill="#A34C05"/>
<path d="M1995.24 443.703C2011.64 442.407 2017.52 437.636 2019.74 419.203C2015.23 403.176 2009.59 399.122 1996.74 396.203C1980.55 397.852 1975.02 403.359 1969.74 419.203C1971.94 434.62 1977.62 440.151 1995.24 443.703Z" fill="#59331E"/>
<path d="M1861.74 438.203C1876.81 438.109 1883.16 434.483 1887.24 415.703C1882.66 399.3 1877.67 393.598 1863.74 390.703C1846.52 394.232 1840.85 398.847 1839.24 412.703C1839.62 427.88 1843.84 433.926 1861.74 438.203Z" fill="#59331E"/>
<path d="M1985.74 750.703C2079.69 720.899 2118.95 692.452 2151.24 608.703C2155.11 599.435 2158.77 590.381 2162.22 581.518C2081.34 678.796 2021.12 677.772 1906.74 574.703C1913.8 552.689 1925.05 547.277 1955.24 547.203C2039.54 622.081 2076.18 601.436 2135.74 530.203C2140.94 507.581 2145.43 486.186 2149.24 465.854C2131.3 496.994 2106.66 512.292 2061.24 525.203C1998.61 522.031 1965.58 513.416 1921.24 450.203C1879.18 502.427 1846.63 515.958 1778.74 522.703C1739.31 515.306 1722.08 507.149 1697.24 487.703C1682.4 451.917 1673.53 423.902 1673.98 396.203L1651.17 405.203C1652.55 442.981 1656.64 484.39 1662.74 530.203C1671.48 606.213 1690.3 644.027 1759.74 699.203C1819.58 745.087 1861.5 763.195 1985.74 750.703Z" fill="#F9D1AE"/>
<path d="M1680.76 357.703L1651.32 348.703C1650.46 366.614 1650.44 385.41 1651.17 405.203L1673.98 396.203C1674.18 383.541 1676.34 370.945 1680.76 357.703Z" fill="#F9D1AE"/>
<path d="M1651.32 348.703L1680.76 357.703C1683.09 350.749 1686.04 343.617 1689.66 336.203L1653.13 323.703C1652.33 331.844 1651.73 340.173 1651.32 348.703Z" fill="#FBE355"/>
<path d="M1800.74 218.703L1758.74 291.639C1807.89 282.978 1861.69 280.269 1931.24 283.025C1841.91 276.917 1812.44 263.407 1800.74 218.703Z" fill="#F9D1AE"/>
<path d="M1972.24 283.025C1956.61 265.593 1945.96 258.489 1925.24 248.203C1922.83 261.239 1924.04 268.651 1932.42 282.203L1973.24 285.221L1972.24 283.025Z" fill="#F9D1AE"/>
<path d="M2117.24 4.20312L2085.74 34.7034C2115.2 91.1214 2136.9 140.456 2150.15 191.338C2163.24 241.632 2168.08 293.437 2163.98 355.087C2165.71 360.494 2166.98 366.134 2167.82 372.12C2170.15 386.263 2170.26 400.077 2168.21 413.656C2167.94 416.903 2167.62 420.249 2167.24 423.703C2165.51 428.927 2163.75 433.868 2161.95 438.547C2158.72 447.723 2154.47 456.815 2149.24 465.854C2145.43 486.186 2140.94 507.581 2135.74 530.203L2174.56 548.03L2184.74 552.703C2239.1 337.737 2220.36 217.709 2117.24 4.20312Z" fill="#FBE355"/>
<path d="M1689.66 336.203C1694.79 325.699 1701.27 314.63 1709.24 302.703C1725.49 298.298 1741.84 294.617 1758.74 291.639L1800.74 218.703C1812.44 263.407 1841.91 276.917 1931.24 283.025C1931.7 283.043 1932.15 283.061 1932.61 283.08L1932.42 282.203C1924.04 268.651 1922.83 261.239 1925.24 248.203C1945.96 258.489 1956.61 265.593 1972.24 283.025L1973.24 285.221C2016.7 287.99 2066.01 292.514 2123.24 298.703C2144.8 318.246 2157.58 335.083 2163.98 355.087C2168.08 293.437 2163.24 241.632 2150.15 191.338C2145.64 181.541 2140.84 171.506 2135.74 161.203C2117.99 138.096 2101.6 118.18 2085.74 101.322L2019.74 73.7031C2008.9 63.2402 2003.74 55.5699 2014.39 45.3113C2019.87 40.0367 2029.52 34.0777 2044.74 26.7031C2018.35 26.0724 1999.14 28.0931 1982.56 33.7151C1964.28 39.9119 1949.2 50.4839 1931.24 66.7031C1915.41 48.9661 1904.1 41.5634 1876.24 36.5688C1834.62 35.0822 1804.4 41.9318 1732.74 73.7031C1782.86 76.3978 1803.63 78.132 1802.75 80.8953C1802.61 81.3315 1801.93 81.7934 1800.74 82.2887C1788.94 90.5136 1777.95 98.83 1767.74 107.283C1723.94 113.256 1702.75 123.994 1671.74 158.403C1693.6 153.318 1703.74 152.895 1716.74 158.403C1678.92 205.509 1659.56 258.558 1653.13 323.703L1689.66 336.203Z" fill="#A34C05"/>
<path d="M4.24023 786.703L138.74 1005.7L396.74 820.703L454.24 839.762L505.74 744.203C518.624 653.849 470.28 680.052 364.24 754.203L4.24023 786.703Z" fill="#1E5CFF"/>
<path d="M243.24 1377.2C332.56 1265.16 381.918 1199.16 473.74 1098.2C496.48 1076.89 513.218 1074 541.24 1064.7L569.24 967.703C560.041 905.657 527.353 930.975 439.74 1040.2L79.2402 1177.2L243.24 1377.2Z" fill="#1E5CFF"/>
<path d="M1955.24 547.203C1925.05 547.277 1913.8 552.689 1906.74 574.703C2021.12 677.772 2081.34 678.796 2162.22 581.518C2166.69 570.053 2170.8 558.907 2174.56 548.03L2135.74 530.203C2076.18 601.436 2039.54 622.081 1955.24 547.203Z" fill="#98BE33"/>
<path fill-rule="evenodd" clip-rule="evenodd" d="M1859.24 463.203C1892.7 446.472 1905.15 433.973 1914.24 405.203C1907.16 362.741 1892.74 350.665 1854.74 342.703C1811.89 352.088 1800.44 366.979 1795.24 405.203C1801.03 444.537 1816.14 456.345 1859.24 463.203ZM1887.24 415.703C1883.16 434.483 1876.81 438.109 1861.74 438.203C1843.84 433.926 1839.62 427.88 1839.24 412.703C1840.85 398.847 1846.52 394.232 1863.74 390.703C1877.67 393.598 1882.66 399.3 1887.24 415.703Z" fill="white"/>
<path fill-rule="evenodd" clip-rule="evenodd" d="M1989.24 468.203C2025.92 460.897 2042.06 451.763 2047.24 408.703C2036.13 372.876 2025.03 358.915 1990.74 352.203C1953.51 357.962 1939.66 369.602 1928.74 406.703C1935.58 440.346 1954.35 454.191 1989.24 468.203ZM2019.74 419.203C2017.52 437.636 2011.64 442.407 1995.24 443.703C1977.62 440.151 1971.94 434.62 1969.74 419.203C1975.02 403.359 1980.55 397.852 1996.74 396.203C2009.59 399.122 2015.23 403.176 2019.74 419.203Z" fill="white"/>
<path d="M1059.24 725.203C1098.03 873.52 1142.79 955.537 1295.24 1098.2C1342.61 1082.4 1384.32 1065.78 1421.89 1047.38C1362.79 1177.42 1353.45 1217.14 1366.24 1227.2C1350.15 1278.26 1539.05 1201.89 1862.74 1072.7C1896.2 1071.21 1922.14 1069.35 1943.11 1055.07C1962.74 1041.71 1978.01 1017.46 1991.01 972.44C1992.27 968.061 1993.52 963.485 1994.74 958.703C2014.95 917.385 2032.61 895.193 2012.74 847.703C1982.22 840.008 1967.9 853.38 1923.24 860.203C1945.8 823.412 1949.38 808.855 1914.24 810.703C1884.98 813.388 1864.89 824.314 1849 856.129C1839.68 874.803 1831.81 900.673 1824.38 936.298C1821.45 950.36 1818.59 965.943 1815.74 983.203L1495.74 1114.2C1519.01 1055.78 1541.35 1005.83 1567.04 950.27C1585.12 911.168 1604.85 869.282 1627.74 819.703C1643.14 786.951 1654.09 778.305 1677.74 778.703C1685.45 783.714 1691.75 790.008 1696.04 798.14C1743.22 848.437 1785.43 894.736 1824.38 936.298C1831.81 900.673 1839.68 874.803 1849 856.129C1813.2 820.842 1775.46 780.046 1737.42 735.203C1744.75 723.581 1752.18 711.587 1759.74 699.203C1690.3 644.027 1671.48 606.213 1662.74 530.203C1426.4 552.33 1294.31 597.613 1059.24 725.203Z" fill="#F9D1AE"/>
<path d="M541.24 1064.7C513.218 1074 496.48 1076.89 473.74 1098.2C381.918 1199.16 332.56 1265.16 243.24 1377.2L79.2402 1177.2L439.74 1040.2C527.353 930.975 560.041 905.657 569.24 967.703M541.24 1064.7L919.24 1177.2M541.24 1064.7L569.24 967.703M919.24 1177.2V1231.2C1078.2 1206.1 1160.2 1176.37 1295.24 1098.2M919.24 1177.2C856.275 1117.29 840.882 1082.98 852.74 1020.7M1295.24 1098.2C1142.79 955.537 1098.03 873.52 1059.24 725.203M1295.24 1098.2C1342.61 1082.4 1384.32 1065.78 1421.89 1047.38M505.74 744.203C518.624 653.849 470.28 680.052 364.24 754.203L4.24023 786.703L138.74 1005.7L396.74 820.703L454.24 839.762M505.74 744.203L840.24 820.703M505.74 744.203L454.24 839.762M840.24 820.703C840.24 820.703 827.74 783.704 840.24 775.703C852.74 767.703 1059.24 725.203 1059.24 725.203M840.24 820.703C810.64 864.602 814.167 898.399 840.24 967.703M1059.24 725.203C1294.31 597.613 1426.4 552.33 1662.74 530.203M840.24 967.703L852.74 1020.7M840.24 967.703L454.24 839.762M569.24 967.703L852.74 1020.7M1662.74 530.203C1656.64 484.39 1652.55 442.981 1651.17 405.203M1662.74 530.203C1671.48 606.213 1690.3 644.027 1759.74 699.203M1759.74 699.203C1819.58 745.087 1861.5 763.195 1985.74 750.703C2079.69 720.899 2118.95 692.452 2151.24 608.703C2155.11 599.435 2158.77 590.381 2162.22 581.518M1759.74 699.203C1752.18 711.587 1744.75 723.581 1737.42 735.203C1775.46 780.046 1813.2 820.842 1849 856.129M1879.74 34.7034C1878.57 35.3252 1877.4 35.947 1876.24 36.5688M1564.24 750.703C1499.62 881.842 1453.59 977.611 1421.89 1047.38M2135.74 530.203C2076.18 601.436 2039.54 622.081 1955.24 547.203C1925.05 547.277 1913.8 552.689 1906.74 574.703C2021.12 677.772 2081.34 678.796 2162.22 581.518M2135.74 530.203C2140.94 507.581 2145.43 486.186 2149.24 465.854M2135.74 530.203L2174.56 548.03M2184.74 552.703C2239.1 337.737 2220.36 217.709 2117.24 4.20312L2085.74 34.7034C2115.2 91.1214 2136.9 140.456 2150.15 191.338M2184.74 552.703C2177.03 563.111 2169.54 572.717 2162.22 581.518M2184.74 552.703L2174.56 548.03M1680.76 357.703L1651.32 348.703M1680.76 357.703C1683.09 350.749 1686.04 343.617 1689.66 336.203M1680.76 357.703C1676.34 370.945 1674.18 383.541 1673.98 396.203M1651.32 348.703C1651.73 340.173 1652.33 331.844 1653.13 323.703M1651.32 348.703C1650.46 366.614 1650.44 385.41 1651.17 405.203M1689.66 336.203C1694.79 325.699 1701.27 314.63 1709.24 302.703C1725.49 298.298 1741.84 294.617 1758.74 291.639M1689.66 336.203L1653.13 323.703M1653.13 323.703C1659.56 258.558 1678.92 205.509 1716.74 158.403C1703.74 152.895 1693.6 153.318 1671.74 158.403C1702.75 123.994 1723.94 113.256 1767.74 107.283C1777.95 98.83 1788.94 90.5136 1800.74 82.2887M2044.74 345.703C2017.87 327.023 2000.69 318.488 1967.24 335.203C1974.17 325.18 1980.23 320.307 2008.74 317.703C2029.23 323.444 2034.71 331.314 2044.22 344.954M2044.74 345.703L2044.22 344.954M2044.74 345.703C2044.56 345.451 2044.39 345.202 2044.22 344.954M1651.17 405.203L1673.98 396.203M1673.98 396.203C1673.53 423.902 1682.4 451.917 1697.24 487.703C1722.08 507.149 1739.31 515.306 1778.74 522.703C1846.63 515.958 1879.18 502.427 1921.24 450.203C1965.58 513.416 1998.61 522.031 2061.24 525.203C2106.66 512.292 2131.3 496.994 2149.24 465.854M1758.74 291.639L1800.74 218.703C1812.44 263.407 1841.91 276.917 1931.24 283.025M1758.74 291.639C1807.89 282.978 1861.69 280.269 1931.24 283.025M1931.24 283.025C1931.7 283.043 1932.15 283.061 1932.61 283.08M1925.24 248.203C1945.96 258.489 1956.61 265.593 1972.24 283.025L1973.24 285.221M1925.24 248.203C1922.8 261.398 1924.52 268.842 1933.24 282.203M1925.24 248.203C1922.83 261.239 1924.04 268.651 1932.42 282.203M1973.24 285.221C2016.7 287.99 2066.01 292.514 2123.24 298.703C2144.8 318.246 2157.58 335.083 2163.98 355.087M1973.24 285.221L1932.42 282.203M1973.24 285.221C1959.1 284.32 1945.58 283.605 1932.61 283.08M1800.74 82.2887C1801.93 81.7934 1802.61 81.3315 1802.75 80.8953M1800.74 82.2887C1801.41 81.8239 1802.08 81.3595 1802.75 80.8953M1876.24 36.5688C1834.62 35.0822 1804.4 41.9318 1732.74 73.7031C1782.86 76.3978 1803.63 78.132 1802.75 80.8953M1876.24 36.5688C1904.1 41.5634 1915.41 48.9661 1931.24 66.7031C1949.2 50.4839 1964.28 39.9119 1982.56 33.7151C1999.14 28.0931 2018.35 26.0724 2044.74 26.7031C2029.52 34.0777 2019.87 40.0367 2014.39 45.3113C2003.74 55.5699 2008.9 63.2402 2019.74 73.7031L2085.74 101.322C2101.6 118.18 2117.99 138.096 2135.74 161.203C2140.84 171.506 2145.64 181.541 2150.15 191.338M1421.89 1047.38C1362.79 1177.42 1353.45 1217.14 1366.24 1227.2C1350.15 1278.26 1539.05 1201.89 1862.74 1072.7C1896.2 1071.21 1922.14 1069.35 1943.11 1055.07M1567.04 950.27C1585.12 911.168 1604.85 869.282 1627.74 819.703C1643.14 786.951 1654.09 778.305 1677.74 778.703C1685.45 783.714 1691.75 790.008 1696.04 798.14M1567.04 950.27C1541.35 1005.83 1519.01 1055.78 1495.74 1114.2L1815.74 983.203C1818.59 965.943 1821.45 950.36 1824.38 936.298M1567.04 950.27C1612.7 909.06 1653.64 859.657 1696.04 798.14M1696.04 798.14C1743.22 848.437 1785.43 894.736 1824.38 936.298M1943.11 1055.07C1971.81 1080.76 1999.51 1102.45 2027.24 1119.7L2063.74 1088.2C2180.67 998.402 2246.05 947.272 2360.74 847.703C2480.01 873.706 2523.24 860.735 2556.24 786.203C2558.39 772.081 2555.7 764.326 2547.24 750.703C2554.3 633.42 2526.42 640.95 2460.74 691.203C2423.46 694.661 2422.08 688.041 2443.24 665.703C2432.91 638.929 2417.81 638.201 2378.24 656.203C2344.7 686.052 2339.5 711.556 2346.74 767.703C2217.73 848.158 2148.88 897.306 2031.24 991.203C2019.4 987.563 2005.9 981.222 1991.01 972.44M1943.11 1055.07C1962.74 1041.71 1978.01 1017.46 1991.01 972.44M1824.38 936.298C1831.81 900.673 1839.68 874.803 1849 856.129M1849 856.129C1864.89 824.314 1884.98 813.388 1914.24 810.703C1949.38 808.855 1945.8 823.412 1923.24 860.203C1967.9 853.38 1982.22 840.008 2012.74 847.703C2032.61 895.193 2014.95 917.385 1994.74 958.703C1993.52 963.485 1992.27 968.061 1991.01 972.44M2162.22 581.518C2166.69 570.053 2170.8 558.907 2174.56 548.03M2149.24 465.854C2153.84 457.869 2158 448.842 2161.95 438.547M2149.24 465.854C2154.47 456.815 2158.72 447.723 2161.95 438.547M2163.98 355.087C2168.08 293.437 2163.24 241.632 2150.15 191.338M2163.98 355.087C2165.61 360.821 2166.89 366.496 2167.82 372.12M2163.98 355.087C2165.71 360.494 2166.98 366.134 2167.82 372.12M2161.95 438.547C2164.85 430.325 2166.94 422.035 2168.21 413.656M2161.95 438.547C2163.75 433.868 2165.51 428.927 2167.24 423.703C2167.62 420.249 2167.94 416.903 2168.21 413.656M2168.21 413.656C2169.53 397.751 2169.53 384.225 2167.82 372.12M2168.21 413.656C2170.26 400.077 2170.15 386.263 2167.82 372.12M1932.74 283.703L1932.61 283.08M1932.42 282.203L1932.61 283.08M1921.24 429.203C1963.31 475.067 1987.71 499.656 2058.74 505.203C2111.27 488.684 2132.12 472.874 2141.74 423.703C2149.59 377.281 2149.83 353.013 2116.24 324.203C1968.53 295.34 1883.71 301.845 1740.74 316.203C1689.54 367.59 1685.21 401.883 1716.24 471.703C1731.85 488.514 1745.17 494.934 1778.74 500.203C1837.9 496.968 1869.47 484.113 1921.24 429.203ZM1859.24 463.203C1892.7 446.472 1905.15 433.973 1914.24 405.203C1907.16 362.741 1892.74 350.665 1854.74 342.703C1811.89 352.088 1800.44 366.979 1795.24 405.203C1801.03 444.537 1816.14 456.345 1859.24 463.203ZM1861.74 438.203C1876.81 438.109 1883.16 434.483 1887.24 415.703C1882.66 399.3 1877.67 393.598 1863.74 390.703C1846.52 394.232 1840.85 398.847 1839.24 412.703C1839.62 427.88 1843.84 433.926 1861.74 438.203ZM1989.24 468.203C2025.92 460.897 2042.06 451.763 2047.24 408.703C2036.13 372.876 2025.03 358.915 1990.74 352.203C1953.51 357.962 1939.66 369.602 1928.74 406.703C1935.58 440.346 1954.35 454.191 1989.24 468.203ZM1995.24 443.703C2011.64 442.407 2017.52 437.636 2019.74 419.203C2015.23 403.176 2009.59 399.122 1996.74 396.203C1980.55 397.852 1975.02 403.359 1969.74 419.203C1971.94 434.62 1977.62 440.151 1995.24 443.703ZM1804.74 342.703C1832.92 325.074 1849.31 323.666 1879.24 332.703C1866.23 321.638 1859.14 315.085 1839.24 316.203C1812.84 323.168 1809.37 330.037 1804.74 342.703Z" stroke="black" stroke-width="5"/>
</svg>
