<svg width="1851" height="2081" viewBox="0 0 1851 2081" fill="none" xmlns="http://www.w3.org/2000/svg">
<path d="M1103.31 364.504C1122.19 277.015 1126.28 226.633 1102.31 133.448C999.131 97.7526 969.106 112.125 858.008 133.447C847.168 234.43 836.194 266 858.008 352.73L1103.31 364.504Z" fill="#C83333"/>
<path d="M1363.51 735.537L593.313 711.827C743.648 909.534 755.982 1023.54 597.933 1234.98L1305.15 1268.69C1213.85 1005.01 1263.69 840.183 1363.51 735.537Z" fill="#C83333"/>
<path d="M1234.5 529.961L1103.31 364.504L858.008 352.73C830.403 384.74 802.647 445.964 690.5 529.961C643.483 601.632 605.366 630.706 593.313 711.827L1363.51 735.537C1300.86 603.34 1263.8 551.41 1234.5 529.961Z" fill="#7D7C7C"/>
<path d="M673.896 1807.77C780.445 1912.98 1102.31 1858 1191 1863C1279.69 1868 1270.42 1437.53 1305.15 1268.69L597.933 1234.98C610.024 1418.49 634.242 1579.85 673.896 1807.77Z" fill="#7D7C7C"/>
<path d="M1103.31 364.504L1234.5 529.961C1263.8 551.41 1300.86 603.34 1363.51 735.537M1103.31 364.504C1122.19 277.015 1126.28 226.633 1102.31 133.448C999.131 97.7526 969.106 112.125 858.008 133.447C847.168 234.43 836.194 266 858.008 352.73M1103.31 364.504L858.008 352.73M858.008 352.73C830.403 384.74 802.647 445.964 690.5 529.961C643.483 601.632 605.366 630.706 593.313 711.827M593.313 711.827L1363.51 735.537M593.313 711.827C743.648 909.534 755.982 1023.54 597.933 1234.98M1363.51 735.537C1263.69 840.183 1213.85 1005.01 1305.15 1268.69M1305.15 1268.69C1270.42 1437.53 1279.69 1868 1191 1863C1102.31 1858 780.445 1912.98 673.896 1807.77C634.242 1579.85 610.024 1418.49 597.933 1234.98M1305.15 1268.69L597.933 1234.98" stroke="black" stroke-width="5"/>
</svg>
