<svg width="1851" height="2081" viewBox="0 0 1851 2081" fill="none" xmlns="http://www.w3.org/2000/svg">
<path d="M593.314 711.827C584.612 770.395 583.655 839.222 588.469 929.566C588.83 1044.54 591.844 1142.57 597.933 1234.98L1305.15 1268.69C1357.87 1012.43 1375.15 845.901 1363.51 735.537L593.314 711.827Z" fill="#C83333"/>
<path d="M673.896 1807.77C780.445 1912.98 901.109 1920.1 1152.93 1901.68C1220.3 1645.33 1270.42 1437.53 1305.15 1268.69L597.933 1234.98C610.024 1418.49 634.243 1579.85 673.896 1807.77Z" fill="#262525"/>
<path d="M1227.43 529.961L1103.31 364.504L858.008 352.73C884.487 390.714 854.835 420.594 679.294 497.596C632.277 569.267 605.366 630.706 593.314 711.827L1363.51 735.537C1350.62 613.378 1302.32 560.029 1227.43 529.961Z" fill="#262525"/>
<path d="M1103.31 364.504C1142.07 276.948 1144.83 226.56 1102.31 133.448C999.131 97.7525 939.971 87.0879 828.874 108.41C791.373 205.573 792.549 259.255 858.008 352.73L1103.31 364.504Z" fill="#C83333"/>
<path d="M1103.31 364.504L1227.43 529.961C1302.32 560.029 1350.62 613.378 1363.51 735.537M1103.31 364.504C1142.07 276.948 1144.83 226.56 1102.31 133.448C999.131 97.7525 939.971 87.0879 828.874 108.41C791.373 205.573 792.549 259.255 858.008 352.73M1103.31 364.504L858.008 352.73M858.008 352.73C884.487 390.714 854.835 420.594 679.294 497.596C632.277 569.267 605.366 630.706 593.314 711.827M593.314 711.827C584.612 770.395 583.655 839.222 588.469 929.566C588.83 1044.54 591.844 1142.57 597.933 1234.98M593.314 711.827L1363.51 735.537M1363.51 735.537C1375.15 845.901 1357.87 1012.43 1305.15 1268.69M1305.15 1268.69C1270.42 1437.53 1220.3 1645.33 1152.93 1901.68C901.109 1920.1 780.445 1912.98 673.896 1807.77C634.243 1579.85 610.024 1418.49 597.933 1234.98M1305.15 1268.69L597.933 1234.98" stroke="black" stroke-width="5"/>
</svg>
