<svg width="1683" height="1690" viewBox="0 0 1683 1690" fill="none" xmlns="http://www.w3.org/2000/svg">
<path d="M843.974 1685.54L958.474 1567.54L843.974 1445.54L723.974 1567.54L843.974 1685.54Z" fill="#F86903"/>
<path d="M1173.97 1537.54L1291.47 1419.04L840.974 963.043L390.974 1416.04L508.974 1537.04L843.974 1206.04L1173.97 1537.54Z" fill="#F86903"/>
<path d="M1414.97 1297.04L1533.97 1176.04L1202.97 844.543L1531.47 514.543L1414.97 393.043L963.974 844.543L1414.97 1297.04Z" fill="#F86903"/>
<path d="M1560.47 722.043L1678.97 844.543L1560.47 963.543L1440.97 844.543L1560.47 722.043Z" fill="#F86903"/>
<path d="M840.974 722.043L1290.97 268.543L1173.97 150.043L840.974 481.043L510.474 150.043L390.474 268.543L840.974 722.043Z" fill="#F86903"/>
<path d="M840.974 245.043L964.474 127.543L840.974 3.54297L721.974 123.043L840.974 245.043Z" fill="#F86903"/>
<path d="M271.474 1297.04L718.974 844.543L271.474 393.043L148.974 514.543L478.474 844.543L148.974 1176.04L271.474 1297.04Z" fill="#F86903"/>
<path d="M3.47412 844.543L119.974 722.043L240.474 844.543L119.974 963.543L3.47412 844.543Z" fill="#F86903"/>
<path d="M843.974 1685.54L958.474 1567.54L843.974 1445.54L723.974 1567.54L843.974 1685.54Z" stroke="black" stroke-width="5"/>
<path d="M1173.97 1537.54L1291.47 1419.04L840.974 963.043L390.974 1416.04L508.974 1537.04L843.974 1206.04L1173.97 1537.54Z" stroke="black" stroke-width="5"/>
<path d="M1414.97 1297.04L1533.97 1176.04L1202.97 844.543L1531.47 514.543L1414.97 393.043L963.974 844.543L1414.97 1297.04Z" stroke="black" stroke-width="5"/>
<path d="M1560.47 722.043L1678.97 844.543L1560.47 963.543L1440.97 844.543L1560.47 722.043Z" stroke="black" stroke-width="5"/>
<path d="M840.974 722.043L1290.97 268.543L1173.97 150.043L840.974 481.043L510.474 150.043L390.474 268.543L840.974 722.043Z" stroke="black" stroke-width="5"/>
<path d="M840.974 245.043L964.474 127.543L840.974 3.54297L721.974 123.043L840.974 245.043Z" stroke="black" stroke-width="5"/>
<path d="M271.474 1297.04L718.974 844.543L271.474 393.043L148.974 514.543L478.474 844.543L148.974 1176.04L271.474 1297.04Z" stroke="black" stroke-width="5"/>
<path d="M3.47412 844.543L119.974 722.043L240.474 844.543L119.974 963.543L3.47412 844.543Z" stroke="black" stroke-width="5"/>
</svg>
