<svg width="1579" height="1080" viewBox="0 0 1579 1080" fill="none" xmlns="http://www.w3.org/2000/svg">
<g clip-path="url(#clip0_2257_4073)">
<path d="M297.401 949.115C322.269 875.439 317.451 680.352 99.2394 489.416C171.75 589.826 312.897 822.341 297.401 949.115Z" fill="#2A693B" stroke="#2A693B"/>
<path d="M246.084 959.6C244.813 963.803 243.583 967.707 242.408 971.289C243.635 967.338 244.861 963.442 246.084 959.6C266.601 891.789 297.915 746.207 282.962 621.13C263.112 455.093 155.352 552.734 107.512 333.679C239.619 539.014 297.942 395.902 363.73 613.194C387.773 692.606 321.738 722.011 246.084 959.6Z" fill="#2A693B"/>
<path d="M242.408 971.289C262.542 909.915 298.841 753.959 282.962 621.13C263.112 455.093 155.352 552.734 107.512 333.679C239.619 539.014 297.942 395.902 363.73 613.194C388.162 693.89 319.579 722.949 242.408 971.289Z" stroke="#2A693B"/>
<path d="M425.173 952.389C476.537 874.807 502.612 696.62 196 604.524C284.502 669.116 454.239 829.118 425.173 952.389Z" fill="#648B22" stroke="#648B22"/>
<path d="M399.387 446C373.078 490.522 329.391 591.901 365.116 641.238C400.841 690.576 373.077 733.576 354.73 748.909C330.152 790.592 297.821 883.566 365.116 922C341.749 899.057 315.89 834.569 399.387 760.153C482.884 685.738 444.563 642.374 414.965 629.994C392.117 611.708 357.015 549.309 399.387 446Z" fill="#648B22" stroke="#648B22"/>
<path d="M527.221 929.322C529.734 921.68 527.171 899.894 496.811 873.89C466.452 847.886 475.362 760.896 483.613 720.651C484.525 710.924 476.357 689.589 436.383 682.064C451.963 682.404 488.15 689.417 508.263 714.745C533.404 746.405 570.84 792.142 574.544 835.563C577.506 870.3 544.23 912.543 527.221 929.322Z" fill="#648B22" stroke="#648B22"/>
<path d="M529.078 741.179C509.669 776.709 474.537 848.084 489.278 849.339C507.704 850.908 510.797 853.454 554.248 829.834C597.7 806.213 571.12 858.798 558.266 886.641C547.983 908.915 607.998 923.845 639.291 928.526C616.122 919.715 585.164 881.772 646.682 800.484C708.201 719.197 616.726 749.034 565.605 783.569C543.228 800.359 504.594 815.387 529.078 741.179Z" fill="#7CB718" stroke="#7CB718"/>
<path d="M665 885C689.16 894.493 728.18 916.063 690.983 926.398C653.786 936.732 675.484 956.438 690.983 965C693.946 954.651 718.744 932.441 794.232 926.398C869.719 920.354 739.53 896.281 665 885Z" fill="#7CB718" stroke="#7CB718"/>
<path d="M1334.34 921.9C1295.57 852.945 1266.26 659.622 1459.19 437.965C1401.58 548.111 1295.96 799.102 1334.34 921.9Z" fill="#2A693B" stroke="#2A693B"/>
<path d="M1327.12 924.973C1329.18 928.929 1331.15 932.597 1333 935.954C1331.03 932.24 1329.07 928.58 1327.12 924.973C1293.9 861.149 1235.79 722.187 1229.31 596.438C1220.72 429.508 1349.75 509.523 1360.88 285.999C1259.86 508.786 1174.15 376.368 1144.08 600.879C1133.09 682.929 1206.81 701.922 1327.12 924.973Z" fill="#2A693B"/>
<path d="M1333 935.954C1301.3 878.425 1236.19 729.981 1229.31 596.438C1220.72 429.508 1349.75 509.523 1360.88 285.999C1259.86 508.786 1174.15 376.368 1144.08 600.879C1132.91 684.255 1209.21 702.52 1333 935.954Z" stroke="#2A693B"/>
<path d="M1159.9 898.377C1116.68 835.252 1095.86 709.129 1358.29 709.633C1282.24 735.25 1136.08 808.862 1159.9 898.377Z" fill="#648B22" stroke="#648B22"/>
<path d="M1169.65 600.83C1179.1 637.545 1186.87 713.204 1142.42 722.12C1097.98 731.035 1109.09 767.648 1120.2 784.84C1129 819.187 1129.58 884.787 1061.56 872.407C1087.94 871.568 1128.4 849.712 1079.17 768.991C1029.94 688.27 1074.86 683.823 1103.48 691.69C1128.08 693.09 1175.76 676.879 1169.65 600.83Z" fill="#648B22" stroke="#648B22"/>
<path d="M1036.32 940.956C1037.61 932.146 1020.76 902.569 1063.4 883.136C1106.03 863.704 1140.14 768.762 1151.87 723.719C1171.67 742.604 1204.4 699.747 1247.37 702.575C1231.9 698.715 1192.9 696.368 1160.67 717.858C1120.37 744.72 1061.06 783.224 1036.03 828.405C1016.01 864.55 1027.88 918.5 1036.32 940.956Z" fill="#648B22" stroke="#648B22"/>
<path d="M1052.41 793.397C1052.99 819.41 1051.25 871.658 1039.65 872.55C1025.15 873.665 1021.81 875.522 998.407 858.176C975.004 840.831 974.248 879.326 972.929 899.706C971.874 916.01 920.756 926.823 895.329 930.192C916.267 923.789 954.588 896.099 940.362 836.558C926.135 777.018 983.265 798.99 1008.13 824.329C1018.36 836.644 1041.53 847.698 1052.41 793.397Z" fill="#7CB718" stroke="#7CB718"/>
<path d="M878.519 924.298C881.078 894.733 894.726 832.777 928.841 821.472C962.956 810.167 982.492 770.707 987.996 752.391C985.55 785.669 972.365 854.639 939.19 864.287C906.015 873.935 884.919 908.315 878.519 924.298Z" fill="#7CB718" stroke="#7CB718"/>
</g>
<defs>
<clipPath id="clip0_2257_4073">
<rect width="1579" height="1080" fill="white"/>
</clipPath>
</defs>
</svg>
