<svg width="1579" height="1080" viewBox="0 0 1579 1080" fill="none" xmlns="http://www.w3.org/2000/svg">
<g clip-path="url(#clip0_2257_4057)">
<path d="M297.401 949.115C322.269 875.439 317.451 680.352 99.2394 489.416C171.75 589.826 312.897 822.341 297.401 949.115Z" fill="#2A693B" stroke="#2A693B"/>
<path d="M246.084 959.6C244.813 963.803 243.583 967.707 242.408 971.289C243.635 967.338 244.861 963.442 246.084 959.6C266.601 891.789 297.915 746.207 282.962 621.13C263.112 455.093 155.352 552.734 107.512 333.679C239.619 539.014 297.942 395.902 363.73 613.194C387.773 692.606 321.738 722.011 246.084 959.6Z" fill="#2A693B"/>
<path d="M242.408 971.289C262.542 909.915 298.841 753.959 282.962 621.13C263.112 455.093 155.352 552.734 107.512 333.679C239.619 539.014 297.942 395.902 363.73 613.194C388.162 693.89 319.579 722.949 242.408 971.289Z" stroke="#2A693B"/>
<path d="M317.825 993C390.306 879.666 469.216 565.198 205 214C269.732 385.729 382.922 781.95 317.825 993Z" fill="#648B22" stroke="#648B22"/>
<path d="M399.387 131C373.078 204.985 329.391 373.453 365.116 455.44C400.841 537.428 373.077 608.884 354.73 634.364C330.152 703.63 297.821 858.131 365.116 922C341.749 883.875 315.89 776.71 399.387 653.049C482.884 529.388 444.563 457.328 414.965 436.755C392.117 406.368 357.015 302.676 399.387 131Z" fill="#648B22" stroke="#648B22"/>
<path d="M441.861 941C448.655 924.366 458.167 862.774 441.861 749.482C425.554 636.19 482.937 418.147 513.666 323.287C519.998 298.785 523.581 230.226 487.261 152C502.857 175.603 535.626 246.95 541.926 343.518C549.801 464.228 562.31 640.236 541.926 760.946C525.619 857.514 468.421 921.219 441.861 941Z" fill="#648B22" stroke="#648B22"/>
<path d="M586.747 289C548.85 332.565 475.644 427.778 485.991 460.111C498.926 500.526 499.607 512.599 547.943 544.616C596.278 576.634 541.816 645.393 513.904 684.234C491.574 715.307 527.292 869.692 547.943 943C536.143 876.34 537.459 726.645 637.125 661.14C736.79 595.635 648.017 482.156 586.747 460.111C558.834 454.337 519.758 412.032 586.747 289Z" fill="#7CB718" stroke="#7CB718"/>
<path d="M665 182C689.16 274.915 728.18 486.032 690.983 587.178C653.786 688.325 675.484 881.204 690.983 965C693.946 863.705 718.744 646.329 794.232 587.178C869.719 528.028 739.53 292.414 665 182Z" fill="#7CB718" stroke="#7CB718"/>
<path d="M1334.34 921.9C1295.57 852.945 1266.26 659.622 1459.19 437.965C1401.58 548.111 1295.96 799.102 1334.34 921.9Z" fill="#2A693B" stroke="#2A693B"/>
<path d="M1327.12 924.973C1329.18 928.929 1331.15 932.597 1333 935.954C1331.03 932.24 1329.07 928.58 1327.12 924.973C1293.9 861.149 1235.79 722.187 1229.31 596.438C1220.72 429.508 1349.75 509.523 1360.88 285.999C1259.86 508.786 1174.15 376.368 1144.08 600.879C1133.09 682.929 1206.81 701.922 1327.12 924.973Z" fill="#2A693B"/>
<path d="M1333 935.954C1301.3 878.425 1236.19 729.981 1229.31 596.438C1220.72 429.508 1349.75 509.523 1360.88 285.999C1259.86 508.786 1174.15 376.368 1144.08 600.879C1132.91 684.255 1209.21 702.52 1333 935.954Z" stroke="#2A693B"/>
<path d="M1258.16 968.903C1163.11 868.109 1026.04 569.887 1238.22 183.354C1201.3 362.577 1153.59 770.598 1258.16 968.903Z" fill="#648B22" stroke="#648B22"/>
<path d="M985.965 97.5363C1024.42 166.824 1096.31 326.893 1076.16 412.865C1056.02 498.837 1095.44 565.423 1117.67 587.97C1153.62 652.847 1212.07 800.741 1158.19 873.303C1174.1 832.369 1180.27 722.947 1077.75 612.735C975.234 502.523 999.636 425.981 1024.65 401.486C1041.41 368.262 1057.14 260.958 985.965 97.5363Z" fill="#648B22" stroke="#648B22"/>
<path d="M1174.8 930.431C1161.45 915.552 1098.21 909.623 1103.33 794.22C1108.44 678.818 982.082 476.656 918.264 390C966.5 375 924.518 247.761 966.5 162.448C946.717 189.231 908.977 266.961 916.279 363.62C925.406 484.445 937.143 660.849 989.628 775.325C1031.62 866.906 1130.57 916.888 1174.8 930.431Z" fill="#648B22" stroke="#648B22"/>
<path d="M855.014 314.553C902.028 351.855 994.793 434.842 989.745 468.374C983.434 510.29 984.853 522.326 940.313 561.321C895.772 600.316 964.42 660.004 1000.24 694.154C1028.89 721.474 1019 879.506 1010.47 955.107C1010.98 887.423 983.252 739.655 868.25 690.055C753.247 640.455 825.422 514.792 885.147 483.689C913.107 473.739 946.224 425.983 855.014 314.553Z" fill="#7CB718" stroke="#7CB718"/>
<path d="M827.069 968C805.14 883.961 771.973 695.12 814.734 612.07C857.495 529.02 853.109 392.086 845.572 334C870.927 427.926 910.947 635.057 868.186 712.175C825.424 789.294 822.957 914.858 827.069 968Z" fill="#7CB718" stroke="#7CB718"/>
</g>
<defs>
<clipPath id="clip0_2257_4057">
<rect width="1579" height="1080" fill="white"/>
</clipPath>
</defs>
</svg>
