<svg width="541" height="3134" viewBox="0 0 541 3134" fill="none" xmlns="http://www.w3.org/2000/svg">
<path d="M456.145 1499.27C658.749 1178.31 473.182 788.524 9.65054 1.26855C167.446 631.937 158.124 934.076 30.1476 1572.77C-40.428 1816.99 45.8096 2010.26 50.6466 2266.77C42.6917 2618.57 72.6476 2804.08 133.94 3132.26C556.147 2308.77 153.609 1715.38 456.145 1499.27Z" fill="#648B22"/>
<path d="M133.647 3133.27L133.94 3132.26M133.94 3132.26C556.147 2308.77 153.609 1715.38 456.145 1499.27C658.749 1178.31 473.182 788.524 9.65054 1.26855C167.446 631.937 158.124 934.076 30.1476 1572.77C-40.428 1816.99 45.8096 2010.26 50.6466 2266.77C42.6917 2618.57 72.6476 2804.08 133.94 3132.26Z" stroke="black" stroke-width="5"/>
</svg>
