<svg width="3140" height="576" viewBox="0 0 3140 576" fill="none" xmlns="http://www.w3.org/2000/svg">
<path d="M1634.92 474.803C1953.22 681.553 2345.38 501.058 3138.58 47.7779C2505.92 197.379 2203.93 184.139 1566.95 47.8881C1323.67 -25.8495 1129.29 57.8739 872.743 59.383C521.07 46.8653 335.19 74.4123 6.24058 131.442C824.189 564.296 1422.75 169.489 1634.92 474.803Z" fill="#648B22"/>
<path d="M5.2391 131.136L6.24058 131.442M6.24058 131.442C824.189 564.296 1422.75 169.489 1634.92 474.803C1953.22 681.553 2345.38 501.058 3138.58 47.7779C2505.92 197.379 2203.93 184.139 1566.95 47.8881C1323.67 -25.8495 1129.29 57.8739 872.743 59.383C521.07 46.8653 335.19 74.4123 6.24058 131.442Z" stroke="black" stroke-width="5"/>
</svg>
